<?xml version="1.0" encoding="utf-8" standalone="no"?>
<!DOCTYPE svg PUBLIC "-//W3C//DTD SVG 1.1//EN"
  "http://www.w3.org/Graphics/SVG/1.1/DTD/svg11.dtd">
<svg xmlns:xlink="http://www.w3.org/1999/xlink" width="576pt" height="432pt" viewBox="0 0 576 432" xmlns="http://www.w3.org/2000/svg" version="1.1">
 <metadata>
  <rdf:RDF xmlns:dc="http://purl.org/dc/elements/1.1/" xmlns:cc="http://creativecommons.org/ns#" xmlns:rdf="http://www.w3.org/1999/02/22-rdf-syntax-ns#">
   <cc:Work>
    <dc:type rdf:resource="http://purl.org/dc/dcmitype/StillImage"/>
    <dc:date>2023-12-03T16:27:50.509633</dc:date>
    <dc:format>image/svg+xml</dc:format>
    <dc:creator>
     <cc:Agent>
      <dc:title>Matplotlib v3.8.2, https://matplotlib.org/</dc:title>
     </cc:Agent>
    </dc:creator>
   </cc:Work>
  </rdf:RDF>
 </metadata>
 <defs>
  <style type="text/css">*{stroke-linejoin: round; stroke-linecap: butt}</style>
 </defs>
 <g id="figure_1">
  <g id="patch_1">
   <path d="M 0 432 
L 576 432 
L 576 0 
L 0 0 
z
" style="fill: #ffffff"/>
  </g>
  <g id="axes_1">
   <g id="patch_2">
    <path d="M 72 384.48 
L 518.4 384.48 
L 518.4 51.84 
L 72 51.84 
z
" style="fill: #ffffff"/>
   </g>
   <g id="matplotlib.axis_1">
    <g id="xtick_1">
     <g id="line2d_1">
      <defs>
       <path id="mbd934659d4" d="M 0 0 
L 0 3.5 
" style="stroke: #000000; stroke-width: 0.8"/>
      </defs>
      <g>
       <use xlink:href="#mbd934659d4" x="92.290909" y="384.48" style="stroke: #000000; stroke-width: 0.8"/>
      </g>
     </g>
     <g id="text_1">
      <!-- 2901 -->
      <g transform="translate(74.475909 402.117813) scale(0.14 -0.14)">
       <defs>
        <path id="DejaVuSans-32" d="M 1228 531 
L 3431 531 
L 3431 0 
L 469 0 
L 469 531 
Q 828 903 1448 1529 
Q 2069 2156 2228 2338 
Q 2531 2678 2651 2914 
Q 2772 3150 2772 3378 
Q 2772 3750 2511 3984 
Q 2250 4219 1831 4219 
Q 1534 4219 1204 4116 
Q 875 4013 500 3803 
L 500 4441 
Q 881 4594 1212 4672 
Q 1544 4750 1819 4750 
Q 2544 4750 2975 4387 
Q 3406 4025 3406 3419 
Q 3406 3131 3298 2873 
Q 3191 2616 2906 2266 
Q 2828 2175 2409 1742 
Q 1991 1309 1228 531 
z
" transform="scale(0.015625)"/>
        <path id="DejaVuSans-39" d="M 703 97 
L 703 672 
Q 941 559 1184 500 
Q 1428 441 1663 441 
Q 2288 441 2617 861 
Q 2947 1281 2994 2138 
Q 2813 1869 2534 1725 
Q 2256 1581 1919 1581 
Q 1219 1581 811 2004 
Q 403 2428 403 3163 
Q 403 3881 828 4315 
Q 1253 4750 1959 4750 
Q 2769 4750 3195 4129 
Q 3622 3509 3622 2328 
Q 3622 1225 3098 567 
Q 2575 -91 1691 -91 
Q 1453 -91 1209 -44 
Q 966 3 703 97 
z
M 1959 2075 
Q 2384 2075 2632 2365 
Q 2881 2656 2881 3163 
Q 2881 3666 2632 3958 
Q 2384 4250 1959 4250 
Q 1534 4250 1286 3958 
Q 1038 3666 1038 3163 
Q 1038 2656 1286 2365 
Q 1534 2075 1959 2075 
z
" transform="scale(0.015625)"/>
        <path id="DejaVuSans-30" d="M 2034 4250 
Q 1547 4250 1301 3770 
Q 1056 3291 1056 2328 
Q 1056 1369 1301 889 
Q 1547 409 2034 409 
Q 2525 409 2770 889 
Q 3016 1369 3016 2328 
Q 3016 3291 2770 3770 
Q 2525 4250 2034 4250 
z
M 2034 4750 
Q 2819 4750 3233 4129 
Q 3647 3509 3647 2328 
Q 3647 1150 3233 529 
Q 2819 -91 2034 -91 
Q 1250 -91 836 529 
Q 422 1150 422 2328 
Q 422 3509 836 4129 
Q 1250 4750 2034 4750 
z
" transform="scale(0.015625)"/>
        <path id="DejaVuSans-31" d="M 794 531 
L 1825 531 
L 1825 4091 
L 703 3866 
L 703 4441 
L 1819 4666 
L 2450 4666 
L 2450 531 
L 3481 531 
L 3481 0 
L 794 0 
L 794 531 
z
" transform="scale(0.015625)"/>
       </defs>
       <use xlink:href="#DejaVuSans-32"/>
       <use xlink:href="#DejaVuSans-39" x="63.623047"/>
       <use xlink:href="#DejaVuSans-30" x="127.246094"/>
       <use xlink:href="#DejaVuSans-31" x="190.869141"/>
      </g>
     </g>
    </g>
    <g id="xtick_2">
     <g id="line2d_2">
      <g>
       <use xlink:href="#mbd934659d4" x="143.273093" y="384.48" style="stroke: #000000; stroke-width: 0.8"/>
      </g>
     </g>
     <g id="text_2">
      <!-- 2902 -->
      <g transform="translate(125.458093 402.117813) scale(0.14 -0.14)">
       <use xlink:href="#DejaVuSans-32"/>
       <use xlink:href="#DejaVuSans-39" x="63.623047"/>
       <use xlink:href="#DejaVuSans-30" x="127.246094"/>
       <use xlink:href="#DejaVuSans-32" x="190.869141"/>
      </g>
     </g>
    </g>
    <g id="xtick_3">
     <g id="line2d_3">
      <g>
       <use xlink:href="#mbd934659d4" x="194.255276" y="384.48" style="stroke: #000000; stroke-width: 0.8"/>
      </g>
     </g>
     <g id="text_3">
      <!-- 2903 -->
      <g transform="translate(176.440276 402.117813) scale(0.14 -0.14)">
       <defs>
        <path id="DejaVuSans-33" d="M 2597 2516 
Q 3050 2419 3304 2112 
Q 3559 1806 3559 1356 
Q 3559 666 3084 287 
Q 2609 -91 1734 -91 
Q 1441 -91 1130 -33 
Q 819 25 488 141 
L 488 750 
Q 750 597 1062 519 
Q 1375 441 1716 441 
Q 2309 441 2620 675 
Q 2931 909 2931 1356 
Q 2931 1769 2642 2001 
Q 2353 2234 1838 2234 
L 1294 2234 
L 1294 2753 
L 1863 2753 
Q 2328 2753 2575 2939 
Q 2822 3125 2822 3475 
Q 2822 3834 2567 4026 
Q 2313 4219 1838 4219 
Q 1578 4219 1281 4162 
Q 984 4106 628 3988 
L 628 4550 
Q 988 4650 1302 4700 
Q 1616 4750 1894 4750 
Q 2613 4750 3031 4423 
Q 3450 4097 3450 3541 
Q 3450 3153 3228 2886 
Q 3006 2619 2597 2516 
z
" transform="scale(0.015625)"/>
       </defs>
       <use xlink:href="#DejaVuSans-32"/>
       <use xlink:href="#DejaVuSans-39" x="63.623047"/>
       <use xlink:href="#DejaVuSans-30" x="127.246094"/>
       <use xlink:href="#DejaVuSans-33" x="190.869141"/>
      </g>
     </g>
    </g>
    <g id="xtick_4">
     <g id="line2d_4">
      <g>
       <use xlink:href="#mbd934659d4" x="245.23746" y="384.48" style="stroke: #000000; stroke-width: 0.8"/>
      </g>
     </g>
     <g id="text_4">
      <!-- 2904 -->
      <g transform="translate(227.42246 402.117813) scale(0.14 -0.14)">
       <defs>
        <path id="DejaVuSans-34" d="M 2419 4116 
L 825 1625 
L 2419 1625 
L 2419 4116 
z
M 2253 4666 
L 3047 4666 
L 3047 1625 
L 3713 1625 
L 3713 1100 
L 3047 1100 
L 3047 0 
L 2419 0 
L 2419 1100 
L 313 1100 
L 313 1709 
L 2253 4666 
z
" transform="scale(0.015625)"/>
       </defs>
       <use xlink:href="#DejaVuSans-32"/>
       <use xlink:href="#DejaVuSans-39" x="63.623047"/>
       <use xlink:href="#DejaVuSans-30" x="127.246094"/>
       <use xlink:href="#DejaVuSans-34" x="190.869141"/>
      </g>
     </g>
    </g>
    <g id="xtick_5">
     <g id="line2d_5">
      <g>
       <use xlink:href="#mbd934659d4" x="296.219644" y="384.48" style="stroke: #000000; stroke-width: 0.8"/>
      </g>
     </g>
     <g id="text_5">
      <!-- 2905 -->
      <g transform="translate(278.404644 402.117813) scale(0.14 -0.14)">
       <defs>
        <path id="DejaVuSans-35" d="M 691 4666 
L 3169 4666 
L 3169 4134 
L 1269 4134 
L 1269 2991 
Q 1406 3038 1543 3061 
Q 1681 3084 1819 3084 
Q 2600 3084 3056 2656 
Q 3513 2228 3513 1497 
Q 3513 744 3044 326 
Q 2575 -91 1722 -91 
Q 1428 -91 1123 -41 
Q 819 9 494 109 
L 494 744 
Q 775 591 1075 516 
Q 1375 441 1709 441 
Q 2250 441 2565 725 
Q 2881 1009 2881 1497 
Q 2881 1984 2565 2268 
Q 2250 2553 1709 2553 
Q 1456 2553 1204 2497 
Q 953 2441 691 2322 
L 691 4666 
z
" transform="scale(0.015625)"/>
       </defs>
       <use xlink:href="#DejaVuSans-32"/>
       <use xlink:href="#DejaVuSans-39" x="63.623047"/>
       <use xlink:href="#DejaVuSans-30" x="127.246094"/>
       <use xlink:href="#DejaVuSans-35" x="190.869141"/>
      </g>
     </g>
    </g>
    <g id="xtick_6">
     <g id="line2d_6">
      <g>
       <use xlink:href="#mbd934659d4" x="347.201827" y="384.48" style="stroke: #000000; stroke-width: 0.8"/>
      </g>
     </g>
     <g id="text_6">
      <!-- 2906 -->
      <g transform="translate(329.386827 402.117813) scale(0.14 -0.14)">
       <defs>
        <path id="DejaVuSans-36" d="M 2113 2584 
Q 1688 2584 1439 2293 
Q 1191 2003 1191 1497 
Q 1191 994 1439 701 
Q 1688 409 2113 409 
Q 2538 409 2786 701 
Q 3034 994 3034 1497 
Q 3034 2003 2786 2293 
Q 2538 2584 2113 2584 
z
M 3366 4563 
L 3366 3988 
Q 3128 4100 2886 4159 
Q 2644 4219 2406 4219 
Q 1781 4219 1451 3797 
Q 1122 3375 1075 2522 
Q 1259 2794 1537 2939 
Q 1816 3084 2150 3084 
Q 2853 3084 3261 2657 
Q 3669 2231 3669 1497 
Q 3669 778 3244 343 
Q 2819 -91 2113 -91 
Q 1303 -91 875 529 
Q 447 1150 447 2328 
Q 447 3434 972 4092 
Q 1497 4750 2381 4750 
Q 2619 4750 2861 4703 
Q 3103 4656 3366 4563 
z
" transform="scale(0.015625)"/>
       </defs>
       <use xlink:href="#DejaVuSans-32"/>
       <use xlink:href="#DejaVuSans-39" x="63.623047"/>
       <use xlink:href="#DejaVuSans-30" x="127.246094"/>
       <use xlink:href="#DejaVuSans-36" x="190.869141"/>
      </g>
     </g>
    </g>
    <g id="xtick_7">
     <g id="line2d_7">
      <g>
       <use xlink:href="#mbd934659d4" x="398.184011" y="384.48" style="stroke: #000000; stroke-width: 0.8"/>
      </g>
     </g>
     <g id="text_7">
      <!-- 2907 -->
      <g transform="translate(380.369011 402.117813) scale(0.14 -0.14)">
       <defs>
        <path id="DejaVuSans-37" d="M 525 4666 
L 3525 4666 
L 3525 4397 
L 1831 0 
L 1172 0 
L 2766 4134 
L 525 4134 
L 525 4666 
z
" transform="scale(0.015625)"/>
       </defs>
       <use xlink:href="#DejaVuSans-32"/>
       <use xlink:href="#DejaVuSans-39" x="63.623047"/>
       <use xlink:href="#DejaVuSans-30" x="127.246094"/>
       <use xlink:href="#DejaVuSans-37" x="190.869141"/>
      </g>
     </g>
    </g>
    <g id="xtick_8">
     <g id="line2d_8">
      <g>
       <use xlink:href="#mbd934659d4" x="449.166195" y="384.48" style="stroke: #000000; stroke-width: 0.8"/>
      </g>
     </g>
     <g id="text_8">
      <!-- 2908 -->
      <g transform="translate(431.351195 402.117813) scale(0.14 -0.14)">
       <defs>
        <path id="DejaVuSans-38" d="M 2034 2216 
Q 1584 2216 1326 1975 
Q 1069 1734 1069 1313 
Q 1069 891 1326 650 
Q 1584 409 2034 409 
Q 2484 409 2743 651 
Q 3003 894 3003 1313 
Q 3003 1734 2745 1975 
Q 2488 2216 2034 2216 
z
M 1403 2484 
Q 997 2584 770 2862 
Q 544 3141 544 3541 
Q 544 4100 942 4425 
Q 1341 4750 2034 4750 
Q 2731 4750 3128 4425 
Q 3525 4100 3525 3541 
Q 3525 3141 3298 2862 
Q 3072 2584 2669 2484 
Q 3125 2378 3379 2068 
Q 3634 1759 3634 1313 
Q 3634 634 3220 271 
Q 2806 -91 2034 -91 
Q 1263 -91 848 271 
Q 434 634 434 1313 
Q 434 1759 690 2068 
Q 947 2378 1403 2484 
z
M 1172 3481 
Q 1172 3119 1398 2916 
Q 1625 2713 2034 2713 
Q 2441 2713 2670 2916 
Q 2900 3119 2900 3481 
Q 2900 3844 2670 4047 
Q 2441 4250 2034 4250 
Q 1625 4250 1398 4047 
Q 1172 3844 1172 3481 
z
" transform="scale(0.015625)"/>
       </defs>
       <use xlink:href="#DejaVuSans-32"/>
       <use xlink:href="#DejaVuSans-39" x="63.623047"/>
       <use xlink:href="#DejaVuSans-30" x="127.246094"/>
       <use xlink:href="#DejaVuSans-38" x="190.869141"/>
      </g>
     </g>
    </g>
    <g id="xtick_9">
     <g id="line2d_9">
      <g>
       <use xlink:href="#mbd934659d4" x="500.148378" y="384.48" style="stroke: #000000; stroke-width: 0.8"/>
      </g>
     </g>
     <g id="text_9">
      <!-- 2909 -->
      <g transform="translate(482.333378 402.117813) scale(0.14 -0.14)">
       <use xlink:href="#DejaVuSans-32"/>
       <use xlink:href="#DejaVuSans-39" x="63.623047"/>
       <use xlink:href="#DejaVuSans-30" x="127.246094"/>
       <use xlink:href="#DejaVuSans-39" x="190.869141"/>
      </g>
     </g>
    </g>
    <g id="text_10">
     <!-- Time steps -->
     <g transform="translate(257.059844 419.667188) scale(0.14 -0.14)">
      <defs>
       <path id="DejaVuSans-54" d="M -19 4666 
L 3928 4666 
L 3928 4134 
L 2272 4134 
L 2272 0 
L 1638 0 
L 1638 4134 
L -19 4134 
L -19 4666 
z
" transform="scale(0.015625)"/>
       <path id="DejaVuSans-69" d="M 603 3500 
L 1178 3500 
L 1178 0 
L 603 0 
L 603 3500 
z
M 603 4863 
L 1178 4863 
L 1178 4134 
L 603 4134 
L 603 4863 
z
" transform="scale(0.015625)"/>
       <path id="DejaVuSans-6d" d="M 3328 2828 
Q 3544 3216 3844 3400 
Q 4144 3584 4550 3584 
Q 5097 3584 5394 3201 
Q 5691 2819 5691 2113 
L 5691 0 
L 5113 0 
L 5113 2094 
Q 5113 2597 4934 2840 
Q 4756 3084 4391 3084 
Q 3944 3084 3684 2787 
Q 3425 2491 3425 1978 
L 3425 0 
L 2847 0 
L 2847 2094 
Q 2847 2600 2669 2842 
Q 2491 3084 2119 3084 
Q 1678 3084 1418 2786 
Q 1159 2488 1159 1978 
L 1159 0 
L 581 0 
L 581 3500 
L 1159 3500 
L 1159 2956 
Q 1356 3278 1631 3431 
Q 1906 3584 2284 3584 
Q 2666 3584 2933 3390 
Q 3200 3197 3328 2828 
z
" transform="scale(0.015625)"/>
       <path id="DejaVuSans-65" d="M 3597 1894 
L 3597 1613 
L 953 1613 
Q 991 1019 1311 708 
Q 1631 397 2203 397 
Q 2534 397 2845 478 
Q 3156 559 3463 722 
L 3463 178 
Q 3153 47 2828 -22 
Q 2503 -91 2169 -91 
Q 1331 -91 842 396 
Q 353 884 353 1716 
Q 353 2575 817 3079 
Q 1281 3584 2069 3584 
Q 2775 3584 3186 3129 
Q 3597 2675 3597 1894 
z
M 3022 2063 
Q 3016 2534 2758 2815 
Q 2500 3097 2075 3097 
Q 1594 3097 1305 2825 
Q 1016 2553 972 2059 
L 3022 2063 
z
" transform="scale(0.015625)"/>
       <path id="DejaVuSans-20" transform="scale(0.015625)"/>
       <path id="DejaVuSans-73" d="M 2834 3397 
L 2834 2853 
Q 2591 2978 2328 3040 
Q 2066 3103 1784 3103 
Q 1356 3103 1142 2972 
Q 928 2841 928 2578 
Q 928 2378 1081 2264 
Q 1234 2150 1697 2047 
L 1894 2003 
Q 2506 1872 2764 1633 
Q 3022 1394 3022 966 
Q 3022 478 2636 193 
Q 2250 -91 1575 -91 
Q 1294 -91 989 -36 
Q 684 19 347 128 
L 347 722 
Q 666 556 975 473 
Q 1284 391 1588 391 
Q 1994 391 2212 530 
Q 2431 669 2431 922 
Q 2431 1156 2273 1281 
Q 2116 1406 1581 1522 
L 1381 1569 
Q 847 1681 609 1914 
Q 372 2147 372 2553 
Q 372 3047 722 3315 
Q 1072 3584 1716 3584 
Q 2034 3584 2315 3537 
Q 2597 3491 2834 3397 
z
" transform="scale(0.015625)"/>
       <path id="DejaVuSans-74" d="M 1172 4494 
L 1172 3500 
L 2356 3500 
L 2356 3053 
L 1172 3053 
L 1172 1153 
Q 1172 725 1289 603 
Q 1406 481 1766 481 
L 2356 481 
L 2356 0 
L 1766 0 
Q 1100 0 847 248 
Q 594 497 594 1153 
L 594 3053 
L 172 3053 
L 172 3500 
L 594 3500 
L 594 4494 
L 1172 4494 
z
" transform="scale(0.015625)"/>
       <path id="DejaVuSans-70" d="M 1159 525 
L 1159 -1331 
L 581 -1331 
L 581 3500 
L 1159 3500 
L 1159 2969 
Q 1341 3281 1617 3432 
Q 1894 3584 2278 3584 
Q 2916 3584 3314 3078 
Q 3713 2572 3713 1747 
Q 3713 922 3314 415 
Q 2916 -91 2278 -91 
Q 1894 -91 1617 61 
Q 1341 213 1159 525 
z
M 3116 1747 
Q 3116 2381 2855 2742 
Q 2594 3103 2138 3103 
Q 1681 3103 1420 2742 
Q 1159 2381 1159 1747 
Q 1159 1113 1420 752 
Q 1681 391 2138 391 
Q 2594 391 2855 752 
Q 3116 1113 3116 1747 
z
" transform="scale(0.015625)"/>
      </defs>
      <use xlink:href="#DejaVuSans-54"/>
      <use xlink:href="#DejaVuSans-69" x="57.958984"/>
      <use xlink:href="#DejaVuSans-6d" x="85.742188"/>
      <use xlink:href="#DejaVuSans-65" x="183.154297"/>
      <use xlink:href="#DejaVuSans-20" x="244.677734"/>
      <use xlink:href="#DejaVuSans-73" x="276.464844"/>
      <use xlink:href="#DejaVuSans-74" x="328.564453"/>
      <use xlink:href="#DejaVuSans-65" x="367.773438"/>
      <use xlink:href="#DejaVuSans-70" x="429.296875"/>
      <use xlink:href="#DejaVuSans-73" x="492.773438"/>
     </g>
    </g>
   </g>
   <g id="matplotlib.axis_2">
    <g id="ytick_1">
     <g id="line2d_10">
      <defs>
       <path id="md63400ed07" d="M 0 0 
L -3.5 0 
" style="stroke: #000000; stroke-width: 0.8"/>
      </defs>
      <g>
       <use xlink:href="#md63400ed07" x="72" y="361.713814" style="stroke: #000000; stroke-width: 0.8"/>
      </g>
     </g>
     <g id="text_11">
      <!-- 0.1545 -->
      <g transform="translate(16.013125 367.03272) scale(0.14 -0.14)">
       <defs>
        <path id="DejaVuSans-2e" d="M 684 794 
L 1344 794 
L 1344 0 
L 684 0 
L 684 794 
z
" transform="scale(0.015625)"/>
       </defs>
       <use xlink:href="#DejaVuSans-30"/>
       <use xlink:href="#DejaVuSans-2e" x="63.623047"/>
       <use xlink:href="#DejaVuSans-31" x="95.410156"/>
       <use xlink:href="#DejaVuSans-35" x="159.033203"/>
       <use xlink:href="#DejaVuSans-34" x="222.65625"/>
       <use xlink:href="#DejaVuSans-35" x="286.279297"/>
      </g>
     </g>
    </g>
    <g id="ytick_2">
     <g id="line2d_11">
      <g>
       <use xlink:href="#md63400ed07" x="72" y="301.64092" style="stroke: #000000; stroke-width: 0.8"/>
      </g>
     </g>
     <g id="text_12">
      <!-- 0.1550 -->
      <g transform="translate(16.013125 306.959826) scale(0.14 -0.14)">
       <use xlink:href="#DejaVuSans-30"/>
       <use xlink:href="#DejaVuSans-2e" x="63.623047"/>
       <use xlink:href="#DejaVuSans-31" x="95.410156"/>
       <use xlink:href="#DejaVuSans-35" x="159.033203"/>
       <use xlink:href="#DejaVuSans-35" x="222.65625"/>
       <use xlink:href="#DejaVuSans-30" x="286.279297"/>
      </g>
     </g>
    </g>
    <g id="ytick_3">
     <g id="line2d_12">
      <g>
       <use xlink:href="#md63400ed07" x="72" y="241.568026" style="stroke: #000000; stroke-width: 0.8"/>
      </g>
     </g>
     <g id="text_13">
      <!-- 0.1555 -->
      <g transform="translate(16.013125 246.886932) scale(0.14 -0.14)">
       <use xlink:href="#DejaVuSans-30"/>
       <use xlink:href="#DejaVuSans-2e" x="63.623047"/>
       <use xlink:href="#DejaVuSans-31" x="95.410156"/>
       <use xlink:href="#DejaVuSans-35" x="159.033203"/>
       <use xlink:href="#DejaVuSans-35" x="222.65625"/>
       <use xlink:href="#DejaVuSans-35" x="286.279297"/>
      </g>
     </g>
    </g>
    <g id="ytick_4">
     <g id="line2d_13">
      <g>
       <use xlink:href="#md63400ed07" x="72" y="181.495132" style="stroke: #000000; stroke-width: 0.8"/>
      </g>
     </g>
     <g id="text_14">
      <!-- 0.1560 -->
      <g transform="translate(16.013125 186.814038) scale(0.14 -0.14)">
       <use xlink:href="#DejaVuSans-30"/>
       <use xlink:href="#DejaVuSans-2e" x="63.623047"/>
       <use xlink:href="#DejaVuSans-31" x="95.410156"/>
       <use xlink:href="#DejaVuSans-35" x="159.033203"/>
       <use xlink:href="#DejaVuSans-36" x="222.65625"/>
       <use xlink:href="#DejaVuSans-30" x="286.279297"/>
      </g>
     </g>
    </g>
    <g id="ytick_5">
     <g id="line2d_14">
      <g>
       <use xlink:href="#md63400ed07" x="72" y="121.422238" style="stroke: #000000; stroke-width: 0.8"/>
      </g>
     </g>
     <g id="text_15">
      <!-- 0.1565 -->
      <g transform="translate(16.013125 126.741145) scale(0.14 -0.14)">
       <use xlink:href="#DejaVuSans-30"/>
       <use xlink:href="#DejaVuSans-2e" x="63.623047"/>
       <use xlink:href="#DejaVuSans-31" x="95.410156"/>
       <use xlink:href="#DejaVuSans-35" x="159.033203"/>
       <use xlink:href="#DejaVuSans-36" x="222.65625"/>
       <use xlink:href="#DejaVuSans-35" x="286.279297"/>
      </g>
     </g>
    </g>
    <g id="ytick_6">
     <g id="line2d_15">
      <g>
       <use xlink:href="#md63400ed07" x="72" y="61.349345" style="stroke: #000000; stroke-width: 0.8"/>
      </g>
     </g>
     <g id="text_16">
      <!-- 0.1570 -->
      <g transform="translate(16.013125 66.668251) scale(0.14 -0.14)">
       <use xlink:href="#DejaVuSans-30"/>
       <use xlink:href="#DejaVuSans-2e" x="63.623047"/>
       <use xlink:href="#DejaVuSans-31" x="95.410156"/>
       <use xlink:href="#DejaVuSans-35" x="159.033203"/>
       <use xlink:href="#DejaVuSans-37" x="222.65625"/>
       <use xlink:href="#DejaVuSans-30" x="286.279297"/>
      </g>
     </g>
    </g>
    <g id="text_17">
     <!-- Generated power (MW) -->
     <g transform="translate(9.101562 299.80625) rotate(-90) scale(0.14 -0.14)">
      <defs>
       <path id="DejaVuSans-47" d="M 3809 666 
L 3809 1919 
L 2778 1919 
L 2778 2438 
L 4434 2438 
L 4434 434 
Q 4069 175 3628 42 
Q 3188 -91 2688 -91 
Q 1594 -91 976 548 
Q 359 1188 359 2328 
Q 359 3472 976 4111 
Q 1594 4750 2688 4750 
Q 3144 4750 3555 4637 
Q 3966 4525 4313 4306 
L 4313 3634 
Q 3963 3931 3569 4081 
Q 3175 4231 2741 4231 
Q 1884 4231 1454 3753 
Q 1025 3275 1025 2328 
Q 1025 1384 1454 906 
Q 1884 428 2741 428 
Q 3075 428 3337 486 
Q 3600 544 3809 666 
z
" transform="scale(0.015625)"/>
       <path id="DejaVuSans-6e" d="M 3513 2113 
L 3513 0 
L 2938 0 
L 2938 2094 
Q 2938 2591 2744 2837 
Q 2550 3084 2163 3084 
Q 1697 3084 1428 2787 
Q 1159 2491 1159 1978 
L 1159 0 
L 581 0 
L 581 3500 
L 1159 3500 
L 1159 2956 
Q 1366 3272 1645 3428 
Q 1925 3584 2291 3584 
Q 2894 3584 3203 3211 
Q 3513 2838 3513 2113 
z
" transform="scale(0.015625)"/>
       <path id="DejaVuSans-72" d="M 2631 2963 
Q 2534 3019 2420 3045 
Q 2306 3072 2169 3072 
Q 1681 3072 1420 2755 
Q 1159 2438 1159 1844 
L 1159 0 
L 581 0 
L 581 3500 
L 1159 3500 
L 1159 2956 
Q 1341 3275 1631 3429 
Q 1922 3584 2338 3584 
Q 2397 3584 2469 3576 
Q 2541 3569 2628 3553 
L 2631 2963 
z
" transform="scale(0.015625)"/>
       <path id="DejaVuSans-61" d="M 2194 1759 
Q 1497 1759 1228 1600 
Q 959 1441 959 1056 
Q 959 750 1161 570 
Q 1363 391 1709 391 
Q 2188 391 2477 730 
Q 2766 1069 2766 1631 
L 2766 1759 
L 2194 1759 
z
M 3341 1997 
L 3341 0 
L 2766 0 
L 2766 531 
Q 2569 213 2275 61 
Q 1981 -91 1556 -91 
Q 1019 -91 701 211 
Q 384 513 384 1019 
Q 384 1609 779 1909 
Q 1175 2209 1959 2209 
L 2766 2209 
L 2766 2266 
Q 2766 2663 2505 2880 
Q 2244 3097 1772 3097 
Q 1472 3097 1187 3025 
Q 903 2953 641 2809 
L 641 3341 
Q 956 3463 1253 3523 
Q 1550 3584 1831 3584 
Q 2591 3584 2966 3190 
Q 3341 2797 3341 1997 
z
" transform="scale(0.015625)"/>
       <path id="DejaVuSans-64" d="M 2906 2969 
L 2906 4863 
L 3481 4863 
L 3481 0 
L 2906 0 
L 2906 525 
Q 2725 213 2448 61 
Q 2172 -91 1784 -91 
Q 1150 -91 751 415 
Q 353 922 353 1747 
Q 353 2572 751 3078 
Q 1150 3584 1784 3584 
Q 2172 3584 2448 3432 
Q 2725 3281 2906 2969 
z
M 947 1747 
Q 947 1113 1208 752 
Q 1469 391 1925 391 
Q 2381 391 2643 752 
Q 2906 1113 2906 1747 
Q 2906 2381 2643 2742 
Q 2381 3103 1925 3103 
Q 1469 3103 1208 2742 
Q 947 2381 947 1747 
z
" transform="scale(0.015625)"/>
       <path id="DejaVuSans-6f" d="M 1959 3097 
Q 1497 3097 1228 2736 
Q 959 2375 959 1747 
Q 959 1119 1226 758 
Q 1494 397 1959 397 
Q 2419 397 2687 759 
Q 2956 1122 2956 1747 
Q 2956 2369 2687 2733 
Q 2419 3097 1959 3097 
z
M 1959 3584 
Q 2709 3584 3137 3096 
Q 3566 2609 3566 1747 
Q 3566 888 3137 398 
Q 2709 -91 1959 -91 
Q 1206 -91 779 398 
Q 353 888 353 1747 
Q 353 2609 779 3096 
Q 1206 3584 1959 3584 
z
" transform="scale(0.015625)"/>
       <path id="DejaVuSans-77" d="M 269 3500 
L 844 3500 
L 1563 769 
L 2278 3500 
L 2956 3500 
L 3675 769 
L 4391 3500 
L 4966 3500 
L 4050 0 
L 3372 0 
L 2619 2869 
L 1863 0 
L 1184 0 
L 269 3500 
z
" transform="scale(0.015625)"/>
       <path id="DejaVuSans-28" d="M 1984 4856 
Q 1566 4138 1362 3434 
Q 1159 2731 1159 2009 
Q 1159 1288 1364 580 
Q 1569 -128 1984 -844 
L 1484 -844 
Q 1016 -109 783 600 
Q 550 1309 550 2009 
Q 550 2706 781 3412 
Q 1013 4119 1484 4856 
L 1984 4856 
z
" transform="scale(0.015625)"/>
       <path id="DejaVuSans-4d" d="M 628 4666 
L 1569 4666 
L 2759 1491 
L 3956 4666 
L 4897 4666 
L 4897 0 
L 4281 0 
L 4281 4097 
L 3078 897 
L 2444 897 
L 1241 4097 
L 1241 0 
L 628 0 
L 628 4666 
z
" transform="scale(0.015625)"/>
       <path id="DejaVuSans-57" d="M 213 4666 
L 850 4666 
L 1831 722 
L 2809 4666 
L 3519 4666 
L 4500 722 
L 5478 4666 
L 6119 4666 
L 4947 0 
L 4153 0 
L 3169 4050 
L 2175 0 
L 1381 0 
L 213 4666 
z
" transform="scale(0.015625)"/>
       <path id="DejaVuSans-29" d="M 513 4856 
L 1013 4856 
Q 1481 4119 1714 3412 
Q 1947 2706 1947 2009 
Q 1947 1309 1714 600 
Q 1481 -109 1013 -844 
L 513 -844 
Q 928 -128 1133 580 
Q 1338 1288 1338 2009 
Q 1338 2731 1133 3434 
Q 928 4138 513 4856 
z
" transform="scale(0.015625)"/>
      </defs>
      <use xlink:href="#DejaVuSans-47"/>
      <use xlink:href="#DejaVuSans-65" x="77.490234"/>
      <use xlink:href="#DejaVuSans-6e" x="139.013672"/>
      <use xlink:href="#DejaVuSans-65" x="202.392578"/>
      <use xlink:href="#DejaVuSans-72" x="263.916016"/>
      <use xlink:href="#DejaVuSans-61" x="305.029297"/>
      <use xlink:href="#DejaVuSans-74" x="366.308594"/>
      <use xlink:href="#DejaVuSans-65" x="405.517578"/>
      <use xlink:href="#DejaVuSans-64" x="467.041016"/>
      <use xlink:href="#DejaVuSans-20" x="530.517578"/>
      <use xlink:href="#DejaVuSans-70" x="562.304688"/>
      <use xlink:href="#DejaVuSans-6f" x="625.78125"/>
      <use xlink:href="#DejaVuSans-77" x="686.962891"/>
      <use xlink:href="#DejaVuSans-65" x="768.75"/>
      <use xlink:href="#DejaVuSans-72" x="830.273438"/>
      <use xlink:href="#DejaVuSans-20" x="871.386719"/>
      <use xlink:href="#DejaVuSans-28" x="903.173828"/>
      <use xlink:href="#DejaVuSans-4d" x="942.1875"/>
      <use xlink:href="#DejaVuSans-57" x="1028.466797"/>
      <use xlink:href="#DejaVuSans-29" x="1127.34375"/>
     </g>
    </g>
   </g>
   <g id="line2d_16">
    <defs>
     <path id="m2704061b76" d="M 0 -3 
L -0.673542 -0.927051 
L -2.85317 -0.927051 
L -1.089814 0.354102 
L -1.763356 2.427051 
L -0 1.145898 
L 1.763356 2.427051 
L 1.089814 0.354102 
L 2.85317 -0.927051 
L 0.673542 -0.927051 
z
" style="stroke: #ff0000; stroke-opacity: 0.8; stroke-linejoin: bevel"/>
    </defs>
    <g clip-path="url(#p6867e624c5)">
     <use xlink:href="#m2704061b76" x="92.290909" y="360.091236" style="fill: #ff0000; fill-opacity: 0.8; stroke: #ff0000; stroke-opacity: 0.8; stroke-linejoin: bevel"/>
     <use xlink:href="#m2704061b76" x="94.330196" y="363.677535" style="fill: #ff0000; fill-opacity: 0.8; stroke: #ff0000; stroke-opacity: 0.8; stroke-linejoin: bevel"/>
     <use xlink:href="#m2704061b76" x="96.369484" y="365.750726" style="fill: #ff0000; fill-opacity: 0.8; stroke: #ff0000; stroke-opacity: 0.8; stroke-linejoin: bevel"/>
     <use xlink:href="#m2704061b76" x="98.408771" y="365.100934" style="fill: #ff0000; fill-opacity: 0.8; stroke: #ff0000; stroke-opacity: 0.8; stroke-linejoin: bevel"/>
     <use xlink:href="#m2704061b76" x="100.448058" y="364.475395" style="fill: #ff0000; fill-opacity: 0.8; stroke: #ff0000; stroke-opacity: 0.8; stroke-linejoin: bevel"/>
     <use xlink:href="#m2704061b76" x="102.487346" y="366.43049" style="fill: #ff0000; fill-opacity: 0.8; stroke: #ff0000; stroke-opacity: 0.8; stroke-linejoin: bevel"/>
     <use xlink:href="#m2704061b76" x="104.526633" y="368.890344" style="fill: #ff0000; fill-opacity: 0.8; stroke: #ff0000; stroke-opacity: 0.8; stroke-linejoin: bevel"/>
     <use xlink:href="#m2704061b76" x="106.565921" y="368.94819" style="fill: #ff0000; fill-opacity: 0.8; stroke: #ff0000; stroke-opacity: 0.8; stroke-linejoin: bevel"/>
     <use xlink:href="#m2704061b76" x="108.605208" y="367.428235" style="fill: #ff0000; fill-opacity: 0.8; stroke: #ff0000; stroke-opacity: 0.8; stroke-linejoin: bevel"/>
     <use xlink:href="#m2704061b76" x="110.644495" y="365.743568" style="fill: #ff0000; fill-opacity: 0.8; stroke: #ff0000; stroke-opacity: 0.8; stroke-linejoin: bevel"/>
     <use xlink:href="#m2704061b76" x="112.683783" y="364.013056" style="fill: #ff0000; fill-opacity: 0.8; stroke: #ff0000; stroke-opacity: 0.8; stroke-linejoin: bevel"/>
     <use xlink:href="#m2704061b76" x="114.72307" y="359.974083" style="fill: #ff0000; fill-opacity: 0.8; stroke: #ff0000; stroke-opacity: 0.8; stroke-linejoin: bevel"/>
     <use xlink:href="#m2704061b76" x="116.762357" y="355.366932" style="fill: #ff0000; fill-opacity: 0.8; stroke: #ff0000; stroke-opacity: 0.8; stroke-linejoin: bevel"/>
     <use xlink:href="#m2704061b76" x="118.801645" y="352.613694" style="fill: #ff0000; fill-opacity: 0.8; stroke: #ff0000; stroke-opacity: 0.8; stroke-linejoin: bevel"/>
     <use xlink:href="#m2704061b76" x="120.840932" y="349.34471" style="fill: #ff0000; fill-opacity: 0.8; stroke: #ff0000; stroke-opacity: 0.8; stroke-linejoin: bevel"/>
     <use xlink:href="#m2704061b76" x="122.880219" y="345.012068" style="fill: #ff0000; fill-opacity: 0.8; stroke: #ff0000; stroke-opacity: 0.8; stroke-linejoin: bevel"/>
     <use xlink:href="#m2704061b76" x="124.919507" y="341.923013" style="fill: #ff0000; fill-opacity: 0.8; stroke: #ff0000; stroke-opacity: 0.8; stroke-linejoin: bevel"/>
     <use xlink:href="#m2704061b76" x="126.958794" y="340.220015" style="fill: #ff0000; fill-opacity: 0.8; stroke: #ff0000; stroke-opacity: 0.8; stroke-linejoin: bevel"/>
     <use xlink:href="#m2704061b76" x="128.998081" y="337.895496" style="fill: #ff0000; fill-opacity: 0.8; stroke: #ff0000; stroke-opacity: 0.8; stroke-linejoin: bevel"/>
     <use xlink:href="#m2704061b76" x="131.037369" y="334.290106" style="fill: #ff0000; fill-opacity: 0.8; stroke: #ff0000; stroke-opacity: 0.8; stroke-linejoin: bevel"/>
     <use xlink:href="#m2704061b76" x="133.076656" y="331.00292" style="fill: #ff0000; fill-opacity: 0.8; stroke: #ff0000; stroke-opacity: 0.8; stroke-linejoin: bevel"/>
     <use xlink:href="#m2704061b76" x="135.115943" y="328.94637" style="fill: #ff0000; fill-opacity: 0.8; stroke: #ff0000; stroke-opacity: 0.8; stroke-linejoin: bevel"/>
     <use xlink:href="#m2704061b76" x="137.155231" y="327.471038" style="fill: #ff0000; fill-opacity: 0.8; stroke: #ff0000; stroke-opacity: 0.8; stroke-linejoin: bevel"/>
     <use xlink:href="#m2704061b76" x="139.194518" y="324.799135" style="fill: #ff0000; fill-opacity: 0.8; stroke: #ff0000; stroke-opacity: 0.8; stroke-linejoin: bevel"/>
     <use xlink:href="#m2704061b76" x="141.233805" y="320.383067" style="fill: #ff0000; fill-opacity: 0.8; stroke: #ff0000; stroke-opacity: 0.8; stroke-linejoin: bevel"/>
     <use xlink:href="#m2704061b76" x="143.273093" y="316.70624" style="fill: #ff0000; fill-opacity: 0.8; stroke: #ff0000; stroke-opacity: 0.8; stroke-linejoin: bevel"/>
     <use xlink:href="#m2704061b76" x="145.31238" y="315.08118" style="fill: #ff0000; fill-opacity: 0.8; stroke: #ff0000; stroke-opacity: 0.8; stroke-linejoin: bevel"/>
     <use xlink:href="#m2704061b76" x="147.351667" y="314.413467" style="fill: #ff0000; fill-opacity: 0.8; stroke: #ff0000; stroke-opacity: 0.8; stroke-linejoin: bevel"/>
     <use xlink:href="#m2704061b76" x="149.390955" y="313.858701" style="fill: #ff0000; fill-opacity: 0.8; stroke: #ff0000; stroke-opacity: 0.8; stroke-linejoin: bevel"/>
     <use xlink:href="#m2704061b76" x="151.430242" y="313.283895" style="fill: #ff0000; fill-opacity: 0.8; stroke: #ff0000; stroke-opacity: 0.8; stroke-linejoin: bevel"/>
     <use xlink:href="#m2704061b76" x="153.469529" y="312.698597" style="fill: #ff0000; fill-opacity: 0.8; stroke: #ff0000; stroke-opacity: 0.8; stroke-linejoin: bevel"/>
     <use xlink:href="#m2704061b76" x="155.508817" y="312.14834" style="fill: #ff0000; fill-opacity: 0.8; stroke: #ff0000; stroke-opacity: 0.8; stroke-linejoin: bevel"/>
     <use xlink:href="#m2704061b76" x="157.548104" y="311.920892" style="fill: #ff0000; fill-opacity: 0.8; stroke: #ff0000; stroke-opacity: 0.8; stroke-linejoin: bevel"/>
     <use xlink:href="#m2704061b76" x="159.587392" y="312.510399" style="fill: #ff0000; fill-opacity: 0.8; stroke: #ff0000; stroke-opacity: 0.8; stroke-linejoin: bevel"/>
     <use xlink:href="#m2704061b76" x="161.626679" y="313.573216" style="fill: #ff0000; fill-opacity: 0.8; stroke: #ff0000; stroke-opacity: 0.8; stroke-linejoin: bevel"/>
     <use xlink:href="#m2704061b76" x="163.665966" y="314.114073" style="fill: #ff0000; fill-opacity: 0.8; stroke: #ff0000; stroke-opacity: 0.8; stroke-linejoin: bevel"/>
     <use xlink:href="#m2704061b76" x="165.705254" y="313.897634" style="fill: #ff0000; fill-opacity: 0.8; stroke: #ff0000; stroke-opacity: 0.8; stroke-linejoin: bevel"/>
     <use xlink:href="#m2704061b76" x="167.744541" y="313.347437" style="fill: #ff0000; fill-opacity: 0.8; stroke: #ff0000; stroke-opacity: 0.8; stroke-linejoin: bevel"/>
     <use xlink:href="#m2704061b76" x="169.783828" y="312.740522" style="fill: #ff0000; fill-opacity: 0.8; stroke: #ff0000; stroke-opacity: 0.8; stroke-linejoin: bevel"/>
     <use xlink:href="#m2704061b76" x="171.823116" y="312.121752" style="fill: #ff0000; fill-opacity: 0.8; stroke: #ff0000; stroke-opacity: 0.8; stroke-linejoin: bevel"/>
     <use xlink:href="#m2704061b76" x="173.862403" y="318.215308" style="fill: #ff0000; fill-opacity: 0.8; stroke: #ff0000; stroke-opacity: 0.8; stroke-linejoin: bevel"/>
     <use xlink:href="#m2704061b76" x="175.90169" y="329.12684" style="fill: #ff0000; fill-opacity: 0.8; stroke: #ff0000; stroke-opacity: 0.8; stroke-linejoin: bevel"/>
     <use xlink:href="#m2704061b76" x="177.940978" y="315.109007" style="fill: #ff0000; fill-opacity: 0.8; stroke: #ff0000; stroke-opacity: 0.8; stroke-linejoin: bevel"/>
     <use xlink:href="#m2704061b76" x="179.980265" y="310.827435" style="fill: #ff0000; fill-opacity: 0.8; stroke: #ff0000; stroke-opacity: 0.8; stroke-linejoin: bevel"/>
     <use xlink:href="#m2704061b76" x="182.019552" y="281.625947" style="fill: #ff0000; fill-opacity: 0.8; stroke: #ff0000; stroke-opacity: 0.8; stroke-linejoin: bevel"/>
     <use xlink:href="#m2704061b76" x="184.05884" y="218.473493" style="fill: #ff0000; fill-opacity: 0.8; stroke: #ff0000; stroke-opacity: 0.8; stroke-linejoin: bevel"/>
     <use xlink:href="#m2704061b76" x="186.098127" y="216.209135" style="fill: #ff0000; fill-opacity: 0.8; stroke: #ff0000; stroke-opacity: 0.8; stroke-linejoin: bevel"/>
     <use xlink:href="#m2704061b76" x="188.137414" y="214.013471" style="fill: #ff0000; fill-opacity: 0.8; stroke: #ff0000; stroke-opacity: 0.8; stroke-linejoin: bevel"/>
     <use xlink:href="#m2704061b76" x="190.176702" y="212.985851" style="fill: #ff0000; fill-opacity: 0.8; stroke: #ff0000; stroke-opacity: 0.8; stroke-linejoin: bevel"/>
     <use xlink:href="#m2704061b76" x="192.215989" y="211.034647" style="fill: #ff0000; fill-opacity: 0.8; stroke: #ff0000; stroke-opacity: 0.8; stroke-linejoin: bevel"/>
     <use xlink:href="#m2704061b76" x="194.255276" y="209.016613" style="fill: #ff0000; fill-opacity: 0.8; stroke: #ff0000; stroke-opacity: 0.8; stroke-linejoin: bevel"/>
     <use xlink:href="#m2704061b76" x="196.294564" y="206.694289" style="fill: #ff0000; fill-opacity: 0.8; stroke: #ff0000; stroke-opacity: 0.8; stroke-linejoin: bevel"/>
     <use xlink:href="#m2704061b76" x="198.333851" y="206.267343" style="fill: #ff0000; fill-opacity: 0.8; stroke: #ff0000; stroke-opacity: 0.8; stroke-linejoin: bevel"/>
     <use xlink:href="#m2704061b76" x="200.373138" y="200.290589" style="fill: #ff0000; fill-opacity: 0.8; stroke: #ff0000; stroke-opacity: 0.8; stroke-linejoin: bevel"/>
     <use xlink:href="#m2704061b76" x="202.412426" y="192.504471" style="fill: #ff0000; fill-opacity: 0.8; stroke: #ff0000; stroke-opacity: 0.8; stroke-linejoin: bevel"/>
     <use xlink:href="#m2704061b76" x="204.451713" y="190.25605" style="fill: #ff0000; fill-opacity: 0.8; stroke: #ff0000; stroke-opacity: 0.8; stroke-linejoin: bevel"/>
     <use xlink:href="#m2704061b76" x="206.491" y="185.354939" style="fill: #ff0000; fill-opacity: 0.8; stroke: #ff0000; stroke-opacity: 0.8; stroke-linejoin: bevel"/>
     <use xlink:href="#m2704061b76" x="208.530288" y="174.952297" style="fill: #ff0000; fill-opacity: 0.8; stroke: #ff0000; stroke-opacity: 0.8; stroke-linejoin: bevel"/>
     <use xlink:href="#m2704061b76" x="210.569575" y="179.044346" style="fill: #ff0000; fill-opacity: 0.8; stroke: #ff0000; stroke-opacity: 0.8; stroke-linejoin: bevel"/>
     <use xlink:href="#m2704061b76" x="212.608862" y="178.12004" style="fill: #ff0000; fill-opacity: 0.8; stroke: #ff0000; stroke-opacity: 0.8; stroke-linejoin: bevel"/>
     <use xlink:href="#m2704061b76" x="214.64815" y="175.697973" style="fill: #ff0000; fill-opacity: 0.8; stroke: #ff0000; stroke-opacity: 0.8; stroke-linejoin: bevel"/>
     <use xlink:href="#m2704061b76" x="216.687437" y="173.954923" style="fill: #ff0000; fill-opacity: 0.8; stroke: #ff0000; stroke-opacity: 0.8; stroke-linejoin: bevel"/>
     <use xlink:href="#m2704061b76" x="218.726725" y="173.62363" style="fill: #ff0000; fill-opacity: 0.8; stroke: #ff0000; stroke-opacity: 0.8; stroke-linejoin: bevel"/>
     <use xlink:href="#m2704061b76" x="220.766012" y="146.031304" style="fill: #ff0000; fill-opacity: 0.8; stroke: #ff0000; stroke-opacity: 0.8; stroke-linejoin: bevel"/>
     <use xlink:href="#m2704061b76" x="222.805299" y="139.642947" style="fill: #ff0000; fill-opacity: 0.8; stroke: #ff0000; stroke-opacity: 0.8; stroke-linejoin: bevel"/>
     <use xlink:href="#m2704061b76" x="224.844587" y="135.044833" style="fill: #ff0000; fill-opacity: 0.8; stroke: #ff0000; stroke-opacity: 0.8; stroke-linejoin: bevel"/>
     <use xlink:href="#m2704061b76" x="226.883874" y="124.066856" style="fill: #ff0000; fill-opacity: 0.8; stroke: #ff0000; stroke-opacity: 0.8; stroke-linejoin: bevel"/>
     <use xlink:href="#m2704061b76" x="228.923161" y="121.845575" style="fill: #ff0000; fill-opacity: 0.8; stroke: #ff0000; stroke-opacity: 0.8; stroke-linejoin: bevel"/>
     <use xlink:href="#m2704061b76" x="230.962449" y="120.818636" style="fill: #ff0000; fill-opacity: 0.8; stroke: #ff0000; stroke-opacity: 0.8; stroke-linejoin: bevel"/>
     <use xlink:href="#m2704061b76" x="233.001736" y="119.841845" style="fill: #ff0000; fill-opacity: 0.8; stroke: #ff0000; stroke-opacity: 0.8; stroke-linejoin: bevel"/>
     <use xlink:href="#m2704061b76" x="235.041023" y="120.065606" style="fill: #ff0000; fill-opacity: 0.8; stroke: #ff0000; stroke-opacity: 0.8; stroke-linejoin: bevel"/>
     <use xlink:href="#m2704061b76" x="237.080311" y="121.75022" style="fill: #ff0000; fill-opacity: 0.8; stroke: #ff0000; stroke-opacity: 0.8; stroke-linejoin: bevel"/>
     <use xlink:href="#m2704061b76" x="239.119598" y="125.819855" style="fill: #ff0000; fill-opacity: 0.8; stroke: #ff0000; stroke-opacity: 0.8; stroke-linejoin: bevel"/>
     <use xlink:href="#m2704061b76" x="241.158885" y="131.36414" style="fill: #ff0000; fill-opacity: 0.8; stroke: #ff0000; stroke-opacity: 0.8; stroke-linejoin: bevel"/>
     <use xlink:href="#m2704061b76" x="243.198173" y="133.815537" style="fill: #ff0000; fill-opacity: 0.8; stroke: #ff0000; stroke-opacity: 0.8; stroke-linejoin: bevel"/>
     <use xlink:href="#m2704061b76" x="245.23746" y="133.146335" style="fill: #ff0000; fill-opacity: 0.8; stroke: #ff0000; stroke-opacity: 0.8; stroke-linejoin: bevel"/>
     <use xlink:href="#m2704061b76" x="247.276747" y="132.077997" style="fill: #ff0000; fill-opacity: 0.8; stroke: #ff0000; stroke-opacity: 0.8; stroke-linejoin: bevel"/>
     <use xlink:href="#m2704061b76" x="249.316035" y="131.008138" style="fill: #ff0000; fill-opacity: 0.8; stroke: #ff0000; stroke-opacity: 0.8; stroke-linejoin: bevel"/>
     <use xlink:href="#m2704061b76" x="251.355322" y="129.936119" style="fill: #ff0000; fill-opacity: 0.8; stroke: #ff0000; stroke-opacity: 0.8; stroke-linejoin: bevel"/>
     <use xlink:href="#m2704061b76" x="253.394609" y="128.690979" style="fill: #ff0000; fill-opacity: 0.8; stroke: #ff0000; stroke-opacity: 0.8; stroke-linejoin: bevel"/>
     <use xlink:href="#m2704061b76" x="255.433897" y="124.273024" style="fill: #ff0000; fill-opacity: 0.8; stroke: #ff0000; stroke-opacity: 0.8; stroke-linejoin: bevel"/>
     <use xlink:href="#m2704061b76" x="257.473184" y="108.309483" style="fill: #ff0000; fill-opacity: 0.8; stroke: #ff0000; stroke-opacity: 0.8; stroke-linejoin: bevel"/>
     <use xlink:href="#m2704061b76" x="259.512471" y="86.61171" style="fill: #ff0000; fill-opacity: 0.8; stroke: #ff0000; stroke-opacity: 0.8; stroke-linejoin: bevel"/>
     <use xlink:href="#m2704061b76" x="261.551759" y="79.395352" style="fill: #ff0000; fill-opacity: 0.8; stroke: #ff0000; stroke-opacity: 0.8; stroke-linejoin: bevel"/>
     <use xlink:href="#m2704061b76" x="263.591046" y="78.455293" style="fill: #ff0000; fill-opacity: 0.8; stroke: #ff0000; stroke-opacity: 0.8; stroke-linejoin: bevel"/>
     <use xlink:href="#m2704061b76" x="265.630333" y="78.642997" style="fill: #ff0000; fill-opacity: 0.8; stroke: #ff0000; stroke-opacity: 0.8; stroke-linejoin: bevel"/>
     <use xlink:href="#m2704061b76" x="267.669621" y="78.538788" style="fill: #ff0000; fill-opacity: 0.8; stroke: #ff0000; stroke-opacity: 0.8; stroke-linejoin: bevel"/>
     <use xlink:href="#m2704061b76" x="269.708908" y="78.495289" style="fill: #ff0000; fill-opacity: 0.8; stroke: #ff0000; stroke-opacity: 0.8; stroke-linejoin: bevel"/>
     <use xlink:href="#m2704061b76" x="271.748196" y="78.87603" style="fill: #ff0000; fill-opacity: 0.8; stroke: #ff0000; stroke-opacity: 0.8; stroke-linejoin: bevel"/>
     <use xlink:href="#m2704061b76" x="273.787483" y="79.32061" style="fill: #ff0000; fill-opacity: 0.8; stroke: #ff0000; stroke-opacity: 0.8; stroke-linejoin: bevel"/>
     <use xlink:href="#m2704061b76" x="275.82677" y="79.365955" style="fill: #ff0000; fill-opacity: 0.8; stroke: #ff0000; stroke-opacity: 0.8; stroke-linejoin: bevel"/>
     <use xlink:href="#m2704061b76" x="277.866058" y="77.563493" style="fill: #ff0000; fill-opacity: 0.8; stroke: #ff0000; stroke-opacity: 0.8; stroke-linejoin: bevel"/>
     <use xlink:href="#m2704061b76" x="279.905345" y="73.550899" style="fill: #ff0000; fill-opacity: 0.8; stroke: #ff0000; stroke-opacity: 0.8; stroke-linejoin: bevel"/>
     <use xlink:href="#m2704061b76" x="281.944632" y="70.977317" style="fill: #ff0000; fill-opacity: 0.8; stroke: #ff0000; stroke-opacity: 0.8; stroke-linejoin: bevel"/>
     <use xlink:href="#m2704061b76" x="283.98392" y="70.701313" style="fill: #ff0000; fill-opacity: 0.8; stroke: #ff0000; stroke-opacity: 0.8; stroke-linejoin: bevel"/>
     <use xlink:href="#m2704061b76" x="286.023207" y="71.258216" style="fill: #ff0000; fill-opacity: 0.8; stroke: #ff0000; stroke-opacity: 0.8; stroke-linejoin: bevel"/>
     <use xlink:href="#m2704061b76" x="288.062494" y="71.931863" style="fill: #ff0000; fill-opacity: 0.8; stroke: #ff0000; stroke-opacity: 0.8; stroke-linejoin: bevel"/>
     <use xlink:href="#m2704061b76" x="290.101782" y="72.617703" style="fill: #ff0000; fill-opacity: 0.8; stroke: #ff0000; stroke-opacity: 0.8; stroke-linejoin: bevel"/>
     <use xlink:href="#m2704061b76" x="292.141069" y="73.306663" style="fill: #ff0000; fill-opacity: 0.8; stroke: #ff0000; stroke-opacity: 0.8; stroke-linejoin: bevel"/>
     <use xlink:href="#m2704061b76" x="294.180356" y="73.981465" style="fill: #ff0000; fill-opacity: 0.8; stroke: #ff0000; stroke-opacity: 0.8; stroke-linejoin: bevel"/>
     <use xlink:href="#m2704061b76" x="296.219644" y="71.228877" style="fill: #ff0000; fill-opacity: 0.8; stroke: #ff0000; stroke-opacity: 0.8; stroke-linejoin: bevel"/>
     <use xlink:href="#m2704061b76" x="298.258931" y="66.96" style="fill: #ff0000; fill-opacity: 0.8; stroke: #ff0000; stroke-opacity: 0.8; stroke-linejoin: bevel"/>
     <use xlink:href="#m2704061b76" x="300.298218" y="74.3689" style="fill: #ff0000; fill-opacity: 0.8; stroke: #ff0000; stroke-opacity: 0.8; stroke-linejoin: bevel"/>
     <use xlink:href="#m2704061b76" x="302.337506" y="75.716092" style="fill: #ff0000; fill-opacity: 0.8; stroke: #ff0000; stroke-opacity: 0.8; stroke-linejoin: bevel"/>
     <use xlink:href="#m2704061b76" x="304.376793" y="97.685189" style="fill: #ff0000; fill-opacity: 0.8; stroke: #ff0000; stroke-opacity: 0.8; stroke-linejoin: bevel"/>
     <use xlink:href="#m2704061b76" x="306.41608" y="170.488205" style="fill: #ff0000; fill-opacity: 0.8; stroke: #ff0000; stroke-opacity: 0.8; stroke-linejoin: bevel"/>
     <use xlink:href="#m2704061b76" x="308.455368" y="171.931782" style="fill: #ff0000; fill-opacity: 0.8; stroke: #ff0000; stroke-opacity: 0.8; stroke-linejoin: bevel"/>
     <use xlink:href="#m2704061b76" x="310.494655" y="172.826311" style="fill: #ff0000; fill-opacity: 0.8; stroke: #ff0000; stroke-opacity: 0.8; stroke-linejoin: bevel"/>
     <use xlink:href="#m2704061b76" x="312.533942" y="167.132721" style="fill: #ff0000; fill-opacity: 0.8; stroke: #ff0000; stroke-opacity: 0.8; stroke-linejoin: bevel"/>
     <use xlink:href="#m2704061b76" x="314.57323" y="168.170636" style="fill: #ff0000; fill-opacity: 0.8; stroke: #ff0000; stroke-opacity: 0.8; stroke-linejoin: bevel"/>
     <use xlink:href="#m2704061b76" x="316.612517" y="169.266697" style="fill: #ff0000; fill-opacity: 0.8; stroke: #ff0000; stroke-opacity: 0.8; stroke-linejoin: bevel"/>
     <use xlink:href="#m2704061b76" x="318.651804" y="168.542777" style="fill: #ff0000; fill-opacity: 0.8; stroke: #ff0000; stroke-opacity: 0.8; stroke-linejoin: bevel"/>
     <use xlink:href="#m2704061b76" x="320.691092" y="168.036143" style="fill: #ff0000; fill-opacity: 0.8; stroke: #ff0000; stroke-opacity: 0.8; stroke-linejoin: bevel"/>
     <use xlink:href="#m2704061b76" x="322.730379" y="180.108631" style="fill: #ff0000; fill-opacity: 0.8; stroke: #ff0000; stroke-opacity: 0.8; stroke-linejoin: bevel"/>
     <use xlink:href="#m2704061b76" x="324.769667" y="183.725905" style="fill: #ff0000; fill-opacity: 0.8; stroke: #ff0000; stroke-opacity: 0.8; stroke-linejoin: bevel"/>
     <use xlink:href="#m2704061b76" x="326.808954" y="185.412329" style="fill: #ff0000; fill-opacity: 0.8; stroke: #ff0000; stroke-opacity: 0.8; stroke-linejoin: bevel"/>
     <use xlink:href="#m2704061b76" x="328.848241" y="187.111123" style="fill: #ff0000; fill-opacity: 0.8; stroke: #ff0000; stroke-opacity: 0.8; stroke-linejoin: bevel"/>
     <use xlink:href="#m2704061b76" x="330.887529" y="190.186963" style="fill: #ff0000; fill-opacity: 0.8; stroke: #ff0000; stroke-opacity: 0.8; stroke-linejoin: bevel"/>
     <use xlink:href="#m2704061b76" x="332.926816" y="190.735909" style="fill: #ff0000; fill-opacity: 0.8; stroke: #ff0000; stroke-opacity: 0.8; stroke-linejoin: bevel"/>
     <use xlink:href="#m2704061b76" x="334.966103" y="191.822444" style="fill: #ff0000; fill-opacity: 0.8; stroke: #ff0000; stroke-opacity: 0.8; stroke-linejoin: bevel"/>
     <use xlink:href="#m2704061b76" x="337.005391" y="200.191475" style="fill: #ff0000; fill-opacity: 0.8; stroke: #ff0000; stroke-opacity: 0.8; stroke-linejoin: bevel"/>
     <use xlink:href="#m2704061b76" x="339.044678" y="215.735581" style="fill: #ff0000; fill-opacity: 0.8; stroke: #ff0000; stroke-opacity: 0.8; stroke-linejoin: bevel"/>
     <use xlink:href="#m2704061b76" x="341.083965" y="230.999727" style="fill: #ff0000; fill-opacity: 0.8; stroke: #ff0000; stroke-opacity: 0.8; stroke-linejoin: bevel"/>
     <use xlink:href="#m2704061b76" x="343.123253" y="232.087951" style="fill: #ff0000; fill-opacity: 0.8; stroke: #ff0000; stroke-opacity: 0.8; stroke-linejoin: bevel"/>
     <use xlink:href="#m2704061b76" x="345.16254" y="232.844645" style="fill: #ff0000; fill-opacity: 0.8; stroke: #ff0000; stroke-opacity: 0.8; stroke-linejoin: bevel"/>
     <use xlink:href="#m2704061b76" x="347.201827" y="233.61749" style="fill: #ff0000; fill-opacity: 0.8; stroke: #ff0000; stroke-opacity: 0.8; stroke-linejoin: bevel"/>
     <use xlink:href="#m2704061b76" x="349.241115" y="236.108252" style="fill: #ff0000; fill-opacity: 0.8; stroke: #ff0000; stroke-opacity: 0.8; stroke-linejoin: bevel"/>
     <use xlink:href="#m2704061b76" x="351.280402" y="261.26827" style="fill: #ff0000; fill-opacity: 0.8; stroke: #ff0000; stroke-opacity: 0.8; stroke-linejoin: bevel"/>
     <use xlink:href="#m2704061b76" x="353.319689" y="258.777821" style="fill: #ff0000; fill-opacity: 0.8; stroke: #ff0000; stroke-opacity: 0.8; stroke-linejoin: bevel"/>
     <use xlink:href="#m2704061b76" x="355.358977" y="256.511361" style="fill: #ff0000; fill-opacity: 0.8; stroke: #ff0000; stroke-opacity: 0.8; stroke-linejoin: bevel"/>
     <use xlink:href="#m2704061b76" x="357.398264" y="256.957677" style="fill: #ff0000; fill-opacity: 0.8; stroke: #ff0000; stroke-opacity: 0.8; stroke-linejoin: bevel"/>
     <use xlink:href="#m2704061b76" x="359.437551" y="258.270204" style="fill: #ff0000; fill-opacity: 0.8; stroke: #ff0000; stroke-opacity: 0.8; stroke-linejoin: bevel"/>
     <use xlink:href="#m2704061b76" x="361.476839" y="259.565584" style="fill: #ff0000; fill-opacity: 0.8; stroke: #ff0000; stroke-opacity: 0.8; stroke-linejoin: bevel"/>
     <use xlink:href="#m2704061b76" x="363.516126" y="260.922962" style="fill: #ff0000; fill-opacity: 0.8; stroke: #ff0000; stroke-opacity: 0.8; stroke-linejoin: bevel"/>
     <use xlink:href="#m2704061b76" x="365.555413" y="261.718316" style="fill: #ff0000; fill-opacity: 0.8; stroke: #ff0000; stroke-opacity: 0.8; stroke-linejoin: bevel"/>
     <use xlink:href="#m2704061b76" x="367.594701" y="261.716975" style="fill: #ff0000; fill-opacity: 0.8; stroke: #ff0000; stroke-opacity: 0.8; stroke-linejoin: bevel"/>
     <use xlink:href="#m2704061b76" x="369.633988" y="261.165545" style="fill: #ff0000; fill-opacity: 0.8; stroke: #ff0000; stroke-opacity: 0.8; stroke-linejoin: bevel"/>
     <use xlink:href="#m2704061b76" x="371.673275" y="255.496788" style="fill: #ff0000; fill-opacity: 0.8; stroke: #ff0000; stroke-opacity: 0.8; stroke-linejoin: bevel"/>
     <use xlink:href="#m2704061b76" x="373.712563" y="253.745926" style="fill: #ff0000; fill-opacity: 0.8; stroke: #ff0000; stroke-opacity: 0.8; stroke-linejoin: bevel"/>
     <use xlink:href="#m2704061b76" x="375.75185" y="253.430424" style="fill: #ff0000; fill-opacity: 0.8; stroke: #ff0000; stroke-opacity: 0.8; stroke-linejoin: bevel"/>
     <use xlink:href="#m2704061b76" x="377.791138" y="253.318863" style="fill: #ff0000; fill-opacity: 0.8; stroke: #ff0000; stroke-opacity: 0.8; stroke-linejoin: bevel"/>
     <use xlink:href="#m2704061b76" x="379.830425" y="253.088151" style="fill: #ff0000; fill-opacity: 0.8; stroke: #ff0000; stroke-opacity: 0.8; stroke-linejoin: bevel"/>
     <use xlink:href="#m2704061b76" x="381.869712" y="253.194611" style="fill: #ff0000; fill-opacity: 0.8; stroke: #ff0000; stroke-opacity: 0.8; stroke-linejoin: bevel"/>
     <use xlink:href="#m2704061b76" x="383.909" y="254.279611" style="fill: #ff0000; fill-opacity: 0.8; stroke: #ff0000; stroke-opacity: 0.8; stroke-linejoin: bevel"/>
     <use xlink:href="#m2704061b76" x="385.948287" y="261.716116" style="fill: #ff0000; fill-opacity: 0.8; stroke: #ff0000; stroke-opacity: 0.8; stroke-linejoin: bevel"/>
     <use xlink:href="#m2704061b76" x="387.987574" y="268.183509" style="fill: #ff0000; fill-opacity: 0.8; stroke: #ff0000; stroke-opacity: 0.8; stroke-linejoin: bevel"/>
     <use xlink:href="#m2704061b76" x="390.026862" y="270.038364" style="fill: #ff0000; fill-opacity: 0.8; stroke: #ff0000; stroke-opacity: 0.8; stroke-linejoin: bevel"/>
     <use xlink:href="#m2704061b76" x="392.066149" y="270.402033" style="fill: #ff0000; fill-opacity: 0.8; stroke: #ff0000; stroke-opacity: 0.8; stroke-linejoin: bevel"/>
     <use xlink:href="#m2704061b76" x="394.105436" y="270.447501" style="fill: #ff0000; fill-opacity: 0.8; stroke: #ff0000; stroke-opacity: 0.8; stroke-linejoin: bevel"/>
     <use xlink:href="#m2704061b76" x="396.144724" y="270.490753" style="fill: #ff0000; fill-opacity: 0.8; stroke: #ff0000; stroke-opacity: 0.8; stroke-linejoin: bevel"/>
     <use xlink:href="#m2704061b76" x="398.184011" y="270.532478" style="fill: #ff0000; fill-opacity: 0.8; stroke: #ff0000; stroke-opacity: 0.8; stroke-linejoin: bevel"/>
     <use xlink:href="#m2704061b76" x="400.223298" y="270.569882" style="fill: #ff0000; fill-opacity: 0.8; stroke: #ff0000; stroke-opacity: 0.8; stroke-linejoin: bevel"/>
     <use xlink:href="#m2704061b76" x="402.262586" y="270.59924" style="fill: #ff0000; fill-opacity: 0.8; stroke: #ff0000; stroke-opacity: 0.8; stroke-linejoin: bevel"/>
     <use xlink:href="#m2704061b76" x="404.301873" y="270.615906" style="fill: #ff0000; fill-opacity: 0.8; stroke: #ff0000; stroke-opacity: 0.8; stroke-linejoin: bevel"/>
     <use xlink:href="#m2704061b76" x="406.34116" y="270.614171" style="fill: #ff0000; fill-opacity: 0.8; stroke: #ff0000; stroke-opacity: 0.8; stroke-linejoin: bevel"/>
     <use xlink:href="#m2704061b76" x="408.380448" y="270.59127" style="fill: #ff0000; fill-opacity: 0.8; stroke: #ff0000; stroke-opacity: 0.8; stroke-linejoin: bevel"/>
     <use xlink:href="#m2704061b76" x="410.419735" y="270.612484" style="fill: #ff0000; fill-opacity: 0.8; stroke: #ff0000; stroke-opacity: 0.8; stroke-linejoin: bevel"/>
     <use xlink:href="#m2704061b76" x="412.459022" y="271.184368" style="fill: #ff0000; fill-opacity: 0.8; stroke: #ff0000; stroke-opacity: 0.8; stroke-linejoin: bevel"/>
     <use xlink:href="#m2704061b76" x="414.49831" y="272.579477" style="fill: #ff0000; fill-opacity: 0.8; stroke: #ff0000; stroke-opacity: 0.8; stroke-linejoin: bevel"/>
     <use xlink:href="#m2704061b76" x="416.537597" y="273.979472" style="fill: #ff0000; fill-opacity: 0.8; stroke: #ff0000; stroke-opacity: 0.8; stroke-linejoin: bevel"/>
     <use xlink:href="#m2704061b76" x="418.576884" y="266.779927" style="fill: #ff0000; fill-opacity: 0.8; stroke: #ff0000; stroke-opacity: 0.8; stroke-linejoin: bevel"/>
     <use xlink:href="#m2704061b76" x="420.616172" y="278.249859" style="fill: #ff0000; fill-opacity: 0.8; stroke: #ff0000; stroke-opacity: 0.8; stroke-linejoin: bevel"/>
     <use xlink:href="#m2704061b76" x="422.655459" y="260.533135" style="fill: #ff0000; fill-opacity: 0.8; stroke: #ff0000; stroke-opacity: 0.8; stroke-linejoin: bevel"/>
     <use xlink:href="#m2704061b76" x="424.694746" y="260.796735" style="fill: #ff0000; fill-opacity: 0.8; stroke: #ff0000; stroke-opacity: 0.8; stroke-linejoin: bevel"/>
     <use xlink:href="#m2704061b76" x="426.734034" y="264.334885" style="fill: #ff0000; fill-opacity: 0.8; stroke: #ff0000; stroke-opacity: 0.8; stroke-linejoin: bevel"/>
     <use xlink:href="#m2704061b76" x="428.773321" y="196.312016" style="fill: #ff0000; fill-opacity: 0.8; stroke: #ff0000; stroke-opacity: 0.8; stroke-linejoin: bevel"/>
     <use xlink:href="#m2704061b76" x="430.812608" y="196.536687" style="fill: #ff0000; fill-opacity: 0.8; stroke: #ff0000; stroke-opacity: 0.8; stroke-linejoin: bevel"/>
     <use xlink:href="#m2704061b76" x="432.851896" y="196.772894" style="fill: #ff0000; fill-opacity: 0.8; stroke: #ff0000; stroke-opacity: 0.8; stroke-linejoin: bevel"/>
     <use xlink:href="#m2704061b76" x="434.891183" y="195.609253" style="fill: #ff0000; fill-opacity: 0.8; stroke: #ff0000; stroke-opacity: 0.8; stroke-linejoin: bevel"/>
     <use xlink:href="#m2704061b76" x="436.930471" y="195.870515" style="fill: #ff0000; fill-opacity: 0.8; stroke: #ff0000; stroke-opacity: 0.8; stroke-linejoin: bevel"/>
     <use xlink:href="#m2704061b76" x="438.969758" y="195.357644" style="fill: #ff0000; fill-opacity: 0.8; stroke: #ff0000; stroke-opacity: 0.8; stroke-linejoin: bevel"/>
     <use xlink:href="#m2704061b76" x="441.009045" y="198.068872" style="fill: #ff0000; fill-opacity: 0.8; stroke: #ff0000; stroke-opacity: 0.8; stroke-linejoin: bevel"/>
     <use xlink:href="#m2704061b76" x="443.048333" y="198.462342" style="fill: #ff0000; fill-opacity: 0.8; stroke: #ff0000; stroke-opacity: 0.8; stroke-linejoin: bevel"/>
     <use xlink:href="#m2704061b76" x="445.08762" y="198.802913" style="fill: #ff0000; fill-opacity: 0.8; stroke: #ff0000; stroke-opacity: 0.8; stroke-linejoin: bevel"/>
     <use xlink:href="#m2704061b76" x="447.126907" y="199.037591" style="fill: #ff0000; fill-opacity: 0.8; stroke: #ff0000; stroke-opacity: 0.8; stroke-linejoin: bevel"/>
     <use xlink:href="#m2704061b76" x="449.166195" y="198.606765" style="fill: #ff0000; fill-opacity: 0.8; stroke: #ff0000; stroke-opacity: 0.8; stroke-linejoin: bevel"/>
     <use xlink:href="#m2704061b76" x="451.205482" y="197.100662" style="fill: #ff0000; fill-opacity: 0.8; stroke: #ff0000; stroke-opacity: 0.8; stroke-linejoin: bevel"/>
     <use xlink:href="#m2704061b76" x="453.244769" y="193.574763" style="fill: #ff0000; fill-opacity: 0.8; stroke: #ff0000; stroke-opacity: 0.8; stroke-linejoin: bevel"/>
     <use xlink:href="#m2704061b76" x="455.284057" y="184.068533" style="fill: #ff0000; fill-opacity: 0.8; stroke: #ff0000; stroke-opacity: 0.8; stroke-linejoin: bevel"/>
     <use xlink:href="#m2704061b76" x="457.323344" y="176.671704" style="fill: #ff0000; fill-opacity: 0.8; stroke: #ff0000; stroke-opacity: 0.8; stroke-linejoin: bevel"/>
     <use xlink:href="#m2704061b76" x="459.362631" y="168.558162" style="fill: #ff0000; fill-opacity: 0.8; stroke: #ff0000; stroke-opacity: 0.8; stroke-linejoin: bevel"/>
     <use xlink:href="#m2704061b76" x="461.401919" y="165.425744" style="fill: #ff0000; fill-opacity: 0.8; stroke: #ff0000; stroke-opacity: 0.8; stroke-linejoin: bevel"/>
     <use xlink:href="#m2704061b76" x="463.441206" y="153.473076" style="fill: #ff0000; fill-opacity: 0.8; stroke: #ff0000; stroke-opacity: 0.8; stroke-linejoin: bevel"/>
     <use xlink:href="#m2704061b76" x="465.480493" y="151.604595" style="fill: #ff0000; fill-opacity: 0.8; stroke: #ff0000; stroke-opacity: 0.8; stroke-linejoin: bevel"/>
     <use xlink:href="#m2704061b76" x="467.519781" y="150.44684" style="fill: #ff0000; fill-opacity: 0.8; stroke: #ff0000; stroke-opacity: 0.8; stroke-linejoin: bevel"/>
     <use xlink:href="#m2704061b76" x="469.559068" y="136.880403" style="fill: #ff0000; fill-opacity: 0.8; stroke: #ff0000; stroke-opacity: 0.8; stroke-linejoin: bevel"/>
     <use xlink:href="#m2704061b76" x="471.598355" y="121.973829" style="fill: #ff0000; fill-opacity: 0.8; stroke: #ff0000; stroke-opacity: 0.8; stroke-linejoin: bevel"/>
     <use xlink:href="#m2704061b76" x="473.637643" y="122.19551" style="fill: #ff0000; fill-opacity: 0.8; stroke: #ff0000; stroke-opacity: 0.8; stroke-linejoin: bevel"/>
     <use xlink:href="#m2704061b76" x="475.67693" y="124.40724" style="fill: #ff0000; fill-opacity: 0.8; stroke: #ff0000; stroke-opacity: 0.8; stroke-linejoin: bevel"/>
     <use xlink:href="#m2704061b76" x="477.716217" y="129.881569" style="fill: #ff0000; fill-opacity: 0.8; stroke: #ff0000; stroke-opacity: 0.8; stroke-linejoin: bevel"/>
     <use xlink:href="#m2704061b76" x="479.755505" y="131.955617" style="fill: #ff0000; fill-opacity: 0.8; stroke: #ff0000; stroke-opacity: 0.8; stroke-linejoin: bevel"/>
     <use xlink:href="#m2704061b76" x="481.794792" y="136.270414" style="fill: #ff0000; fill-opacity: 0.8; stroke: #ff0000; stroke-opacity: 0.8; stroke-linejoin: bevel"/>
     <use xlink:href="#m2704061b76" x="483.834079" y="143.376283" style="fill: #ff0000; fill-opacity: 0.8; stroke: #ff0000; stroke-opacity: 0.8; stroke-linejoin: bevel"/>
     <use xlink:href="#m2704061b76" x="485.873367" y="147.055693" style="fill: #ff0000; fill-opacity: 0.8; stroke: #ff0000; stroke-opacity: 0.8; stroke-linejoin: bevel"/>
     <use xlink:href="#m2704061b76" x="487.912654" y="147.791682" style="fill: #ff0000; fill-opacity: 0.8; stroke: #ff0000; stroke-opacity: 0.8; stroke-linejoin: bevel"/>
     <use xlink:href="#m2704061b76" x="489.951942" y="148.314423" style="fill: #ff0000; fill-opacity: 0.8; stroke: #ff0000; stroke-opacity: 0.8; stroke-linejoin: bevel"/>
     <use xlink:href="#m2704061b76" x="491.991229" y="148.796663" style="fill: #ff0000; fill-opacity: 0.8; stroke: #ff0000; stroke-opacity: 0.8; stroke-linejoin: bevel"/>
     <use xlink:href="#m2704061b76" x="494.030516" y="148.96423" style="fill: #ff0000; fill-opacity: 0.8; stroke: #ff0000; stroke-opacity: 0.8; stroke-linejoin: bevel"/>
     <use xlink:href="#m2704061b76" x="496.069804" y="148.383649" style="fill: #ff0000; fill-opacity: 0.8; stroke: #ff0000; stroke-opacity: 0.8; stroke-linejoin: bevel"/>
     <use xlink:href="#m2704061b76" x="498.109091" y="147.269011" style="fill: #ff0000; fill-opacity: 0.8; stroke: #ff0000; stroke-opacity: 0.8; stroke-linejoin: bevel"/>
    </g>
   </g>
   <g id="line2d_17">
    <path d="M 92.290909 360.51948 
L 94.330196 364.067371 
L 96.369484 366.105376 
L 100.448058 364.769578 
L 102.487346 366.698635 
L 104.526633 369.135204 
L 106.565921 369.171587 
L 108.605208 367.631033 
L 112.683783 364.170937 
L 114.72307 360.115508 
L 116.762357 355.498148 
L 118.801645 352.740705 
L 120.840932 349.474568 
L 122.880219 345.150766 
L 124.919507 342.059307 
L 126.958794 340.32302 
L 128.998081 337.95226 
L 131.037369 334.307595 
L 133.076656 330.990458 
L 135.115943 328.911578 
L 137.155231 327.419829 
L 139.194518 324.736071 
L 141.233805 320.311741 
L 143.273093 316.629504 
L 145.31238 315.001184 
L 149.390955 313.777499 
L 155.508817 312.078498 
L 157.548104 311.857677 
L 159.587392 312.454992 
L 161.626679 313.526324 
L 163.665966 314.076055 
L 165.705254 313.868759 
L 169.783828 312.730054 
L 171.823116 312.120121 
L 173.862403 318.22206 
L 175.90169 329.141642 
L 177.940978 315.13115 
L 179.980265 310.85601 
L 182.019552 281.659304 
L 184.05884 218.51212 
L 188.137414 214.058298 
L 190.176702 213.03203 
L 194.255276 209.060529 
L 196.294564 206.725422 
L 198.333851 206.28483 
L 200.373138 200.288444 
L 202.412426 192.469424 
L 204.451713 190.159155 
L 206.491 185.114834 
L 208.530288 174.256851 
L 210.569575 178.182166 
L 212.608862 177.285564 
L 214.64815 174.926724 
L 216.687437 173.243485 
L 218.726725 172.967838 
L 220.766012 145.4275 
L 222.805299 139.088951 
L 224.844587 134.539215 
L 226.883874 123.606089 
L 228.923161 121.428324 
L 233.001736 119.502976 
L 235.041023 119.747838 
L 237.080311 121.46621 
L 239.119598 125.588138 
L 241.158885 131.186201 
L 243.198173 133.691598 
L 245.23746 133.078129 
L 251.355322 130.057682 
L 253.394609 128.884198 
L 255.433897 124.542408 
L 257.473184 108.663299 
L 259.512471 87.052984 
L 261.551759 79.8884 
L 263.591046 78.958799 
L 265.630333 79.143721 
L 269.708908 78.997859 
L 273.787483 79.839357 
L 275.82677 79.895995 
L 277.866058 78.103481 
L 279.905345 74.09853 
L 281.944632 71.530118 
L 283.98392 71.255993 
L 288.062494 72.478825 
L 294.180356 74.503476 
L 296.219644 71.739947 
L 298.258931 67.453612 
L 300.298218 74.847262 
L 302.337506 76.179222 
L 304.376793 98.139785 
L 306.41608 170.91298 
L 308.455368 172.336793 
L 310.494655 173.209557 
L 312.533942 167.496673 
L 316.612517 169.56948 
L 318.651804 168.834384 
L 320.691092 168.2649 
L 322.730379 180.252745 
L 324.769667 183.728891 
L 326.808954 185.130724 
L 328.848241 185.93231 
L 330.887529 188.059362 
L 332.926816 188.679254 
L 334.966103 189.776013 
L 337.005391 198.166213 
L 341.083965 229.060875 
L 343.123253 230.21725 
L 347.201827 231.933983 
L 349.241115 234.544956 
L 351.280402 259.843268 
L 353.319689 257.507471 
L 355.358977 255.404482 
L 357.398264 256.007096 
L 363.516126 260.487238 
L 365.555413 261.46263 
L 367.594701 261.630854 
L 369.633988 261.2343 
L 371.673275 255.620332 
L 373.712563 253.532541 
L 375.75185 252.800404 
L 379.830425 252.612019 
L 381.869712 252.917454 
L 383.909 254.180371 
L 385.948287 261.775133 
L 387.987574 268.382129 
L 390.026862 270.35926 
L 392.066149 270.829394 
L 400.223298 271.297905 
L 406.34116 271.4825 
L 410.419735 271.561126 
L 412.459022 272.17562 
L 416.537597 275.05599 
L 418.576884 267.90173 
L 420.616172 279.42446 
L 422.655459 261.751502 
L 424.694746 262.044486 
L 426.734034 265.607342 
L 428.773321 197.631762 
L 432.851896 198.097637 
L 434.891183 196.934051 
L 436.930471 197.189478 
L 438.969758 196.669735 
L 441.009045 199.307911 
L 445.08762 200.060573 
L 447.126907 200.323535 
L 449.166195 199.926873 
L 451.205482 198.397797 
L 453.244769 194.800646 
L 455.284057 185.481116 
L 457.323344 178.093797 
L 459.362631 169.990904 
L 461.401919 166.875022 
L 463.441206 154.93521 
L 465.480493 153.069818 
L 467.519781 151.901074 
L 469.559068 138.302032 
L 471.598355 123.340637 
L 473.637643 123.485272 
L 475.67693 125.599427 
L 477.716217 130.968443 
L 479.755505 132.944172 
L 481.794792 137.130271 
L 483.834079 144.079015 
L 485.873367 147.590358 
L 487.912654 148.133166 
L 491.991229 148.754368 
L 496.069804 149.458927 
L 498.109091 148.73206 
L 498.109091 148.73206 
" clip-path="url(#p6867e624c5)" style="fill: none; stroke: #000000; stroke-opacity: 0.6; stroke-width: 1.5; stroke-linecap: square"/>
   </g>
   <g id="line2d_18">
    <path d="M 92.290909 360.418415 
L 94.330196 362.689908 
L 96.369484 364.767999 
L 98.408771 365.634308 
L 100.448058 365.560436 
L 102.487346 367.326157 
L 104.526633 369.36 
L 106.565921 369.010754 
L 108.605208 367.497175 
L 110.644495 365.768129 
L 112.683783 363.582763 
L 118.801645 354.05089 
L 120.840932 349.827999 
L 122.880219 344.510567 
L 124.919507 340.476186 
L 126.958794 337.971432 
L 133.076656 331.598313 
L 135.115943 329.390163 
L 137.155231 327.437692 
L 139.194518 325.767981 
L 141.233805 324.328187 
L 147.351667 320.568418 
L 155.508817 315.734157 
L 157.548104 314.894063 
L 159.587392 314.866744 
L 161.626679 315.30541 
L 163.665966 315.216663 
L 165.705254 314.370281 
L 171.823116 310.721585 
L 173.862403 316.326805 
L 175.90169 327.270645 
L 177.940978 314.157015 
L 179.980265 310.948953 
L 182.019552 282.190326 
L 184.05884 218.913283 
L 188.137414 213.733352 
L 190.176702 212.373206 
L 194.255276 207.846424 
L 196.294564 205.361631 
L 198.333851 204.792542 
L 200.373138 198.698552 
L 202.412426 190.838163 
L 204.451713 188.602791 
L 206.491 183.860018 
L 208.530288 173.90815 
L 210.569575 179.485267 
L 212.608862 179.162655 
L 214.64815 169.65492 
L 216.687437 155.90015 
L 218.726725 146.259057 
L 220.766012 141.095828 
L 222.805299 137.745847 
L 224.844587 132.956901 
L 226.883874 122.218621 
L 228.923161 120.041304 
L 230.962449 119.034405 
L 233.001736 118.325911 
L 235.041023 118.09279 
L 237.080311 119.329452 
L 239.119598 124.285336 
L 241.158885 130.080951 
L 243.198173 132.381386 
L 245.23746 132.251547 
L 251.355322 130.874864 
L 253.394609 130.157726 
L 255.433897 125.668957 
L 257.473184 108.074074 
L 259.512471 84.661544 
L 261.551759 77.112716 
L 263.591046 76.123959 
L 265.630333 76.436766 
L 271.748196 77.794352 
L 273.787483 78.290084 
L 275.82677 78.422001 
L 277.866058 76.759113 
L 279.905345 72.936824 
L 281.944632 70.597777 
L 283.98392 70.597555 
L 286.023207 71.470144 
L 290.101782 73.582125 
L 294.180356 75.85158 
L 296.219644 73.600074 
L 298.258931 69.819516 
L 300.298218 77.571895 
L 302.337506 78.449019 
L 304.376793 98.745767 
L 306.41608 169.941371 
L 310.494655 172.095289 
L 312.533942 166.700429 
L 316.612517 169.475352 
L 318.651804 169.116066 
L 320.691092 168.947673 
L 322.730379 181.265822 
L 324.769667 185.004209 
L 328.848241 188.197466 
L 330.887529 190.14605 
L 332.926816 190.085787 
L 334.966103 196.393545 
L 337.005391 215.545038 
L 339.044678 224.36136 
L 341.083965 231.491658 
L 343.123253 234.508128 
L 345.16254 235.003281 
L 347.201827 235.160592 
L 349.241115 237.624689 
L 351.280402 263.146596 
L 353.319689 263.66721 
L 355.358977 263.558018 
L 357.398264 262.964497 
L 361.476839 261.272193 
L 363.516126 261.017832 
L 365.555413 260.504657 
L 367.594701 259.507274 
L 369.633988 258.057623 
L 371.673275 251.46532 
L 373.712563 249.640259 
L 375.75185 249.427623 
L 377.791138 248.862424 
L 379.830425 248.097615 
L 381.869712 247.74119 
L 383.909 253.628031 
L 385.948287 265.934909 
L 387.987574 272.746994 
L 390.026862 274.109997 
L 392.066149 274.000924 
L 398.184011 272.932536 
L 402.262586 272.393479 
L 406.34116 272.102475 
L 410.419735 271.99798 
L 412.459022 272.559629 
L 414.49831 273.925133 
L 416.537597 274.750697 
L 418.576884 266.630396 
L 420.616172 277.602519 
L 422.655459 259.774934 
L 424.694746 260.012725 
L 426.734034 263.530382 
L 428.773321 195.465178 
L 432.851896 195.856383 
L 434.891183 194.638129 
L 436.930471 194.87613 
L 438.969758 194.396504 
L 441.009045 197.204612 
L 445.08762 197.939063 
L 447.126907 198.161568 
L 449.166195 197.667152 
L 451.205482 195.900141 
L 453.244769 192.277383 
L 457.323344 176.180814 
L 459.362631 162.236052 
L 461.401919 154.859794 
L 463.441206 149.740574 
L 465.480493 148.13809 
L 467.519781 147.706491 
L 469.559068 135.498534 
L 471.598355 121.563036 
L 473.637643 122.341686 
L 475.67693 123.968034 
L 477.716217 125.904488 
L 479.755505 128.430059 
L 481.794792 134.11539 
L 483.834079 142.243159 
L 485.873367 147.083326 
L 487.912654 148.941454 
L 491.991229 151.980343 
L 494.030516 152.988922 
L 496.069804 153.26191 
L 498.109091 153.23711 
L 498.109091 153.23711 
" clip-path="url(#p6867e624c5)" style="fill: none; stroke: #0000ff; stroke-opacity: 0.7; stroke-width: 1.5; stroke-linecap: square"/>
   </g>
   <g id="line2d_19">
    <path d="M 92.290909 358.103152 
L 94.330196 359.535153 
L 96.369484 360.67176 
L 98.408771 361.498748 
L 100.448058 361.99196 
L 102.487346 362.147133 
L 104.526633 361.974211 
L 106.565921 361.485977 
L 108.605208 360.692374 
L 110.644495 359.624651 
L 112.683783 358.313965 
L 114.72307 356.777486 
L 116.762357 355.041557 
L 120.840932 351.114574 
L 126.958794 344.647481 
L 133.076656 338.176132 
L 137.155231 334.156481 
L 141.233805 330.509042 
L 145.31238 327.304188 
L 149.390955 324.499343 
L 151.430242 323.231018 
L 155.508817 321.032883 
L 163.665966 316.908674 
L 165.705254 315.727972 
L 167.744541 314.365751 
L 169.783828 312.716656 
L 171.823116 310.621559 
L 173.862403 314.717576 
L 175.90169 323.148355 
L 177.940978 305.865087 
L 179.980265 294.932716 
L 182.019552 227.280293 
L 184.05884 220.996807 
L 186.098127 215.420936 
L 188.137414 210.968115 
L 190.176702 207.069854 
L 194.255276 199.939024 
L 196.294564 196.476531 
L 198.333851 194.451434 
L 200.373138 186.85472 
L 202.412426 177.436255 
L 210.569575 161.545778 
L 216.687437 149.080471 
L 220.766012 146.664456 
L 222.805299 143.023799 
L 228.923161 131.481383 
L 233.001736 124.118186 
L 237.080311 117.167508 
L 241.158885 110.752732 
L 245.23746 104.9457 
L 249.316035 99.807321 
L 251.355322 97.496691 
L 253.394609 95.361322 
L 255.433897 93.39683 
L 257.473184 91.60732 
L 259.512471 90.009627 
L 261.551759 88.606837 
L 263.591046 87.373055 
L 265.630333 86.287359 
L 267.669621 85.338158 
L 269.708908 84.513975 
L 273.787483 83.220233 
L 277.866058 82.36665 
L 279.905345 82.105062 
L 281.944632 81.961972 
L 283.98392 81.956874 
L 286.023207 82.090708 
L 288.062494 82.378935 
L 290.101782 82.8366 
L 292.141069 83.497776 
L 294.180356 84.40892 
L 296.219644 82.310431 
L 298.258931 79.216765 
L 300.298218 88.667679 
L 302.337506 92.927152 
L 304.376793 168.025608 
L 306.41608 172.570992 
L 308.455368 175.073427 
L 310.494655 175.1235 
L 312.533942 174.651326 
L 314.57323 174.326016 
L 316.612517 174.492971 
L 318.651804 174.30646 
L 320.691092 173.967559 
L 322.730379 186.908181 
L 324.769667 192.014417 
L 326.808954 195.931433 
L 328.848241 200.417635 
L 332.926816 210.432864 
L 334.966103 215.489346 
L 337.005391 217.14092 
L 339.044678 219.474088 
L 347.201827 237.253598 
L 349.241115 241.245391 
L 351.280402 244.987476 
L 353.319689 248.441786 
L 355.358977 251.609845 
L 357.398264 254.477949 
L 359.437551 256.887745 
L 361.476839 258.788986 
L 363.516126 260.440518 
L 365.555413 261.848432 
L 367.594701 263.032523 
L 369.633988 264.012583 
L 371.673275 264.819059 
L 373.712563 265.471534 
L 375.75185 265.983904 
L 379.830425 266.668688 
L 383.909 267.037098 
L 398.184011 267.927704 
L 402.262586 268.419199 
L 406.34116 269.083062 
L 412.459022 270.348439 
L 416.537597 270.557583 
L 418.576884 262.454697 
L 420.616172 273.567847 
L 422.655459 255.901883 
L 424.694746 256.753944 
L 426.734034 199.328563 
L 428.773321 196.211468 
L 430.812608 194.042383 
L 432.851896 194.375111 
L 434.891183 195.028408 
L 436.930471 195.484037 
L 441.009045 193.741647 
L 443.048333 192.332696 
L 445.08762 190.238663 
L 447.126907 187.49486 
L 449.166195 183.610024 
L 451.205482 178.765262 
L 455.284057 169.452499 
L 463.441206 149.888501 
L 465.480493 145.415659 
L 467.519781 141.259098 
L 469.559068 137.593806 
L 471.598355 134.640354 
L 473.637643 132.241074 
L 475.67693 130.38229 
L 477.716217 129.057881 
L 479.755505 128.291273 
L 481.794792 128.012164 
L 483.834079 128.248458 
L 485.873367 129.005839 
L 487.912654 130.213473 
L 489.951942 131.806721 
L 496.069804 137.520781 
L 498.109091 139.658893 
L 498.109091 139.658893 
" clip-path="url(#p6867e624c5)" style="fill: none; stroke: #008000; stroke-opacity: 0.7; stroke-width: 1.5; stroke-linecap: square"/>
   </g>
   <g id="patch_3">
    <path d="M 72 384.48 
L 72 51.84 
" style="fill: none; stroke: #000000; stroke-width: 0.8; stroke-linejoin: miter; stroke-linecap: square"/>
   </g>
   <g id="patch_4">
    <path d="M 518.4 384.48 
L 518.4 51.84 
" style="fill: none; stroke: #000000; stroke-width: 0.8; stroke-linejoin: miter; stroke-linecap: square"/>
   </g>
   <g id="patch_5">
    <path d="M 72 384.48 
L 518.4 384.48 
" style="fill: none; stroke: #000000; stroke-width: 0.8; stroke-linejoin: miter; stroke-linecap: square"/>
   </g>
   <g id="patch_6">
    <path d="M 72 51.84 
L 518.4 51.84 
" style="fill: none; stroke: #000000; stroke-width: 0.8; stroke-linejoin: miter; stroke-linecap: square"/>
   </g>
   <g id="legend_1">
    <g id="patch_7">
     <path d="M 253.36 381.1536 
L 481.4375 381.1536 
Q 484.2375 381.1536 484.2375 378.3536 
L 484.2375 297.5561 
Q 484.2375 294.7561 481.4375 294.7561 
L 253.36 294.7561 
Q 250.56 294.7561 250.56 297.5561 
L 250.56 378.3536 
Q 250.56 381.1536 253.36 381.1536 
z
" style="fill: #ffffff; opacity: 0.8; stroke: #cccccc; stroke-linejoin: miter"/>
    </g>
    <g id="line2d_20">
     <g>
      <use xlink:href="#m2704061b76" x="270.16" y="306.093912" style="fill: #ff0000; fill-opacity: 0.8; stroke: #ff0000; stroke-opacity: 0.8; stroke-linejoin: bevel"/>
     </g>
    </g>
    <g id="text_18">
     <!-- Full network -->
     <g transform="translate(295.36 310.993912) scale(0.14 -0.14)">
      <defs>
       <path id="DejaVuSans-46" d="M 628 4666 
L 3309 4666 
L 3309 4134 
L 1259 4134 
L 1259 2759 
L 3109 2759 
L 3109 2228 
L 1259 2228 
L 1259 0 
L 628 0 
L 628 4666 
z
" transform="scale(0.015625)"/>
       <path id="DejaVuSans-75" d="M 544 1381 
L 544 3500 
L 1119 3500 
L 1119 1403 
Q 1119 906 1312 657 
Q 1506 409 1894 409 
Q 2359 409 2629 706 
Q 2900 1003 2900 1516 
L 2900 3500 
L 3475 3500 
L 3475 0 
L 2900 0 
L 2900 538 
Q 2691 219 2414 64 
Q 2138 -91 1772 -91 
Q 1169 -91 856 284 
Q 544 659 544 1381 
z
M 1991 3584 
L 1991 3584 
z
" transform="scale(0.015625)"/>
       <path id="DejaVuSans-6c" d="M 603 4863 
L 1178 4863 
L 1178 0 
L 603 0 
L 603 4863 
z
" transform="scale(0.015625)"/>
       <path id="DejaVuSans-6b" d="M 581 4863 
L 1159 4863 
L 1159 1991 
L 2875 3500 
L 3609 3500 
L 1753 1863 
L 3688 0 
L 2938 0 
L 1159 1709 
L 1159 0 
L 581 0 
L 581 4863 
z
" transform="scale(0.015625)"/>
      </defs>
      <use xlink:href="#DejaVuSans-46"/>
      <use xlink:href="#DejaVuSans-75" x="52.019531"/>
      <use xlink:href="#DejaVuSans-6c" x="115.398438"/>
      <use xlink:href="#DejaVuSans-6c" x="143.181641"/>
      <use xlink:href="#DejaVuSans-20" x="170.964844"/>
      <use xlink:href="#DejaVuSans-6e" x="202.751953"/>
      <use xlink:href="#DejaVuSans-65" x="266.130859"/>
      <use xlink:href="#DejaVuSans-74" x="327.654297"/>
      <use xlink:href="#DejaVuSans-77" x="366.863281"/>
      <use xlink:href="#DejaVuSans-6f" x="448.650391"/>
      <use xlink:href="#DejaVuSans-72" x="509.832031"/>
      <use xlink:href="#DejaVuSans-6b" x="550.945312"/>
     </g>
    </g>
    <g id="line2d_21">
     <path d="M 256.16 326.643288 
L 270.16 326.643288 
L 284.16 326.643288 
" style="fill: none; stroke: #000000; stroke-opacity: 0.6; stroke-width: 1.5; stroke-linecap: square"/>
    </g>
    <g id="text_19">
     <!-- 2 nodes aggregated (K1) -->
     <g transform="translate(295.36 331.543288) scale(0.14 -0.14)">
      <defs>
       <path id="DejaVuSans-67" d="M 2906 1791 
Q 2906 2416 2648 2759 
Q 2391 3103 1925 3103 
Q 1463 3103 1205 2759 
Q 947 2416 947 1791 
Q 947 1169 1205 825 
Q 1463 481 1925 481 
Q 2391 481 2648 825 
Q 2906 1169 2906 1791 
z
M 3481 434 
Q 3481 -459 3084 -895 
Q 2688 -1331 1869 -1331 
Q 1566 -1331 1297 -1286 
Q 1028 -1241 775 -1147 
L 775 -588 
Q 1028 -725 1275 -790 
Q 1522 -856 1778 -856 
Q 2344 -856 2625 -561 
Q 2906 -266 2906 331 
L 2906 616 
Q 2728 306 2450 153 
Q 2172 0 1784 0 
Q 1141 0 747 490 
Q 353 981 353 1791 
Q 353 2603 747 3093 
Q 1141 3584 1784 3584 
Q 2172 3584 2450 3431 
Q 2728 3278 2906 2969 
L 2906 3500 
L 3481 3500 
L 3481 434 
z
" transform="scale(0.015625)"/>
       <path id="DejaVuSans-4b" d="M 628 4666 
L 1259 4666 
L 1259 2694 
L 3353 4666 
L 4166 4666 
L 1850 2491 
L 4331 0 
L 3500 0 
L 1259 2247 
L 1259 0 
L 628 0 
L 628 4666 
z
" transform="scale(0.015625)"/>
      </defs>
      <use xlink:href="#DejaVuSans-32"/>
      <use xlink:href="#DejaVuSans-20" x="63.623047"/>
      <use xlink:href="#DejaVuSans-6e" x="95.410156"/>
      <use xlink:href="#DejaVuSans-6f" x="158.789062"/>
      <use xlink:href="#DejaVuSans-64" x="219.970703"/>
      <use xlink:href="#DejaVuSans-65" x="283.447266"/>
      <use xlink:href="#DejaVuSans-73" x="344.970703"/>
      <use xlink:href="#DejaVuSans-20" x="397.070312"/>
      <use xlink:href="#DejaVuSans-61" x="428.857422"/>
      <use xlink:href="#DejaVuSans-67" x="490.136719"/>
      <use xlink:href="#DejaVuSans-67" x="553.613281"/>
      <use xlink:href="#DejaVuSans-72" x="617.089844"/>
      <use xlink:href="#DejaVuSans-65" x="655.953125"/>
      <use xlink:href="#DejaVuSans-67" x="717.476562"/>
      <use xlink:href="#DejaVuSans-61" x="780.953125"/>
      <use xlink:href="#DejaVuSans-74" x="842.232422"/>
      <use xlink:href="#DejaVuSans-65" x="881.441406"/>
      <use xlink:href="#DejaVuSans-64" x="942.964844"/>
      <use xlink:href="#DejaVuSans-20" x="1006.441406"/>
      <use xlink:href="#DejaVuSans-28" x="1038.228516"/>
      <use xlink:href="#DejaVuSans-4b" x="1077.242188"/>
      <use xlink:href="#DejaVuSans-31" x="1142.818359"/>
      <use xlink:href="#DejaVuSans-29" x="1206.441406"/>
     </g>
    </g>
    <g id="line2d_22">
     <path d="M 256.16 347.192663 
L 270.16 347.192663 
L 284.16 347.192663 
" style="fill: none; stroke: #0000ff; stroke-opacity: 0.7; stroke-width: 1.5; stroke-linecap: square"/>
    </g>
    <g id="text_20">
     <!-- 9 nodes aggregated (K3) -->
     <g transform="translate(295.36 352.092663) scale(0.14 -0.14)">
      <use xlink:href="#DejaVuSans-39"/>
      <use xlink:href="#DejaVuSans-20" x="63.623047"/>
      <use xlink:href="#DejaVuSans-6e" x="95.410156"/>
      <use xlink:href="#DejaVuSans-6f" x="158.789062"/>
      <use xlink:href="#DejaVuSans-64" x="219.970703"/>
      <use xlink:href="#DejaVuSans-65" x="283.447266"/>
      <use xlink:href="#DejaVuSans-73" x="344.970703"/>
      <use xlink:href="#DejaVuSans-20" x="397.070312"/>
      <use xlink:href="#DejaVuSans-61" x="428.857422"/>
      <use xlink:href="#DejaVuSans-67" x="490.136719"/>
      <use xlink:href="#DejaVuSans-67" x="553.613281"/>
      <use xlink:href="#DejaVuSans-72" x="617.089844"/>
      <use xlink:href="#DejaVuSans-65" x="655.953125"/>
      <use xlink:href="#DejaVuSans-67" x="717.476562"/>
      <use xlink:href="#DejaVuSans-61" x="780.953125"/>
      <use xlink:href="#DejaVuSans-74" x="842.232422"/>
      <use xlink:href="#DejaVuSans-65" x="881.441406"/>
      <use xlink:href="#DejaVuSans-64" x="942.964844"/>
      <use xlink:href="#DejaVuSans-20" x="1006.441406"/>
      <use xlink:href="#DejaVuSans-28" x="1038.228516"/>
      <use xlink:href="#DejaVuSans-4b" x="1077.242188"/>
      <use xlink:href="#DejaVuSans-33" x="1142.818359"/>
      <use xlink:href="#DejaVuSans-29" x="1206.441406"/>
     </g>
    </g>
    <g id="line2d_23">
     <path d="M 256.16 367.742038 
L 270.16 367.742038 
L 284.16 367.742038 
" style="fill: none; stroke: #008000; stroke-opacity: 0.7; stroke-width: 1.5; stroke-linecap: square"/>
    </g>
    <g id="text_21">
     <!-- 27 nodes aggregated (K5) -->
     <g transform="translate(295.36 372.642038) scale(0.14 -0.14)">
      <use xlink:href="#DejaVuSans-32"/>
      <use xlink:href="#DejaVuSans-37" x="63.623047"/>
      <use xlink:href="#DejaVuSans-20" x="127.246094"/>
      <use xlink:href="#DejaVuSans-6e" x="159.033203"/>
      <use xlink:href="#DejaVuSans-6f" x="222.412109"/>
      <use xlink:href="#DejaVuSans-64" x="283.59375"/>
      <use xlink:href="#DejaVuSans-65" x="347.070312"/>
      <use xlink:href="#DejaVuSans-73" x="408.59375"/>
      <use xlink:href="#DejaVuSans-20" x="460.693359"/>
      <use xlink:href="#DejaVuSans-61" x="492.480469"/>
      <use xlink:href="#DejaVuSans-67" x="553.759766"/>
      <use xlink:href="#DejaVuSans-67" x="617.236328"/>
      <use xlink:href="#DejaVuSans-72" x="680.712891"/>
      <use xlink:href="#DejaVuSans-65" x="719.576172"/>
      <use xlink:href="#DejaVuSans-67" x="781.099609"/>
      <use xlink:href="#DejaVuSans-61" x="844.576172"/>
      <use xlink:href="#DejaVuSans-74" x="905.855469"/>
      <use xlink:href="#DejaVuSans-65" x="945.064453"/>
      <use xlink:href="#DejaVuSans-64" x="1006.587891"/>
      <use xlink:href="#DejaVuSans-20" x="1070.064453"/>
      <use xlink:href="#DejaVuSans-28" x="1101.851562"/>
      <use xlink:href="#DejaVuSans-4b" x="1140.865234"/>
      <use xlink:href="#DejaVuSans-35" x="1206.441406"/>
      <use xlink:href="#DejaVuSans-29" x="1270.064453"/>
     </g>
    </g>
   </g>
  </g>
 </g>
 <defs>
  <clipPath id="p6867e624c5">
   <rect x="72" y="51.84" width="446.4" height="332.64"/>
  </clipPath>
 </defs>
</svg>
