<?xml version="1.0" encoding="utf-8" standalone="no"?>
<!DOCTYPE svg PUBLIC "-//W3C//DTD SVG 1.1//EN"
  "http://www.w3.org/Graphics/SVG/1.1/DTD/svg11.dtd">
<svg xmlns:xlink="http://www.w3.org/1999/xlink" width="720pt" height="432pt" viewBox="0 0 720 432" xmlns="http://www.w3.org/2000/svg" version="1.1">
 <metadata>
  <rdf:RDF xmlns:dc="http://purl.org/dc/elements/1.1/" xmlns:cc="http://creativecommons.org/ns#" xmlns:rdf="http://www.w3.org/1999/02/22-rdf-syntax-ns#">
   <cc:Work>
    <dc:type rdf:resource="http://purl.org/dc/dcmitype/StillImage"/>
    <dc:date>2023-12-08T11:39:25.178599</dc:date>
    <dc:format>image/svg+xml</dc:format>
    <dc:creator>
     <cc:Agent>
      <dc:title>Matplotlib v3.8.2, https://matplotlib.org/</dc:title>
     </cc:Agent>
    </dc:creator>
   </cc:Work>
  </rdf:RDF>
 </metadata>
 <defs>
  <style type="text/css">*{stroke-linejoin: round; stroke-linecap: butt}</style>
 </defs>
 <g id="figure_1">
  <g id="patch_1">
   <path d="M 0 432 
L 720 432 
L 720 0 
L 0 0 
z
" style="fill: #ffffff"/>
  </g>
  <g id="axes_1">
   <g id="patch_2">
    <path d="M 90 384.48 
L 648 384.48 
L 648 51.84 
L 90 51.84 
z
" style="fill: #ffffff"/>
   </g>
   <g id="patch_3">
    <path d="M 99.3 384.48 
L 117.9 384.48 
L 117.9 333.792 
L 99.3 333.792 
z
" clip-path="url(#pb6c12ae2c5)" style="fill: #1f77b4"/>
   </g>
   <g id="patch_4">
    <path d="M 136.5 384.48 
L 155.1 384.48 
L 155.1 321.12 
L 136.5 321.12 
z
" clip-path="url(#pb6c12ae2c5)" style="fill: #1f77b4"/>
   </g>
   <g id="patch_5">
    <path d="M 173.7 384.48 
L 192.3 384.48 
L 192.3 327.456 
L 173.7 327.456 
z
" clip-path="url(#pb6c12ae2c5)" style="fill: #1f77b4"/>
   </g>
   <g id="patch_6">
    <path d="M 210.9 384.48 
L 229.5 384.48 
L 229.5 340.128 
L 210.9 340.128 
z
" clip-path="url(#pb6c12ae2c5)" style="fill: #1f77b4"/>
   </g>
   <g id="patch_7">
    <path d="M 248.1 384.48 
L 266.7 384.48 
L 266.7 378.144 
L 248.1 378.144 
z
" clip-path="url(#pb6c12ae2c5)" style="fill: #1f77b4"/>
   </g>
   <g id="patch_8">
    <path d="M 285.3 384.48 
L 303.9 384.48 
L 303.9 365.472 
L 285.3 365.472 
z
" clip-path="url(#pb6c12ae2c5)" style="fill: #1f77b4"/>
   </g>
   <g id="patch_9">
    <path d="M 322.5 384.48 
L 341.1 384.48 
L 341.1 371.808 
L 322.5 371.808 
z
" clip-path="url(#pb6c12ae2c5)" style="fill: #1f77b4"/>
   </g>
   <g id="patch_10">
    <path d="M 359.7 384.48 
L 378.3 384.48 
L 378.3 352.8 
L 359.7 352.8 
z
" clip-path="url(#pb6c12ae2c5)" style="fill: #1f77b4"/>
   </g>
   <g id="patch_11">
    <path d="M 396.9 384.48 
L 415.5 384.48 
L 415.5 378.144 
L 396.9 378.144 
z
" clip-path="url(#pb6c12ae2c5)" style="fill: #1f77b4"/>
   </g>
   <g id="patch_12">
    <path d="M 434.1 384.48 
L 452.7 384.48 
L 452.7 371.808 
L 434.1 371.808 
z
" clip-path="url(#pb6c12ae2c5)" style="fill: #1f77b4"/>
   </g>
   <g id="patch_13">
    <path d="M 471.3 384.48 
L 489.9 384.48 
L 489.9 371.808 
L 471.3 371.808 
z
" clip-path="url(#pb6c12ae2c5)" style="fill: #1f77b4"/>
   </g>
   <g id="patch_14">
    <path d="M 508.5 384.48 
L 527.1 384.48 
L 527.1 378.144 
L 508.5 378.144 
z
" clip-path="url(#pb6c12ae2c5)" style="fill: #1f77b4"/>
   </g>
   <g id="patch_15">
    <path d="M 545.7 384.48 
L 564.3 384.48 
L 564.3 384.48 
L 545.7 384.48 
z
" clip-path="url(#pb6c12ae2c5)" style="fill: #1f77b4"/>
   </g>
   <g id="patch_16">
    <path d="M 582.9 384.48 
L 601.5 384.48 
L 601.5 378.144 
L 582.9 378.144 
z
" clip-path="url(#pb6c12ae2c5)" style="fill: #1f77b4"/>
   </g>
   <g id="patch_17">
    <path d="M 620.1 384.48 
L 638.7 384.48 
L 638.7 371.808 
L 620.1 371.808 
z
" clip-path="url(#pb6c12ae2c5)" style="fill: #1f77b4"/>
   </g>
   <g id="patch_18">
    <path d="M 99.3 333.792 
L 117.9 333.792 
L 117.9 302.112 
L 99.3 302.112 
z
" clip-path="url(#pb6c12ae2c5)" style="fill: #ff7f0e"/>
   </g>
   <g id="patch_19">
    <path d="M 136.5 321.12 
L 155.1 321.12 
L 155.1 276.768 
L 136.5 276.768 
z
" clip-path="url(#pb6c12ae2c5)" style="fill: #ff7f0e"/>
   </g>
   <g id="patch_20">
    <path d="M 173.7 327.456 
L 192.3 327.456 
L 192.3 257.76 
L 173.7 257.76 
z
" clip-path="url(#pb6c12ae2c5)" style="fill: #ff7f0e"/>
   </g>
   <g id="patch_21">
    <path d="M 210.9 340.128 
L 229.5 340.128 
L 229.5 321.12 
L 210.9 321.12 
z
" clip-path="url(#pb6c12ae2c5)" style="fill: #ff7f0e"/>
   </g>
   <g id="patch_22">
    <path d="M 248.1 384.48 
L 266.7 384.48 
L 266.7 384.48 
L 248.1 384.48 
z
" clip-path="url(#pb6c12ae2c5)" style="fill: #ff7f0e"/>
   </g>
   <g id="patch_23">
    <path d="M 285.3 384.48 
L 303.9 384.48 
L 303.9 384.48 
L 285.3 384.48 
z
" clip-path="url(#pb6c12ae2c5)" style="fill: #ff7f0e"/>
   </g>
   <g id="patch_24">
    <path d="M 322.5 384.48 
L 341.1 384.48 
L 341.1 384.48 
L 322.5 384.48 
z
" clip-path="url(#pb6c12ae2c5)" style="fill: #ff7f0e"/>
   </g>
   <g id="patch_25">
    <path d="M 359.7 352.8 
L 378.3 352.8 
L 378.3 340.128 
L 359.7 340.128 
z
" clip-path="url(#pb6c12ae2c5)" style="fill: #ff7f0e"/>
   </g>
   <g id="patch_26">
    <path d="M 396.9 378.144 
L 415.5 378.144 
L 415.5 371.808 
L 396.9 371.808 
z
" clip-path="url(#pb6c12ae2c5)" style="fill: #ff7f0e"/>
   </g>
   <g id="patch_27">
    <path d="M 434.1 384.48 
L 452.7 384.48 
L 452.7 384.48 
L 434.1 384.48 
z
" clip-path="url(#pb6c12ae2c5)" style="fill: #ff7f0e"/>
   </g>
   <g id="patch_28">
    <path d="M 471.3 384.48 
L 489.9 384.48 
L 489.9 384.48 
L 471.3 384.48 
z
" clip-path="url(#pb6c12ae2c5)" style="fill: #ff7f0e"/>
   </g>
   <g id="patch_29">
    <path d="M 508.5 384.48 
L 527.1 384.48 
L 527.1 384.48 
L 508.5 384.48 
z
" clip-path="url(#pb6c12ae2c5)" style="fill: #ff7f0e"/>
   </g>
   <g id="patch_30">
    <path d="M 545.7 384.48 
L 564.3 384.48 
L 564.3 384.48 
L 545.7 384.48 
z
" clip-path="url(#pb6c12ae2c5)" style="fill: #ff7f0e"/>
   </g>
   <g id="patch_31">
    <path d="M 582.9 384.48 
L 601.5 384.48 
L 601.5 384.48 
L 582.9 384.48 
z
" clip-path="url(#pb6c12ae2c5)" style="fill: #ff7f0e"/>
   </g>
   <g id="patch_32">
    <path d="M 620.1 384.48 
L 638.7 384.48 
L 638.7 384.48 
L 620.1 384.48 
z
" clip-path="url(#pb6c12ae2c5)" style="fill: #ff7f0e"/>
   </g>
   <g id="patch_33">
    <path d="M 99.3 302.112 
L 117.9 302.112 
L 117.9 251.424 
L 99.3 251.424 
z
" clip-path="url(#pb6c12ae2c5)" style="fill: #2ca02c"/>
   </g>
   <g id="patch_34">
    <path d="M 136.5 276.768 
L 155.1 276.768 
L 155.1 200.736 
L 136.5 200.736 
z
" clip-path="url(#pb6c12ae2c5)" style="fill: #2ca02c"/>
   </g>
   <g id="patch_35">
    <path d="M 173.7 257.76 
L 192.3 257.76 
L 192.3 175.392 
L 173.7 175.392 
z
" clip-path="url(#pb6c12ae2c5)" style="fill: #2ca02c"/>
   </g>
   <g id="patch_36">
    <path d="M 210.9 321.12 
L 229.5 321.12 
L 229.5 264.096 
L 210.9 264.096 
z
" clip-path="url(#pb6c12ae2c5)" style="fill: #2ca02c"/>
   </g>
   <g id="patch_37">
    <path d="M 248.1 378.144 
L 266.7 378.144 
L 266.7 346.464 
L 248.1 346.464 
z
" clip-path="url(#pb6c12ae2c5)" style="fill: #2ca02c"/>
   </g>
   <g id="patch_38">
    <path d="M 285.3 365.472 
L 303.9 365.472 
L 303.9 346.464 
L 285.3 346.464 
z
" clip-path="url(#pb6c12ae2c5)" style="fill: #2ca02c"/>
   </g>
   <g id="patch_39">
    <path d="M 322.5 371.808 
L 341.1 371.808 
L 341.1 365.472 
L 322.5 365.472 
z
" clip-path="url(#pb6c12ae2c5)" style="fill: #2ca02c"/>
   </g>
   <g id="patch_40">
    <path d="M 359.7 384.48 
L 378.3 384.48 
L 378.3 384.48 
L 359.7 384.48 
z
" clip-path="url(#pb6c12ae2c5)" style="fill: #2ca02c"/>
   </g>
   <g id="patch_41">
    <path d="M 396.9 384.48 
L 415.5 384.48 
L 415.5 384.48 
L 396.9 384.48 
z
" clip-path="url(#pb6c12ae2c5)" style="fill: #2ca02c"/>
   </g>
   <g id="patch_42">
    <path d="M 434.1 384.48 
L 452.7 384.48 
L 452.7 384.48 
L 434.1 384.48 
z
" clip-path="url(#pb6c12ae2c5)" style="fill: #2ca02c"/>
   </g>
   <g id="patch_43">
    <path d="M 471.3 371.808 
L 489.9 371.808 
L 489.9 359.136 
L 471.3 359.136 
z
" clip-path="url(#pb6c12ae2c5)" style="fill: #2ca02c"/>
   </g>
   <g id="patch_44">
    <path d="M 508.5 378.144 
L 527.1 378.144 
L 527.1 359.136 
L 508.5 359.136 
z
" clip-path="url(#pb6c12ae2c5)" style="fill: #2ca02c"/>
   </g>
   <g id="patch_45">
    <path d="M 545.7 384.48 
L 564.3 384.48 
L 564.3 384.48 
L 545.7 384.48 
z
" clip-path="url(#pb6c12ae2c5)" style="fill: #2ca02c"/>
   </g>
   <g id="patch_46">
    <path d="M 582.9 378.144 
L 601.5 378.144 
L 601.5 371.808 
L 582.9 371.808 
z
" clip-path="url(#pb6c12ae2c5)" style="fill: #2ca02c"/>
   </g>
   <g id="patch_47">
    <path d="M 620.1 384.48 
L 638.7 384.48 
L 638.7 384.48 
L 620.1 384.48 
z
" clip-path="url(#pb6c12ae2c5)" style="fill: #2ca02c"/>
   </g>
   <g id="patch_48">
    <path d="M 99.3 251.424 
L 117.9 251.424 
L 117.9 200.736 
L 99.3 200.736 
z
" clip-path="url(#pb6c12ae2c5)" style="fill: #d62728"/>
   </g>
   <g id="patch_49">
    <path d="M 136.5 200.736 
L 155.1 200.736 
L 155.1 124.704 
L 136.5 124.704 
z
" clip-path="url(#pb6c12ae2c5)" style="fill: #d62728"/>
   </g>
   <g id="patch_50">
    <path d="M 173.7 175.392 
L 192.3 175.392 
L 192.3 67.68 
L 173.7 67.68 
z
" clip-path="url(#pb6c12ae2c5)" style="fill: #d62728"/>
   </g>
   <g id="patch_51">
    <path d="M 210.9 264.096 
L 229.5 264.096 
L 229.5 200.736 
L 210.9 200.736 
z
" clip-path="url(#pb6c12ae2c5)" style="fill: #d62728"/>
   </g>
   <g id="patch_52">
    <path d="M 248.1 346.464 
L 266.7 346.464 
L 266.7 314.784 
L 248.1 314.784 
z
" clip-path="url(#pb6c12ae2c5)" style="fill: #d62728"/>
   </g>
   <g id="patch_53">
    <path d="M 285.3 346.464 
L 303.9 346.464 
L 303.9 289.44 
L 285.3 289.44 
z
" clip-path="url(#pb6c12ae2c5)" style="fill: #d62728"/>
   </g>
   <g id="patch_54">
    <path d="M 322.5 384.48 
L 341.1 384.48 
L 341.1 384.48 
L 322.5 384.48 
z
" clip-path="url(#pb6c12ae2c5)" style="fill: #d62728"/>
   </g>
   <g id="patch_55">
    <path d="M 359.7 340.128 
L 378.3 340.128 
L 378.3 327.456 
L 359.7 327.456 
z
" clip-path="url(#pb6c12ae2c5)" style="fill: #d62728"/>
   </g>
   <g id="patch_56">
    <path d="M 396.9 371.808 
L 415.5 371.808 
L 415.5 365.472 
L 396.9 365.472 
z
" clip-path="url(#pb6c12ae2c5)" style="fill: #d62728"/>
   </g>
   <g id="patch_57">
    <path d="M 434.1 371.808 
L 452.7 371.808 
L 452.7 333.792 
L 434.1 333.792 
z
" clip-path="url(#pb6c12ae2c5)" style="fill: #d62728"/>
   </g>
   <g id="patch_58">
    <path d="M 471.3 359.136 
L 489.9 359.136 
L 489.9 321.12 
L 471.3 321.12 
z
" clip-path="url(#pb6c12ae2c5)" style="fill: #d62728"/>
   </g>
   <g id="patch_59">
    <path d="M 508.5 359.136 
L 527.1 359.136 
L 527.1 340.128 
L 508.5 340.128 
z
" clip-path="url(#pb6c12ae2c5)" style="fill: #d62728"/>
   </g>
   <g id="patch_60">
    <path d="M 545.7 384.48 
L 564.3 384.48 
L 564.3 378.144 
L 545.7 378.144 
z
" clip-path="url(#pb6c12ae2c5)" style="fill: #d62728"/>
   </g>
   <g id="patch_61">
    <path d="M 582.9 384.48 
L 601.5 384.48 
L 601.5 384.48 
L 582.9 384.48 
z
" clip-path="url(#pb6c12ae2c5)" style="fill: #d62728"/>
   </g>
   <g id="patch_62">
    <path d="M 620.1 384.48 
L 638.7 384.48 
L 638.7 384.48 
L 620.1 384.48 
z
" clip-path="url(#pb6c12ae2c5)" style="fill: #d62728"/>
   </g>
   <g id="matplotlib.axis_1">
    <g id="xtick_1">
     <g id="line2d_1">
      <defs>
       <path id="mfa8c770e07" d="M 0 0 
L 0 3.5 
" style="stroke: #000000; stroke-width: 0.8"/>
      </defs>
      <g>
       <use xlink:href="#mfa8c770e07" x="108.6" y="384.48" style="stroke: #000000; stroke-width: 0.8"/>
      </g>
     </g>
     <g id="text_1">
      <!-- 1-0 -->
      <g transform="translate(93.900469 405.157188) scale(0.18 -0.18)">
       <defs>
        <path id="DejaVuSans-31" d="M 794 531 
L 1825 531 
L 1825 4091 
L 703 3866 
L 703 4441 
L 1819 4666 
L 2450 4666 
L 2450 531 
L 3481 531 
L 3481 0 
L 794 0 
L 794 531 
z
" transform="scale(0.015625)"/>
        <path id="DejaVuSans-2d" d="M 313 2009 
L 1997 2009 
L 1997 1497 
L 313 1497 
L 313 2009 
z
" transform="scale(0.015625)"/>
        <path id="DejaVuSans-30" d="M 2034 4250 
Q 1547 4250 1301 3770 
Q 1056 3291 1056 2328 
Q 1056 1369 1301 889 
Q 1547 409 2034 409 
Q 2525 409 2770 889 
Q 3016 1369 3016 2328 
Q 3016 3291 2770 3770 
Q 2525 4250 2034 4250 
z
M 2034 4750 
Q 2819 4750 3233 4129 
Q 3647 3509 3647 2328 
Q 3647 1150 3233 529 
Q 2819 -91 2034 -91 
Q 1250 -91 836 529 
Q 422 1150 422 2328 
Q 422 3509 836 4129 
Q 1250 4750 2034 4750 
z
" transform="scale(0.015625)"/>
       </defs>
       <use xlink:href="#DejaVuSans-31"/>
       <use xlink:href="#DejaVuSans-2d" x="63.623047"/>
       <use xlink:href="#DejaVuSans-30" x="99.707031"/>
      </g>
     </g>
    </g>
    <g id="xtick_2">
     <g id="line2d_2">
      <g>
       <use xlink:href="#mfa8c770e07" x="145.8" y="384.48" style="stroke: #000000; stroke-width: 0.8"/>
      </g>
     </g>
     <g id="text_2">
      <!-- 1-1 -->
      <g transform="translate(131.100469 405.157188) scale(0.18 -0.18)">
       <use xlink:href="#DejaVuSans-31"/>
       <use xlink:href="#DejaVuSans-2d" x="63.623047"/>
       <use xlink:href="#DejaVuSans-31" x="99.707031"/>
      </g>
     </g>
    </g>
    <g id="xtick_3">
     <g id="line2d_3">
      <g>
       <use xlink:href="#mfa8c770e07" x="183" y="384.48" style="stroke: #000000; stroke-width: 0.8"/>
      </g>
     </g>
     <g id="text_3">
      <!-- 1-2 -->
      <g transform="translate(168.300469 405.157188) scale(0.18 -0.18)">
       <defs>
        <path id="DejaVuSans-32" d="M 1228 531 
L 3431 531 
L 3431 0 
L 469 0 
L 469 531 
Q 828 903 1448 1529 
Q 2069 2156 2228 2338 
Q 2531 2678 2651 2914 
Q 2772 3150 2772 3378 
Q 2772 3750 2511 3984 
Q 2250 4219 1831 4219 
Q 1534 4219 1204 4116 
Q 875 4013 500 3803 
L 500 4441 
Q 881 4594 1212 4672 
Q 1544 4750 1819 4750 
Q 2544 4750 2975 4387 
Q 3406 4025 3406 3419 
Q 3406 3131 3298 2873 
Q 3191 2616 2906 2266 
Q 2828 2175 2409 1742 
Q 1991 1309 1228 531 
z
" transform="scale(0.015625)"/>
       </defs>
       <use xlink:href="#DejaVuSans-31"/>
       <use xlink:href="#DejaVuSans-2d" x="63.623047"/>
       <use xlink:href="#DejaVuSans-32" x="99.707031"/>
      </g>
     </g>
    </g>
    <g id="xtick_4">
     <g id="line2d_4">
      <g>
       <use xlink:href="#mfa8c770e07" x="220.2" y="384.48" style="stroke: #000000; stroke-width: 0.8"/>
      </g>
     </g>
     <g id="text_4">
      <!-- 1-3 -->
      <g transform="translate(205.500469 405.157188) scale(0.18 -0.18)">
       <defs>
        <path id="DejaVuSans-33" d="M 2597 2516 
Q 3050 2419 3304 2112 
Q 3559 1806 3559 1356 
Q 3559 666 3084 287 
Q 2609 -91 1734 -91 
Q 1441 -91 1130 -33 
Q 819 25 488 141 
L 488 750 
Q 750 597 1062 519 
Q 1375 441 1716 441 
Q 2309 441 2620 675 
Q 2931 909 2931 1356 
Q 2931 1769 2642 2001 
Q 2353 2234 1838 2234 
L 1294 2234 
L 1294 2753 
L 1863 2753 
Q 2328 2753 2575 2939 
Q 2822 3125 2822 3475 
Q 2822 3834 2567 4026 
Q 2313 4219 1838 4219 
Q 1578 4219 1281 4162 
Q 984 4106 628 3988 
L 628 4550 
Q 988 4650 1302 4700 
Q 1616 4750 1894 4750 
Q 2613 4750 3031 4423 
Q 3450 4097 3450 3541 
Q 3450 3153 3228 2886 
Q 3006 2619 2597 2516 
z
" transform="scale(0.015625)"/>
       </defs>
       <use xlink:href="#DejaVuSans-31"/>
       <use xlink:href="#DejaVuSans-2d" x="63.623047"/>
       <use xlink:href="#DejaVuSans-33" x="99.707031"/>
      </g>
     </g>
    </g>
    <g id="xtick_5">
     <g id="line2d_5">
      <g>
       <use xlink:href="#mfa8c770e07" x="257.4" y="384.48" style="stroke: #000000; stroke-width: 0.8"/>
      </g>
     </g>
     <g id="text_5">
      <!-- 1-4 -->
      <g transform="translate(242.700469 405.157188) scale(0.18 -0.18)">
       <defs>
        <path id="DejaVuSans-34" d="M 2419 4116 
L 825 1625 
L 2419 1625 
L 2419 4116 
z
M 2253 4666 
L 3047 4666 
L 3047 1625 
L 3713 1625 
L 3713 1100 
L 3047 1100 
L 3047 0 
L 2419 0 
L 2419 1100 
L 313 1100 
L 313 1709 
L 2253 4666 
z
" transform="scale(0.015625)"/>
       </defs>
       <use xlink:href="#DejaVuSans-31"/>
       <use xlink:href="#DejaVuSans-2d" x="63.623047"/>
       <use xlink:href="#DejaVuSans-34" x="99.707031"/>
      </g>
     </g>
    </g>
    <g id="xtick_6">
     <g id="line2d_6">
      <g>
       <use xlink:href="#mfa8c770e07" x="294.6" y="384.48" style="stroke: #000000; stroke-width: 0.8"/>
      </g>
     </g>
     <g id="text_6">
      <!-- 1-5 -->
      <g transform="translate(279.900469 405.157188) scale(0.18 -0.18)">
       <defs>
        <path id="DejaVuSans-35" d="M 691 4666 
L 3169 4666 
L 3169 4134 
L 1269 4134 
L 1269 2991 
Q 1406 3038 1543 3061 
Q 1681 3084 1819 3084 
Q 2600 3084 3056 2656 
Q 3513 2228 3513 1497 
Q 3513 744 3044 326 
Q 2575 -91 1722 -91 
Q 1428 -91 1123 -41 
Q 819 9 494 109 
L 494 744 
Q 775 591 1075 516 
Q 1375 441 1709 441 
Q 2250 441 2565 725 
Q 2881 1009 2881 1497 
Q 2881 1984 2565 2268 
Q 2250 2553 1709 2553 
Q 1456 2553 1204 2497 
Q 953 2441 691 2322 
L 691 4666 
z
" transform="scale(0.015625)"/>
       </defs>
       <use xlink:href="#DejaVuSans-31"/>
       <use xlink:href="#DejaVuSans-2d" x="63.623047"/>
       <use xlink:href="#DejaVuSans-35" x="99.707031"/>
      </g>
     </g>
    </g>
    <g id="xtick_7">
     <g id="line2d_7">
      <g>
       <use xlink:href="#mfa8c770e07" x="331.8" y="384.48" style="stroke: #000000; stroke-width: 0.8"/>
      </g>
     </g>
     <g id="text_7">
      <!-- 1-6 -->
      <g transform="translate(317.100469 405.157188) scale(0.18 -0.18)">
       <defs>
        <path id="DejaVuSans-36" d="M 2113 2584 
Q 1688 2584 1439 2293 
Q 1191 2003 1191 1497 
Q 1191 994 1439 701 
Q 1688 409 2113 409 
Q 2538 409 2786 701 
Q 3034 994 3034 1497 
Q 3034 2003 2786 2293 
Q 2538 2584 2113 2584 
z
M 3366 4563 
L 3366 3988 
Q 3128 4100 2886 4159 
Q 2644 4219 2406 4219 
Q 1781 4219 1451 3797 
Q 1122 3375 1075 2522 
Q 1259 2794 1537 2939 
Q 1816 3084 2150 3084 
Q 2853 3084 3261 2657 
Q 3669 2231 3669 1497 
Q 3669 778 3244 343 
Q 2819 -91 2113 -91 
Q 1303 -91 875 529 
Q 447 1150 447 2328 
Q 447 3434 972 4092 
Q 1497 4750 2381 4750 
Q 2619 4750 2861 4703 
Q 3103 4656 3366 4563 
z
" transform="scale(0.015625)"/>
       </defs>
       <use xlink:href="#DejaVuSans-31"/>
       <use xlink:href="#DejaVuSans-2d" x="63.623047"/>
       <use xlink:href="#DejaVuSans-36" x="99.707031"/>
      </g>
     </g>
    </g>
    <g id="xtick_8">
     <g id="line2d_8">
      <g>
       <use xlink:href="#mfa8c770e07" x="369" y="384.48" style="stroke: #000000; stroke-width: 0.8"/>
      </g>
     </g>
     <g id="text_8">
      <!-- 2-1 -->
      <g transform="translate(354.300469 405.157188) scale(0.18 -0.18)">
       <use xlink:href="#DejaVuSans-32"/>
       <use xlink:href="#DejaVuSans-2d" x="63.623047"/>
       <use xlink:href="#DejaVuSans-31" x="99.707031"/>
      </g>
     </g>
    </g>
    <g id="xtick_9">
     <g id="line2d_9">
      <g>
       <use xlink:href="#mfa8c770e07" x="406.2" y="384.48" style="stroke: #000000; stroke-width: 0.8"/>
      </g>
     </g>
     <g id="text_9">
      <!-- 2-2 -->
      <g transform="translate(391.500469 405.157188) scale(0.18 -0.18)">
       <use xlink:href="#DejaVuSans-32"/>
       <use xlink:href="#DejaVuSans-2d" x="63.623047"/>
       <use xlink:href="#DejaVuSans-32" x="99.707031"/>
      </g>
     </g>
    </g>
    <g id="xtick_10">
     <g id="line2d_10">
      <g>
       <use xlink:href="#mfa8c770e07" x="443.4" y="384.48" style="stroke: #000000; stroke-width: 0.8"/>
      </g>
     </g>
     <g id="text_10">
      <!-- 2-3 -->
      <g transform="translate(428.700469 405.157188) scale(0.18 -0.18)">
       <use xlink:href="#DejaVuSans-32"/>
       <use xlink:href="#DejaVuSans-2d" x="63.623047"/>
       <use xlink:href="#DejaVuSans-33" x="99.707031"/>
      </g>
     </g>
    </g>
    <g id="xtick_11">
     <g id="line2d_11">
      <g>
       <use xlink:href="#mfa8c770e07" x="480.6" y="384.48" style="stroke: #000000; stroke-width: 0.8"/>
      </g>
     </g>
     <g id="text_11">
      <!-- 2-4 -->
      <g transform="translate(465.900469 405.157188) scale(0.18 -0.18)">
       <use xlink:href="#DejaVuSans-32"/>
       <use xlink:href="#DejaVuSans-2d" x="63.623047"/>
       <use xlink:href="#DejaVuSans-34" x="99.707031"/>
      </g>
     </g>
    </g>
    <g id="xtick_12">
     <g id="line2d_12">
      <g>
       <use xlink:href="#mfa8c770e07" x="517.8" y="384.48" style="stroke: #000000; stroke-width: 0.8"/>
      </g>
     </g>
     <g id="text_12">
      <!-- 2-5 -->
      <g transform="translate(503.100469 405.157188) scale(0.18 -0.18)">
       <use xlink:href="#DejaVuSans-32"/>
       <use xlink:href="#DejaVuSans-2d" x="63.623047"/>
       <use xlink:href="#DejaVuSans-35" x="99.707031"/>
      </g>
     </g>
    </g>
    <g id="xtick_13">
     <g id="line2d_13">
      <g>
       <use xlink:href="#mfa8c770e07" x="555" y="384.48" style="stroke: #000000; stroke-width: 0.8"/>
      </g>
     </g>
     <g id="text_13">
      <!-- 2-6 -->
      <g transform="translate(540.300469 405.157188) scale(0.18 -0.18)">
       <use xlink:href="#DejaVuSans-32"/>
       <use xlink:href="#DejaVuSans-2d" x="63.623047"/>
       <use xlink:href="#DejaVuSans-36" x="99.707031"/>
      </g>
     </g>
    </g>
    <g id="xtick_14">
     <g id="line2d_14">
      <g>
       <use xlink:href="#mfa8c770e07" x="592.2" y="384.48" style="stroke: #000000; stroke-width: 0.8"/>
      </g>
     </g>
     <g id="text_14">
      <!-- 2-7 -->
      <g transform="translate(577.500469 405.157188) scale(0.18 -0.18)">
       <defs>
        <path id="DejaVuSans-37" d="M 525 4666 
L 3525 4666 
L 3525 4397 
L 1831 0 
L 1172 0 
L 2766 4134 
L 525 4134 
L 525 4666 
z
" transform="scale(0.015625)"/>
       </defs>
       <use xlink:href="#DejaVuSans-32"/>
       <use xlink:href="#DejaVuSans-2d" x="63.623047"/>
       <use xlink:href="#DejaVuSans-37" x="99.707031"/>
      </g>
     </g>
    </g>
    <g id="xtick_15">
     <g id="line2d_15">
      <g>
       <use xlink:href="#mfa8c770e07" x="629.4" y="384.48" style="stroke: #000000; stroke-width: 0.8"/>
      </g>
     </g>
     <g id="text_15">
      <!-- 3-4 -->
      <g transform="translate(614.700469 405.157188) scale(0.18 -0.18)">
       <use xlink:href="#DejaVuSans-33"/>
       <use xlink:href="#DejaVuSans-2d" x="63.623047"/>
       <use xlink:href="#DejaVuSans-34" x="99.707031"/>
      </g>
     </g>
    </g>
    <g id="text_16">
     <!-- clusters types -->
     <g transform="translate(299.054688 428.0975) scale(0.2 -0.2)">
      <defs>
       <path id="DejaVuSans-63" d="M 3122 3366 
L 3122 2828 
Q 2878 2963 2633 3030 
Q 2388 3097 2138 3097 
Q 1578 3097 1268 2742 
Q 959 2388 959 1747 
Q 959 1106 1268 751 
Q 1578 397 2138 397 
Q 2388 397 2633 464 
Q 2878 531 3122 666 
L 3122 134 
Q 2881 22 2623 -34 
Q 2366 -91 2075 -91 
Q 1284 -91 818 406 
Q 353 903 353 1747 
Q 353 2603 823 3093 
Q 1294 3584 2113 3584 
Q 2378 3584 2631 3529 
Q 2884 3475 3122 3366 
z
" transform="scale(0.015625)"/>
       <path id="DejaVuSans-6c" d="M 603 4863 
L 1178 4863 
L 1178 0 
L 603 0 
L 603 4863 
z
" transform="scale(0.015625)"/>
       <path id="DejaVuSans-75" d="M 544 1381 
L 544 3500 
L 1119 3500 
L 1119 1403 
Q 1119 906 1312 657 
Q 1506 409 1894 409 
Q 2359 409 2629 706 
Q 2900 1003 2900 1516 
L 2900 3500 
L 3475 3500 
L 3475 0 
L 2900 0 
L 2900 538 
Q 2691 219 2414 64 
Q 2138 -91 1772 -91 
Q 1169 -91 856 284 
Q 544 659 544 1381 
z
M 1991 3584 
L 1991 3584 
z
" transform="scale(0.015625)"/>
       <path id="DejaVuSans-73" d="M 2834 3397 
L 2834 2853 
Q 2591 2978 2328 3040 
Q 2066 3103 1784 3103 
Q 1356 3103 1142 2972 
Q 928 2841 928 2578 
Q 928 2378 1081 2264 
Q 1234 2150 1697 2047 
L 1894 2003 
Q 2506 1872 2764 1633 
Q 3022 1394 3022 966 
Q 3022 478 2636 193 
Q 2250 -91 1575 -91 
Q 1294 -91 989 -36 
Q 684 19 347 128 
L 347 722 
Q 666 556 975 473 
Q 1284 391 1588 391 
Q 1994 391 2212 530 
Q 2431 669 2431 922 
Q 2431 1156 2273 1281 
Q 2116 1406 1581 1522 
L 1381 1569 
Q 847 1681 609 1914 
Q 372 2147 372 2553 
Q 372 3047 722 3315 
Q 1072 3584 1716 3584 
Q 2034 3584 2315 3537 
Q 2597 3491 2834 3397 
z
" transform="scale(0.015625)"/>
       <path id="DejaVuSans-74" d="M 1172 4494 
L 1172 3500 
L 2356 3500 
L 2356 3053 
L 1172 3053 
L 1172 1153 
Q 1172 725 1289 603 
Q 1406 481 1766 481 
L 2356 481 
L 2356 0 
L 1766 0 
Q 1100 0 847 248 
Q 594 497 594 1153 
L 594 3053 
L 172 3053 
L 172 3500 
L 594 3500 
L 594 4494 
L 1172 4494 
z
" transform="scale(0.015625)"/>
       <path id="DejaVuSans-65" d="M 3597 1894 
L 3597 1613 
L 953 1613 
Q 991 1019 1311 708 
Q 1631 397 2203 397 
Q 2534 397 2845 478 
Q 3156 559 3463 722 
L 3463 178 
Q 3153 47 2828 -22 
Q 2503 -91 2169 -91 
Q 1331 -91 842 396 
Q 353 884 353 1716 
Q 353 2575 817 3079 
Q 1281 3584 2069 3584 
Q 2775 3584 3186 3129 
Q 3597 2675 3597 1894 
z
M 3022 2063 
Q 3016 2534 2758 2815 
Q 2500 3097 2075 3097 
Q 1594 3097 1305 2825 
Q 1016 2553 972 2059 
L 3022 2063 
z
" transform="scale(0.015625)"/>
       <path id="DejaVuSans-72" d="M 2631 2963 
Q 2534 3019 2420 3045 
Q 2306 3072 2169 3072 
Q 1681 3072 1420 2755 
Q 1159 2438 1159 1844 
L 1159 0 
L 581 0 
L 581 3500 
L 1159 3500 
L 1159 2956 
Q 1341 3275 1631 3429 
Q 1922 3584 2338 3584 
Q 2397 3584 2469 3576 
Q 2541 3569 2628 3553 
L 2631 2963 
z
" transform="scale(0.015625)"/>
       <path id="DejaVuSans-20" transform="scale(0.015625)"/>
       <path id="DejaVuSans-79" d="M 2059 -325 
Q 1816 -950 1584 -1140 
Q 1353 -1331 966 -1331 
L 506 -1331 
L 506 -850 
L 844 -850 
Q 1081 -850 1212 -737 
Q 1344 -625 1503 -206 
L 1606 56 
L 191 3500 
L 800 3500 
L 1894 763 
L 2988 3500 
L 3597 3500 
L 2059 -325 
z
" transform="scale(0.015625)"/>
       <path id="DejaVuSans-70" d="M 1159 525 
L 1159 -1331 
L 581 -1331 
L 581 3500 
L 1159 3500 
L 1159 2969 
Q 1341 3281 1617 3432 
Q 1894 3584 2278 3584 
Q 2916 3584 3314 3078 
Q 3713 2572 3713 1747 
Q 3713 922 3314 415 
Q 2916 -91 2278 -91 
Q 1894 -91 1617 61 
Q 1341 213 1159 525 
z
M 3116 1747 
Q 3116 2381 2855 2742 
Q 2594 3103 2138 3103 
Q 1681 3103 1420 2742 
Q 1159 2381 1159 1747 
Q 1159 1113 1420 752 
Q 1681 391 2138 391 
Q 2594 391 2855 752 
Q 3116 1113 3116 1747 
z
" transform="scale(0.015625)"/>
      </defs>
      <use xlink:href="#DejaVuSans-63"/>
      <use xlink:href="#DejaVuSans-6c" x="54.980469"/>
      <use xlink:href="#DejaVuSans-75" x="82.763672"/>
      <use xlink:href="#DejaVuSans-73" x="146.142578"/>
      <use xlink:href="#DejaVuSans-74" x="198.242188"/>
      <use xlink:href="#DejaVuSans-65" x="237.451172"/>
      <use xlink:href="#DejaVuSans-72" x="298.974609"/>
      <use xlink:href="#DejaVuSans-73" x="340.087891"/>
      <use xlink:href="#DejaVuSans-20" x="392.1875"/>
      <use xlink:href="#DejaVuSans-74" x="423.974609"/>
      <use xlink:href="#DejaVuSans-79" x="463.183594"/>
      <use xlink:href="#DejaVuSans-70" x="522.363281"/>
      <use xlink:href="#DejaVuSans-65" x="585.839844"/>
      <use xlink:href="#DejaVuSans-73" x="647.363281"/>
     </g>
    </g>
   </g>
   <g id="matplotlib.axis_2">
    <g id="ytick_1">
     <g id="line2d_16">
      <defs>
       <path id="m94b1205542" d="M 0 0 
L -3.5 0 
" style="stroke: #000000; stroke-width: 0.8"/>
      </defs>
      <g>
       <use xlink:href="#m94b1205542" x="90" y="384.48" style="stroke: #000000; stroke-width: 0.8"/>
      </g>
     </g>
     <g id="text_17">
      <!-- 0 -->
      <g transform="translate(71.5475 391.318594) scale(0.18 -0.18)">
       <use xlink:href="#DejaVuSans-30"/>
      </g>
     </g>
    </g>
    <g id="ytick_2">
     <g id="line2d_17">
      <g>
       <use xlink:href="#m94b1205542" x="90" y="321.12" style="stroke: #000000; stroke-width: 0.8"/>
      </g>
     </g>
     <g id="text_18">
      <!-- 10 -->
      <g transform="translate(60.095 327.958594) scale(0.18 -0.18)">
       <use xlink:href="#DejaVuSans-31"/>
       <use xlink:href="#DejaVuSans-30" x="63.623047"/>
      </g>
     </g>
    </g>
    <g id="ytick_3">
     <g id="line2d_18">
      <g>
       <use xlink:href="#m94b1205542" x="90" y="257.76" style="stroke: #000000; stroke-width: 0.8"/>
      </g>
     </g>
     <g id="text_19">
      <!-- 20 -->
      <g transform="translate(60.095 264.598594) scale(0.18 -0.18)">
       <use xlink:href="#DejaVuSans-32"/>
       <use xlink:href="#DejaVuSans-30" x="63.623047"/>
      </g>
     </g>
    </g>
    <g id="ytick_4">
     <g id="line2d_19">
      <g>
       <use xlink:href="#m94b1205542" x="90" y="194.4" style="stroke: #000000; stroke-width: 0.8"/>
      </g>
     </g>
     <g id="text_20">
      <!-- 30 -->
      <g transform="translate(60.095 201.238594) scale(0.18 -0.18)">
       <use xlink:href="#DejaVuSans-33"/>
       <use xlink:href="#DejaVuSans-30" x="63.623047"/>
      </g>
     </g>
    </g>
    <g id="ytick_5">
     <g id="line2d_20">
      <g>
       <use xlink:href="#m94b1205542" x="90" y="131.04" style="stroke: #000000; stroke-width: 0.8"/>
      </g>
     </g>
     <g id="text_21">
      <!-- 40 -->
      <g transform="translate(60.095 137.878594) scale(0.18 -0.18)">
       <use xlink:href="#DejaVuSans-34"/>
       <use xlink:href="#DejaVuSans-30" x="63.623047"/>
      </g>
     </g>
    </g>
    <g id="ytick_6">
     <g id="line2d_21">
      <g>
       <use xlink:href="#m94b1205542" x="90" y="67.68" style="stroke: #000000; stroke-width: 0.8"/>
      </g>
     </g>
     <g id="text_22">
      <!-- 50 -->
      <g transform="translate(60.095 74.518594) scale(0.18 -0.18)">
       <use xlink:href="#DejaVuSans-35"/>
       <use xlink:href="#DejaVuSans-30" x="63.623047"/>
      </g>
     </g>
    </g>
    <g id="text_23">
     <!-- Number of clusters -->
     <g transform="translate(51.935625 313.544375) rotate(-90) scale(0.2 -0.2)">
      <defs>
       <path id="DejaVuSans-4e" d="M 628 4666 
L 1478 4666 
L 3547 763 
L 3547 4666 
L 4159 4666 
L 4159 0 
L 3309 0 
L 1241 3903 
L 1241 0 
L 628 0 
L 628 4666 
z
" transform="scale(0.015625)"/>
       <path id="DejaVuSans-6d" d="M 3328 2828 
Q 3544 3216 3844 3400 
Q 4144 3584 4550 3584 
Q 5097 3584 5394 3201 
Q 5691 2819 5691 2113 
L 5691 0 
L 5113 0 
L 5113 2094 
Q 5113 2597 4934 2840 
Q 4756 3084 4391 3084 
Q 3944 3084 3684 2787 
Q 3425 2491 3425 1978 
L 3425 0 
L 2847 0 
L 2847 2094 
Q 2847 2600 2669 2842 
Q 2491 3084 2119 3084 
Q 1678 3084 1418 2786 
Q 1159 2488 1159 1978 
L 1159 0 
L 581 0 
L 581 3500 
L 1159 3500 
L 1159 2956 
Q 1356 3278 1631 3431 
Q 1906 3584 2284 3584 
Q 2666 3584 2933 3390 
Q 3200 3197 3328 2828 
z
" transform="scale(0.015625)"/>
       <path id="DejaVuSans-62" d="M 3116 1747 
Q 3116 2381 2855 2742 
Q 2594 3103 2138 3103 
Q 1681 3103 1420 2742 
Q 1159 2381 1159 1747 
Q 1159 1113 1420 752 
Q 1681 391 2138 391 
Q 2594 391 2855 752 
Q 3116 1113 3116 1747 
z
M 1159 2969 
Q 1341 3281 1617 3432 
Q 1894 3584 2278 3584 
Q 2916 3584 3314 3078 
Q 3713 2572 3713 1747 
Q 3713 922 3314 415 
Q 2916 -91 2278 -91 
Q 1894 -91 1617 61 
Q 1341 213 1159 525 
L 1159 0 
L 581 0 
L 581 4863 
L 1159 4863 
L 1159 2969 
z
" transform="scale(0.015625)"/>
       <path id="DejaVuSans-6f" d="M 1959 3097 
Q 1497 3097 1228 2736 
Q 959 2375 959 1747 
Q 959 1119 1226 758 
Q 1494 397 1959 397 
Q 2419 397 2687 759 
Q 2956 1122 2956 1747 
Q 2956 2369 2687 2733 
Q 2419 3097 1959 3097 
z
M 1959 3584 
Q 2709 3584 3137 3096 
Q 3566 2609 3566 1747 
Q 3566 888 3137 398 
Q 2709 -91 1959 -91 
Q 1206 -91 779 398 
Q 353 888 353 1747 
Q 353 2609 779 3096 
Q 1206 3584 1959 3584 
z
" transform="scale(0.015625)"/>
       <path id="DejaVuSans-66" d="M 2375 4863 
L 2375 4384 
L 1825 4384 
Q 1516 4384 1395 4259 
Q 1275 4134 1275 3809 
L 1275 3500 
L 2222 3500 
L 2222 3053 
L 1275 3053 
L 1275 0 
L 697 0 
L 697 3053 
L 147 3053 
L 147 3500 
L 697 3500 
L 697 3744 
Q 697 4328 969 4595 
Q 1241 4863 1831 4863 
L 2375 4863 
z
" transform="scale(0.015625)"/>
      </defs>
      <use xlink:href="#DejaVuSans-4e"/>
      <use xlink:href="#DejaVuSans-75" x="74.804688"/>
      <use xlink:href="#DejaVuSans-6d" x="138.183594"/>
      <use xlink:href="#DejaVuSans-62" x="235.595703"/>
      <use xlink:href="#DejaVuSans-65" x="299.072266"/>
      <use xlink:href="#DejaVuSans-72" x="360.595703"/>
      <use xlink:href="#DejaVuSans-20" x="401.708984"/>
      <use xlink:href="#DejaVuSans-6f" x="433.496094"/>
      <use xlink:href="#DejaVuSans-66" x="494.677734"/>
      <use xlink:href="#DejaVuSans-20" x="529.882812"/>
      <use xlink:href="#DejaVuSans-63" x="561.669922"/>
      <use xlink:href="#DejaVuSans-6c" x="616.650391"/>
      <use xlink:href="#DejaVuSans-75" x="644.433594"/>
      <use xlink:href="#DejaVuSans-73" x="707.8125"/>
      <use xlink:href="#DejaVuSans-74" x="759.912109"/>
      <use xlink:href="#DejaVuSans-65" x="799.121094"/>
      <use xlink:href="#DejaVuSans-72" x="860.644531"/>
      <use xlink:href="#DejaVuSans-73" x="901.757812"/>
     </g>
    </g>
   </g>
   <g id="patch_63">
    <path d="M 90 384.48 
L 90 51.84 
" style="fill: none; stroke: #000000; stroke-width: 0.8; stroke-linejoin: miter; stroke-linecap: square"/>
   </g>
   <g id="patch_64">
    <path d="M 648 384.48 
L 648 51.84 
" style="fill: none; stroke: #000000; stroke-width: 0.8; stroke-linejoin: miter; stroke-linecap: square"/>
   </g>
   <g id="patch_65">
    <path d="M 90 384.48 
L 648 384.48 
" style="fill: none; stroke: #000000; stroke-width: 0.8; stroke-linejoin: miter; stroke-linecap: square"/>
   </g>
   <g id="patch_66">
    <path d="M 90 51.84 
L 648 51.84 
" style="fill: none; stroke: #000000; stroke-width: 0.8; stroke-linejoin: miter; stroke-linecap: square"/>
   </g>
   <g id="legend_1">
    <g id="patch_67">
     <path d="M 539.6 151.632 
L 642.3875 151.632 
Q 645.5875 151.632 645.5875 148.432 
L 645.5875 56.092 
Q 645.5875 52.892 642.3875 52.892 
L 539.6 52.892 
Q 536.4 52.892 536.4 56.092 
L 536.4 148.432 
Q 536.4 151.632 539.6 151.632 
z
" style="fill: #ffffff; opacity: 0.8; stroke: #cccccc; stroke-linejoin: miter"/>
    </g>
    <g id="patch_68">
     <path d="M 542.8 71.4495 
L 574.8 71.4495 
L 574.8 60.2495 
L 542.8 60.2495 
z
" style="fill: #1f77b4"/>
    </g>
    <g id="text_24">
     <!-- DHN 1 -->
     <g transform="translate(587.6 71.4495) scale(0.16 -0.16)">
      <defs>
       <path id="DejaVuSans-44" d="M 1259 4147 
L 1259 519 
L 2022 519 
Q 2988 519 3436 956 
Q 3884 1394 3884 2338 
Q 3884 3275 3436 3711 
Q 2988 4147 2022 4147 
L 1259 4147 
z
M 628 4666 
L 1925 4666 
Q 3281 4666 3915 4102 
Q 4550 3538 4550 2338 
Q 4550 1131 3912 565 
Q 3275 0 1925 0 
L 628 0 
L 628 4666 
z
" transform="scale(0.015625)"/>
       <path id="DejaVuSans-48" d="M 628 4666 
L 1259 4666 
L 1259 2753 
L 3553 2753 
L 3553 4666 
L 4184 4666 
L 4184 0 
L 3553 0 
L 3553 2222 
L 1259 2222 
L 1259 0 
L 628 0 
L 628 4666 
z
" transform="scale(0.015625)"/>
      </defs>
      <use xlink:href="#DejaVuSans-44"/>
      <use xlink:href="#DejaVuSans-48" x="77.001953"/>
      <use xlink:href="#DejaVuSans-4e" x="152.197266"/>
      <use xlink:href="#DejaVuSans-20" x="227.001953"/>
      <use xlink:href="#DejaVuSans-31" x="258.789062"/>
     </g>
    </g>
    <g id="patch_69">
     <path d="M 542.8 94.9345 
L 574.8 94.9345 
L 574.8 83.7345 
L 542.8 83.7345 
z
" style="fill: #ff7f0e"/>
    </g>
    <g id="text_25">
     <!-- DHN 2 -->
     <g transform="translate(587.6 94.9345) scale(0.16 -0.16)">
      <use xlink:href="#DejaVuSans-44"/>
      <use xlink:href="#DejaVuSans-48" x="77.001953"/>
      <use xlink:href="#DejaVuSans-4e" x="152.197266"/>
      <use xlink:href="#DejaVuSans-20" x="227.001953"/>
      <use xlink:href="#DejaVuSans-32" x="258.789062"/>
     </g>
    </g>
    <g id="patch_70">
     <path d="M 542.8 118.4195 
L 574.8 118.4195 
L 574.8 107.2195 
L 542.8 107.2195 
z
" style="fill: #2ca02c"/>
    </g>
    <g id="text_26">
     <!-- DHN 3 -->
     <g transform="translate(587.6 118.4195) scale(0.16 -0.16)">
      <use xlink:href="#DejaVuSans-44"/>
      <use xlink:href="#DejaVuSans-48" x="77.001953"/>
      <use xlink:href="#DejaVuSans-4e" x="152.197266"/>
      <use xlink:href="#DejaVuSans-20" x="227.001953"/>
      <use xlink:href="#DejaVuSans-33" x="258.789062"/>
     </g>
    </g>
    <g id="patch_71">
     <path d="M 542.8 141.9045 
L 574.8 141.9045 
L 574.8 130.7045 
L 542.8 130.7045 
z
" style="fill: #d62728"/>
    </g>
    <g id="text_27">
     <!-- DHN 4 -->
     <g transform="translate(587.6 141.9045) scale(0.16 -0.16)">
      <use xlink:href="#DejaVuSans-44"/>
      <use xlink:href="#DejaVuSans-48" x="77.001953"/>
      <use xlink:href="#DejaVuSans-4e" x="152.197266"/>
      <use xlink:href="#DejaVuSans-20" x="227.001953"/>
      <use xlink:href="#DejaVuSans-34" x="258.789062"/>
     </g>
    </g>
   </g>
  </g>
 </g>
 <defs>
  <clipPath id="pb6c12ae2c5">
   <rect x="90" y="51.84" width="558" height="332.64"/>
  </clipPath>
 </defs>
</svg>
