<?xml version="1.0" encoding="UTF-8" standalone="no"?>
<svg
   width="576pt"
   height="432pt"
   viewBox="0 0 576 432"
   version="1.1"
   id="svg4206"
   sodipodi:docname="distribution_adequate_inadequate.svg"
   inkscape:version="1.2.2 (732a01da63, 2022-12-09)"
   xmlns:inkscape="http://www.inkscape.org/namespaces/inkscape"
   xmlns:sodipodi="http://sodipodi.sourceforge.net/DTD/sodipodi-0.dtd"
   xmlns:xlink="http://www.w3.org/1999/xlink"
   xmlns="http://www.w3.org/2000/svg"
   xmlns:svg="http://www.w3.org/2000/svg"
   xmlns:rdf="http://www.w3.org/1999/02/22-rdf-syntax-ns#"
   xmlns:cc="http://creativecommons.org/ns#"
   xmlns:dc="http://purl.org/dc/elements/1.1/">
  <sodipodi:namedview
     id="namedview4208"
     pagecolor="#ffffff"
     bordercolor="#000000"
     borderopacity="0.25"
     inkscape:showpageshadow="2"
     inkscape:pageopacity="0.0"
     inkscape:pagecheckerboard="0"
     inkscape:deskcolor="#d1d1d1"
     inkscape:document-units="pt"
     showgrid="false"
     inkscape:zoom="1.453125"
     inkscape:cx="373.33333"
     inkscape:cy="398.45161"
     inkscape:window-width="1920"
     inkscape:window-height="1017"
     inkscape:window-x="-8"
     inkscape:window-y="1072"
     inkscape:window-maximized="1"
     inkscape:current-layer="svg4206" />
  <metadata
     id="metadata3774">
    <rdf:RDF>
      <cc:Work>
        <dc:type
           rdf:resource="http://purl.org/dc/dcmitype/StillImage" />
        <dc:date>2023-11-30T17:26:16.258521</dc:date>
        <dc:format>image/svg+xml</dc:format>
        <dc:creator>
          <cc:Agent>
            <dc:title>Matplotlib v3.8.2, https://matplotlib.org/</dc:title>
          </cc:Agent>
        </dc:creator>
      </cc:Work>
    </rdf:RDF>
  </metadata>
  <defs
     id="defs3778">
    <style
       type="text/css"
       id="style3776">*{stroke-linejoin: round; stroke-linecap: butt}</style>
  </defs>
  <g
     id="figure_1"
     transform="matrix(0.91337355,0,0,0.95857509,2.0645161,0)">
    <g
       id="patch_1">
      <path
         d="M 0,432 H 576 V 0 H 0 Z"
         style="fill:#ffffff"
         id="path3780" />
    </g>
    <g
       id="axes_1">
      <g
         id="patch_2">
        <path
           d="M 72,384.48 H 518.4 V 51.84 H 72 Z"
           style="fill:#ffffff"
           id="path3783" />
      </g>
      <g
         id="patch_3">
        <path
           d="M 94.32,384.48 H 183.6 V 146.15339 H 94.32 Z"
           clip-path="url(#pe26cd9f13a)"
           style="fill:#176d9c"
           id="path3786" />
      </g>
      <g
         id="patch_4">
        <path
           d="M 317.52,384.48 H 406.8 V 67.68 h -89.28 z"
           clip-path="url(#pe26cd9f13a)"
           style="fill:#176d9c"
           id="path3789" />
      </g>
      <g
         id="patch_5">
        <path
           d="m 406.8,384.48 h 89.28 V 300.19376 H 406.8 Z"
           clip-path="url(#pe26cd9f13a)"
           style="fill:#c38820"
           id="path3792" />
      </g>
      <g
         id="patch_6">
        <path
           d="m 183.6,384.48 v 0 z"
           clip-path="url(#pe26cd9f13a)"
           style="fill:#176d9c"
           id="path3795" />
      </g>
      <g
         id="patch_7">
        <path
           d="m 183.6,384.48 v 0 z"
           clip-path="url(#pe26cd9f13a)"
           style="fill:#c38820"
           id="path3798" />
      </g>
      <g
         id="matplotlib.axis_1">
        <g
           id="xtick_1">
          <g
             id="line2d_1">
            <defs
               id="defs3802">
              <path
                 id="md6e0db73bb"
                 d="M 0,0 V 3.5"
                 style="stroke:#000000;stroke-width:0.8" />
            </defs>
            <g
               id="g3806">
              <use
                 xlink:href="#md6e0db73bb"
                 x="183.60001"
                 y="384.48001"
                 style="stroke:#000000;stroke-width:0.8"
                 id="use3804" />
            </g>
          </g>
          <g
             id="text_1">
            <!-- not relevant -->
            <g
               transform="matrix(0.18,0,0,-0.18,128.85328,405.15719)"
               id="g3844">
              <defs
                 id="defs3818">
                <path
                   id="DejaVuSans-6e"
                   d="M 3513,2113 V 0 h -575 v 2094 q 0,497 -194,743 -194,247 -581,247 -466,0 -735,-297 -269,-296 -269,-809 V 0 H 581 v 3500 h 578 v -544 q 207,316 486,472 280,156 646,156 603,0 912,-373 310,-373 310,-1098 z"
                   transform="scale(0.015625)" />
                <path
                   id="DejaVuSans-6f"
                   d="m 1959,3097 q -462,0 -731,-361 -269,-361 -269,-989 0,-628 267,-989 268,-361 733,-361 460,0 728,362 269,363 269,988 0,622 -269,986 -268,364 -728,364 z m 0,487 q 750,0 1178,-488 429,-487 429,-1349 Q 3566,888 3137,398 2709,-91 1959,-91 1206,-91 779,398 353,888 353,1747 q 0,862 426,1349 427,488 1180,488 z"
                   transform="scale(0.015625)" />
                <path
                   id="DejaVuSans-74"
                   d="M 1172,4494 V 3500 H 2356 V 3053 H 1172 V 1153 q 0,-428 117,-550 117,-122 477,-122 h 590 V 0 H 1766 Q 1100,0 847,248 594,497 594,1153 V 3053 H 172 v 447 h 422 v 994 z"
                   transform="scale(0.015625)" />
                <path
                   id="DejaVuSans-20"
                   transform="scale(0.015625)"
                   d="" />
                <path
                   id="DejaVuSans-72"
                   d="m 2631,2963 q -97,56 -211,82 -114,27 -251,27 -488,0 -749,-317 -261,-317 -261,-911 V 0 H 581 v 3500 h 578 v -544 q 182,319 472,473 291,155 707,155 59,0 131,-8 72,-7 159,-23 z"
                   transform="scale(0.015625)" />
                <path
                   id="DejaVuSans-65"
                   d="M 3597,1894 V 1613 H 953 q 38,-594 358,-905 320,-311 892,-311 331,0 642,81 311,81 618,244 V 178 Q 3153,47 2828,-22 2503,-91 2169,-91 1331,-91 842,396 353,884 353,1716 q 0,859 464,1363 464,505 1252,505 706,0 1117,-455 411,-454 411,-1235 z m -575,169 q -6,471 -264,752 -258,282 -683,282 -481,0 -770,-272 -289,-272 -333,-766 z"
                   transform="scale(0.015625)" />
                <path
                   id="DejaVuSans-6c"
                   d="m 603,4863 h 575 V 0 H 603 Z"
                   transform="scale(0.015625)" />
                <path
                   id="DejaVuSans-76"
                   d="M 191,3500 H 800 L 1894,563 2988,3500 h 609 L 2284,0 h -781 z"
                   transform="scale(0.015625)" />
                <path
                   id="DejaVuSans-61"
                   d="m 2194,1759 q -697,0 -966,-159 -269,-159 -269,-544 0,-306 202,-486 202,-179 548,-179 479,0 768,339 289,339 289,901 v 128 z m 1147,238 V 0 H 2766 V 531 Q 2569,213 2275,61 1981,-91 1556,-91 q -537,0 -855,302 -317,302 -317,808 0,590 395,890 396,300 1180,300 h 807 v 57 q 0,397 -261,614 -261,217 -733,217 -300,0 -585,-72 -284,-72 -546,-216 v 532 q 315,122 612,182 297,61 578,61 760,0 1135,-394 375,-393 375,-1193 z"
                   transform="scale(0.015625)" />
              </defs>
              <use
                 xlink:href="#DejaVuSans-6e"
                 id="use3820" />
              <use
                 xlink:href="#DejaVuSans-6f"
                 x="63.378906"
                 id="use3822" />
              <use
                 xlink:href="#DejaVuSans-74"
                 x="124.56055"
                 id="use3824" />
              <use
                 xlink:href="#DejaVuSans-20"
                 x="163.76953"
                 id="use3826" />
              <use
                 xlink:href="#DejaVuSans-72"
                 x="195.55664"
                 id="use3828" />
              <use
                 xlink:href="#DejaVuSans-65"
                 x="234.41992"
                 id="use3830" />
              <use
                 xlink:href="#DejaVuSans-6c"
                 x="295.94336"
                 id="use3832" />
              <use
                 xlink:href="#DejaVuSans-65"
                 x="323.72656"
                 id="use3834" />
              <use
                 xlink:href="#DejaVuSans-76"
                 x="385.25"
                 id="use3836" />
              <use
                 xlink:href="#DejaVuSans-61"
                 x="444.42969"
                 id="use3838" />
              <use
                 xlink:href="#DejaVuSans-6e"
                 x="505.70898"
                 id="use3840" />
              <use
                 xlink:href="#DejaVuSans-74"
                 x="569.08789"
                 id="use3842" />
            </g>
            <!-- (MAE&gt;0.1°C) -->
            <g
               transform="matrix(0.18,0,0,-0.18,124.32938,425.31325)"
               id="g3881">
              <defs
                 id="defs3857">
                <path
                   id="DejaVuSans-28"
                   d="m 1984,4856 q -418,-718 -622,-1422 -203,-703 -203,-1425 0,-721 205,-1429 205,-708 620,-1424 h -500 q -468,735 -701,1444 -233,709 -233,1409 0,697 231,1403 232,707 703,1444 z"
                   transform="scale(0.015625)" />
                <path
                   id="DejaVuSans-4d"
                   d="m 628,4666 h 941 L 2759,1491 3956,4666 h 941 V 0 H 4281 V 4097 L 3078,897 H 2444 L 1241,4097 V 0 H 628 Z"
                   transform="scale(0.015625)" />
                <path
                   id="DejaVuSans-41"
                   d="M 2188,4044 1331,1722 h 1716 z m -357,622 h 716 L 4325,0 H 3669 L 3244,1197 H 1141 L 716,0 H 50 Z"
                   transform="scale(0.015625)" />
                <path
                   id="DejaVuSans-45"
                   d="M 628,4666 H 3578 V 4134 H 1259 V 2753 H 3481 V 2222 H 1259 V 531 H 3634 V 0 H 628 Z"
                   transform="scale(0.015625)" />
                <path
                   id="DejaVuSans-3e"
                   d="m 678,3150 v 569 L 4684,2266 V 1747 L 678,294 v 569 l 3219,1140 z"
                   transform="scale(0.015625)" />
                <path
                   id="DejaVuSans-30"
                   d="m 2034,4250 q -487,0 -733,-480 -245,-479 -245,-1442 0,-959 245,-1439 246,-480 733,-480 491,0 736,480 246,480 246,1439 0,963 -246,1442 -245,480 -736,480 z m 0,500 q 785,0 1199,-621 414,-620 414,-1801 0,-1178 -414,-1799 -414,-620 -1199,-620 -784,0 -1198,620 -414,621 -414,1799 0,1181 414,1801 414,621 1198,621 z"
                   transform="scale(0.015625)" />
                <path
                   id="DejaVuSans-2e"
                   d="m 684,794 h 660 V 0 H 684 Z"
                   transform="scale(0.015625)" />
                <path
                   id="DejaVuSans-31"
                   d="M 794,531 H 1825 V 4091 L 703,3866 v 575 l 1116,225 h 631 V 531 H 3481 V 0 H 794 Z"
                   transform="scale(0.015625)" />
                <path
                   id="DejaVuSans-b0"
                   d="m 1600,4347 q -250,0 -422,-174 -172,-173 -172,-423 0,-247 172,-417 172,-170 422,-170 250,0 422,170 172,170 172,417 0,247 -174,422 -173,175 -420,175 z m 0,403 q 200,0 384,-77 185,-76 319,-220 144,-140 216,-319 72,-178 72,-384 0,-412 -289,-698 -289,-286 -708,-286 -422,0 -704,281 -281,281 -281,703 0,419 287,709 288,291 704,291 z"
                   transform="scale(0.015625)" />
                <path
                   id="DejaVuSans-43"
                   d="m 4122,4306 v -665 q -319,297 -680,443 -361,147 -767,147 -800,0 -1225,-489 -425,-489 -425,-1414 0,-922 425,-1411 425,-489 1225,-489 406,0 767,147 361,147 680,444 V 359 Q 3791,134 3420,21 3050,-91 2638,-91 1578,-91 968,557 359,1206 359,2328 q 0,1125 609,1773 610,649 1670,649 418,0 788,-111 371,-111 696,-333 z"
                   transform="scale(0.015625)" />
                <path
                   id="DejaVuSans-29"
                   d="m 513,4856 h 500 q 468,-737 701,-1444 233,-706 233,-1403 0,-700 -233,-1409 -233,-709 -701,-1444 H 513 q 415,716 620,1424 205,708 205,1429 0,722 -205,1425 -205,704 -620,1422 z"
                   transform="scale(0.015625)" />
              </defs>
              <use
                 xlink:href="#DejaVuSans-28"
                 id="use3859" />
              <use
                 xlink:href="#DejaVuSans-4d"
                 x="39.013672"
                 id="use3861" />
              <use
                 xlink:href="#DejaVuSans-41"
                 x="125.29297"
                 id="use3863" />
              <use
                 xlink:href="#DejaVuSans-45"
                 x="193.70117"
                 id="use3865" />
              <use
                 xlink:href="#DejaVuSans-3e"
                 x="256.88477"
                 id="use3867" />
              <use
                 xlink:href="#DejaVuSans-30"
                 x="340.67383"
                 id="use3869" />
              <use
                 xlink:href="#DejaVuSans-2e"
                 x="404.29688"
                 id="use3871" />
              <use
                 xlink:href="#DejaVuSans-31"
                 x="436.08398"
                 id="use3873" />
              <use
                 xlink:href="#DejaVuSans-b0"
                 x="499.70703"
                 id="use3875" />
              <use
                 xlink:href="#DejaVuSans-43"
                 x="549.70703"
                 id="use3877" />
              <use
                 xlink:href="#DejaVuSans-29"
                 x="619.53125"
                 id="use3879" />
            </g>
          </g>
        </g>
        <g
           id="xtick_2">
          <g
             id="line2d_2">
            <g
               id="g3887">
              <use
                 xlink:href="#md6e0db73bb"
                 x="406.79999"
                 y="384.48001"
                 style="stroke:#000000;stroke-width:0.8"
                 id="use3885" />
            </g>
          </g>
          <g
             id="text_2">
            <!-- relevant -->
            <g
               transform="matrix(0.18,0,0,-0.18,369.6525,405.15719)"
               id="g3906">
              <use
                 xlink:href="#DejaVuSans-72"
                 id="use3890" />
              <use
                 xlink:href="#DejaVuSans-65"
                 x="38.863281"
                 id="use3892" />
              <use
                 xlink:href="#DejaVuSans-6c"
                 x="100.38672"
                 id="use3894" />
              <use
                 xlink:href="#DejaVuSans-65"
                 x="128.16992"
                 id="use3896" />
              <use
                 xlink:href="#DejaVuSans-76"
                 x="189.69336"
                 id="use3898" />
              <use
                 xlink:href="#DejaVuSans-61"
                 x="248.87305"
                 id="use3900" />
              <use
                 xlink:href="#DejaVuSans-6e"
                 x="310.15234"
                 id="use3902" />
              <use
                 xlink:href="#DejaVuSans-74"
                 x="373.53125"
                 id="use3904" />
            </g>
            <!-- (MAE≤0.1°C) -->
            <g
               transform="matrix(0.18,0,0,-0.18,347.52938,425.31325)"
               id="g3933">
              <defs
                 id="defs3909">
                <path
                   id="DejaVuSans-2264"
                   d="M 4684,3175 1684,2309 4684,1453 V 897 L 678,2047 v 531 L 4684,3725 Z M 678,531 H 4684 V 0 H 678 Z"
                   transform="scale(0.015625)" />
              </defs>
              <use
                 xlink:href="#DejaVuSans-28"
                 id="use3911" />
              <use
                 xlink:href="#DejaVuSans-4d"
                 x="39.013672"
                 id="use3913" />
              <use
                 xlink:href="#DejaVuSans-41"
                 x="125.29297"
                 id="use3915" />
              <use
                 xlink:href="#DejaVuSans-45"
                 x="193.70117"
                 id="use3917" />
              <use
                 xlink:href="#DejaVuSans-2264"
                 x="256.88477"
                 id="use3919" />
              <use
                 xlink:href="#DejaVuSans-30"
                 x="340.67383"
                 id="use3921" />
              <use
                 xlink:href="#DejaVuSans-2e"
                 x="404.29688"
                 id="use3923" />
              <use
                 xlink:href="#DejaVuSans-31"
                 x="436.08398"
                 id="use3925" />
              <use
                 xlink:href="#DejaVuSans-b0"
                 x="499.70703"
                 id="use3927" />
              <use
                 xlink:href="#DejaVuSans-43"
                 x="549.70703"
                 id="use3929" />
              <use
                 xlink:href="#DejaVuSans-29"
                 x="619.53125"
                 id="use3931" />
            </g>
          </g>
        </g>
        <g
           id="text_3">
          <!-- clusters relevance -->
          <g
             transform="matrix(0.2,0,0,-0.2,203.79844,448.25356)"
             id="g3978">
            <defs
               id="defs3940">
              <path
                 id="DejaVuSans-63"
                 d="m 3122,3366 v -538 q -244,135 -489,202 -245,67 -495,67 -560,0 -870,-355 -309,-354 -309,-995 0,-641 309,-996 310,-354 870,-354 250,0 495,67 245,67 489,202 V 134 Q 2881,22 2623,-34 2366,-91 2075,-91 1284,-91 818,406 353,903 353,1747 q 0,856 470,1346 471,491 1290,491 265,0 518,-55 253,-54 491,-163 z"
                 transform="scale(0.015625)" />
              <path
                 id="DejaVuSans-75"
                 d="m 544,1381 v 2119 h 575 V 1403 q 0,-497 193,-746 194,-248 582,-248 465,0 735,297 271,297 271,810 v 1984 h 575 V 0 H 2900 V 538 Q 2691,219 2414,64 2138,-91 1772,-91 1169,-91 856,284 544,659 544,1381 Z m 1447,2203 z"
                 transform="scale(0.015625)" />
              <path
                 id="DejaVuSans-73"
                 d="m 2834,3397 v -544 q -243,125 -506,187 -262,63 -544,63 -428,0 -642,-131 -214,-131 -214,-394 0,-200 153,-314 153,-114 616,-217 l 197,-44 q 612,-131 870,-370 258,-239 258,-667 0,-488 -386,-773 Q 2250,-91 1575,-91 1294,-91 989,-36 684,19 347,128 v 594 q 319,-166 628,-249 309,-82 613,-82 406,0 624,139 219,139 219,392 0,234 -158,359 -157,125 -692,241 l -200,47 q -534,112 -772,345 -237,233 -237,639 0,494 350,762 350,269 994,269 318,0 599,-47 282,-46 519,-140 z"
                 transform="scale(0.015625)" />
            </defs>
            <use
               xlink:href="#DejaVuSans-63"
               id="use3942" />
            <use
               xlink:href="#DejaVuSans-6c"
               x="54.980469"
               id="use3944" />
            <use
               xlink:href="#DejaVuSans-75"
               x="82.763672"
               id="use3946" />
            <use
               xlink:href="#DejaVuSans-73"
               x="146.14258"
               id="use3948" />
            <use
               xlink:href="#DejaVuSans-74"
               x="198.24219"
               id="use3950" />
            <use
               xlink:href="#DejaVuSans-65"
               x="237.45117"
               id="use3952" />
            <use
               xlink:href="#DejaVuSans-72"
               x="298.97461"
               id="use3954" />
            <use
               xlink:href="#DejaVuSans-73"
               x="340.08789"
               id="use3956" />
            <use
               xlink:href="#DejaVuSans-20"
               x="392.1875"
               id="use3958" />
            <use
               xlink:href="#DejaVuSans-72"
               x="423.97461"
               id="use3960" />
            <use
               xlink:href="#DejaVuSans-65"
               x="462.83789"
               id="use3962" />
            <use
               xlink:href="#DejaVuSans-6c"
               x="524.36133"
               id="use3964" />
            <use
               xlink:href="#DejaVuSans-65"
               x="552.14453"
               id="use3966" />
            <use
               xlink:href="#DejaVuSans-76"
               x="613.66797"
               id="use3968" />
            <use
               xlink:href="#DejaVuSans-61"
               x="672.84766"
               id="use3970" />
            <use
               xlink:href="#DejaVuSans-6e"
               x="734.12695"
               id="use3972" />
            <use
               xlink:href="#DejaVuSans-63"
               x="797.50586"
               id="use3974" />
            <use
               xlink:href="#DejaVuSans-65"
               x="852.48633"
               id="use3976" />
          </g>
        </g>
      </g>
      <g
         id="matplotlib.axis_2">
        <g
           id="ytick_1">
          <g
             id="line2d_3">
            <defs
               id="defs3983">
              <path
                 id="md6e1e2a7df"
                 d="M 0,0 H -3.5"
                 style="stroke:#000000;stroke-width:0.8" />
            </defs>
            <g
               id="g3987">
              <use
                 xlink:href="#md6e1e2a7df"
                 x="72"
                 y="384.48001"
                 style="stroke:#000000;stroke-width:0.8"
                 id="use3985" />
            </g>
          </g>
          <g
             id="text_4">
            <!-- 0 -->
            <g
               transform="matrix(0.18,0,0,-0.18,53.5475,391.31859)"
               id="g3992">
              <use
                 xlink:href="#DejaVuSans-30"
                 id="use3990" />
            </g>
          </g>
        </g>
        <g
           id="ytick_2">
          <g
             id="line2d_4">
            <g
               id="g3998">
              <use
                 xlink:href="#md6e1e2a7df"
                 x="72"
                 y="326.35156"
                 style="stroke:#000000;stroke-width:0.8"
                 id="use3996" />
            </g>
          </g>
          <g
             id="text_5">
            <!-- 20 -->
            <g
               transform="matrix(0.18,0,0,-0.18,42.095,333.19015)"
               id="g4008">
              <defs
                 id="defs4002">
                <path
                   id="DejaVuSans-32"
                   d="M 1228,531 H 3431 V 0 H 469 v 531 q 359,372 979,998 621,627 780,809 303,340 423,576 121,236 121,464 0,372 -261,606 -261,235 -680,235 -297,0 -627,-103 -329,-103 -704,-313 v 638 q 381,153 712,231 332,78 607,78 725,0 1156,-363 431,-362 431,-968 0,-288 -108,-546 -107,-257 -392,-607 -78,-91 -497,-524 Q 1991,1309 1228,531 Z"
                   transform="scale(0.015625)" />
              </defs>
              <use
                 xlink:href="#DejaVuSans-32"
                 id="use4004" />
              <use
                 xlink:href="#DejaVuSans-30"
                 x="63.623047"
                 id="use4006" />
            </g>
          </g>
        </g>
        <g
           id="ytick_3">
          <g
             id="line2d_5">
            <g
               id="g4014">
              <use
                 xlink:href="#md6e1e2a7df"
                 x="72"
                 y="268.22311"
                 style="stroke:#000000;stroke-width:0.8"
                 id="use4012" />
            </g>
          </g>
          <g
             id="text_6">
            <!-- 40 -->
            <g
               transform="matrix(0.18,0,0,-0.18,42.095,275.06171)"
               id="g4024">
              <defs
                 id="defs4018">
                <path
                   id="DejaVuSans-34"
                   d="M 2419,4116 825,1625 h 1594 z m -166,550 h 794 V 1625 h 666 V 1100 H 3047 V 0 H 2419 V 1100 H 313 v 609 z"
                   transform="scale(0.015625)" />
              </defs>
              <use
                 xlink:href="#DejaVuSans-34"
                 id="use4020" />
              <use
                 xlink:href="#DejaVuSans-30"
                 x="63.623047"
                 id="use4022" />
            </g>
          </g>
        </g>
        <g
           id="ytick_4">
          <g
             id="line2d_6">
            <g
               id="g4030">
              <use
                 xlink:href="#md6e1e2a7df"
                 x="72"
                 y="210.09468"
                 style="stroke:#000000;stroke-width:0.8"
                 id="use4028" />
            </g>
          </g>
          <g
             id="text_7">
            <!-- 60 -->
            <g
               transform="matrix(0.18,0,0,-0.18,42.095,216.93327)"
               id="g4040">
              <defs
                 id="defs4034">
                <path
                   id="DejaVuSans-36"
                   d="m 2113,2584 q -425,0 -674,-291 -248,-290 -248,-796 0,-503 248,-796 249,-292 674,-292 425,0 673,292 248,293 248,796 0,506 -248,796 -248,291 -673,291 z m 1253,1979 v -575 q -238,112 -480,171 -242,60 -480,60 -625,0 -955,-422 -329,-422 -376,-1275 184,272 462,417 279,145 613,145 703,0 1111,-427 408,-426 408,-1160 0,-719 -425,-1154 -425,-434 -1131,-434 -810,0 -1238,620 -428,621 -428,1799 0,1106 525,1764 525,658 1409,658 238,0 480,-47 242,-47 505,-140 z"
                   transform="scale(0.015625)" />
              </defs>
              <use
                 xlink:href="#DejaVuSans-36"
                 id="use4036" />
              <use
                 xlink:href="#DejaVuSans-30"
                 x="63.623047"
                 id="use4038" />
            </g>
          </g>
        </g>
        <g
           id="ytick_5">
          <g
             id="line2d_7">
            <g
               id="g4046">
              <use
                 xlink:href="#md6e1e2a7df"
                 x="72"
                 y="151.96623"
                 style="stroke:#000000;stroke-width:0.8"
                 id="use4044" />
            </g>
          </g>
          <g
             id="text_8">
            <!-- 80 -->
            <g
               transform="matrix(0.18,0,0,-0.18,42.095,158.80483)"
               id="g4056">
              <defs
                 id="defs4050">
                <path
                   id="DejaVuSans-38"
                   d="m 2034,2216 q -450,0 -708,-241 -257,-241 -257,-662 0,-422 257,-663 258,-241 708,-241 450,0 709,242 260,243 260,662 0,421 -258,662 -257,241 -711,241 z m -631,268 q -406,100 -633,378 -226,279 -226,679 0,559 398,884 399,325 1092,325 697,0 1094,-325 397,-325 397,-884 0,-400 -227,-679 -226,-278 -629,-378 456,-106 710,-416 255,-309 255,-755 Q 3634,634 3220,271 2806,-91 2034,-91 1263,-91 848,271 434,634 434,1313 q 0,446 256,755 257,310 713,416 z m -231,997 q 0,-362 226,-565 227,-203 636,-203 407,0 636,203 230,203 230,565 0,363 -230,566 -229,203 -636,203 -409,0 -636,-203 -226,-203 -226,-566 z"
                   transform="scale(0.015625)" />
              </defs>
              <use
                 xlink:href="#DejaVuSans-38"
                 id="use4052" />
              <use
                 xlink:href="#DejaVuSans-30"
                 x="63.623047"
                 id="use4054" />
            </g>
          </g>
        </g>
        <g
           id="ytick_6">
          <g
             id="line2d_8">
            <g
               id="g4062">
              <use
                 xlink:href="#md6e1e2a7df"
                 x="72"
                 y="93.837799"
                 style="stroke:#000000;stroke-width:0.8"
                 id="use4060" />
            </g>
          </g>
          <g
             id="text_9">
            <!-- 100 -->
            <g
               transform="matrix(0.18,0,0,-0.18,30.6425,100.67639)"
               id="g4071">
              <use
                 xlink:href="#DejaVuSans-31"
                 id="use4065" />
              <use
                 xlink:href="#DejaVuSans-30"
                 x="63.623047"
                 id="use4067" />
              <use
                 xlink:href="#DejaVuSans-30"
                 x="127.24609"
                 id="use4069" />
            </g>
          </g>
        </g>
        <g
           id="text_10">
          <!-- Number of clusters -->
          <g
             transform="matrix(0,-0.2,-0.2,0,22.483125,313.54437)"
             id="g4117">
            <defs
               id="defs4079">
              <path
                 id="DejaVuSans-4e"
                 d="m 628,4666 h 850 L 3547,763 v 3903 h 612 V 0 H 3309 L 1241,3903 V 0 H 628 Z"
                 transform="scale(0.015625)" />
              <path
                 id="DejaVuSans-6d"
                 d="m 3328,2828 q 216,388 516,572 300,184 706,184 547,0 844,-383 297,-382 297,-1088 V 0 h -578 v 2094 q 0,503 -179,746 -178,244 -543,244 -447,0 -707,-297 -259,-296 -259,-809 V 0 h -578 v 2094 q 0,506 -178,748 -178,242 -550,242 -441,0 -701,-298 -259,-298 -259,-808 V 0 H 581 v 3500 h 578 v -544 q 197,322 472,475 275,153 653,153 382,0 649,-194 267,-193 395,-562 z"
                 transform="scale(0.015625)" />
              <path
                 id="DejaVuSans-62"
                 d="m 3116,1747 q 0,634 -261,995 -261,361 -717,361 -457,0 -718,-361 -261,-361 -261,-995 0,-634 261,-995 261,-361 718,-361 456,0 717,361 261,361 261,995 z M 1159,2969 q 182,312 458,463 277,152 661,152 638,0 1036,-506 399,-506 399,-1331 Q 3713,922 3314,415 2916,-91 2278,-91 1894,-91 1617,61 1341,213 1159,525 V 0 H 581 v 4863 h 578 z"
                 transform="scale(0.015625)" />
              <path
                 id="DejaVuSans-66"
                 d="m 2375,4863 v -479 h -550 q -309,0 -430,-125 -120,-125 -120,-450 v -309 h 947 V 3053 H 1275 V 0 H 697 V 3053 H 147 v 447 h 550 v 244 q 0,584 272,851 272,268 862,268 z"
                 transform="scale(0.015625)" />
            </defs>
            <use
               xlink:href="#DejaVuSans-4e"
               id="use4081" />
            <use
               xlink:href="#DejaVuSans-75"
               x="74.804688"
               id="use4083" />
            <use
               xlink:href="#DejaVuSans-6d"
               x="138.18359"
               id="use4085" />
            <use
               xlink:href="#DejaVuSans-62"
               x="235.5957"
               id="use4087" />
            <use
               xlink:href="#DejaVuSans-65"
               x="299.07227"
               id="use4089" />
            <use
               xlink:href="#DejaVuSans-72"
               x="360.5957"
               id="use4091" />
            <use
               xlink:href="#DejaVuSans-20"
               x="401.70898"
               id="use4093" />
            <use
               xlink:href="#DejaVuSans-6f"
               x="433.49609"
               id="use4095" />
            <use
               xlink:href="#DejaVuSans-66"
               x="494.67773"
               id="use4097" />
            <use
               xlink:href="#DejaVuSans-20"
               x="529.88281"
               id="use4099" />
            <use
               xlink:href="#DejaVuSans-63"
               x="561.66992"
               id="use4101" />
            <use
               xlink:href="#DejaVuSans-6c"
               x="616.65039"
               id="use4103" />
            <use
               xlink:href="#DejaVuSans-75"
               x="644.43359"
               id="use4105" />
            <use
               xlink:href="#DejaVuSans-73"
               x="707.8125"
               id="use4107" />
            <use
               xlink:href="#DejaVuSans-74"
               x="759.91211"
               id="use4109" />
            <use
               xlink:href="#DejaVuSans-65"
               x="799.12109"
               id="use4111" />
            <use
               xlink:href="#DejaVuSans-72"
               x="860.64453"
               id="use4113" />
            <use
               xlink:href="#DejaVuSans-73"
               x="901.75781"
               id="use4115" />
          </g>
        </g>
      </g>
      <g
         id="patch_8">
        <path
           d="M 72,384.48 V 51.84"
           style="fill:none;stroke:#000000;stroke-width:0.8;stroke-linecap:square;stroke-linejoin:miter"
           id="path4121" />
      </g>
      <g
         id="patch_9">
        <path
           d="M 518.4,384.48 V 51.84"
           style="fill:none;stroke:#000000;stroke-width:0.8;stroke-linecap:square;stroke-linejoin:miter"
           id="path4124" />
      </g>
      <g
         id="patch_10">
        <path
           d="M 72,384.48 H 518.4"
           style="fill:none;stroke:#000000;stroke-width:0.8;stroke-linecap:square;stroke-linejoin:miter"
           id="path4127" />
      </g>
      <g
         id="patch_11">
        <path
           d="M 72,51.84 H 518.4"
           style="fill:none;stroke:#000000;stroke-width:0.8;stroke-linecap:square;stroke-linejoin:miter"
           id="path4130" />
      </g>
      <g
         id="text_11">
        <!-- 82 -->
        <g
           transform="matrix(0.1,0,0,-0.1,132.5975,144.07371)"
           id="g4137">
          <use
             xlink:href="#DejaVuSans-38"
             id="use4133" />
          <use
             xlink:href="#DejaVuSans-32"
             x="63.623047"
             id="use4135" />
        </g>
      </g>
      <g
         id="text_12">
        <!-- 109 -->
        <g
           transform="matrix(0.1,0,0,-0.1,352.61625,65.600312)"
           id="g4149">
          <defs
             id="defs4141">
            <path
               id="DejaVuSans-39"
               d="m 703,97 v 575 q 238,-113 481,-172 244,-59 479,-59 625,0 954,420 330,420 377,1277 -181,-269 -460,-413 -278,-144 -615,-144 -700,0 -1108,423 -408,424 -408,1159 0,718 425,1152 425,435 1131,435 810,0 1236,-621 427,-620 427,-1801 Q 3622,1225 3098,567 2575,-91 1691,-91 1453,-91 1209,-44 966,3 703,97 Z m 1256,1978 q 425,0 673,290 249,291 249,798 0,503 -249,795 -248,292 -673,292 -425,0 -673,-292 -248,-292 -248,-795 0,-507 248,-798 248,-290 673,-290 z"
               transform="scale(0.015625)" />
          </defs>
          <use
             xlink:href="#DejaVuSans-31"
             id="use4143" />
          <use
             xlink:href="#DejaVuSans-30"
             x="63.623047"
             id="use4145" />
          <use
             xlink:href="#DejaVuSans-39"
             x="127.24609"
             id="use4147" />
        </g>
      </g>
      <g
         id="text_13">
        <!-- 29 -->
        <g
           transform="matrix(0.1,0,0,-0.1,445.0775,298.11407)"
           id="g4156">
          <use
             xlink:href="#DejaVuSans-32"
             id="use4152" />
          <use
             xlink:href="#DejaVuSans-39"
             x="63.623047"
             id="use4154" />
        </g>
      </g>
      <g
         id="legend_1">
        <g
           id="patch_12">
          <path
             d="m 530.528,384.48 h 91.3725 q 3.2,0 3.2,-3.2 v -45.37 q 0,-3.2 -3.2,-3.2 H 530.528 q -3.2,0 -3.2,3.2 v 45.37 q 0,3.2 3.2,3.2 z"
             style="opacity:0.8;fill:#ffffff;stroke:#cccccc;stroke-linejoin:miter"
             id="path4159" />
        </g>
        <g
           id="patch_13">
          <path
             d="m 533.728,351.2675 h 32 v -11.2 h -32 z"
             style="fill:#176d9c"
             id="path4162" />
        </g>
        <g
           id="text_14">
          <!-- False -->
          <g
             transform="matrix(0.16,0,0,-0.16,578.528,351.2675)"
             id="g4178">
            <defs
               id="defs4166">
              <path
                 id="DejaVuSans-46"
                 d="M 628,4666 H 3309 V 4134 H 1259 V 2759 H 3109 V 2228 H 1259 V 0 H 628 Z"
                 transform="scale(0.015625)" />
            </defs>
            <use
               xlink:href="#DejaVuSans-46"
               id="use4168" />
            <use
               xlink:href="#DejaVuSans-61"
               x="48.394531"
               id="use4170" />
            <use
               xlink:href="#DejaVuSans-6c"
               x="109.67383"
               id="use4172" />
            <use
               xlink:href="#DejaVuSans-73"
               x="137.45703"
               id="use4174" />
            <use
               xlink:href="#DejaVuSans-65"
               x="189.55664"
               id="use4176" />
          </g>
        </g>
        <g
           id="patch_14">
          <path
             d="m 533.728,374.7525 h 32 v -11.2 h -32 z"
             style="fill:#c38820"
             id="path4181" />
        </g>
        <g
           id="text_15">
          <!-- True -->
          <g
             transform="matrix(0.16,0,0,-0.16,578.528,374.7525)"
             id="g4195">
            <defs
               id="defs4185">
              <path
                 id="DejaVuSans-54"
                 d="M -19,4666 H 3928 V 4134 H 2272 V 0 H 1638 V 4134 H -19 Z"
                 transform="scale(0.015625)" />
            </defs>
            <use
               xlink:href="#DejaVuSans-54"
               id="use4187" />
            <use
               xlink:href="#DejaVuSans-72"
               x="46.333984"
               id="use4189" />
            <use
               xlink:href="#DejaVuSans-75"
               x="87.447266"
               id="use4191" />
            <use
               xlink:href="#DejaVuSans-65"
               x="150.82617"
               id="use4193" />
          </g>
        </g>
      </g>
    </g>
  </g>
  <defs
     id="defs4204">
    <clipPath
       id="pe26cd9f13a">
      <rect
         x="72"
         y="51.84"
         width="446.4"
         height="332.64"
         id="rect4201" />
    </clipPath>
  </defs>
</svg>
