<?xml version="1.0" encoding="utf-8" standalone="no"?>
<!DOCTYPE svg PUBLIC "-//W3C//DTD SVG 1.1//EN"
  "http://www.w3.org/Graphics/SVG/1.1/DTD/svg11.dtd">
<svg xmlns:xlink="http://www.w3.org/1999/xlink" width="576pt" height="432pt" viewBox="0 0 576 432" xmlns="http://www.w3.org/2000/svg" version="1.1">
 <metadata>
  <rdf:RDF xmlns:dc="http://purl.org/dc/elements/1.1/" xmlns:cc="http://creativecommons.org/ns#" xmlns:rdf="http://www.w3.org/1999/02/22-rdf-syntax-ns#">
   <cc:Work>
    <dc:type rdf:resource="http://purl.org/dc/dcmitype/StillImage"/>
    <dc:date>2023-11-30T15:08:09.117766</dc:date>
    <dc:format>image/svg+xml</dc:format>
    <dc:creator>
     <cc:Agent>
      <dc:title>Matplotlib v3.8.2, https://matplotlib.org/</dc:title>
     </cc:Agent>
    </dc:creator>
   </cc:Work>
  </rdf:RDF>
 </metadata>
 <defs>
  <style type="text/css">*{stroke-linejoin: round; stroke-linecap: butt}</style>
 </defs>
 <g id="figure_1">
  <g id="patch_1">
   <path d="M 0 432 
L 576 432 
L 576 0 
L 0 0 
z
" style="fill: #ffffff"/>
  </g>
  <g id="axes_1">
   <g id="patch_2">
    <path d="M 72 384.48 
L 518.4 384.48 
L 518.4 51.84 
L 72 51.84 
z
" style="fill: #ffffff"/>
   </g>
   <g id="patch_3">
    <path d="M 94.32 384.48 
L 106.224 384.48 
L 106.224 275.862857 
L 94.32 275.862857 
z
" clip-path="url(#pcc74d66b7b)" style="fill: #176d9c"/>
   </g>
   <g id="patch_4">
    <path d="M 317.52 384.48 
L 329.424 384.48 
L 329.424 121.988571 
L 317.52 121.988571 
z
" clip-path="url(#pcc74d66b7b)" style="fill: #176d9c"/>
   </g>
   <g id="patch_5">
    <path d="M 106.224 384.48 
L 118.128 384.48 
L 118.128 248.708571 
L 106.224 248.708571 
z
" clip-path="url(#pcc74d66b7b)" style="fill: #c38820"/>
   </g>
   <g id="patch_6">
    <path d="M 329.424 384.48 
L 341.328 384.48 
L 341.328 67.68 
L 329.424 67.68 
z
" clip-path="url(#pcc74d66b7b)" style="fill: #c38820"/>
   </g>
   <g id="patch_7">
    <path d="M 118.128 384.48 
L 130.032 384.48 
L 130.032 275.862857 
L 118.128 275.862857 
z
" clip-path="url(#pcc74d66b7b)" style="fill: #158b6a"/>
   </g>
   <g id="patch_8">
    <path d="M 341.328 384.48 
L 353.232 384.48 
L 353.232 230.605714 
L 341.328 230.605714 
z
" clip-path="url(#pcc74d66b7b)" style="fill: #158b6a"/>
   </g>
   <g id="patch_9">
    <path d="M 130.032 384.48 
L 141.936 384.48 
L 141.936 339.222857 
L 130.032 339.222857 
z
" clip-path="url(#pcc74d66b7b)" style="fill: #ba611b"/>
   </g>
   <g id="patch_10">
    <path d="M 353.232 384.48 
L 365.136 384.48 
L 365.136 330.171429 
L 353.232 330.171429 
z
" clip-path="url(#pcc74d66b7b)" style="fill: #ba611b"/>
   </g>
   <g id="patch_11">
    <path d="M 141.936 384.48 
L 153.84 384.48 
L 153.84 303.017143 
L 141.936 303.017143 
z
" clip-path="url(#pcc74d66b7b)" style="fill: #c282b5"/>
   </g>
   <g id="patch_12">
    <path d="M 365.136 384.48 
L 377.04 384.48 
L 377.04 330.171429 
L 365.136 330.171429 
z
" clip-path="url(#pcc74d66b7b)" style="fill: #c282b5"/>
   </g>
   <g id="patch_13">
    <path d="M 153.84 384.48 
L 165.744 384.48 
L 165.744 366.377143 
L 153.84 366.377143 
z
" clip-path="url(#pcc74d66b7b)" style="fill: #bd926e"/>
   </g>
   <g id="patch_14">
    <path d="M 377.04 384.48 
L 388.944 384.48 
L 388.944 375.428571 
L 377.04 375.428571 
z
" clip-path="url(#pcc74d66b7b)" style="fill: #bd926e"/>
   </g>
   <g id="patch_15">
    <path d="M 165.744 384.48 
L 177.648 384.48 
L 177.648 312.068571 
L 165.744 312.068571 
z
" clip-path="url(#pcc74d66b7b)" style="fill: #f2b8e0"/>
   </g>
   <g id="patch_16">
    <path d="M 388.944 384.48 
L 400.848 384.48 
L 400.848 375.428571 
L 388.944 375.428571 
z
" clip-path="url(#pcc74d66b7b)" style="fill: #f2b8e0"/>
   </g>
   <g id="patch_17">
    <path d="M 177.648 384.48 
L 189.552 384.48 
L 189.552 357.325714 
L 177.648 357.325714 
z
" clip-path="url(#pcc74d66b7b)" style="fill: #949494"/>
   </g>
   <g id="patch_18">
    <path d="M 189.552 384.48 
L 201.456 384.48 
L 201.456 357.325714 
L 189.552 357.325714 
z
" clip-path="url(#pcc74d66b7b)" style="fill: #d5cd4a"/>
   </g>
   <g id="patch_19">
    <path d="M 412.752 384.48 
L 424.656 384.48 
L 424.656 339.222857 
L 412.752 339.222857 
z
" clip-path="url(#pcc74d66b7b)" style="fill: #d5cd4a"/>
   </g>
   <g id="patch_20">
    <path d="M 201.456 384.48 
L 213.36 384.48 
L 213.36 321.12 
L 201.456 321.12 
z
" clip-path="url(#pcc74d66b7b)" style="fill: #68afd7"/>
   </g>
   <g id="patch_21">
    <path d="M 424.656 384.48 
L 436.56 384.48 
L 436.56 357.325714 
L 424.656 357.325714 
z
" clip-path="url(#pcc74d66b7b)" style="fill: #68afd7"/>
   </g>
   <g id="patch_22">
    <path d="M 213.36 384.48 
L 225.264 384.48 
L 225.264 366.377143 
L 213.36 366.377143 
z
" clip-path="url(#pcc74d66b7b)" style="fill: #176d9c"/>
   </g>
   <g id="patch_23">
    <path d="M 436.56 384.48 
L 448.464 384.48 
L 448.464 339.222857 
L 436.56 339.222857 
z
" clip-path="url(#pcc74d66b7b)" style="fill: #176d9c"/>
   </g>
   <g id="patch_24">
    <path d="M 225.264 384.48 
L 237.168 384.48 
L 237.168 366.377143 
L 225.264 366.377143 
z
" clip-path="url(#pcc74d66b7b)" style="fill: #c38820"/>
   </g>
   <g id="patch_25">
    <path d="M 237.168 384.48 
L 249.072 384.48 
L 249.072 366.377143 
L 237.168 366.377143 
z
" clip-path="url(#pcc74d66b7b)" style="fill: #158b6a"/>
   </g>
   <g id="patch_26">
    <path d="M 472.272 384.48 
L 484.176 384.48 
L 484.176 121.988571 
L 472.272 121.988571 
z
" clip-path="url(#pcc74d66b7b)" style="fill: #ba611b"/>
   </g>
   <g id="patch_27">
    <path d="M 484.176 384.48 
L 496.08 384.48 
L 496.08 375.428571 
L 484.176 375.428571 
z
" clip-path="url(#pcc74d66b7b)" style="fill: #c282b5"/>
   </g>
   <g id="patch_28">
    <path d="M 183.6 384.48 
L 183.6 384.48 
L 183.6 384.48 
L 183.6 384.48 
z
" clip-path="url(#pcc74d66b7b)" style="fill: #176d9c"/>
   </g>
   <g id="patch_29">
    <path d="M 183.6 384.48 
L 183.6 384.48 
L 183.6 384.48 
L 183.6 384.48 
z
" clip-path="url(#pcc74d66b7b)" style="fill: #c38820"/>
   </g>
   <g id="patch_30">
    <path d="M 183.6 384.48 
L 183.6 384.48 
L 183.6 384.48 
L 183.6 384.48 
z
" clip-path="url(#pcc74d66b7b)" style="fill: #158b6a"/>
   </g>
   <g id="patch_31">
    <path d="M 183.6 384.48 
L 183.6 384.48 
L 183.6 384.48 
L 183.6 384.48 
z
" clip-path="url(#pcc74d66b7b)" style="fill: #ba611b"/>
   </g>
   <g id="patch_32">
    <path d="M 183.6 384.48 
L 183.6 384.48 
L 183.6 384.48 
L 183.6 384.48 
z
" clip-path="url(#pcc74d66b7b)" style="fill: #c282b5"/>
   </g>
   <g id="patch_33">
    <path d="M 183.6 384.48 
L 183.6 384.48 
L 183.6 384.48 
L 183.6 384.48 
z
" clip-path="url(#pcc74d66b7b)" style="fill: #bd926e"/>
   </g>
   <g id="patch_34">
    <path d="M 183.6 384.48 
L 183.6 384.48 
L 183.6 384.48 
L 183.6 384.48 
z
" clip-path="url(#pcc74d66b7b)" style="fill: #f2b8e0"/>
   </g>
   <g id="patch_35">
    <path d="M 183.6 384.48 
L 183.6 384.48 
L 183.6 384.48 
L 183.6 384.48 
z
" clip-path="url(#pcc74d66b7b)" style="fill: #949494"/>
   </g>
   <g id="patch_36">
    <path d="M 183.6 384.48 
L 183.6 384.48 
L 183.6 384.48 
L 183.6 384.48 
z
" clip-path="url(#pcc74d66b7b)" style="fill: #d5cd4a"/>
   </g>
   <g id="patch_37">
    <path d="M 183.6 384.48 
L 183.6 384.48 
L 183.6 384.48 
L 183.6 384.48 
z
" clip-path="url(#pcc74d66b7b)" style="fill: #68afd7"/>
   </g>
   <g id="patch_38">
    <path d="M 183.6 384.48 
L 183.6 384.48 
L 183.6 384.48 
L 183.6 384.48 
z
" clip-path="url(#pcc74d66b7b)" style="fill: #176d9c"/>
   </g>
   <g id="patch_39">
    <path d="M 183.6 384.48 
L 183.6 384.48 
L 183.6 384.48 
L 183.6 384.48 
z
" clip-path="url(#pcc74d66b7b)" style="fill: #c38820"/>
   </g>
   <g id="patch_40">
    <path d="M 183.6 384.48 
L 183.6 384.48 
L 183.6 384.48 
L 183.6 384.48 
z
" clip-path="url(#pcc74d66b7b)" style="fill: #158b6a"/>
   </g>
   <g id="patch_41">
    <path d="M 183.6 384.48 
L 183.6 384.48 
L 183.6 384.48 
L 183.6 384.48 
z
" clip-path="url(#pcc74d66b7b)" style="fill: #ba611b"/>
   </g>
   <g id="patch_42">
    <path d="M 183.6 384.48 
L 183.6 384.48 
L 183.6 384.48 
L 183.6 384.48 
z
" clip-path="url(#pcc74d66b7b)" style="fill: #c282b5"/>
   </g>
   <g id="matplotlib.axis_1">
    <g id="xtick_1">
     <g id="line2d_1">
      <defs>
       <path id="m7b123588fc" d="M 0 0 
L 0 3.5 
" style="stroke: #000000; stroke-width: 0.8"/>
      </defs>
      <g>
       <use xlink:href="#m7b123588fc" x="183.6" y="384.48" style="stroke: #000000; stroke-width: 0.8"/>
      </g>
     </g>
     <g id="text_1">
      <!-- not relevant -->
      <g transform="translate(128.853281 405.157188) scale(0.18 -0.18)">
       <defs>
        <path id="DejaVuSans-6e" d="M 3513 2113 
L 3513 0 
L 2938 0 
L 2938 2094 
Q 2938 2591 2744 2837 
Q 2550 3084 2163 3084 
Q 1697 3084 1428 2787 
Q 1159 2491 1159 1978 
L 1159 0 
L 581 0 
L 581 3500 
L 1159 3500 
L 1159 2956 
Q 1366 3272 1645 3428 
Q 1925 3584 2291 3584 
Q 2894 3584 3203 3211 
Q 3513 2838 3513 2113 
z
" transform="scale(0.015625)"/>
        <path id="DejaVuSans-6f" d="M 1959 3097 
Q 1497 3097 1228 2736 
Q 959 2375 959 1747 
Q 959 1119 1226 758 
Q 1494 397 1959 397 
Q 2419 397 2687 759 
Q 2956 1122 2956 1747 
Q 2956 2369 2687 2733 
Q 2419 3097 1959 3097 
z
M 1959 3584 
Q 2709 3584 3137 3096 
Q 3566 2609 3566 1747 
Q 3566 888 3137 398 
Q 2709 -91 1959 -91 
Q 1206 -91 779 398 
Q 353 888 353 1747 
Q 353 2609 779 3096 
Q 1206 3584 1959 3584 
z
" transform="scale(0.015625)"/>
        <path id="DejaVuSans-74" d="M 1172 4494 
L 1172 3500 
L 2356 3500 
L 2356 3053 
L 1172 3053 
L 1172 1153 
Q 1172 725 1289 603 
Q 1406 481 1766 481 
L 2356 481 
L 2356 0 
L 1766 0 
Q 1100 0 847 248 
Q 594 497 594 1153 
L 594 3053 
L 172 3053 
L 172 3500 
L 594 3500 
L 594 4494 
L 1172 4494 
z
" transform="scale(0.015625)"/>
        <path id="DejaVuSans-20" transform="scale(0.015625)"/>
        <path id="DejaVuSans-72" d="M 2631 2963 
Q 2534 3019 2420 3045 
Q 2306 3072 2169 3072 
Q 1681 3072 1420 2755 
Q 1159 2438 1159 1844 
L 1159 0 
L 581 0 
L 581 3500 
L 1159 3500 
L 1159 2956 
Q 1341 3275 1631 3429 
Q 1922 3584 2338 3584 
Q 2397 3584 2469 3576 
Q 2541 3569 2628 3553 
L 2631 2963 
z
" transform="scale(0.015625)"/>
        <path id="DejaVuSans-65" d="M 3597 1894 
L 3597 1613 
L 953 1613 
Q 991 1019 1311 708 
Q 1631 397 2203 397 
Q 2534 397 2845 478 
Q 3156 559 3463 722 
L 3463 178 
Q 3153 47 2828 -22 
Q 2503 -91 2169 -91 
Q 1331 -91 842 396 
Q 353 884 353 1716 
Q 353 2575 817 3079 
Q 1281 3584 2069 3584 
Q 2775 3584 3186 3129 
Q 3597 2675 3597 1894 
z
M 3022 2063 
Q 3016 2534 2758 2815 
Q 2500 3097 2075 3097 
Q 1594 3097 1305 2825 
Q 1016 2553 972 2059 
L 3022 2063 
z
" transform="scale(0.015625)"/>
        <path id="DejaVuSans-6c" d="M 603 4863 
L 1178 4863 
L 1178 0 
L 603 0 
L 603 4863 
z
" transform="scale(0.015625)"/>
        <path id="DejaVuSans-76" d="M 191 3500 
L 800 3500 
L 1894 563 
L 2988 3500 
L 3597 3500 
L 2284 0 
L 1503 0 
L 191 3500 
z
" transform="scale(0.015625)"/>
        <path id="DejaVuSans-61" d="M 2194 1759 
Q 1497 1759 1228 1600 
Q 959 1441 959 1056 
Q 959 750 1161 570 
Q 1363 391 1709 391 
Q 2188 391 2477 730 
Q 2766 1069 2766 1631 
L 2766 1759 
L 2194 1759 
z
M 3341 1997 
L 3341 0 
L 2766 0 
L 2766 531 
Q 2569 213 2275 61 
Q 1981 -91 1556 -91 
Q 1019 -91 701 211 
Q 384 513 384 1019 
Q 384 1609 779 1909 
Q 1175 2209 1959 2209 
L 2766 2209 
L 2766 2266 
Q 2766 2663 2505 2880 
Q 2244 3097 1772 3097 
Q 1472 3097 1187 3025 
Q 903 2953 641 2809 
L 641 3341 
Q 956 3463 1253 3523 
Q 1550 3584 1831 3584 
Q 2591 3584 2966 3190 
Q 3341 2797 3341 1997 
z
" transform="scale(0.015625)"/>
       </defs>
       <use xlink:href="#DejaVuSans-6e"/>
       <use xlink:href="#DejaVuSans-6f" x="63.378906"/>
       <use xlink:href="#DejaVuSans-74" x="124.560547"/>
       <use xlink:href="#DejaVuSans-20" x="163.769531"/>
       <use xlink:href="#DejaVuSans-72" x="195.556641"/>
       <use xlink:href="#DejaVuSans-65" x="234.419922"/>
       <use xlink:href="#DejaVuSans-6c" x="295.943359"/>
       <use xlink:href="#DejaVuSans-65" x="323.726562"/>
       <use xlink:href="#DejaVuSans-76" x="385.25"/>
       <use xlink:href="#DejaVuSans-61" x="444.429688"/>
       <use xlink:href="#DejaVuSans-6e" x="505.708984"/>
       <use xlink:href="#DejaVuSans-74" x="569.087891"/>
      </g>
     </g>
    </g>
    <g id="xtick_2">
     <g id="line2d_2">
      <g>
       <use xlink:href="#m7b123588fc" x="406.8" y="384.48" style="stroke: #000000; stroke-width: 0.8"/>
      </g>
     </g>
     <g id="text_2">
      <!-- relevant -->
      <g transform="translate(369.6525 405.157188) scale(0.18 -0.18)">
       <use xlink:href="#DejaVuSans-72"/>
       <use xlink:href="#DejaVuSans-65" x="38.863281"/>
       <use xlink:href="#DejaVuSans-6c" x="100.386719"/>
       <use xlink:href="#DejaVuSans-65" x="128.169922"/>
       <use xlink:href="#DejaVuSans-76" x="189.693359"/>
       <use xlink:href="#DejaVuSans-61" x="248.873047"/>
       <use xlink:href="#DejaVuSans-6e" x="310.152344"/>
       <use xlink:href="#DejaVuSans-74" x="373.53125"/>
      </g>
     </g>
    </g>
    <g id="text_3">
     <!-- clusters relevance -->
     <g transform="translate(203.798437 428.0975) scale(0.2 -0.2)">
      <defs>
       <path id="DejaVuSans-63" d="M 3122 3366 
L 3122 2828 
Q 2878 2963 2633 3030 
Q 2388 3097 2138 3097 
Q 1578 3097 1268 2742 
Q 959 2388 959 1747 
Q 959 1106 1268 751 
Q 1578 397 2138 397 
Q 2388 397 2633 464 
Q 2878 531 3122 666 
L 3122 134 
Q 2881 22 2623 -34 
Q 2366 -91 2075 -91 
Q 1284 -91 818 406 
Q 353 903 353 1747 
Q 353 2603 823 3093 
Q 1294 3584 2113 3584 
Q 2378 3584 2631 3529 
Q 2884 3475 3122 3366 
z
" transform="scale(0.015625)"/>
       <path id="DejaVuSans-75" d="M 544 1381 
L 544 3500 
L 1119 3500 
L 1119 1403 
Q 1119 906 1312 657 
Q 1506 409 1894 409 
Q 2359 409 2629 706 
Q 2900 1003 2900 1516 
L 2900 3500 
L 3475 3500 
L 3475 0 
L 2900 0 
L 2900 538 
Q 2691 219 2414 64 
Q 2138 -91 1772 -91 
Q 1169 -91 856 284 
Q 544 659 544 1381 
z
M 1991 3584 
L 1991 3584 
z
" transform="scale(0.015625)"/>
       <path id="DejaVuSans-73" d="M 2834 3397 
L 2834 2853 
Q 2591 2978 2328 3040 
Q 2066 3103 1784 3103 
Q 1356 3103 1142 2972 
Q 928 2841 928 2578 
Q 928 2378 1081 2264 
Q 1234 2150 1697 2047 
L 1894 2003 
Q 2506 1872 2764 1633 
Q 3022 1394 3022 966 
Q 3022 478 2636 193 
Q 2250 -91 1575 -91 
Q 1294 -91 989 -36 
Q 684 19 347 128 
L 347 722 
Q 666 556 975 473 
Q 1284 391 1588 391 
Q 1994 391 2212 530 
Q 2431 669 2431 922 
Q 2431 1156 2273 1281 
Q 2116 1406 1581 1522 
L 1381 1569 
Q 847 1681 609 1914 
Q 372 2147 372 2553 
Q 372 3047 722 3315 
Q 1072 3584 1716 3584 
Q 2034 3584 2315 3537 
Q 2597 3491 2834 3397 
z
" transform="scale(0.015625)"/>
      </defs>
      <use xlink:href="#DejaVuSans-63"/>
      <use xlink:href="#DejaVuSans-6c" x="54.980469"/>
      <use xlink:href="#DejaVuSans-75" x="82.763672"/>
      <use xlink:href="#DejaVuSans-73" x="146.142578"/>
      <use xlink:href="#DejaVuSans-74" x="198.242188"/>
      <use xlink:href="#DejaVuSans-65" x="237.451172"/>
      <use xlink:href="#DejaVuSans-72" x="298.974609"/>
      <use xlink:href="#DejaVuSans-73" x="340.087891"/>
      <use xlink:href="#DejaVuSans-20" x="392.1875"/>
      <use xlink:href="#DejaVuSans-72" x="423.974609"/>
      <use xlink:href="#DejaVuSans-65" x="462.837891"/>
      <use xlink:href="#DejaVuSans-6c" x="524.361328"/>
      <use xlink:href="#DejaVuSans-65" x="552.144531"/>
      <use xlink:href="#DejaVuSans-76" x="613.667969"/>
      <use xlink:href="#DejaVuSans-61" x="672.847656"/>
      <use xlink:href="#DejaVuSans-6e" x="734.126953"/>
      <use xlink:href="#DejaVuSans-63" x="797.505859"/>
      <use xlink:href="#DejaVuSans-65" x="852.486328"/>
     </g>
    </g>
   </g>
   <g id="matplotlib.axis_2">
    <g id="ytick_1">
     <g id="line2d_3">
      <defs>
       <path id="m7e661c6a92" d="M 0 0 
L -3.5 0 
" style="stroke: #000000; stroke-width: 0.8"/>
      </defs>
      <g>
       <use xlink:href="#m7e661c6a92" x="72" y="384.48" style="stroke: #000000; stroke-width: 0.8"/>
      </g>
     </g>
     <g id="text_4">
      <!-- 0 -->
      <g transform="translate(53.5475 391.318594) scale(0.18 -0.18)">
       <defs>
        <path id="DejaVuSans-30" d="M 2034 4250 
Q 1547 4250 1301 3770 
Q 1056 3291 1056 2328 
Q 1056 1369 1301 889 
Q 1547 409 2034 409 
Q 2525 409 2770 889 
Q 3016 1369 3016 2328 
Q 3016 3291 2770 3770 
Q 2525 4250 2034 4250 
z
M 2034 4750 
Q 2819 4750 3233 4129 
Q 3647 3509 3647 2328 
Q 3647 1150 3233 529 
Q 2819 -91 2034 -91 
Q 1250 -91 836 529 
Q 422 1150 422 2328 
Q 422 3509 836 4129 
Q 1250 4750 2034 4750 
z
" transform="scale(0.015625)"/>
       </defs>
       <use xlink:href="#DejaVuSans-30"/>
      </g>
     </g>
    </g>
    <g id="ytick_2">
     <g id="line2d_4">
      <g>
       <use xlink:href="#m7e661c6a92" x="72" y="339.222857" style="stroke: #000000; stroke-width: 0.8"/>
      </g>
     </g>
     <g id="text_5">
      <!-- 5 -->
      <g transform="translate(53.5475 346.061451) scale(0.18 -0.18)">
       <defs>
        <path id="DejaVuSans-35" d="M 691 4666 
L 3169 4666 
L 3169 4134 
L 1269 4134 
L 1269 2991 
Q 1406 3038 1543 3061 
Q 1681 3084 1819 3084 
Q 2600 3084 3056 2656 
Q 3513 2228 3513 1497 
Q 3513 744 3044 326 
Q 2575 -91 1722 -91 
Q 1428 -91 1123 -41 
Q 819 9 494 109 
L 494 744 
Q 775 591 1075 516 
Q 1375 441 1709 441 
Q 2250 441 2565 725 
Q 2881 1009 2881 1497 
Q 2881 1984 2565 2268 
Q 2250 2553 1709 2553 
Q 1456 2553 1204 2497 
Q 953 2441 691 2322 
L 691 4666 
z
" transform="scale(0.015625)"/>
       </defs>
       <use xlink:href="#DejaVuSans-35"/>
      </g>
     </g>
    </g>
    <g id="ytick_3">
     <g id="line2d_5">
      <g>
       <use xlink:href="#m7e661c6a92" x="72" y="293.965714" style="stroke: #000000; stroke-width: 0.8"/>
      </g>
     </g>
     <g id="text_6">
      <!-- 10 -->
      <g transform="translate(42.095 300.804308) scale(0.18 -0.18)">
       <defs>
        <path id="DejaVuSans-31" d="M 794 531 
L 1825 531 
L 1825 4091 
L 703 3866 
L 703 4441 
L 1819 4666 
L 2450 4666 
L 2450 531 
L 3481 531 
L 3481 0 
L 794 0 
L 794 531 
z
" transform="scale(0.015625)"/>
       </defs>
       <use xlink:href="#DejaVuSans-31"/>
       <use xlink:href="#DejaVuSans-30" x="63.623047"/>
      </g>
     </g>
    </g>
    <g id="ytick_4">
     <g id="line2d_6">
      <g>
       <use xlink:href="#m7e661c6a92" x="72" y="248.708571" style="stroke: #000000; stroke-width: 0.8"/>
      </g>
     </g>
     <g id="text_7">
      <!-- 15 -->
      <g transform="translate(42.095 255.547165) scale(0.18 -0.18)">
       <use xlink:href="#DejaVuSans-31"/>
       <use xlink:href="#DejaVuSans-35" x="63.623047"/>
      </g>
     </g>
    </g>
    <g id="ytick_5">
     <g id="line2d_7">
      <g>
       <use xlink:href="#m7e661c6a92" x="72" y="203.451429" style="stroke: #000000; stroke-width: 0.8"/>
      </g>
     </g>
     <g id="text_8">
      <!-- 20 -->
      <g transform="translate(42.095 210.290022) scale(0.18 -0.18)">
       <defs>
        <path id="DejaVuSans-32" d="M 1228 531 
L 3431 531 
L 3431 0 
L 469 0 
L 469 531 
Q 828 903 1448 1529 
Q 2069 2156 2228 2338 
Q 2531 2678 2651 2914 
Q 2772 3150 2772 3378 
Q 2772 3750 2511 3984 
Q 2250 4219 1831 4219 
Q 1534 4219 1204 4116 
Q 875 4013 500 3803 
L 500 4441 
Q 881 4594 1212 4672 
Q 1544 4750 1819 4750 
Q 2544 4750 2975 4387 
Q 3406 4025 3406 3419 
Q 3406 3131 3298 2873 
Q 3191 2616 2906 2266 
Q 2828 2175 2409 1742 
Q 1991 1309 1228 531 
z
" transform="scale(0.015625)"/>
       </defs>
       <use xlink:href="#DejaVuSans-32"/>
       <use xlink:href="#DejaVuSans-30" x="63.623047"/>
      </g>
     </g>
    </g>
    <g id="ytick_6">
     <g id="line2d_8">
      <g>
       <use xlink:href="#m7e661c6a92" x="72" y="158.194286" style="stroke: #000000; stroke-width: 0.8"/>
      </g>
     </g>
     <g id="text_9">
      <!-- 25 -->
      <g transform="translate(42.095 165.032879) scale(0.18 -0.18)">
       <use xlink:href="#DejaVuSans-32"/>
       <use xlink:href="#DejaVuSans-35" x="63.623047"/>
      </g>
     </g>
    </g>
    <g id="ytick_7">
     <g id="line2d_9">
      <g>
       <use xlink:href="#m7e661c6a92" x="72" y="112.937143" style="stroke: #000000; stroke-width: 0.8"/>
      </g>
     </g>
     <g id="text_10">
      <!-- 30 -->
      <g transform="translate(42.095 119.775737) scale(0.18 -0.18)">
       <defs>
        <path id="DejaVuSans-33" d="M 2597 2516 
Q 3050 2419 3304 2112 
Q 3559 1806 3559 1356 
Q 3559 666 3084 287 
Q 2609 -91 1734 -91 
Q 1441 -91 1130 -33 
Q 819 25 488 141 
L 488 750 
Q 750 597 1062 519 
Q 1375 441 1716 441 
Q 2309 441 2620 675 
Q 2931 909 2931 1356 
Q 2931 1769 2642 2001 
Q 2353 2234 1838 2234 
L 1294 2234 
L 1294 2753 
L 1863 2753 
Q 2328 2753 2575 2939 
Q 2822 3125 2822 3475 
Q 2822 3834 2567 4026 
Q 2313 4219 1838 4219 
Q 1578 4219 1281 4162 
Q 984 4106 628 3988 
L 628 4550 
Q 988 4650 1302 4700 
Q 1616 4750 1894 4750 
Q 2613 4750 3031 4423 
Q 3450 4097 3450 3541 
Q 3450 3153 3228 2886 
Q 3006 2619 2597 2516 
z
" transform="scale(0.015625)"/>
       </defs>
       <use xlink:href="#DejaVuSans-33"/>
       <use xlink:href="#DejaVuSans-30" x="63.623047"/>
      </g>
     </g>
    </g>
    <g id="ytick_8">
     <g id="line2d_10">
      <g>
       <use xlink:href="#m7e661c6a92" x="72" y="67.68" style="stroke: #000000; stroke-width: 0.8"/>
      </g>
     </g>
     <g id="text_11">
      <!-- 35 -->
      <g transform="translate(42.095 74.518594) scale(0.18 -0.18)">
       <use xlink:href="#DejaVuSans-33"/>
       <use xlink:href="#DejaVuSans-35" x="63.623047"/>
      </g>
     </g>
    </g>
    <g id="text_12">
     <!-- Number of clusters -->
     <g transform="translate(33.935625 313.544375) rotate(-90) scale(0.2 -0.2)">
      <defs>
       <path id="DejaVuSans-4e" d="M 628 4666 
L 1478 4666 
L 3547 763 
L 3547 4666 
L 4159 4666 
L 4159 0 
L 3309 0 
L 1241 3903 
L 1241 0 
L 628 0 
L 628 4666 
z
" transform="scale(0.015625)"/>
       <path id="DejaVuSans-6d" d="M 3328 2828 
Q 3544 3216 3844 3400 
Q 4144 3584 4550 3584 
Q 5097 3584 5394 3201 
Q 5691 2819 5691 2113 
L 5691 0 
L 5113 0 
L 5113 2094 
Q 5113 2597 4934 2840 
Q 4756 3084 4391 3084 
Q 3944 3084 3684 2787 
Q 3425 2491 3425 1978 
L 3425 0 
L 2847 0 
L 2847 2094 
Q 2847 2600 2669 2842 
Q 2491 3084 2119 3084 
Q 1678 3084 1418 2786 
Q 1159 2488 1159 1978 
L 1159 0 
L 581 0 
L 581 3500 
L 1159 3500 
L 1159 2956 
Q 1356 3278 1631 3431 
Q 1906 3584 2284 3584 
Q 2666 3584 2933 3390 
Q 3200 3197 3328 2828 
z
" transform="scale(0.015625)"/>
       <path id="DejaVuSans-62" d="M 3116 1747 
Q 3116 2381 2855 2742 
Q 2594 3103 2138 3103 
Q 1681 3103 1420 2742 
Q 1159 2381 1159 1747 
Q 1159 1113 1420 752 
Q 1681 391 2138 391 
Q 2594 391 2855 752 
Q 3116 1113 3116 1747 
z
M 1159 2969 
Q 1341 3281 1617 3432 
Q 1894 3584 2278 3584 
Q 2916 3584 3314 3078 
Q 3713 2572 3713 1747 
Q 3713 922 3314 415 
Q 2916 -91 2278 -91 
Q 1894 -91 1617 61 
Q 1341 213 1159 525 
L 1159 0 
L 581 0 
L 581 4863 
L 1159 4863 
L 1159 2969 
z
" transform="scale(0.015625)"/>
       <path id="DejaVuSans-66" d="M 2375 4863 
L 2375 4384 
L 1825 4384 
Q 1516 4384 1395 4259 
Q 1275 4134 1275 3809 
L 1275 3500 
L 2222 3500 
L 2222 3053 
L 1275 3053 
L 1275 0 
L 697 0 
L 697 3053 
L 147 3053 
L 147 3500 
L 697 3500 
L 697 3744 
Q 697 4328 969 4595 
Q 1241 4863 1831 4863 
L 2375 4863 
z
" transform="scale(0.015625)"/>
      </defs>
      <use xlink:href="#DejaVuSans-4e"/>
      <use xlink:href="#DejaVuSans-75" x="74.804688"/>
      <use xlink:href="#DejaVuSans-6d" x="138.183594"/>
      <use xlink:href="#DejaVuSans-62" x="235.595703"/>
      <use xlink:href="#DejaVuSans-65" x="299.072266"/>
      <use xlink:href="#DejaVuSans-72" x="360.595703"/>
      <use xlink:href="#DejaVuSans-20" x="401.708984"/>
      <use xlink:href="#DejaVuSans-6f" x="433.496094"/>
      <use xlink:href="#DejaVuSans-66" x="494.677734"/>
      <use xlink:href="#DejaVuSans-20" x="529.882812"/>
      <use xlink:href="#DejaVuSans-63" x="561.669922"/>
      <use xlink:href="#DejaVuSans-6c" x="616.650391"/>
      <use xlink:href="#DejaVuSans-75" x="644.433594"/>
      <use xlink:href="#DejaVuSans-73" x="707.8125"/>
      <use xlink:href="#DejaVuSans-74" x="759.912109"/>
      <use xlink:href="#DejaVuSans-65" x="799.121094"/>
      <use xlink:href="#DejaVuSans-72" x="860.644531"/>
      <use xlink:href="#DejaVuSans-73" x="901.757812"/>
     </g>
    </g>
   </g>
   <g id="patch_43">
    <path d="M 72 384.48 
L 72 51.84 
" style="fill: none; stroke: #000000; stroke-width: 0.8; stroke-linejoin: miter; stroke-linecap: square"/>
   </g>
   <g id="patch_44">
    <path d="M 518.4 384.48 
L 518.4 51.84 
" style="fill: none; stroke: #000000; stroke-width: 0.8; stroke-linejoin: miter; stroke-linecap: square"/>
   </g>
   <g id="patch_45">
    <path d="M 72 384.48 
L 518.4 384.48 
" style="fill: none; stroke: #000000; stroke-width: 0.8; stroke-linejoin: miter; stroke-linecap: square"/>
   </g>
   <g id="patch_46">
    <path d="M 72 51.84 
L 518.4 51.84 
" style="fill: none; stroke: #000000; stroke-width: 0.8; stroke-linejoin: miter; stroke-linecap: square"/>
   </g>
   <g id="text_13">
    <!-- 12 -->
    <g transform="translate(93.9095 273.78317) scale(0.1 -0.1)">
     <use xlink:href="#DejaVuSans-31"/>
     <use xlink:href="#DejaVuSans-32" x="63.623047"/>
    </g>
   </g>
   <g id="text_14">
    <!-- 29 -->
    <g transform="translate(317.1095 119.908884) scale(0.1 -0.1)">
     <defs>
      <path id="DejaVuSans-39" d="M 703 97 
L 703 672 
Q 941 559 1184 500 
Q 1428 441 1663 441 
Q 2288 441 2617 861 
Q 2947 1281 2994 2138 
Q 2813 1869 2534 1725 
Q 2256 1581 1919 1581 
Q 1219 1581 811 2004 
Q 403 2428 403 3163 
Q 403 3881 828 4315 
Q 1253 4750 1959 4750 
Q 2769 4750 3195 4129 
Q 3622 3509 3622 2328 
Q 3622 1225 3098 567 
Q 2575 -91 1691 -91 
Q 1453 -91 1209 -44 
Q 966 3 703 97 
z
M 1959 2075 
Q 2384 2075 2632 2365 
Q 2881 2656 2881 3163 
Q 2881 3666 2632 3958 
Q 2384 4250 1959 4250 
Q 1534 4250 1286 3958 
Q 1038 3666 1038 3163 
Q 1038 2656 1286 2365 
Q 1534 2075 1959 2075 
z
" transform="scale(0.015625)"/>
     </defs>
     <use xlink:href="#DejaVuSans-32"/>
     <use xlink:href="#DejaVuSans-39" x="63.623047"/>
    </g>
   </g>
   <g id="text_15">
    <!-- 15 -->
    <g transform="translate(105.8135 246.628884) scale(0.1 -0.1)">
     <use xlink:href="#DejaVuSans-31"/>
     <use xlink:href="#DejaVuSans-35" x="63.623047"/>
    </g>
   </g>
   <g id="text_16">
    <!-- 35 -->
    <g transform="translate(329.0135 65.600313) scale(0.1 -0.1)">
     <use xlink:href="#DejaVuSans-33"/>
     <use xlink:href="#DejaVuSans-35" x="63.623047"/>
    </g>
   </g>
   <g id="text_17">
    <!-- 12 -->
    <g transform="translate(117.7175 273.78317) scale(0.1 -0.1)">
     <use xlink:href="#DejaVuSans-31"/>
     <use xlink:href="#DejaVuSans-32" x="63.623047"/>
    </g>
   </g>
   <g id="text_18">
    <!-- 17 -->
    <g transform="translate(340.9175 228.526027) scale(0.1 -0.1)">
     <defs>
      <path id="DejaVuSans-37" d="M 525 4666 
L 3525 4666 
L 3525 4397 
L 1831 0 
L 1172 0 
L 2766 4134 
L 525 4134 
L 525 4666 
z
" transform="scale(0.015625)"/>
     </defs>
     <use xlink:href="#DejaVuSans-31"/>
     <use xlink:href="#DejaVuSans-37" x="63.623047"/>
    </g>
   </g>
   <g id="text_19">
    <!-- 5 -->
    <g transform="translate(132.80275 337.14317) scale(0.1 -0.1)">
     <use xlink:href="#DejaVuSans-35"/>
    </g>
   </g>
   <g id="text_20">
    <!-- 6 -->
    <g transform="translate(356.00275 328.091741) scale(0.1 -0.1)">
     <defs>
      <path id="DejaVuSans-36" d="M 2113 2584 
Q 1688 2584 1439 2293 
Q 1191 2003 1191 1497 
Q 1191 994 1439 701 
Q 1688 409 2113 409 
Q 2538 409 2786 701 
Q 3034 994 3034 1497 
Q 3034 2003 2786 2293 
Q 2538 2584 2113 2584 
z
M 3366 4563 
L 3366 3988 
Q 3128 4100 2886 4159 
Q 2644 4219 2406 4219 
Q 1781 4219 1451 3797 
Q 1122 3375 1075 2522 
Q 1259 2794 1537 2939 
Q 1816 3084 2150 3084 
Q 2853 3084 3261 2657 
Q 3669 2231 3669 1497 
Q 3669 778 3244 343 
Q 2819 -91 2113 -91 
Q 1303 -91 875 529 
Q 447 1150 447 2328 
Q 447 3434 972 4092 
Q 1497 4750 2381 4750 
Q 2619 4750 2861 4703 
Q 3103 4656 3366 4563 
z
" transform="scale(0.015625)"/>
     </defs>
     <use xlink:href="#DejaVuSans-36"/>
    </g>
   </g>
   <g id="text_21">
    <!-- 9 -->
    <g transform="translate(144.70675 300.937455) scale(0.1 -0.1)">
     <use xlink:href="#DejaVuSans-39"/>
    </g>
   </g>
   <g id="text_22">
    <!-- 6 -->
    <g transform="translate(367.90675 328.091741) scale(0.1 -0.1)">
     <use xlink:href="#DejaVuSans-36"/>
    </g>
   </g>
   <g id="text_23">
    <!-- 2 -->
    <g transform="translate(156.61075 364.297455) scale(0.1 -0.1)">
     <use xlink:href="#DejaVuSans-32"/>
    </g>
   </g>
   <g id="text_24">
    <!-- 1 -->
    <g transform="translate(379.81075 373.348884) scale(0.1 -0.1)">
     <use xlink:href="#DejaVuSans-31"/>
    </g>
   </g>
   <g id="text_25">
    <!-- 8 -->
    <g transform="translate(168.51475 309.988884) scale(0.1 -0.1)">
     <defs>
      <path id="DejaVuSans-38" d="M 2034 2216 
Q 1584 2216 1326 1975 
Q 1069 1734 1069 1313 
Q 1069 891 1326 650 
Q 1584 409 2034 409 
Q 2484 409 2743 651 
Q 3003 894 3003 1313 
Q 3003 1734 2745 1975 
Q 2488 2216 2034 2216 
z
M 1403 2484 
Q 997 2584 770 2862 
Q 544 3141 544 3541 
Q 544 4100 942 4425 
Q 1341 4750 2034 4750 
Q 2731 4750 3128 4425 
Q 3525 4100 3525 3541 
Q 3525 3141 3298 2862 
Q 3072 2584 2669 2484 
Q 3125 2378 3379 2068 
Q 3634 1759 3634 1313 
Q 3634 634 3220 271 
Q 2806 -91 2034 -91 
Q 1263 -91 848 271 
Q 434 634 434 1313 
Q 434 1759 690 2068 
Q 947 2378 1403 2484 
z
M 1172 3481 
Q 1172 3119 1398 2916 
Q 1625 2713 2034 2713 
Q 2441 2713 2670 2916 
Q 2900 3119 2900 3481 
Q 2900 3844 2670 4047 
Q 2441 4250 2034 4250 
Q 1625 4250 1398 4047 
Q 1172 3844 1172 3481 
z
" transform="scale(0.015625)"/>
     </defs>
     <use xlink:href="#DejaVuSans-38"/>
    </g>
   </g>
   <g id="text_26">
    <!-- 1 -->
    <g transform="translate(391.71475 373.348884) scale(0.1 -0.1)">
     <use xlink:href="#DejaVuSans-31"/>
    </g>
   </g>
   <g id="text_27">
    <!-- 3 -->
    <g transform="translate(180.41875 355.246027) scale(0.1 -0.1)">
     <use xlink:href="#DejaVuSans-33"/>
    </g>
   </g>
   <g id="text_28">
    <!-- 3 -->
    <g transform="translate(192.32275 355.246027) scale(0.1 -0.1)">
     <use xlink:href="#DejaVuSans-33"/>
    </g>
   </g>
   <g id="text_29">
    <!-- 5 -->
    <g transform="translate(415.52275 337.14317) scale(0.1 -0.1)">
     <use xlink:href="#DejaVuSans-35"/>
    </g>
   </g>
   <g id="text_30">
    <!-- 7 -->
    <g transform="translate(204.22675 319.040313) scale(0.1 -0.1)">
     <use xlink:href="#DejaVuSans-37"/>
    </g>
   </g>
   <g id="text_31">
    <!-- 3 -->
    <g transform="translate(427.42675 355.246027) scale(0.1 -0.1)">
     <use xlink:href="#DejaVuSans-33"/>
    </g>
   </g>
   <g id="text_32">
    <!-- 2 -->
    <g transform="translate(216.13075 364.297455) scale(0.1 -0.1)">
     <use xlink:href="#DejaVuSans-32"/>
    </g>
   </g>
   <g id="text_33">
    <!-- 5 -->
    <g transform="translate(439.33075 337.14317) scale(0.1 -0.1)">
     <use xlink:href="#DejaVuSans-35"/>
    </g>
   </g>
   <g id="text_34">
    <!-- 2 -->
    <g transform="translate(228.03475 364.297455) scale(0.1 -0.1)">
     <use xlink:href="#DejaVuSans-32"/>
    </g>
   </g>
   <g id="text_35">
    <!-- 2 -->
    <g transform="translate(239.93875 364.297455) scale(0.1 -0.1)">
     <use xlink:href="#DejaVuSans-32"/>
    </g>
   </g>
   <g id="text_36">
    <!-- 29 -->
    <g transform="translate(471.8615 119.908884) scale(0.1 -0.1)">
     <use xlink:href="#DejaVuSans-32"/>
     <use xlink:href="#DejaVuSans-39" x="63.623047"/>
    </g>
   </g>
   <g id="text_37">
    <!-- 1 -->
    <g transform="translate(486.94675 373.348884) scale(0.1 -0.1)">
     <use xlink:href="#DejaVuSans-31"/>
    </g>
   </g>
   <g id="legend_1">
    <g id="patch_47">
     <path d="M 530.528 384.48 
L 607.8605 384.48 
Q 611.0605 384.48 611.0605 381.28 
L 611.0605 30.605 
Q 611.0605 27.405 607.8605 27.405 
L 530.528 27.405 
Q 527.328 27.405 527.328 30.605 
L 527.328 381.28 
Q 527.328 384.48 530.528 384.48 
z
" style="fill: #ffffff; opacity: 0.8; stroke: #cccccc; stroke-linejoin: miter"/>
    </g>
    <g id="patch_48">
     <path d="M 533.728 45.9625 
L 565.728 45.9625 
L 565.728 34.7625 
L 533.728 34.7625 
z
" style="fill: #176d9c"/>
    </g>
    <g id="text_38">
     <!-- 1-1 -->
     <g transform="translate(578.528 45.9625) scale(0.16 -0.16)">
      <defs>
       <path id="DejaVuSans-2d" d="M 313 2009 
L 1997 2009 
L 1997 1497 
L 313 1497 
L 313 2009 
z
" transform="scale(0.015625)"/>
      </defs>
      <use xlink:href="#DejaVuSans-31"/>
      <use xlink:href="#DejaVuSans-2d" x="63.623047"/>
      <use xlink:href="#DejaVuSans-31" x="99.707031"/>
     </g>
    </g>
    <g id="patch_49">
     <path d="M 533.728 69.4475 
L 565.728 69.4475 
L 565.728 58.2475 
L 533.728 58.2475 
z
" style="fill: #c38820"/>
    </g>
    <g id="text_39">
     <!-- 1-2 -->
     <g transform="translate(578.528 69.4475) scale(0.16 -0.16)">
      <use xlink:href="#DejaVuSans-31"/>
      <use xlink:href="#DejaVuSans-2d" x="63.623047"/>
      <use xlink:href="#DejaVuSans-32" x="99.707031"/>
     </g>
    </g>
    <g id="patch_50">
     <path d="M 533.728 92.9325 
L 565.728 92.9325 
L 565.728 81.7325 
L 533.728 81.7325 
z
" style="fill: #158b6a"/>
    </g>
    <g id="text_40">
     <!-- 1-3 -->
     <g transform="translate(578.528 92.9325) scale(0.16 -0.16)">
      <use xlink:href="#DejaVuSans-31"/>
      <use xlink:href="#DejaVuSans-2d" x="63.623047"/>
      <use xlink:href="#DejaVuSans-33" x="99.707031"/>
     </g>
    </g>
    <g id="patch_51">
     <path d="M 533.728 116.4175 
L 565.728 116.4175 
L 565.728 105.2175 
L 533.728 105.2175 
z
" style="fill: #ba611b"/>
    </g>
    <g id="text_41">
     <!-- 1-4 -->
     <g transform="translate(578.528 116.4175) scale(0.16 -0.16)">
      <defs>
       <path id="DejaVuSans-34" d="M 2419 4116 
L 825 1625 
L 2419 1625 
L 2419 4116 
z
M 2253 4666 
L 3047 4666 
L 3047 1625 
L 3713 1625 
L 3713 1100 
L 3047 1100 
L 3047 0 
L 2419 0 
L 2419 1100 
L 313 1100 
L 313 1709 
L 2253 4666 
z
" transform="scale(0.015625)"/>
      </defs>
      <use xlink:href="#DejaVuSans-31"/>
      <use xlink:href="#DejaVuSans-2d" x="63.623047"/>
      <use xlink:href="#DejaVuSans-34" x="99.707031"/>
     </g>
    </g>
    <g id="patch_52">
     <path d="M 533.728 139.9025 
L 565.728 139.9025 
L 565.728 128.7025 
L 533.728 128.7025 
z
" style="fill: #c282b5"/>
    </g>
    <g id="text_42">
     <!-- 1-5 -->
     <g transform="translate(578.528 139.9025) scale(0.16 -0.16)">
      <use xlink:href="#DejaVuSans-31"/>
      <use xlink:href="#DejaVuSans-2d" x="63.623047"/>
      <use xlink:href="#DejaVuSans-35" x="99.707031"/>
     </g>
    </g>
    <g id="patch_53">
     <path d="M 533.728 163.3875 
L 565.728 163.3875 
L 565.728 152.1875 
L 533.728 152.1875 
z
" style="fill: #bd926e"/>
    </g>
    <g id="text_43">
     <!-- 1-6 -->
     <g transform="translate(578.528 163.3875) scale(0.16 -0.16)">
      <use xlink:href="#DejaVuSans-31"/>
      <use xlink:href="#DejaVuSans-2d" x="63.623047"/>
      <use xlink:href="#DejaVuSans-36" x="99.707031"/>
     </g>
    </g>
    <g id="patch_54">
     <path d="M 533.728 186.8725 
L 565.728 186.8725 
L 565.728 175.6725 
L 533.728 175.6725 
z
" style="fill: #f2b8e0"/>
    </g>
    <g id="text_44">
     <!-- 2-1 -->
     <g transform="translate(578.528 186.8725) scale(0.16 -0.16)">
      <use xlink:href="#DejaVuSans-32"/>
      <use xlink:href="#DejaVuSans-2d" x="63.623047"/>
      <use xlink:href="#DejaVuSans-31" x="99.707031"/>
     </g>
    </g>
    <g id="patch_55">
     <path d="M 533.728 210.3575 
L 565.728 210.3575 
L 565.728 199.1575 
L 533.728 199.1575 
z
" style="fill: #949494"/>
    </g>
    <g id="text_45">
     <!-- 2-2 -->
     <g transform="translate(578.528 210.3575) scale(0.16 -0.16)">
      <use xlink:href="#DejaVuSans-32"/>
      <use xlink:href="#DejaVuSans-2d" x="63.623047"/>
      <use xlink:href="#DejaVuSans-32" x="99.707031"/>
     </g>
    </g>
    <g id="patch_56">
     <path d="M 533.728 233.8425 
L 565.728 233.8425 
L 565.728 222.6425 
L 533.728 222.6425 
z
" style="fill: #d5cd4a"/>
    </g>
    <g id="text_46">
     <!-- 2-3 -->
     <g transform="translate(578.528 233.8425) scale(0.16 -0.16)">
      <use xlink:href="#DejaVuSans-32"/>
      <use xlink:href="#DejaVuSans-2d" x="63.623047"/>
      <use xlink:href="#DejaVuSans-33" x="99.707031"/>
     </g>
    </g>
    <g id="patch_57">
     <path d="M 533.728 257.3275 
L 565.728 257.3275 
L 565.728 246.1275 
L 533.728 246.1275 
z
" style="fill: #68afd7"/>
    </g>
    <g id="text_47">
     <!-- 2-4 -->
     <g transform="translate(578.528 257.3275) scale(0.16 -0.16)">
      <use xlink:href="#DejaVuSans-32"/>
      <use xlink:href="#DejaVuSans-2d" x="63.623047"/>
      <use xlink:href="#DejaVuSans-34" x="99.707031"/>
     </g>
    </g>
    <g id="patch_58">
     <path d="M 533.728 280.8125 
L 565.728 280.8125 
L 565.728 269.6125 
L 533.728 269.6125 
z
" style="fill: #176d9c"/>
    </g>
    <g id="text_48">
     <!-- 2-5 -->
     <g transform="translate(578.528 280.8125) scale(0.16 -0.16)">
      <use xlink:href="#DejaVuSans-32"/>
      <use xlink:href="#DejaVuSans-2d" x="63.623047"/>
      <use xlink:href="#DejaVuSans-35" x="99.707031"/>
     </g>
    </g>
    <g id="patch_59">
     <path d="M 533.728 304.2975 
L 565.728 304.2975 
L 565.728 293.0975 
L 533.728 293.0975 
z
" style="fill: #c38820"/>
    </g>
    <g id="text_49">
     <!-- 2-7 -->
     <g transform="translate(578.528 304.2975) scale(0.16 -0.16)">
      <use xlink:href="#DejaVuSans-32"/>
      <use xlink:href="#DejaVuSans-2d" x="63.623047"/>
      <use xlink:href="#DejaVuSans-37" x="99.707031"/>
     </g>
    </g>
    <g id="patch_60">
     <path d="M 533.728 327.7825 
L 565.728 327.7825 
L 565.728 316.5825 
L 533.728 316.5825 
z
" style="fill: #158b6a"/>
    </g>
    <g id="text_50">
     <!-- 3-4 -->
     <g transform="translate(578.528 327.7825) scale(0.16 -0.16)">
      <use xlink:href="#DejaVuSans-33"/>
      <use xlink:href="#DejaVuSans-2d" x="63.623047"/>
      <use xlink:href="#DejaVuSans-34" x="99.707031"/>
     </g>
    </g>
    <g id="patch_61">
     <path d="M 533.728 351.2675 
L 565.728 351.2675 
L 565.728 340.0675 
L 533.728 340.0675 
z
" style="fill: #ba611b"/>
    </g>
    <g id="text_51">
     <!-- 1-0 -->
     <g transform="translate(578.528 351.2675) scale(0.16 -0.16)">
      <use xlink:href="#DejaVuSans-31"/>
      <use xlink:href="#DejaVuSans-2d" x="63.623047"/>
      <use xlink:href="#DejaVuSans-30" x="99.707031"/>
     </g>
    </g>
    <g id="patch_62">
     <path d="M 533.728 374.7525 
L 565.728 374.7525 
L 565.728 363.5525 
L 533.728 363.5525 
z
" style="fill: #c282b5"/>
    </g>
    <g id="text_52">
     <!-- 2-6 -->
     <g transform="translate(578.528 374.7525) scale(0.16 -0.16)">
      <use xlink:href="#DejaVuSans-32"/>
      <use xlink:href="#DejaVuSans-2d" x="63.623047"/>
      <use xlink:href="#DejaVuSans-36" x="99.707031"/>
     </g>
    </g>
   </g>
  </g>
 </g>
 <defs>
  <clipPath id="pcc74d66b7b">
   <rect x="72" y="51.84" width="446.4" height="332.64"/>
  </clipPath>
 </defs>
</svg>
