<?xml version="1.0" encoding="utf-8" standalone="no"?>
<!DOCTYPE svg PUBLIC "-//W3C//DTD SVG 1.1//EN"
  "http://www.w3.org/Graphics/SVG/1.1/DTD/svg11.dtd">
<svg xmlns:xlink="http://www.w3.org/1999/xlink" width="576pt" height="432pt" viewBox="0 0 576 432" xmlns="http://www.w3.org/2000/svg" version="1.1">
 <metadata>
  <rdf:RDF xmlns:dc="http://purl.org/dc/elements/1.1/" xmlns:cc="http://creativecommons.org/ns#" xmlns:rdf="http://www.w3.org/1999/02/22-rdf-syntax-ns#">
   <cc:Work>
    <dc:type rdf:resource="http://purl.org/dc/dcmitype/StillImage"/>
    <dc:date>2023-12-08T16:34:11.093133</dc:date>
    <dc:format>image/svg+xml</dc:format>
    <dc:creator>
     <cc:Agent>
      <dc:title>Matplotlib v3.8.2, https://matplotlib.org/</dc:title>
     </cc:Agent>
    </dc:creator>
   </cc:Work>
  </rdf:RDF>
 </metadata>
 <defs>
  <style type="text/css">*{stroke-linejoin: round; stroke-linecap: butt}</style>
 </defs>
 <g id="figure_1">
  <g id="patch_1">
   <path d="M 0 432 
L 576 432 
L 576 0 
L 0 0 
z
" style="fill: #ffffff"/>
  </g>
  <g id="axes_1">
   <g id="patch_2">
    <path d="M 72 384.48 
L 518.4 384.48 
L 518.4 51.84 
L 72 51.84 
z
" style="fill: #ffffff"/>
   </g>
   <g id="matplotlib.axis_1">
    <g id="xtick_1">
     <g id="line2d_1">
      <defs>
       <path id="maded2c6ac4" d="M 0 0 
L 0 3.5 
" style="stroke: #000000; stroke-width: 0.8"/>
      </defs>
      <g>
       <use xlink:href="#maded2c6ac4" x="92.290909" y="384.48" style="stroke: #000000; stroke-width: 0.8"/>
      </g>
     </g>
     <g id="text_1">
      <!-- 0 -->
      <g transform="translate(87.837159 402.117813) scale(0.14 -0.14)">
       <defs>
        <path id="DejaVuSans-30" d="M 2034 4250 
Q 1547 4250 1301 3770 
Q 1056 3291 1056 2328 
Q 1056 1369 1301 889 
Q 1547 409 2034 409 
Q 2525 409 2770 889 
Q 3016 1369 3016 2328 
Q 3016 3291 2770 3770 
Q 2525 4250 2034 4250 
z
M 2034 4750 
Q 2819 4750 3233 4129 
Q 3647 3509 3647 2328 
Q 3647 1150 3233 529 
Q 2819 -91 2034 -91 
Q 1250 -91 836 529 
Q 422 1150 422 2328 
Q 422 3509 836 4129 
Q 1250 4750 2034 4750 
z
" transform="scale(0.015625)"/>
       </defs>
       <use xlink:href="#DejaVuSans-30"/>
      </g>
     </g>
    </g>
    <g id="xtick_2">
     <g id="line2d_2">
      <g>
       <use xlink:href="#maded2c6ac4" x="173.788686" y="384.48" style="stroke: #000000; stroke-width: 0.8"/>
      </g>
     </g>
     <g id="text_2">
      <!-- 2000 -->
      <g transform="translate(155.973686 402.117813) scale(0.14 -0.14)">
       <defs>
        <path id="DejaVuSans-32" d="M 1228 531 
L 3431 531 
L 3431 0 
L 469 0 
L 469 531 
Q 828 903 1448 1529 
Q 2069 2156 2228 2338 
Q 2531 2678 2651 2914 
Q 2772 3150 2772 3378 
Q 2772 3750 2511 3984 
Q 2250 4219 1831 4219 
Q 1534 4219 1204 4116 
Q 875 4013 500 3803 
L 500 4441 
Q 881 4594 1212 4672 
Q 1544 4750 1819 4750 
Q 2544 4750 2975 4387 
Q 3406 4025 3406 3419 
Q 3406 3131 3298 2873 
Q 3191 2616 2906 2266 
Q 2828 2175 2409 1742 
Q 1991 1309 1228 531 
z
" transform="scale(0.015625)"/>
       </defs>
       <use xlink:href="#DejaVuSans-32"/>
       <use xlink:href="#DejaVuSans-30" x="63.623047"/>
       <use xlink:href="#DejaVuSans-30" x="127.246094"/>
       <use xlink:href="#DejaVuSans-30" x="190.869141"/>
      </g>
     </g>
    </g>
    <g id="xtick_3">
     <g id="line2d_3">
      <g>
       <use xlink:href="#maded2c6ac4" x="255.286464" y="384.48" style="stroke: #000000; stroke-width: 0.8"/>
      </g>
     </g>
     <g id="text_3">
      <!-- 4000 -->
      <g transform="translate(237.471464 402.117813) scale(0.14 -0.14)">
       <defs>
        <path id="DejaVuSans-34" d="M 2419 4116 
L 825 1625 
L 2419 1625 
L 2419 4116 
z
M 2253 4666 
L 3047 4666 
L 3047 1625 
L 3713 1625 
L 3713 1100 
L 3047 1100 
L 3047 0 
L 2419 0 
L 2419 1100 
L 313 1100 
L 313 1709 
L 2253 4666 
z
" transform="scale(0.015625)"/>
       </defs>
       <use xlink:href="#DejaVuSans-34"/>
       <use xlink:href="#DejaVuSans-30" x="63.623047"/>
       <use xlink:href="#DejaVuSans-30" x="127.246094"/>
       <use xlink:href="#DejaVuSans-30" x="190.869141"/>
      </g>
     </g>
    </g>
    <g id="xtick_4">
     <g id="line2d_4">
      <g>
       <use xlink:href="#maded2c6ac4" x="336.784241" y="384.48" style="stroke: #000000; stroke-width: 0.8"/>
      </g>
     </g>
     <g id="text_4">
      <!-- 6000 -->
      <g transform="translate(318.969241 402.117813) scale(0.14 -0.14)">
       <defs>
        <path id="DejaVuSans-36" d="M 2113 2584 
Q 1688 2584 1439 2293 
Q 1191 2003 1191 1497 
Q 1191 994 1439 701 
Q 1688 409 2113 409 
Q 2538 409 2786 701 
Q 3034 994 3034 1497 
Q 3034 2003 2786 2293 
Q 2538 2584 2113 2584 
z
M 3366 4563 
L 3366 3988 
Q 3128 4100 2886 4159 
Q 2644 4219 2406 4219 
Q 1781 4219 1451 3797 
Q 1122 3375 1075 2522 
Q 1259 2794 1537 2939 
Q 1816 3084 2150 3084 
Q 2853 3084 3261 2657 
Q 3669 2231 3669 1497 
Q 3669 778 3244 343 
Q 2819 -91 2113 -91 
Q 1303 -91 875 529 
Q 447 1150 447 2328 
Q 447 3434 972 4092 
Q 1497 4750 2381 4750 
Q 2619 4750 2861 4703 
Q 3103 4656 3366 4563 
z
" transform="scale(0.015625)"/>
       </defs>
       <use xlink:href="#DejaVuSans-36"/>
       <use xlink:href="#DejaVuSans-30" x="63.623047"/>
       <use xlink:href="#DejaVuSans-30" x="127.246094"/>
       <use xlink:href="#DejaVuSans-30" x="190.869141"/>
      </g>
     </g>
    </g>
    <g id="xtick_5">
     <g id="line2d_5">
      <g>
       <use xlink:href="#maded2c6ac4" x="418.282018" y="384.48" style="stroke: #000000; stroke-width: 0.8"/>
      </g>
     </g>
     <g id="text_5">
      <!-- 8000 -->
      <g transform="translate(400.467018 402.117813) scale(0.14 -0.14)">
       <defs>
        <path id="DejaVuSans-38" d="M 2034 2216 
Q 1584 2216 1326 1975 
Q 1069 1734 1069 1313 
Q 1069 891 1326 650 
Q 1584 409 2034 409 
Q 2484 409 2743 651 
Q 3003 894 3003 1313 
Q 3003 1734 2745 1975 
Q 2488 2216 2034 2216 
z
M 1403 2484 
Q 997 2584 770 2862 
Q 544 3141 544 3541 
Q 544 4100 942 4425 
Q 1341 4750 2034 4750 
Q 2731 4750 3128 4425 
Q 3525 4100 3525 3541 
Q 3525 3141 3298 2862 
Q 3072 2584 2669 2484 
Q 3125 2378 3379 2068 
Q 3634 1759 3634 1313 
Q 3634 634 3220 271 
Q 2806 -91 2034 -91 
Q 1263 -91 848 271 
Q 434 634 434 1313 
Q 434 1759 690 2068 
Q 947 2378 1403 2484 
z
M 1172 3481 
Q 1172 3119 1398 2916 
Q 1625 2713 2034 2713 
Q 2441 2713 2670 2916 
Q 2900 3119 2900 3481 
Q 2900 3844 2670 4047 
Q 2441 4250 2034 4250 
Q 1625 4250 1398 4047 
Q 1172 3844 1172 3481 
z
" transform="scale(0.015625)"/>
       </defs>
       <use xlink:href="#DejaVuSans-38"/>
       <use xlink:href="#DejaVuSans-30" x="63.623047"/>
       <use xlink:href="#DejaVuSans-30" x="127.246094"/>
       <use xlink:href="#DejaVuSans-30" x="190.869141"/>
      </g>
     </g>
    </g>
    <g id="xtick_6">
     <g id="line2d_6">
      <g>
       <use xlink:href="#maded2c6ac4" x="499.779795" y="384.48" style="stroke: #000000; stroke-width: 0.8"/>
      </g>
     </g>
     <g id="text_6">
      <!-- 10000 -->
      <g transform="translate(477.511045 402.117813) scale(0.14 -0.14)">
       <defs>
        <path id="DejaVuSans-31" d="M 794 531 
L 1825 531 
L 1825 4091 
L 703 3866 
L 703 4441 
L 1819 4666 
L 2450 4666 
L 2450 531 
L 3481 531 
L 3481 0 
L 794 0 
L 794 531 
z
" transform="scale(0.015625)"/>
       </defs>
       <use xlink:href="#DejaVuSans-31"/>
       <use xlink:href="#DejaVuSans-30" x="63.623047"/>
       <use xlink:href="#DejaVuSans-30" x="127.246094"/>
       <use xlink:href="#DejaVuSans-30" x="190.869141"/>
       <use xlink:href="#DejaVuSans-30" x="254.492188"/>
      </g>
     </g>
    </g>
    <g id="text_7">
     <!-- Time steps -->
     <g transform="translate(257.059844 419.667188) scale(0.14 -0.14)">
      <defs>
       <path id="DejaVuSans-54" d="M -19 4666 
L 3928 4666 
L 3928 4134 
L 2272 4134 
L 2272 0 
L 1638 0 
L 1638 4134 
L -19 4134 
L -19 4666 
z
" transform="scale(0.015625)"/>
       <path id="DejaVuSans-69" d="M 603 3500 
L 1178 3500 
L 1178 0 
L 603 0 
L 603 3500 
z
M 603 4863 
L 1178 4863 
L 1178 4134 
L 603 4134 
L 603 4863 
z
" transform="scale(0.015625)"/>
       <path id="DejaVuSans-6d" d="M 3328 2828 
Q 3544 3216 3844 3400 
Q 4144 3584 4550 3584 
Q 5097 3584 5394 3201 
Q 5691 2819 5691 2113 
L 5691 0 
L 5113 0 
L 5113 2094 
Q 5113 2597 4934 2840 
Q 4756 3084 4391 3084 
Q 3944 3084 3684 2787 
Q 3425 2491 3425 1978 
L 3425 0 
L 2847 0 
L 2847 2094 
Q 2847 2600 2669 2842 
Q 2491 3084 2119 3084 
Q 1678 3084 1418 2786 
Q 1159 2488 1159 1978 
L 1159 0 
L 581 0 
L 581 3500 
L 1159 3500 
L 1159 2956 
Q 1356 3278 1631 3431 
Q 1906 3584 2284 3584 
Q 2666 3584 2933 3390 
Q 3200 3197 3328 2828 
z
" transform="scale(0.015625)"/>
       <path id="DejaVuSans-65" d="M 3597 1894 
L 3597 1613 
L 953 1613 
Q 991 1019 1311 708 
Q 1631 397 2203 397 
Q 2534 397 2845 478 
Q 3156 559 3463 722 
L 3463 178 
Q 3153 47 2828 -22 
Q 2503 -91 2169 -91 
Q 1331 -91 842 396 
Q 353 884 353 1716 
Q 353 2575 817 3079 
Q 1281 3584 2069 3584 
Q 2775 3584 3186 3129 
Q 3597 2675 3597 1894 
z
M 3022 2063 
Q 3016 2534 2758 2815 
Q 2500 3097 2075 3097 
Q 1594 3097 1305 2825 
Q 1016 2553 972 2059 
L 3022 2063 
z
" transform="scale(0.015625)"/>
       <path id="DejaVuSans-20" transform="scale(0.015625)"/>
       <path id="DejaVuSans-73" d="M 2834 3397 
L 2834 2853 
Q 2591 2978 2328 3040 
Q 2066 3103 1784 3103 
Q 1356 3103 1142 2972 
Q 928 2841 928 2578 
Q 928 2378 1081 2264 
Q 1234 2150 1697 2047 
L 1894 2003 
Q 2506 1872 2764 1633 
Q 3022 1394 3022 966 
Q 3022 478 2636 193 
Q 2250 -91 1575 -91 
Q 1294 -91 989 -36 
Q 684 19 347 128 
L 347 722 
Q 666 556 975 473 
Q 1284 391 1588 391 
Q 1994 391 2212 530 
Q 2431 669 2431 922 
Q 2431 1156 2273 1281 
Q 2116 1406 1581 1522 
L 1381 1569 
Q 847 1681 609 1914 
Q 372 2147 372 2553 
Q 372 3047 722 3315 
Q 1072 3584 1716 3584 
Q 2034 3584 2315 3537 
Q 2597 3491 2834 3397 
z
" transform="scale(0.015625)"/>
       <path id="DejaVuSans-74" d="M 1172 4494 
L 1172 3500 
L 2356 3500 
L 2356 3053 
L 1172 3053 
L 1172 1153 
Q 1172 725 1289 603 
Q 1406 481 1766 481 
L 2356 481 
L 2356 0 
L 1766 0 
Q 1100 0 847 248 
Q 594 497 594 1153 
L 594 3053 
L 172 3053 
L 172 3500 
L 594 3500 
L 594 4494 
L 1172 4494 
z
" transform="scale(0.015625)"/>
       <path id="DejaVuSans-70" d="M 1159 525 
L 1159 -1331 
L 581 -1331 
L 581 3500 
L 1159 3500 
L 1159 2969 
Q 1341 3281 1617 3432 
Q 1894 3584 2278 3584 
Q 2916 3584 3314 3078 
Q 3713 2572 3713 1747 
Q 3713 922 3314 415 
Q 2916 -91 2278 -91 
Q 1894 -91 1617 61 
Q 1341 213 1159 525 
z
M 3116 1747 
Q 3116 2381 2855 2742 
Q 2594 3103 2138 3103 
Q 1681 3103 1420 2742 
Q 1159 2381 1159 1747 
Q 1159 1113 1420 752 
Q 1681 391 2138 391 
Q 2594 391 2855 752 
Q 3116 1113 3116 1747 
z
" transform="scale(0.015625)"/>
      </defs>
      <use xlink:href="#DejaVuSans-54"/>
      <use xlink:href="#DejaVuSans-69" x="57.958984"/>
      <use xlink:href="#DejaVuSans-6d" x="85.742188"/>
      <use xlink:href="#DejaVuSans-65" x="183.154297"/>
      <use xlink:href="#DejaVuSans-20" x="244.677734"/>
      <use xlink:href="#DejaVuSans-73" x="276.464844"/>
      <use xlink:href="#DejaVuSans-74" x="328.564453"/>
      <use xlink:href="#DejaVuSans-65" x="367.773438"/>
      <use xlink:href="#DejaVuSans-70" x="429.296875"/>
      <use xlink:href="#DejaVuSans-73" x="492.773438"/>
     </g>
    </g>
   </g>
   <g id="matplotlib.axis_2">
    <g id="ytick_1">
     <g id="line2d_7">
      <defs>
       <path id="m0017392f61" d="M 0 0 
L -3.5 0 
" style="stroke: #000000; stroke-width: 0.8"/>
      </defs>
      <g>
       <use xlink:href="#m0017392f61" x="72" y="321.445207" style="stroke: #000000; stroke-width: 0.8"/>
      </g>
     </g>
     <g id="text_8">
      <!-- 92 -->
      <g transform="translate(47.185 326.764113) scale(0.14 -0.14)">
       <defs>
        <path id="DejaVuSans-39" d="M 703 97 
L 703 672 
Q 941 559 1184 500 
Q 1428 441 1663 441 
Q 2288 441 2617 861 
Q 2947 1281 2994 2138 
Q 2813 1869 2534 1725 
Q 2256 1581 1919 1581 
Q 1219 1581 811 2004 
Q 403 2428 403 3163 
Q 403 3881 828 4315 
Q 1253 4750 1959 4750 
Q 2769 4750 3195 4129 
Q 3622 3509 3622 2328 
Q 3622 1225 3098 567 
Q 2575 -91 1691 -91 
Q 1453 -91 1209 -44 
Q 966 3 703 97 
z
M 1959 2075 
Q 2384 2075 2632 2365 
Q 2881 2656 2881 3163 
Q 2881 3666 2632 3958 
Q 2384 4250 1959 4250 
Q 1534 4250 1286 3958 
Q 1038 3666 1038 3163 
Q 1038 2656 1286 2365 
Q 1534 2075 1959 2075 
z
" transform="scale(0.015625)"/>
       </defs>
       <use xlink:href="#DejaVuSans-39"/>
       <use xlink:href="#DejaVuSans-32" x="63.623047"/>
      </g>
     </g>
    </g>
    <g id="ytick_2">
     <g id="line2d_8">
      <g>
       <use xlink:href="#m0017392f61" x="72" y="257.823905" style="stroke: #000000; stroke-width: 0.8"/>
      </g>
     </g>
     <g id="text_9">
      <!-- 94 -->
      <g transform="translate(47.185 263.142812) scale(0.14 -0.14)">
       <use xlink:href="#DejaVuSans-39"/>
       <use xlink:href="#DejaVuSans-34" x="63.623047"/>
      </g>
     </g>
    </g>
    <g id="ytick_3">
     <g id="line2d_9">
      <g>
       <use xlink:href="#m0017392f61" x="72" y="194.202604" style="stroke: #000000; stroke-width: 0.8"/>
      </g>
     </g>
     <g id="text_10">
      <!-- 96 -->
      <g transform="translate(47.185 199.52151) scale(0.14 -0.14)">
       <use xlink:href="#DejaVuSans-39"/>
       <use xlink:href="#DejaVuSans-36" x="63.623047"/>
      </g>
     </g>
    </g>
    <g id="ytick_4">
     <g id="line2d_10">
      <g>
       <use xlink:href="#m0017392f61" x="72" y="130.581302" style="stroke: #000000; stroke-width: 0.8"/>
      </g>
     </g>
     <g id="text_11">
      <!-- 98 -->
      <g transform="translate(47.185 135.900208) scale(0.14 -0.14)">
       <use xlink:href="#DejaVuSans-39"/>
       <use xlink:href="#DejaVuSans-38" x="63.623047"/>
      </g>
     </g>
    </g>
    <g id="ytick_5">
     <g id="line2d_11">
      <g>
       <use xlink:href="#m0017392f61" x="72" y="66.96" style="stroke: #000000; stroke-width: 0.8"/>
      </g>
     </g>
     <g id="text_12">
      <!-- 100 -->
      <g transform="translate(38.2775 72.278906) scale(0.14 -0.14)">
       <use xlink:href="#DejaVuSans-31"/>
       <use xlink:href="#DejaVuSans-30" x="63.623047"/>
       <use xlink:href="#DejaVuSans-30" x="127.246094"/>
      </g>
     </g>
    </g>
    <g id="text_13">
     <!-- Generation supply temperature (°C) -->
     <g transform="translate(31.365937 344.788906) rotate(-90) scale(0.14 -0.14)">
      <defs>
       <path id="DejaVuSans-47" d="M 3809 666 
L 3809 1919 
L 2778 1919 
L 2778 2438 
L 4434 2438 
L 4434 434 
Q 4069 175 3628 42 
Q 3188 -91 2688 -91 
Q 1594 -91 976 548 
Q 359 1188 359 2328 
Q 359 3472 976 4111 
Q 1594 4750 2688 4750 
Q 3144 4750 3555 4637 
Q 3966 4525 4313 4306 
L 4313 3634 
Q 3963 3931 3569 4081 
Q 3175 4231 2741 4231 
Q 1884 4231 1454 3753 
Q 1025 3275 1025 2328 
Q 1025 1384 1454 906 
Q 1884 428 2741 428 
Q 3075 428 3337 486 
Q 3600 544 3809 666 
z
" transform="scale(0.015625)"/>
       <path id="DejaVuSans-6e" d="M 3513 2113 
L 3513 0 
L 2938 0 
L 2938 2094 
Q 2938 2591 2744 2837 
Q 2550 3084 2163 3084 
Q 1697 3084 1428 2787 
Q 1159 2491 1159 1978 
L 1159 0 
L 581 0 
L 581 3500 
L 1159 3500 
L 1159 2956 
Q 1366 3272 1645 3428 
Q 1925 3584 2291 3584 
Q 2894 3584 3203 3211 
Q 3513 2838 3513 2113 
z
" transform="scale(0.015625)"/>
       <path id="DejaVuSans-72" d="M 2631 2963 
Q 2534 3019 2420 3045 
Q 2306 3072 2169 3072 
Q 1681 3072 1420 2755 
Q 1159 2438 1159 1844 
L 1159 0 
L 581 0 
L 581 3500 
L 1159 3500 
L 1159 2956 
Q 1341 3275 1631 3429 
Q 1922 3584 2338 3584 
Q 2397 3584 2469 3576 
Q 2541 3569 2628 3553 
L 2631 2963 
z
" transform="scale(0.015625)"/>
       <path id="DejaVuSans-61" d="M 2194 1759 
Q 1497 1759 1228 1600 
Q 959 1441 959 1056 
Q 959 750 1161 570 
Q 1363 391 1709 391 
Q 2188 391 2477 730 
Q 2766 1069 2766 1631 
L 2766 1759 
L 2194 1759 
z
M 3341 1997 
L 3341 0 
L 2766 0 
L 2766 531 
Q 2569 213 2275 61 
Q 1981 -91 1556 -91 
Q 1019 -91 701 211 
Q 384 513 384 1019 
Q 384 1609 779 1909 
Q 1175 2209 1959 2209 
L 2766 2209 
L 2766 2266 
Q 2766 2663 2505 2880 
Q 2244 3097 1772 3097 
Q 1472 3097 1187 3025 
Q 903 2953 641 2809 
L 641 3341 
Q 956 3463 1253 3523 
Q 1550 3584 1831 3584 
Q 2591 3584 2966 3190 
Q 3341 2797 3341 1997 
z
" transform="scale(0.015625)"/>
       <path id="DejaVuSans-6f" d="M 1959 3097 
Q 1497 3097 1228 2736 
Q 959 2375 959 1747 
Q 959 1119 1226 758 
Q 1494 397 1959 397 
Q 2419 397 2687 759 
Q 2956 1122 2956 1747 
Q 2956 2369 2687 2733 
Q 2419 3097 1959 3097 
z
M 1959 3584 
Q 2709 3584 3137 3096 
Q 3566 2609 3566 1747 
Q 3566 888 3137 398 
Q 2709 -91 1959 -91 
Q 1206 -91 779 398 
Q 353 888 353 1747 
Q 353 2609 779 3096 
Q 1206 3584 1959 3584 
z
" transform="scale(0.015625)"/>
       <path id="DejaVuSans-75" d="M 544 1381 
L 544 3500 
L 1119 3500 
L 1119 1403 
Q 1119 906 1312 657 
Q 1506 409 1894 409 
Q 2359 409 2629 706 
Q 2900 1003 2900 1516 
L 2900 3500 
L 3475 3500 
L 3475 0 
L 2900 0 
L 2900 538 
Q 2691 219 2414 64 
Q 2138 -91 1772 -91 
Q 1169 -91 856 284 
Q 544 659 544 1381 
z
M 1991 3584 
L 1991 3584 
z
" transform="scale(0.015625)"/>
       <path id="DejaVuSans-6c" d="M 603 4863 
L 1178 4863 
L 1178 0 
L 603 0 
L 603 4863 
z
" transform="scale(0.015625)"/>
       <path id="DejaVuSans-79" d="M 2059 -325 
Q 1816 -950 1584 -1140 
Q 1353 -1331 966 -1331 
L 506 -1331 
L 506 -850 
L 844 -850 
Q 1081 -850 1212 -737 
Q 1344 -625 1503 -206 
L 1606 56 
L 191 3500 
L 800 3500 
L 1894 763 
L 2988 3500 
L 3597 3500 
L 2059 -325 
z
" transform="scale(0.015625)"/>
       <path id="DejaVuSans-28" d="M 1984 4856 
Q 1566 4138 1362 3434 
Q 1159 2731 1159 2009 
Q 1159 1288 1364 580 
Q 1569 -128 1984 -844 
L 1484 -844 
Q 1016 -109 783 600 
Q 550 1309 550 2009 
Q 550 2706 781 3412 
Q 1013 4119 1484 4856 
L 1984 4856 
z
" transform="scale(0.015625)"/>
       <path id="DejaVuSans-b0" d="M 1600 4347 
Q 1350 4347 1178 4173 
Q 1006 4000 1006 3750 
Q 1006 3503 1178 3333 
Q 1350 3163 1600 3163 
Q 1850 3163 2022 3333 
Q 2194 3503 2194 3750 
Q 2194 3997 2020 4172 
Q 1847 4347 1600 4347 
z
M 1600 4750 
Q 1800 4750 1984 4673 
Q 2169 4597 2303 4453 
Q 2447 4313 2519 4134 
Q 2591 3956 2591 3750 
Q 2591 3338 2302 3052 
Q 2013 2766 1594 2766 
Q 1172 2766 890 3047 
Q 609 3328 609 3750 
Q 609 4169 896 4459 
Q 1184 4750 1600 4750 
z
" transform="scale(0.015625)"/>
       <path id="DejaVuSans-43" d="M 4122 4306 
L 4122 3641 
Q 3803 3938 3442 4084 
Q 3081 4231 2675 4231 
Q 1875 4231 1450 3742 
Q 1025 3253 1025 2328 
Q 1025 1406 1450 917 
Q 1875 428 2675 428 
Q 3081 428 3442 575 
Q 3803 722 4122 1019 
L 4122 359 
Q 3791 134 3420 21 
Q 3050 -91 2638 -91 
Q 1578 -91 968 557 
Q 359 1206 359 2328 
Q 359 3453 968 4101 
Q 1578 4750 2638 4750 
Q 3056 4750 3426 4639 
Q 3797 4528 4122 4306 
z
" transform="scale(0.015625)"/>
       <path id="DejaVuSans-29" d="M 513 4856 
L 1013 4856 
Q 1481 4119 1714 3412 
Q 1947 2706 1947 2009 
Q 1947 1309 1714 600 
Q 1481 -109 1013 -844 
L 513 -844 
Q 928 -128 1133 580 
Q 1338 1288 1338 2009 
Q 1338 2731 1133 3434 
Q 928 4138 513 4856 
z
" transform="scale(0.015625)"/>
      </defs>
      <use xlink:href="#DejaVuSans-47"/>
      <use xlink:href="#DejaVuSans-65" x="77.490234"/>
      <use xlink:href="#DejaVuSans-6e" x="139.013672"/>
      <use xlink:href="#DejaVuSans-65" x="202.392578"/>
      <use xlink:href="#DejaVuSans-72" x="263.916016"/>
      <use xlink:href="#DejaVuSans-61" x="305.029297"/>
      <use xlink:href="#DejaVuSans-74" x="366.308594"/>
      <use xlink:href="#DejaVuSans-69" x="405.517578"/>
      <use xlink:href="#DejaVuSans-6f" x="433.300781"/>
      <use xlink:href="#DejaVuSans-6e" x="494.482422"/>
      <use xlink:href="#DejaVuSans-20" x="557.861328"/>
      <use xlink:href="#DejaVuSans-73" x="589.648438"/>
      <use xlink:href="#DejaVuSans-75" x="641.748047"/>
      <use xlink:href="#DejaVuSans-70" x="705.126953"/>
      <use xlink:href="#DejaVuSans-70" x="768.603516"/>
      <use xlink:href="#DejaVuSans-6c" x="832.080078"/>
      <use xlink:href="#DejaVuSans-79" x="859.863281"/>
      <use xlink:href="#DejaVuSans-20" x="919.042969"/>
      <use xlink:href="#DejaVuSans-74" x="950.830078"/>
      <use xlink:href="#DejaVuSans-65" x="990.039062"/>
      <use xlink:href="#DejaVuSans-6d" x="1051.5625"/>
      <use xlink:href="#DejaVuSans-70" x="1148.974609"/>
      <use xlink:href="#DejaVuSans-65" x="1212.451172"/>
      <use xlink:href="#DejaVuSans-72" x="1273.974609"/>
      <use xlink:href="#DejaVuSans-61" x="1315.087891"/>
      <use xlink:href="#DejaVuSans-74" x="1376.367188"/>
      <use xlink:href="#DejaVuSans-75" x="1415.576172"/>
      <use xlink:href="#DejaVuSans-72" x="1478.955078"/>
      <use xlink:href="#DejaVuSans-65" x="1517.818359"/>
      <use xlink:href="#DejaVuSans-20" x="1579.341797"/>
      <use xlink:href="#DejaVuSans-28" x="1611.128906"/>
      <use xlink:href="#DejaVuSans-b0" x="1650.142578"/>
      <use xlink:href="#DejaVuSans-43" x="1700.142578"/>
      <use xlink:href="#DejaVuSans-29" x="1769.966797"/>
     </g>
    </g>
   </g>
   <g id="line2d_12">
    <path d="M 92.290909 234.761183 
L 94.695094 234.761183 
L 94.81734 234.164734 
L 97.140027 234.164734 
L 97.262274 228.399053 
L 99.58496 228.399053 
L 99.707207 217.861775 
L 102.029893 217.861775 
L 102.15214 207.72213 
L 104.474827 207.72213 
L 104.597073 202.950533 
L 106.91976 202.950533 
L 107.042007 204.938698 
L 109.364693 204.938698 
L 109.48694 211.698462 
L 111.809627 211.698462 
L 111.931873 236.948166 
L 114.25456 236.948166 
L 114.376807 265.975385 
L 116.699493 265.975385 
L 116.82174 300.967101 
L 119.144427 300.967101 
L 119.266673 334.964734 
L 121.58936 334.964734 
L 121.711607 355.045207 
L 124.034293 355.045207 
L 124.15654 350.472426 
L 126.479227 350.472426 
L 126.601473 321.445207 
L 128.92416 321.445207 
L 129.046407 285.857041 
L 131.369093 285.857041 
L 131.49134 284.067692 
L 133.814027 284.067692 
L 133.936273 277.307929 
L 136.25896 277.307929 
L 136.381207 271.343432 
L 138.703893 271.343432 
L 138.82614 266.969467 
L 141.148827 266.969467 
L 141.271073 261.00497 
L 143.59376 261.00497 
L 143.716007 254.64284 
L 146.038693 254.64284 
L 146.16094 253.052308 
L 150.92856 253.052308 
L 151.050806 270.349349 
L 153.373493 270.349349 
L 153.49574 301.56355 
L 155.818426 301.56355 
L 155.940673 306.533964 
L 158.26336 306.533964 
L 158.385606 301.762367 
L 160.708293 301.762367 
L 160.83054 301.56355 
L 163.153226 301.56355 
L 163.275473 280.290178 
L 165.59816 280.290178 
L 165.720406 279.494911 
L 168.043093 279.494911 
L 168.16534 299.376568 
L 170.488026 299.376568 
L 170.610273 324.626272 
L 172.93296 324.626272 
L 173.055206 349.478343 
L 175.377893 349.478343 
L 175.50014 357.629822 
L 177.822826 357.629822 
L 177.945073 364.190769 
L 180.26776 364.190769 
L 180.390006 369.36 
L 182.712693 369.36 
L 182.83494 360.015621 
L 185.157626 360.015621 
L 185.279873 345.899645 
L 187.60256 345.899645 
L 187.724806 334.368284 
L 190.047493 334.368284 
L 190.16974 327.807337 
L 192.492426 327.807337 
L 192.614673 322.638107 
L 194.93736 322.638107 
L 195.059606 317.468876 
L 197.382293 317.468876 
L 197.50454 312.896095 
L 199.827226 312.896095 
L 199.949473 309.317396 
L 202.272159 309.317396 
L 202.394406 304.346982 
L 204.717093 304.346982 
L 204.839339 300.768284 
L 207.162026 300.768284 
L 207.284273 293.610888 
L 209.606959 293.610888 
L 209.729206 288.640473 
L 212.051893 288.640473 
L 212.174139 288.83929 
L 214.496826 288.83929 
L 214.619073 288.24284 
L 216.941759 288.24284 
L 217.064006 286.652308 
L 219.386693 286.652308 
L 219.508939 288.044024 
L 221.831626 288.044024 
L 221.953873 283.471243 
L 224.276559 283.471243 
L 224.398806 286.652308 
L 226.721493 286.652308 
L 226.843739 300.171834 
L 229.166426 300.171834 
L 229.288673 320.053491 
L 231.611359 320.053491 
L 231.733606 341.326864 
L 234.056293 341.326864 
L 234.178539 354.448757 
L 236.501226 354.448757 
L 236.623473 358.822722 
L 238.946159 358.822722 
L 239.068406 350.472426 
L 241.391093 350.472426 
L 241.513339 339.935148 
L 243.836026 339.935148 
L 243.958273 331.783669 
L 246.280959 331.783669 
L 246.403206 324.029822 
L 248.725893 324.029822 
L 248.848139 316.275976 
L 251.170826 316.275976 
L 251.293073 310.112663 
L 253.615759 310.112663 
L 253.738006 304.943432 
L 256.060692 304.943432 
L 256.182939 307.528047 
L 258.505626 307.528047 
L 258.627872 315.679527 
L 260.950559 315.679527 
L 261.072806 331.386036 
L 263.395492 331.386036 
L 263.517739 339.935148 
L 265.840426 339.935148 
L 265.962672 344.110296 
L 268.285359 344.110296 
L 268.407606 348.683077 
L 270.730292 348.683077 
L 270.852539 351.466509 
L 273.175226 351.466509 
L 273.297472 346.098462 
L 275.620159 346.098462 
L 275.742406 329.596686 
L 278.065092 329.596686 
L 278.187339 300.370651 
L 280.510026 300.370651 
L 280.632272 258.817988 
L 282.954959 258.817988 
L 283.077206 233.965917 
L 285.399892 233.965917 
L 285.522139 227.206154 
L 287.844826 227.206154 
L 287.967072 228.796686 
L 290.289759 228.796686 
L 290.412006 240.924497 
L 292.734692 240.924497 
L 292.856939 261.00497 
L 295.179626 261.00497 
L 295.301872 277.506746 
L 297.624559 277.506746 
L 297.746806 284.465325 
L 300.069492 284.465325 
L 300.191739 273.132781 
L 302.514426 273.132781 
L 302.636672 253.251124 
L 304.959359 253.251124 
L 305.081605 232.773018 
L 307.404292 232.773018 
L 307.526539 212.493728 
L 309.849225 212.493728 
L 309.971472 178.297278 
L 312.294159 178.297278 
L 312.416405 153.047574 
L 314.739092 153.047574 
L 314.861339 136.744615 
L 317.184025 136.744615 
L 317.306272 131.774201 
L 319.628959 131.774201 
L 319.751205 125.610888 
L 322.073892 125.610888 
L 322.196139 116.266509 
L 324.518825 116.266509 
L 324.641072 121.236923 
L 326.963759 121.236923 
L 327.086005 126.207337 
L 329.408692 126.207337 
L 329.530939 125.610888 
L 331.853625 125.610888 
L 331.975872 127.002604 
L 334.298559 127.002604 
L 334.420805 100.162367 
L 336.743492 100.162367 
L 336.865739 88.034556 
L 339.188425 88.034556 
L 339.310672 91.414438 
L 341.633359 91.414438 
L 341.755605 98.770651 
L 344.078292 98.770651 
L 344.200539 106.32568 
L 346.523225 106.32568 
L 346.645472 124.815621 
L 348.968159 124.815621 
L 349.090405 159.608521 
L 351.413092 159.608521 
L 351.535339 215.475976 
L 353.858025 215.475976 
L 353.980272 227.206154 
L 356.302958 227.206154 
L 356.425205 228.59787 
L 358.747892 228.59787 
L 358.870138 222.036923 
L 361.192825 222.036923 
L 361.315072 185.852308 
L 363.637758 185.852308 
L 363.760005 138.533964 
L 366.082692 138.533964 
L 366.204938 124.020355 
L 368.527625 124.020355 
L 368.649872 112.488994 
L 370.972558 112.488994 
L 371.094805 101.355266 
L 373.417492 101.355266 
L 373.539738 91.812071 
L 375.862425 91.812071 
L 375.984672 83.064142 
L 378.307358 83.064142 
L 378.429605 74.316213 
L 380.752292 74.316213 
L 380.874538 66.96 
L 392.976958 66.96 
L 393.099205 74.51503 
L 395.421892 74.51503 
L 395.544138 87.23929 
L 397.866825 87.23929 
L 397.989072 84.058225 
L 400.311758 84.058225 
L 400.434005 66.96 
L 402.756692 66.96 
L 402.878938 72.129231 
L 405.201625 72.129231 
L 405.323872 115.272426 
L 407.646558 115.272426 
L 407.768805 146.685444 
L 410.091491 146.685444 
L 410.213738 196.588402 
L 412.536425 196.588402 
L 412.658671 230.387219 
L 414.981358 230.387219 
L 415.103605 237.544615 
L 417.426291 237.544615 
L 417.548538 225.814438 
L 419.871225 225.814438 
L 419.993471 188.03929 
L 422.316158 188.03929 
L 422.438405 160.006154 
L 424.761091 160.006154 
L 424.883338 160.20497 
L 427.206025 160.20497 
L 427.328271 140.52213 
L 429.650958 140.52213 
L 429.773205 141.317396 
L 432.095891 141.317396 
L 432.218138 162.391953 
L 434.540825 162.391953 
L 434.663071 175.712663 
L 436.985758 175.712663 
L 437.108005 188.238107 
L 439.430691 188.238107 
L 439.552938 199.769467 
L 441.875625 199.769467 
L 441.997871 211.300828 
L 444.320558 211.300828 
L 444.442805 222.633373 
L 446.765491 222.633373 
L 446.887738 225.814438 
L 449.210425 225.814438 
L 449.332671 210.306746 
L 451.655358 210.306746 
L 451.777605 196.986036 
L 454.100291 196.986036 
L 454.222538 189.033373 
L 456.545225 189.033373 
L 456.667471 186.846391 
L 458.990158 186.846391 
L 459.112404 184.261775 
L 461.435091 184.261775 
L 461.557338 201.161183 
L 463.880024 201.161183 
L 464.002271 227.007337 
L 466.324958 227.007337 
L 466.447204 252.455858 
L 468.769891 252.455858 
L 468.892138 272.337515 
L 471.214824 272.337515 
L 471.337071 286.453491 
L 473.659758 286.453491 
L 473.782004 289.038107 
L 476.104691 289.038107 
L 476.226938 281.483077 
L 478.549624 281.483077 
L 478.671871 264.981302 
L 480.994558 264.981302 
L 481.116804 253.251124 
L 483.439491 253.251124 
L 483.561738 255.438107 
L 485.884424 255.438107 
L 486.006671 259.414438 
L 488.329358 259.414438 
L 488.451604 262.19787 
L 490.774291 262.19787 
L 490.896538 262.396686 
L 493.219224 262.396686 
L 493.341471 261.800237 
L 495.664158 261.800237 
L 495.786404 259.613254 
L 498.109091 259.613254 
L 498.109091 259.613254 
" clip-path="url(#p46f1cf10f3)" style="fill: none; stroke: #000000; stroke-width: 1.5; stroke-linecap: square"/>
   </g>
   <g id="patch_3">
    <path d="M 72 384.48 
L 72 51.84 
" style="fill: none; stroke: #000000; stroke-width: 0.8; stroke-linejoin: miter; stroke-linecap: square"/>
   </g>
   <g id="patch_4">
    <path d="M 518.4 384.48 
L 518.4 51.84 
" style="fill: none; stroke: #000000; stroke-width: 0.8; stroke-linejoin: miter; stroke-linecap: square"/>
   </g>
   <g id="patch_5">
    <path d="M 72 384.48 
L 518.4 384.48 
" style="fill: none; stroke: #000000; stroke-width: 0.8; stroke-linejoin: miter; stroke-linecap: square"/>
   </g>
   <g id="patch_6">
    <path d="M 72 51.84 
L 518.4 51.84 
" style="fill: none; stroke: #000000; stroke-width: 0.8; stroke-linejoin: miter; stroke-linecap: square"/>
   </g>
  </g>
 </g>
 <defs>
  <clipPath id="p46f1cf10f3">
   <rect x="72" y="51.84" width="446.4" height="332.64"/>
  </clipPath>
 </defs>
</svg>
