<?xml version="1.0" encoding="utf-8" standalone="no"?>
<!DOCTYPE svg PUBLIC "-//W3C//DTD SVG 1.1//EN"
  "http://www.w3.org/Graphics/SVG/1.1/DTD/svg11.dtd">
<svg xmlns:xlink="http://www.w3.org/1999/xlink" width="576pt" height="432pt" viewBox="0 0 576 432" xmlns="http://www.w3.org/2000/svg" version="1.1">
 <metadata>
  <rdf:RDF xmlns:dc="http://purl.org/dc/elements/1.1/" xmlns:cc="http://creativecommons.org/ns#" xmlns:rdf="http://www.w3.org/1999/02/22-rdf-syntax-ns#">
   <cc:Work>
    <dc:type rdf:resource="http://purl.org/dc/dcmitype/StillImage"/>
    <dc:date>2023-11-30T14:31:25.520700</dc:date>
    <dc:format>image/svg+xml</dc:format>
    <dc:creator>
     <cc:Agent>
      <dc:title>Matplotlib v3.8.2, https://matplotlib.org/</dc:title>
     </cc:Agent>
    </dc:creator>
   </cc:Work>
  </rdf:RDF>
 </metadata>
 <defs>
  <style type="text/css">*{stroke-linejoin: round; stroke-linecap: butt}</style>
 </defs>
 <g id="figure_1">
  <g id="patch_1">
   <path d="M 0 432 
L 576 432 
L 576 0 
L 0 0 
z
" style="fill: #ffffff"/>
  </g>
  <g id="axes_1">
   <g id="patch_2">
    <path d="M 72 384.48 
L 518.4 384.48 
L 518.4 51.84 
L 72 51.84 
z
" style="fill: #ffffff"/>
   </g>
   <g id="matplotlib.axis_1">
    <g id="xtick_1">
     <g id="line2d_1">
      <defs>
       <path id="m5faf28f2de" d="M 0 0 
L 0 3.5 
" style="stroke: #000000; stroke-width: 0.8"/>
      </defs>
      <g>
       <use xlink:href="#m5faf28f2de" x="77.511111" y="384.48" style="stroke: #000000; stroke-width: 0.8"/>
      </g>
     </g>
     <g id="text_1">
      <!-- 0 -->
      <g transform="translate(71.784861 405.157188) scale(0.18 -0.18)">
       <defs>
        <path id="DejaVuSans-30" d="M 2034 4250 
Q 1547 4250 1301 3770 
Q 1056 3291 1056 2328 
Q 1056 1369 1301 889 
Q 1547 409 2034 409 
Q 2525 409 2770 889 
Q 3016 1369 3016 2328 
Q 3016 3291 2770 3770 
Q 2525 4250 2034 4250 
z
M 2034 4750 
Q 2819 4750 3233 4129 
Q 3647 3509 3647 2328 
Q 3647 1150 3233 529 
Q 2819 -91 2034 -91 
Q 1250 -91 836 529 
Q 422 1150 422 2328 
Q 422 3509 836 4129 
Q 1250 4750 2034 4750 
z
" transform="scale(0.015625)"/>
       </defs>
       <use xlink:href="#DejaVuSans-30"/>
      </g>
     </g>
    </g>
    <g id="xtick_2">
     <g id="line2d_2">
      <g>
       <use xlink:href="#m5faf28f2de" x="187.733333" y="384.48" style="stroke: #000000; stroke-width: 0.8"/>
      </g>
     </g>
     <g id="text_2">
      <!-- 10 -->
      <g transform="translate(176.280833 405.157188) scale(0.18 -0.18)">
       <defs>
        <path id="DejaVuSans-31" d="M 794 531 
L 1825 531 
L 1825 4091 
L 703 3866 
L 703 4441 
L 1819 4666 
L 2450 4666 
L 2450 531 
L 3481 531 
L 3481 0 
L 794 0 
L 794 531 
z
" transform="scale(0.015625)"/>
       </defs>
       <use xlink:href="#DejaVuSans-31"/>
       <use xlink:href="#DejaVuSans-30" x="63.623047"/>
      </g>
     </g>
    </g>
    <g id="xtick_3">
     <g id="line2d_3">
      <g>
       <use xlink:href="#m5faf28f2de" x="297.955556" y="384.48" style="stroke: #000000; stroke-width: 0.8"/>
      </g>
     </g>
     <g id="text_3">
      <!-- 20 -->
      <g transform="translate(286.503056 405.157188) scale(0.18 -0.18)">
       <defs>
        <path id="DejaVuSans-32" d="M 1228 531 
L 3431 531 
L 3431 0 
L 469 0 
L 469 531 
Q 828 903 1448 1529 
Q 2069 2156 2228 2338 
Q 2531 2678 2651 2914 
Q 2772 3150 2772 3378 
Q 2772 3750 2511 3984 
Q 2250 4219 1831 4219 
Q 1534 4219 1204 4116 
Q 875 4013 500 3803 
L 500 4441 
Q 881 4594 1212 4672 
Q 1544 4750 1819 4750 
Q 2544 4750 2975 4387 
Q 3406 4025 3406 3419 
Q 3406 3131 3298 2873 
Q 3191 2616 2906 2266 
Q 2828 2175 2409 1742 
Q 1991 1309 1228 531 
z
" transform="scale(0.015625)"/>
       </defs>
       <use xlink:href="#DejaVuSans-32"/>
       <use xlink:href="#DejaVuSans-30" x="63.623047"/>
      </g>
     </g>
    </g>
    <g id="xtick_4">
     <g id="line2d_4">
      <g>
       <use xlink:href="#m5faf28f2de" x="408.177778" y="384.48" style="stroke: #000000; stroke-width: 0.8"/>
      </g>
     </g>
     <g id="text_4">
      <!-- 30 -->
      <g transform="translate(396.725278 405.157188) scale(0.18 -0.18)">
       <defs>
        <path id="DejaVuSans-33" d="M 2597 2516 
Q 3050 2419 3304 2112 
Q 3559 1806 3559 1356 
Q 3559 666 3084 287 
Q 2609 -91 1734 -91 
Q 1441 -91 1130 -33 
Q 819 25 488 141 
L 488 750 
Q 750 597 1062 519 
Q 1375 441 1716 441 
Q 2309 441 2620 675 
Q 2931 909 2931 1356 
Q 2931 1769 2642 2001 
Q 2353 2234 1838 2234 
L 1294 2234 
L 1294 2753 
L 1863 2753 
Q 2328 2753 2575 2939 
Q 2822 3125 2822 3475 
Q 2822 3834 2567 4026 
Q 2313 4219 1838 4219 
Q 1578 4219 1281 4162 
Q 984 4106 628 3988 
L 628 4550 
Q 988 4650 1302 4700 
Q 1616 4750 1894 4750 
Q 2613 4750 3031 4423 
Q 3450 4097 3450 3541 
Q 3450 3153 3228 2886 
Q 3006 2619 2597 2516 
z
" transform="scale(0.015625)"/>
       </defs>
       <use xlink:href="#DejaVuSans-33"/>
       <use xlink:href="#DejaVuSans-30" x="63.623047"/>
      </g>
     </g>
    </g>
    <g id="xtick_5">
     <g id="line2d_5">
      <g>
       <use xlink:href="#m5faf28f2de" x="518.4" y="384.48" style="stroke: #000000; stroke-width: 0.8"/>
      </g>
     </g>
     <g id="text_5">
      <!-- 40 -->
      <g transform="translate(506.9475 405.157188) scale(0.18 -0.18)">
       <defs>
        <path id="DejaVuSans-34" d="M 2419 4116 
L 825 1625 
L 2419 1625 
L 2419 4116 
z
M 2253 4666 
L 3047 4666 
L 3047 1625 
L 3713 1625 
L 3713 1100 
L 3047 1100 
L 3047 0 
L 2419 0 
L 2419 1100 
L 313 1100 
L 313 1709 
L 2253 4666 
z
" transform="scale(0.015625)"/>
       </defs>
       <use xlink:href="#DejaVuSans-34"/>
       <use xlink:href="#DejaVuSans-30" x="63.623047"/>
      </g>
     </g>
    </g>
    <g id="text_6">
     <!-- Epochs -->
     <g transform="translate(259.36875 428.0975) scale(0.2 -0.2)">
      <defs>
       <path id="DejaVuSans-45" d="M 628 4666 
L 3578 4666 
L 3578 4134 
L 1259 4134 
L 1259 2753 
L 3481 2753 
L 3481 2222 
L 1259 2222 
L 1259 531 
L 3634 531 
L 3634 0 
L 628 0 
L 628 4666 
z
" transform="scale(0.015625)"/>
       <path id="DejaVuSans-70" d="M 1159 525 
L 1159 -1331 
L 581 -1331 
L 581 3500 
L 1159 3500 
L 1159 2969 
Q 1341 3281 1617 3432 
Q 1894 3584 2278 3584 
Q 2916 3584 3314 3078 
Q 3713 2572 3713 1747 
Q 3713 922 3314 415 
Q 2916 -91 2278 -91 
Q 1894 -91 1617 61 
Q 1341 213 1159 525 
z
M 3116 1747 
Q 3116 2381 2855 2742 
Q 2594 3103 2138 3103 
Q 1681 3103 1420 2742 
Q 1159 2381 1159 1747 
Q 1159 1113 1420 752 
Q 1681 391 2138 391 
Q 2594 391 2855 752 
Q 3116 1113 3116 1747 
z
" transform="scale(0.015625)"/>
       <path id="DejaVuSans-6f" d="M 1959 3097 
Q 1497 3097 1228 2736 
Q 959 2375 959 1747 
Q 959 1119 1226 758 
Q 1494 397 1959 397 
Q 2419 397 2687 759 
Q 2956 1122 2956 1747 
Q 2956 2369 2687 2733 
Q 2419 3097 1959 3097 
z
M 1959 3584 
Q 2709 3584 3137 3096 
Q 3566 2609 3566 1747 
Q 3566 888 3137 398 
Q 2709 -91 1959 -91 
Q 1206 -91 779 398 
Q 353 888 353 1747 
Q 353 2609 779 3096 
Q 1206 3584 1959 3584 
z
" transform="scale(0.015625)"/>
       <path id="DejaVuSans-63" d="M 3122 3366 
L 3122 2828 
Q 2878 2963 2633 3030 
Q 2388 3097 2138 3097 
Q 1578 3097 1268 2742 
Q 959 2388 959 1747 
Q 959 1106 1268 751 
Q 1578 397 2138 397 
Q 2388 397 2633 464 
Q 2878 531 3122 666 
L 3122 134 
Q 2881 22 2623 -34 
Q 2366 -91 2075 -91 
Q 1284 -91 818 406 
Q 353 903 353 1747 
Q 353 2603 823 3093 
Q 1294 3584 2113 3584 
Q 2378 3584 2631 3529 
Q 2884 3475 3122 3366 
z
" transform="scale(0.015625)"/>
       <path id="DejaVuSans-68" d="M 3513 2113 
L 3513 0 
L 2938 0 
L 2938 2094 
Q 2938 2591 2744 2837 
Q 2550 3084 2163 3084 
Q 1697 3084 1428 2787 
Q 1159 2491 1159 1978 
L 1159 0 
L 581 0 
L 581 4863 
L 1159 4863 
L 1159 2956 
Q 1366 3272 1645 3428 
Q 1925 3584 2291 3584 
Q 2894 3584 3203 3211 
Q 3513 2838 3513 2113 
z
" transform="scale(0.015625)"/>
       <path id="DejaVuSans-73" d="M 2834 3397 
L 2834 2853 
Q 2591 2978 2328 3040 
Q 2066 3103 1784 3103 
Q 1356 3103 1142 2972 
Q 928 2841 928 2578 
Q 928 2378 1081 2264 
Q 1234 2150 1697 2047 
L 1894 2003 
Q 2506 1872 2764 1633 
Q 3022 1394 3022 966 
Q 3022 478 2636 193 
Q 2250 -91 1575 -91 
Q 1294 -91 989 -36 
Q 684 19 347 128 
L 347 722 
Q 666 556 975 473 
Q 1284 391 1588 391 
Q 1994 391 2212 530 
Q 2431 669 2431 922 
Q 2431 1156 2273 1281 
Q 2116 1406 1581 1522 
L 1381 1569 
Q 847 1681 609 1914 
Q 372 2147 372 2553 
Q 372 3047 722 3315 
Q 1072 3584 1716 3584 
Q 2034 3584 2315 3537 
Q 2597 3491 2834 3397 
z
" transform="scale(0.015625)"/>
      </defs>
      <use xlink:href="#DejaVuSans-45"/>
      <use xlink:href="#DejaVuSans-70" x="63.183594"/>
      <use xlink:href="#DejaVuSans-6f" x="126.660156"/>
      <use xlink:href="#DejaVuSans-63" x="187.841797"/>
      <use xlink:href="#DejaVuSans-68" x="242.822266"/>
      <use xlink:href="#DejaVuSans-73" x="306.201172"/>
     </g>
    </g>
   </g>
   <g id="matplotlib.axis_2">
    <g id="ytick_1">
     <g id="line2d_6">
      <defs>
       <path id="mce604e5511" d="M 0 0 
L -3.5 0 
" style="stroke: #000000; stroke-width: 0.8"/>
      </defs>
      <g>
       <use xlink:href="#mce604e5511" x="72" y="336.899728" style="stroke: #000000; stroke-width: 0.8"/>
      </g>
     </g>
     <g id="text_7">
      <!-- 0.014 -->
      <g transform="translate(13.469375 343.738322) scale(0.18 -0.18)">
       <defs>
        <path id="DejaVuSans-2e" d="M 684 794 
L 1344 794 
L 1344 0 
L 684 0 
L 684 794 
z
" transform="scale(0.015625)"/>
       </defs>
       <use xlink:href="#DejaVuSans-30"/>
       <use xlink:href="#DejaVuSans-2e" x="63.623047"/>
       <use xlink:href="#DejaVuSans-30" x="95.410156"/>
       <use xlink:href="#DejaVuSans-31" x="159.033203"/>
       <use xlink:href="#DejaVuSans-34" x="222.65625"/>
      </g>
     </g>
    </g>
    <g id="ytick_2">
     <g id="line2d_7">
      <g>
       <use xlink:href="#mce604e5511" x="72" y="285.799417" style="stroke: #000000; stroke-width: 0.8"/>
      </g>
     </g>
     <g id="text_8">
      <!-- 0.016 -->
      <g transform="translate(13.469375 292.63801) scale(0.18 -0.18)">
       <defs>
        <path id="DejaVuSans-36" d="M 2113 2584 
Q 1688 2584 1439 2293 
Q 1191 2003 1191 1497 
Q 1191 994 1439 701 
Q 1688 409 2113 409 
Q 2538 409 2786 701 
Q 3034 994 3034 1497 
Q 3034 2003 2786 2293 
Q 2538 2584 2113 2584 
z
M 3366 4563 
L 3366 3988 
Q 3128 4100 2886 4159 
Q 2644 4219 2406 4219 
Q 1781 4219 1451 3797 
Q 1122 3375 1075 2522 
Q 1259 2794 1537 2939 
Q 1816 3084 2150 3084 
Q 2853 3084 3261 2657 
Q 3669 2231 3669 1497 
Q 3669 778 3244 343 
Q 2819 -91 2113 -91 
Q 1303 -91 875 529 
Q 447 1150 447 2328 
Q 447 3434 972 4092 
Q 1497 4750 2381 4750 
Q 2619 4750 2861 4703 
Q 3103 4656 3366 4563 
z
" transform="scale(0.015625)"/>
       </defs>
       <use xlink:href="#DejaVuSans-30"/>
       <use xlink:href="#DejaVuSans-2e" x="63.623047"/>
       <use xlink:href="#DejaVuSans-30" x="95.410156"/>
       <use xlink:href="#DejaVuSans-31" x="159.033203"/>
       <use xlink:href="#DejaVuSans-36" x="222.65625"/>
      </g>
     </g>
    </g>
    <g id="ytick_3">
     <g id="line2d_8">
      <g>
       <use xlink:href="#mce604e5511" x="72" y="234.699106" style="stroke: #000000; stroke-width: 0.8"/>
      </g>
     </g>
     <g id="text_9">
      <!-- 0.018 -->
      <g transform="translate(13.469375 241.537699) scale(0.18 -0.18)">
       <defs>
        <path id="DejaVuSans-38" d="M 2034 2216 
Q 1584 2216 1326 1975 
Q 1069 1734 1069 1313 
Q 1069 891 1326 650 
Q 1584 409 2034 409 
Q 2484 409 2743 651 
Q 3003 894 3003 1313 
Q 3003 1734 2745 1975 
Q 2488 2216 2034 2216 
z
M 1403 2484 
Q 997 2584 770 2862 
Q 544 3141 544 3541 
Q 544 4100 942 4425 
Q 1341 4750 2034 4750 
Q 2731 4750 3128 4425 
Q 3525 4100 3525 3541 
Q 3525 3141 3298 2862 
Q 3072 2584 2669 2484 
Q 3125 2378 3379 2068 
Q 3634 1759 3634 1313 
Q 3634 634 3220 271 
Q 2806 -91 2034 -91 
Q 1263 -91 848 271 
Q 434 634 434 1313 
Q 434 1759 690 2068 
Q 947 2378 1403 2484 
z
M 1172 3481 
Q 1172 3119 1398 2916 
Q 1625 2713 2034 2713 
Q 2441 2713 2670 2916 
Q 2900 3119 2900 3481 
Q 2900 3844 2670 4047 
Q 2441 4250 2034 4250 
Q 1625 4250 1398 4047 
Q 1172 3844 1172 3481 
z
" transform="scale(0.015625)"/>
       </defs>
       <use xlink:href="#DejaVuSans-30"/>
       <use xlink:href="#DejaVuSans-2e" x="63.623047"/>
       <use xlink:href="#DejaVuSans-30" x="95.410156"/>
       <use xlink:href="#DejaVuSans-31" x="159.033203"/>
       <use xlink:href="#DejaVuSans-38" x="222.65625"/>
      </g>
     </g>
    </g>
    <g id="ytick_4">
     <g id="line2d_9">
      <g>
       <use xlink:href="#mce604e5511" x="72" y="183.598794" style="stroke: #000000; stroke-width: 0.8"/>
      </g>
     </g>
     <g id="text_10">
      <!-- 0.020 -->
      <g transform="translate(13.469375 190.437388) scale(0.18 -0.18)">
       <use xlink:href="#DejaVuSans-30"/>
       <use xlink:href="#DejaVuSans-2e" x="63.623047"/>
       <use xlink:href="#DejaVuSans-30" x="95.410156"/>
       <use xlink:href="#DejaVuSans-32" x="159.033203"/>
       <use xlink:href="#DejaVuSans-30" x="222.65625"/>
      </g>
     </g>
    </g>
    <g id="ytick_5">
     <g id="line2d_10">
      <g>
       <use xlink:href="#mce604e5511" x="72" y="132.498483" style="stroke: #000000; stroke-width: 0.8"/>
      </g>
     </g>
     <g id="text_11">
      <!-- 0.022 -->
      <g transform="translate(13.469375 139.337077) scale(0.18 -0.18)">
       <use xlink:href="#DejaVuSans-30"/>
       <use xlink:href="#DejaVuSans-2e" x="63.623047"/>
       <use xlink:href="#DejaVuSans-30" x="95.410156"/>
       <use xlink:href="#DejaVuSans-32" x="159.033203"/>
       <use xlink:href="#DejaVuSans-32" x="222.65625"/>
      </g>
     </g>
    </g>
    <g id="ytick_6">
     <g id="line2d_11">
      <g>
       <use xlink:href="#mce604e5511" x="72" y="81.398172" style="stroke: #000000; stroke-width: 0.8"/>
      </g>
     </g>
     <g id="text_12">
      <!-- 0.024 -->
      <g transform="translate(13.469375 88.236766) scale(0.18 -0.18)">
       <use xlink:href="#DejaVuSans-30"/>
       <use xlink:href="#DejaVuSans-2e" x="63.623047"/>
       <use xlink:href="#DejaVuSans-30" x="95.410156"/>
       <use xlink:href="#DejaVuSans-32" x="159.033203"/>
       <use xlink:href="#DejaVuSans-34" x="222.65625"/>
      </g>
     </g>
    </g>
    <g id="text_13">
     <!-- Loss -->
     <g transform="translate(5.31 240.094375) rotate(-90) scale(0.2 -0.2)">
      <defs>
       <path id="DejaVuSans-4c" d="M 628 4666 
L 1259 4666 
L 1259 531 
L 3531 531 
L 3531 0 
L 628 0 
L 628 4666 
z
" transform="scale(0.015625)"/>
      </defs>
      <use xlink:href="#DejaVuSans-4c"/>
      <use xlink:href="#DejaVuSans-6f" x="53.962891"/>
      <use xlink:href="#DejaVuSans-73" x="115.144531"/>
      <use xlink:href="#DejaVuSans-73" x="167.244141"/>
     </g>
    </g>
   </g>
   <g id="line2d_12">
    <path d="M 77.511111 66.96 
L 88.533333 246.413143 
L 99.555556 268.810502 
L 110.577778 281.609402 
L 121.6 288.986035 
L 132.622222 292.186521 
L 143.644444 302.171752 
L 154.666667 303.552007 
L 165.688889 306.321605 
L 176.711111 308.276043 
L 187.733333 308.841661 
L 198.755556 313.218998 
L 209.777778 315.669714 
L 220.8 320.229467 
L 231.822222 320.631157 
L 242.844444 320.707089 
L 253.866667 324.553954 
L 264.888889 326.374543 
L 275.911111 326.496162 
L 286.933333 331.027122 
L 297.955556 355.660325 
L 308.977778 356.928907 
L 320 357.669825 
L 331.022222 358.334694 
L 342.044444 358.459477 
L 353.066667 359.267237 
L 364.088889 359.632283 
L 375.111111 360.084658 
L 386.133333 360.174676 
L 397.155556 361.117713 
L 408.177778 360.859818 
L 419.2 361.697108 
L 430.222222 361.769993 
L 441.244444 362.696849 
L 452.266667 362.495635 
L 463.288889 362.810568 
L 474.311111 362.679907 
L 485.333333 363.100015 
L 496.355556 363.691879 
L 507.377778 364.066824 
L 518.4 367.749287 
L 529.422222 368.007015 
L 540.444444 368.150192 
L 551.466667 368.140984 
L 562.488889 368.238212 
L 573.511111 368.263601 
L 577 368.249893 
" clip-path="url(#p72a287d409)" style="fill: none; stroke: #0000ff; stroke-opacity: 0.8; stroke-width: 1.5; stroke-linecap: square"/>
   </g>
   <g id="line2d_13">
    <path d="M 77.511111 249.796759 
L 88.533333 182.168748 
L 99.555556 300.584168 
L 110.577778 307.164701 
L 121.6 300.470093 
L 132.622222 321.862714 
L 143.644444 333.786179 
L 154.666667 265.941963 
L 165.688889 259.989915 
L 176.711111 322.635352 
L 187.733333 336.807224 
L 198.755556 314.440751 
L 209.777778 289.918102 
L 220.8 343.214716 
L 231.822222 310.278929 
L 242.844444 340.350103 
L 253.866667 247.574408 
L 264.888889 329.046461 
L 275.911111 326.832605 
L 286.933333 345.658246 
L 297.955556 355.433602 
L 308.977778 358.970722 
L 320 360.57877 
L 331.022222 359.434352 
L 342.044444 361.854301 
L 353.066667 358.985784 
L 364.088889 361.966805 
L 375.111111 362.780633 
L 386.133333 363.075506 
L 397.155556 361.780535 
L 408.177778 361.396524 
L 419.2 362.309721 
L 430.222222 362.329567 
L 441.244444 364.680723 
L 452.266667 362.56369 
L 463.288889 361.834812 
L 474.311111 365.098332 
L 485.333333 365.153181 
L 496.355556 362.703726 
L 507.377778 364.60936 
L 518.4 368.413441 
L 529.422222 368.408254 
L 540.444444 368.257272 
L 551.466667 368.532133 
L 562.488889 368.398165 
L 573.511111 367.746765 
L 577 368.033072 
" clip-path="url(#p72a287d409)" style="fill: none; stroke: #ffa500; stroke-opacity: 0.8; stroke-width: 1.5; stroke-linecap: square"/>
    <defs>
     <path id="m6e188a5a85" d="M 0 -3 
L -3 3 
L 3 3 
z
" style="stroke: #ffa500; stroke-opacity: 0.8; stroke-linejoin: miter"/>
    </defs>
    <g clip-path="url(#p72a287d409)">
     <use xlink:href="#m6e188a5a85" x="77.511111" y="249.796759" style="fill: #ffa500; fill-opacity: 0.8; stroke: #ffa500; stroke-opacity: 0.8; stroke-linejoin: miter"/>
     <use xlink:href="#m6e188a5a85" x="88.533333" y="182.168748" style="fill: #ffa500; fill-opacity: 0.8; stroke: #ffa500; stroke-opacity: 0.8; stroke-linejoin: miter"/>
     <use xlink:href="#m6e188a5a85" x="99.555556" y="300.584168" style="fill: #ffa500; fill-opacity: 0.8; stroke: #ffa500; stroke-opacity: 0.8; stroke-linejoin: miter"/>
     <use xlink:href="#m6e188a5a85" x="110.577778" y="307.164701" style="fill: #ffa500; fill-opacity: 0.8; stroke: #ffa500; stroke-opacity: 0.8; stroke-linejoin: miter"/>
     <use xlink:href="#m6e188a5a85" x="121.6" y="300.470093" style="fill: #ffa500; fill-opacity: 0.8; stroke: #ffa500; stroke-opacity: 0.8; stroke-linejoin: miter"/>
     <use xlink:href="#m6e188a5a85" x="132.622222" y="321.862714" style="fill: #ffa500; fill-opacity: 0.8; stroke: #ffa500; stroke-opacity: 0.8; stroke-linejoin: miter"/>
     <use xlink:href="#m6e188a5a85" x="143.644444" y="333.786179" style="fill: #ffa500; fill-opacity: 0.8; stroke: #ffa500; stroke-opacity: 0.8; stroke-linejoin: miter"/>
     <use xlink:href="#m6e188a5a85" x="154.666667" y="265.941963" style="fill: #ffa500; fill-opacity: 0.8; stroke: #ffa500; stroke-opacity: 0.8; stroke-linejoin: miter"/>
     <use xlink:href="#m6e188a5a85" x="165.688889" y="259.989915" style="fill: #ffa500; fill-opacity: 0.8; stroke: #ffa500; stroke-opacity: 0.8; stroke-linejoin: miter"/>
     <use xlink:href="#m6e188a5a85" x="176.711111" y="322.635352" style="fill: #ffa500; fill-opacity: 0.8; stroke: #ffa500; stroke-opacity: 0.8; stroke-linejoin: miter"/>
     <use xlink:href="#m6e188a5a85" x="187.733333" y="336.807224" style="fill: #ffa500; fill-opacity: 0.8; stroke: #ffa500; stroke-opacity: 0.8; stroke-linejoin: miter"/>
     <use xlink:href="#m6e188a5a85" x="198.755556" y="314.440751" style="fill: #ffa500; fill-opacity: 0.8; stroke: #ffa500; stroke-opacity: 0.8; stroke-linejoin: miter"/>
     <use xlink:href="#m6e188a5a85" x="209.777778" y="289.918102" style="fill: #ffa500; fill-opacity: 0.8; stroke: #ffa500; stroke-opacity: 0.8; stroke-linejoin: miter"/>
     <use xlink:href="#m6e188a5a85" x="220.8" y="343.214716" style="fill: #ffa500; fill-opacity: 0.8; stroke: #ffa500; stroke-opacity: 0.8; stroke-linejoin: miter"/>
     <use xlink:href="#m6e188a5a85" x="231.822222" y="310.278929" style="fill: #ffa500; fill-opacity: 0.8; stroke: #ffa500; stroke-opacity: 0.8; stroke-linejoin: miter"/>
     <use xlink:href="#m6e188a5a85" x="242.844444" y="340.350103" style="fill: #ffa500; fill-opacity: 0.8; stroke: #ffa500; stroke-opacity: 0.8; stroke-linejoin: miter"/>
     <use xlink:href="#m6e188a5a85" x="253.866667" y="247.574408" style="fill: #ffa500; fill-opacity: 0.8; stroke: #ffa500; stroke-opacity: 0.8; stroke-linejoin: miter"/>
     <use xlink:href="#m6e188a5a85" x="264.888889" y="329.046461" style="fill: #ffa500; fill-opacity: 0.8; stroke: #ffa500; stroke-opacity: 0.8; stroke-linejoin: miter"/>
     <use xlink:href="#m6e188a5a85" x="275.911111" y="326.832605" style="fill: #ffa500; fill-opacity: 0.8; stroke: #ffa500; stroke-opacity: 0.8; stroke-linejoin: miter"/>
     <use xlink:href="#m6e188a5a85" x="286.933333" y="345.658246" style="fill: #ffa500; fill-opacity: 0.8; stroke: #ffa500; stroke-opacity: 0.8; stroke-linejoin: miter"/>
     <use xlink:href="#m6e188a5a85" x="297.955556" y="355.433602" style="fill: #ffa500; fill-opacity: 0.8; stroke: #ffa500; stroke-opacity: 0.8; stroke-linejoin: miter"/>
     <use xlink:href="#m6e188a5a85" x="308.977778" y="358.970722" style="fill: #ffa500; fill-opacity: 0.8; stroke: #ffa500; stroke-opacity: 0.8; stroke-linejoin: miter"/>
     <use xlink:href="#m6e188a5a85" x="320" y="360.57877" style="fill: #ffa500; fill-opacity: 0.8; stroke: #ffa500; stroke-opacity: 0.8; stroke-linejoin: miter"/>
     <use xlink:href="#m6e188a5a85" x="331.022222" y="359.434352" style="fill: #ffa500; fill-opacity: 0.8; stroke: #ffa500; stroke-opacity: 0.8; stroke-linejoin: miter"/>
     <use xlink:href="#m6e188a5a85" x="342.044444" y="361.854301" style="fill: #ffa500; fill-opacity: 0.8; stroke: #ffa500; stroke-opacity: 0.8; stroke-linejoin: miter"/>
     <use xlink:href="#m6e188a5a85" x="353.066667" y="358.985784" style="fill: #ffa500; fill-opacity: 0.8; stroke: #ffa500; stroke-opacity: 0.8; stroke-linejoin: miter"/>
     <use xlink:href="#m6e188a5a85" x="364.088889" y="361.966805" style="fill: #ffa500; fill-opacity: 0.8; stroke: #ffa500; stroke-opacity: 0.8; stroke-linejoin: miter"/>
     <use xlink:href="#m6e188a5a85" x="375.111111" y="362.780633" style="fill: #ffa500; fill-opacity: 0.8; stroke: #ffa500; stroke-opacity: 0.8; stroke-linejoin: miter"/>
     <use xlink:href="#m6e188a5a85" x="386.133333" y="363.075506" style="fill: #ffa500; fill-opacity: 0.8; stroke: #ffa500; stroke-opacity: 0.8; stroke-linejoin: miter"/>
     <use xlink:href="#m6e188a5a85" x="397.155556" y="361.780535" style="fill: #ffa500; fill-opacity: 0.8; stroke: #ffa500; stroke-opacity: 0.8; stroke-linejoin: miter"/>
     <use xlink:href="#m6e188a5a85" x="408.177778" y="361.396524" style="fill: #ffa500; fill-opacity: 0.8; stroke: #ffa500; stroke-opacity: 0.8; stroke-linejoin: miter"/>
     <use xlink:href="#m6e188a5a85" x="419.2" y="362.309721" style="fill: #ffa500; fill-opacity: 0.8; stroke: #ffa500; stroke-opacity: 0.8; stroke-linejoin: miter"/>
     <use xlink:href="#m6e188a5a85" x="430.222222" y="362.329567" style="fill: #ffa500; fill-opacity: 0.8; stroke: #ffa500; stroke-opacity: 0.8; stroke-linejoin: miter"/>
     <use xlink:href="#m6e188a5a85" x="441.244444" y="364.680723" style="fill: #ffa500; fill-opacity: 0.8; stroke: #ffa500; stroke-opacity: 0.8; stroke-linejoin: miter"/>
     <use xlink:href="#m6e188a5a85" x="452.266667" y="362.56369" style="fill: #ffa500; fill-opacity: 0.8; stroke: #ffa500; stroke-opacity: 0.8; stroke-linejoin: miter"/>
     <use xlink:href="#m6e188a5a85" x="463.288889" y="361.834812" style="fill: #ffa500; fill-opacity: 0.8; stroke: #ffa500; stroke-opacity: 0.8; stroke-linejoin: miter"/>
     <use xlink:href="#m6e188a5a85" x="474.311111" y="365.098332" style="fill: #ffa500; fill-opacity: 0.8; stroke: #ffa500; stroke-opacity: 0.8; stroke-linejoin: miter"/>
     <use xlink:href="#m6e188a5a85" x="485.333333" y="365.153181" style="fill: #ffa500; fill-opacity: 0.8; stroke: #ffa500; stroke-opacity: 0.8; stroke-linejoin: miter"/>
     <use xlink:href="#m6e188a5a85" x="496.355556" y="362.703726" style="fill: #ffa500; fill-opacity: 0.8; stroke: #ffa500; stroke-opacity: 0.8; stroke-linejoin: miter"/>
     <use xlink:href="#m6e188a5a85" x="507.377778" y="364.60936" style="fill: #ffa500; fill-opacity: 0.8; stroke: #ffa500; stroke-opacity: 0.8; stroke-linejoin: miter"/>
     <use xlink:href="#m6e188a5a85" x="518.4" y="368.413441" style="fill: #ffa500; fill-opacity: 0.8; stroke: #ffa500; stroke-opacity: 0.8; stroke-linejoin: miter"/>
     <use xlink:href="#m6e188a5a85" x="529.422222" y="368.408254" style="fill: #ffa500; fill-opacity: 0.8; stroke: #ffa500; stroke-opacity: 0.8; stroke-linejoin: miter"/>
     <use xlink:href="#m6e188a5a85" x="540.444444" y="368.257272" style="fill: #ffa500; fill-opacity: 0.8; stroke: #ffa500; stroke-opacity: 0.8; stroke-linejoin: miter"/>
     <use xlink:href="#m6e188a5a85" x="551.466667" y="368.532133" style="fill: #ffa500; fill-opacity: 0.8; stroke: #ffa500; stroke-opacity: 0.8; stroke-linejoin: miter"/>
     <use xlink:href="#m6e188a5a85" x="562.488889" y="368.398165" style="fill: #ffa500; fill-opacity: 0.8; stroke: #ffa500; stroke-opacity: 0.8; stroke-linejoin: miter"/>
     <use xlink:href="#m6e188a5a85" x="573.511111" y="367.746765" style="fill: #ffa500; fill-opacity: 0.8; stroke: #ffa500; stroke-opacity: 0.8; stroke-linejoin: miter"/>
     <use xlink:href="#m6e188a5a85" x="584.533333" y="368.651277" style="fill: #ffa500; fill-opacity: 0.8; stroke: #ffa500; stroke-opacity: 0.8; stroke-linejoin: miter"/>
     <use xlink:href="#m6e188a5a85" x="595.555556" y="368.603091" style="fill: #ffa500; fill-opacity: 0.8; stroke: #ffa500; stroke-opacity: 0.8; stroke-linejoin: miter"/>
     <use xlink:href="#m6e188a5a85" x="606.577778" y="368.271549" style="fill: #ffa500; fill-opacity: 0.8; stroke: #ffa500; stroke-opacity: 0.8; stroke-linejoin: miter"/>
     <use xlink:href="#m6e188a5a85" x="617.6" y="368.140603" style="fill: #ffa500; fill-opacity: 0.8; stroke: #ffa500; stroke-opacity: 0.8; stroke-linejoin: miter"/>
     <use xlink:href="#m6e188a5a85" x="628.622222" y="366.634399" style="fill: #ffa500; fill-opacity: 0.8; stroke: #ffa500; stroke-opacity: 0.8; stroke-linejoin: miter"/>
     <use xlink:href="#m6e188a5a85" x="639.644444" y="368.707529" style="fill: #ffa500; fill-opacity: 0.8; stroke: #ffa500; stroke-opacity: 0.8; stroke-linejoin: miter"/>
     <use xlink:href="#m6e188a5a85" x="650.666667" y="368.352715" style="fill: #ffa500; fill-opacity: 0.8; stroke: #ffa500; stroke-opacity: 0.8; stroke-linejoin: miter"/>
     <use xlink:href="#m6e188a5a85" x="661.688889" y="368.889136" style="fill: #ffa500; fill-opacity: 0.8; stroke: #ffa500; stroke-opacity: 0.8; stroke-linejoin: miter"/>
     <use xlink:href="#m6e188a5a85" x="672.711111" y="368.159235" style="fill: #ffa500; fill-opacity: 0.8; stroke: #ffa500; stroke-opacity: 0.8; stroke-linejoin: miter"/>
     <use xlink:href="#m6e188a5a85" x="683.733333" y="368.943651" style="fill: #ffa500; fill-opacity: 0.8; stroke: #ffa500; stroke-opacity: 0.8; stroke-linejoin: miter"/>
     <use xlink:href="#m6e188a5a85" x="694.755556" y="368.465315" style="fill: #ffa500; fill-opacity: 0.8; stroke: #ffa500; stroke-opacity: 0.8; stroke-linejoin: miter"/>
     <use xlink:href="#m6e188a5a85" x="705.777778" y="368.706887" style="fill: #ffa500; fill-opacity: 0.8; stroke: #ffa500; stroke-opacity: 0.8; stroke-linejoin: miter"/>
     <use xlink:href="#m6e188a5a85" x="716.8" y="368.7318" style="fill: #ffa500; fill-opacity: 0.8; stroke: #ffa500; stroke-opacity: 0.8; stroke-linejoin: miter"/>
     <use xlink:href="#m6e188a5a85" x="727.822222" y="368.879879" style="fill: #ffa500; fill-opacity: 0.8; stroke: #ffa500; stroke-opacity: 0.8; stroke-linejoin: miter"/>
     <use xlink:href="#m6e188a5a85" x="738.844444" y="369.158001" style="fill: #ffa500; fill-opacity: 0.8; stroke: #ffa500; stroke-opacity: 0.8; stroke-linejoin: miter"/>
     <use xlink:href="#m6e188a5a85" x="749.866667" y="369.08126" style="fill: #ffa500; fill-opacity: 0.8; stroke: #ffa500; stroke-opacity: 0.8; stroke-linejoin: miter"/>
     <use xlink:href="#m6e188a5a85" x="760.888889" y="369.188673" style="fill: #ffa500; fill-opacity: 0.8; stroke: #ffa500; stroke-opacity: 0.8; stroke-linejoin: miter"/>
     <use xlink:href="#m6e188a5a85" x="771.911111" y="369.198548" style="fill: #ffa500; fill-opacity: 0.8; stroke: #ffa500; stroke-opacity: 0.8; stroke-linejoin: miter"/>
     <use xlink:href="#m6e188a5a85" x="782.933333" y="369.224533" style="fill: #ffa500; fill-opacity: 0.8; stroke: #ffa500; stroke-opacity: 0.8; stroke-linejoin: miter"/>
     <use xlink:href="#m6e188a5a85" x="793.955556" y="369.234622" style="fill: #ffa500; fill-opacity: 0.8; stroke: #ffa500; stroke-opacity: 0.8; stroke-linejoin: miter"/>
     <use xlink:href="#m6e188a5a85" x="804.977778" y="369.142272" style="fill: #ffa500; fill-opacity: 0.8; stroke: #ffa500; stroke-opacity: 0.8; stroke-linejoin: miter"/>
     <use xlink:href="#m6e188a5a85" x="816" y="369.215229" style="fill: #ffa500; fill-opacity: 0.8; stroke: #ffa500; stroke-opacity: 0.8; stroke-linejoin: miter"/>
     <use xlink:href="#m6e188a5a85" x="827.022222" y="369.209851" style="fill: #ffa500; fill-opacity: 0.8; stroke: #ffa500; stroke-opacity: 0.8; stroke-linejoin: miter"/>
     <use xlink:href="#m6e188a5a85" x="838.044444" y="369.219678" style="fill: #ffa500; fill-opacity: 0.8; stroke: #ffa500; stroke-opacity: 0.8; stroke-linejoin: miter"/>
     <use xlink:href="#m6e188a5a85" x="849.066667" y="369.232337" style="fill: #ffa500; fill-opacity: 0.8; stroke: #ffa500; stroke-opacity: 0.8; stroke-linejoin: miter"/>
     <use xlink:href="#m6e188a5a85" x="860.088889" y="369.200214" style="fill: #ffa500; fill-opacity: 0.8; stroke: #ffa500; stroke-opacity: 0.8; stroke-linejoin: miter"/>
     <use xlink:href="#m6e188a5a85" x="871.111111" y="369.243664" style="fill: #ffa500; fill-opacity: 0.8; stroke: #ffa500; stroke-opacity: 0.8; stroke-linejoin: miter"/>
     <use xlink:href="#m6e188a5a85" x="882.133333" y="369.221106" style="fill: #ffa500; fill-opacity: 0.8; stroke: #ffa500; stroke-opacity: 0.8; stroke-linejoin: miter"/>
     <use xlink:href="#m6e188a5a85" x="893.155556" y="369.176751" style="fill: #ffa500; fill-opacity: 0.8; stroke: #ffa500; stroke-opacity: 0.8; stroke-linejoin: miter"/>
     <use xlink:href="#m6e188a5a85" x="904.177778" y="369.205948" style="fill: #ffa500; fill-opacity: 0.8; stroke: #ffa500; stroke-opacity: 0.8; stroke-linejoin: miter"/>
     <use xlink:href="#m6e188a5a85" x="915.2" y="369.192837" style="fill: #ffa500; fill-opacity: 0.8; stroke: #ffa500; stroke-opacity: 0.8; stroke-linejoin: miter"/>
     <use xlink:href="#m6e188a5a85" x="926.222222" y="369.142629" style="fill: #ffa500; fill-opacity: 0.8; stroke: #ffa500; stroke-opacity: 0.8; stroke-linejoin: miter"/>
     <use xlink:href="#m6e188a5a85" x="937.244444" y="369.21442" style="fill: #ffa500; fill-opacity: 0.8; stroke: #ffa500; stroke-opacity: 0.8; stroke-linejoin: miter"/>
     <use xlink:href="#m6e188a5a85" x="948.266667" y="369.256299" style="fill: #ffa500; fill-opacity: 0.8; stroke: #ffa500; stroke-opacity: 0.8; stroke-linejoin: miter"/>
     <use xlink:href="#m6e188a5a85" x="959.288889" y="369.227816" style="fill: #ffa500; fill-opacity: 0.8; stroke: #ffa500; stroke-opacity: 0.8; stroke-linejoin: miter"/>
     <use xlink:href="#m6e188a5a85" x="970.311111" y="369.231552" style="fill: #ffa500; fill-opacity: 0.8; stroke: #ffa500; stroke-opacity: 0.8; stroke-linejoin: miter"/>
     <use xlink:href="#m6e188a5a85" x="981.333333" y="369.19969" style="fill: #ffa500; fill-opacity: 0.8; stroke: #ffa500; stroke-opacity: 0.8; stroke-linejoin: miter"/>
     <use xlink:href="#m6e188a5a85" x="992.355556" y="369.220321" style="fill: #ffa500; fill-opacity: 0.8; stroke: #ffa500; stroke-opacity: 0.8; stroke-linejoin: miter"/>
     <use xlink:href="#m6e188a5a85" x="1003.377778" y="369.156597" style="fill: #ffa500; fill-opacity: 0.8; stroke: #ffa500; stroke-opacity: 0.8; stroke-linejoin: miter"/>
     <use xlink:href="#m6e188a5a85" x="1014.4" y="369.269958" style="fill: #ffa500; fill-opacity: 0.8; stroke: #ffa500; stroke-opacity: 0.8; stroke-linejoin: miter"/>
     <use xlink:href="#m6e188a5a85" x="1025.422222" y="369.298203" style="fill: #ffa500; fill-opacity: 0.8; stroke: #ffa500; stroke-opacity: 0.8; stroke-linejoin: miter"/>
     <use xlink:href="#m6e188a5a85" x="1036.444444" y="369.252468" style="fill: #ffa500; fill-opacity: 0.8; stroke: #ffa500; stroke-opacity: 0.8; stroke-linejoin: miter"/>
     <use xlink:href="#m6e188a5a85" x="1047.466667" y="369.284045" style="fill: #ffa500; fill-opacity: 0.8; stroke: #ffa500; stroke-opacity: 0.8; stroke-linejoin: miter"/>
     <use xlink:href="#m6e188a5a85" x="1058.488889" y="369.264342" style="fill: #ffa500; fill-opacity: 0.8; stroke: #ffa500; stroke-opacity: 0.8; stroke-linejoin: miter"/>
     <use xlink:href="#m6e188a5a85" x="1069.511111" y="369.295895" style="fill: #ffa500; fill-opacity: 0.8; stroke: #ffa500; stroke-opacity: 0.8; stroke-linejoin: miter"/>
     <use xlink:href="#m6e188a5a85" x="1080.533333" y="369.228316" style="fill: #ffa500; fill-opacity: 0.8; stroke: #ffa500; stroke-opacity: 0.8; stroke-linejoin: miter"/>
     <use xlink:href="#m6e188a5a85" x="1091.555556" y="369.230791" style="fill: #ffa500; fill-opacity: 0.8; stroke: #ffa500; stroke-opacity: 0.8; stroke-linejoin: miter"/>
     <use xlink:href="#m6e188a5a85" x="1102.577778" y="369.236692" style="fill: #ffa500; fill-opacity: 0.8; stroke: #ffa500; stroke-opacity: 0.8; stroke-linejoin: miter"/>
     <use xlink:href="#m6e188a5a85" x="1113.6" y="369.258298" style="fill: #ffa500; fill-opacity: 0.8; stroke: #ffa500; stroke-opacity: 0.8; stroke-linejoin: miter"/>
     <use xlink:href="#m6e188a5a85" x="1124.622222" y="369.240357" style="fill: #ffa500; fill-opacity: 0.8; stroke: #ffa500; stroke-opacity: 0.8; stroke-linejoin: miter"/>
     <use xlink:href="#m6e188a5a85" x="1135.644444" y="369.241975" style="fill: #ffa500; fill-opacity: 0.8; stroke: #ffa500; stroke-opacity: 0.8; stroke-linejoin: miter"/>
     <use xlink:href="#m6e188a5a85" x="1146.666667" y="369.303676" style="fill: #ffa500; fill-opacity: 0.8; stroke: #ffa500; stroke-opacity: 0.8; stroke-linejoin: miter"/>
     <use xlink:href="#m6e188a5a85" x="1157.688889" y="369.217608" style="fill: #ffa500; fill-opacity: 0.8; stroke: #ffa500; stroke-opacity: 0.8; stroke-linejoin: miter"/>
     <use xlink:href="#m6e188a5a85" x="1168.711111" y="369.193932" style="fill: #ffa500; fill-opacity: 0.8; stroke: #ffa500; stroke-opacity: 0.8; stroke-linejoin: miter"/>
    </g>
   </g>
   <g id="patch_3">
    <path d="M 72 384.48 
L 72 51.84 
" style="fill: none; stroke: #000000; stroke-width: 0.8; stroke-linejoin: miter; stroke-linecap: square"/>
   </g>
   <g id="patch_4">
    <path d="M 518.4 384.48 
L 518.4 51.84 
" style="fill: none; stroke: #000000; stroke-width: 0.8; stroke-linejoin: miter; stroke-linecap: square"/>
   </g>
   <g id="patch_5">
    <path d="M 72 384.48 
L 518.4 384.48 
" style="fill: none; stroke: #000000; stroke-width: 0.8; stroke-linejoin: miter; stroke-linecap: square"/>
   </g>
   <g id="patch_6">
    <path d="M 72 51.84 
L 518.4 51.84 
" style="fill: none; stroke: #000000; stroke-width: 0.8; stroke-linejoin: miter; stroke-linecap: square"/>
   </g>
   <g id="legend_1">
    <g id="patch_7">
     <path d="M 343.04 118.368 
L 473.25 118.368 
Q 476.45 118.368 476.45 115.168 
L 476.45 69.798 
Q 476.45 66.598 473.25 66.598 
L 343.04 66.598 
Q 339.84 66.598 339.84 69.798 
L 339.84 115.168 
Q 339.84 118.368 343.04 118.368 
z
" style="fill: #ffffff; opacity: 0.8; stroke: #cccccc; stroke-linejoin: miter"/>
    </g>
    <g id="line2d_14">
     <path d="M 346.24 79.5555 
L 362.24 79.5555 
L 378.24 79.5555 
" style="fill: none; stroke: #0000ff; stroke-opacity: 0.8; stroke-width: 1.5; stroke-linecap: square"/>
    </g>
    <g id="text_14">
     <!-- Train -->
     <g transform="translate(391.04 85.1555) scale(0.16 -0.16)">
      <defs>
       <path id="DejaVuSans-54" d="M -19 4666 
L 3928 4666 
L 3928 4134 
L 2272 4134 
L 2272 0 
L 1638 0 
L 1638 4134 
L -19 4134 
L -19 4666 
z
" transform="scale(0.015625)"/>
       <path id="DejaVuSans-72" d="M 2631 2963 
Q 2534 3019 2420 3045 
Q 2306 3072 2169 3072 
Q 1681 3072 1420 2755 
Q 1159 2438 1159 1844 
L 1159 0 
L 581 0 
L 581 3500 
L 1159 3500 
L 1159 2956 
Q 1341 3275 1631 3429 
Q 1922 3584 2338 3584 
Q 2397 3584 2469 3576 
Q 2541 3569 2628 3553 
L 2631 2963 
z
" transform="scale(0.015625)"/>
       <path id="DejaVuSans-61" d="M 2194 1759 
Q 1497 1759 1228 1600 
Q 959 1441 959 1056 
Q 959 750 1161 570 
Q 1363 391 1709 391 
Q 2188 391 2477 730 
Q 2766 1069 2766 1631 
L 2766 1759 
L 2194 1759 
z
M 3341 1997 
L 3341 0 
L 2766 0 
L 2766 531 
Q 2569 213 2275 61 
Q 1981 -91 1556 -91 
Q 1019 -91 701 211 
Q 384 513 384 1019 
Q 384 1609 779 1909 
Q 1175 2209 1959 2209 
L 2766 2209 
L 2766 2266 
Q 2766 2663 2505 2880 
Q 2244 3097 1772 3097 
Q 1472 3097 1187 3025 
Q 903 2953 641 2809 
L 641 3341 
Q 956 3463 1253 3523 
Q 1550 3584 1831 3584 
Q 2591 3584 2966 3190 
Q 3341 2797 3341 1997 
z
" transform="scale(0.015625)"/>
       <path id="DejaVuSans-69" d="M 603 3500 
L 1178 3500 
L 1178 0 
L 603 0 
L 603 3500 
z
M 603 4863 
L 1178 4863 
L 1178 4134 
L 603 4134 
L 603 4863 
z
" transform="scale(0.015625)"/>
       <path id="DejaVuSans-6e" d="M 3513 2113 
L 3513 0 
L 2938 0 
L 2938 2094 
Q 2938 2591 2744 2837 
Q 2550 3084 2163 3084 
Q 1697 3084 1428 2787 
Q 1159 2491 1159 1978 
L 1159 0 
L 581 0 
L 581 3500 
L 1159 3500 
L 1159 2956 
Q 1366 3272 1645 3428 
Q 1925 3584 2291 3584 
Q 2894 3584 3203 3211 
Q 3513 2838 3513 2113 
z
" transform="scale(0.015625)"/>
      </defs>
      <use xlink:href="#DejaVuSans-54"/>
      <use xlink:href="#DejaVuSans-72" x="46.333984"/>
      <use xlink:href="#DejaVuSans-61" x="87.447266"/>
      <use xlink:href="#DejaVuSans-69" x="148.726562"/>
      <use xlink:href="#DejaVuSans-6e" x="176.509766"/>
     </g>
    </g>
    <g id="line2d_15">
     <path d="M 346.24 103.0405 
L 362.24 103.0405 
L 378.24 103.0405 
" style="fill: none; stroke: #ffa500; stroke-opacity: 0.8; stroke-width: 1.5; stroke-linecap: square"/>
     <g>
      <use xlink:href="#m6e188a5a85" x="362.24" y="103.0405" style="fill: #ffa500; fill-opacity: 0.8; stroke: #ffa500; stroke-opacity: 0.8; stroke-linejoin: miter"/>
     </g>
    </g>
    <g id="text_15">
     <!-- Validation -->
     <g transform="translate(391.04 108.6405) scale(0.16 -0.16)">
      <defs>
       <path id="DejaVuSans-56" d="M 1831 0 
L 50 4666 
L 709 4666 
L 2188 738 
L 3669 4666 
L 4325 4666 
L 2547 0 
L 1831 0 
z
" transform="scale(0.015625)"/>
       <path id="DejaVuSans-6c" d="M 603 4863 
L 1178 4863 
L 1178 0 
L 603 0 
L 603 4863 
z
" transform="scale(0.015625)"/>
       <path id="DejaVuSans-64" d="M 2906 2969 
L 2906 4863 
L 3481 4863 
L 3481 0 
L 2906 0 
L 2906 525 
Q 2725 213 2448 61 
Q 2172 -91 1784 -91 
Q 1150 -91 751 415 
Q 353 922 353 1747 
Q 353 2572 751 3078 
Q 1150 3584 1784 3584 
Q 2172 3584 2448 3432 
Q 2725 3281 2906 2969 
z
M 947 1747 
Q 947 1113 1208 752 
Q 1469 391 1925 391 
Q 2381 391 2643 752 
Q 2906 1113 2906 1747 
Q 2906 2381 2643 2742 
Q 2381 3103 1925 3103 
Q 1469 3103 1208 2742 
Q 947 2381 947 1747 
z
" transform="scale(0.015625)"/>
       <path id="DejaVuSans-74" d="M 1172 4494 
L 1172 3500 
L 2356 3500 
L 2356 3053 
L 1172 3053 
L 1172 1153 
Q 1172 725 1289 603 
Q 1406 481 1766 481 
L 2356 481 
L 2356 0 
L 1766 0 
Q 1100 0 847 248 
Q 594 497 594 1153 
L 594 3053 
L 172 3053 
L 172 3500 
L 594 3500 
L 594 4494 
L 1172 4494 
z
" transform="scale(0.015625)"/>
      </defs>
      <use xlink:href="#DejaVuSans-56"/>
      <use xlink:href="#DejaVuSans-61" x="60.658203"/>
      <use xlink:href="#DejaVuSans-6c" x="121.9375"/>
      <use xlink:href="#DejaVuSans-69" x="149.720703"/>
      <use xlink:href="#DejaVuSans-64" x="177.503906"/>
      <use xlink:href="#DejaVuSans-61" x="240.980469"/>
      <use xlink:href="#DejaVuSans-74" x="302.259766"/>
      <use xlink:href="#DejaVuSans-69" x="341.46875"/>
      <use xlink:href="#DejaVuSans-6f" x="369.251953"/>
      <use xlink:href="#DejaVuSans-6e" x="430.433594"/>
     </g>
    </g>
   </g>
  </g>
 </g>
 <defs>
  <clipPath id="p72a287d409">
   <rect x="72" y="51.84" width="446.4" height="332.64"/>
  </clipPath>
 </defs>
</svg>
