<?xml version="1.0" encoding="utf-8" standalone="no"?>
<!DOCTYPE svg PUBLIC "-//W3C//DTD SVG 1.1//EN"
  "http://www.w3.org/Graphics/SVG/1.1/DTD/svg11.dtd">
<svg xmlns:xlink="http://www.w3.org/1999/xlink" width="648pt" height="432pt" viewBox="0 0 648 432" xmlns="http://www.w3.org/2000/svg" version="1.1">
 <metadata>
  <rdf:RDF xmlns:dc="http://purl.org/dc/elements/1.1/" xmlns:cc="http://creativecommons.org/ns#" xmlns:rdf="http://www.w3.org/1999/02/22-rdf-syntax-ns#">
   <cc:Work>
    <dc:type rdf:resource="http://purl.org/dc/dcmitype/StillImage"/>
    <dc:date>2023-12-08T13:37:15.858891</dc:date>
    <dc:format>image/svg+xml</dc:format>
    <dc:creator>
     <cc:Agent>
      <dc:title>Matplotlib v3.8.2, https://matplotlib.org/</dc:title>
     </cc:Agent>
    </dc:creator>
   </cc:Work>
  </rdf:RDF>
 </metadata>
 <defs>
  <style type="text/css">*{stroke-linejoin: round; stroke-linecap: butt}</style>
 </defs>
 <g id="figure_1">
  <g id="patch_1">
   <path d="M 0 432 
L 648 432 
L 648 0 
L 0 0 
z
" style="fill: #ffffff"/>
  </g>
  <g id="axes_1">
   <g id="patch_2">
    <path d="M 37.85 399.46 
L 627.39 399.46 
L 627.39 16.92 
L 37.85 16.92 
z
" style="fill: #ffffff"/>
   </g>
   <g id="matplotlib.axis_1">
    <g id="xtick_1">
     <g id="text_1">
      <!-- 1-0 -->
      <g transform="translate(38.24223 421.844063) scale(0.18 -0.18)">
       <defs>
        <path id="ArialMT-31" d="M 2384 0 
L 1822 0 
L 1822 3584 
Q 1619 3391 1289 3197 
Q 959 3003 697 2906 
L 697 3450 
Q 1169 3672 1522 3987 
Q 1875 4303 2022 4600 
L 2384 4600 
L 2384 0 
z
" transform="scale(0.015625)"/>
        <path id="ArialMT-2d" d="M 203 1375 
L 203 1941 
L 1931 1941 
L 1931 1375 
L 203 1375 
z
" transform="scale(0.015625)"/>
        <path id="ArialMT-30" d="M 266 2259 
Q 266 3072 433 3567 
Q 600 4063 929 4331 
Q 1259 4600 1759 4600 
Q 2128 4600 2406 4451 
Q 2684 4303 2865 4023 
Q 3047 3744 3150 3342 
Q 3253 2941 3253 2259 
Q 3253 1453 3087 958 
Q 2922 463 2592 192 
Q 2263 -78 1759 -78 
Q 1097 -78 719 397 
Q 266 969 266 2259 
z
M 844 2259 
Q 844 1131 1108 757 
Q 1372 384 1759 384 
Q 2147 384 2411 759 
Q 2675 1134 2675 2259 
Q 2675 3391 2411 3762 
Q 2147 4134 1753 4134 
Q 1366 4134 1134 3806 
Q 844 3388 844 2259 
z
" transform="scale(0.015625)"/>
       </defs>
       <use xlink:href="#ArialMT-31"/>
       <use xlink:href="#ArialMT-2d" x="55.615234"/>
       <use xlink:href="#ArialMT-30" x="88.916016"/>
      </g>
     </g>
    </g>
    <g id="xtick_2">
     <g id="text_2">
      <!-- 1-1 -->
      <g transform="translate(78.438139 421.844063) scale(0.18 -0.18)">
       <use xlink:href="#ArialMT-31"/>
       <use xlink:href="#ArialMT-2d" x="55.615234"/>
       <use xlink:href="#ArialMT-31" x="88.916016"/>
      </g>
     </g>
    </g>
    <g id="xtick_3">
     <g id="text_3">
      <!-- 1-2 -->
      <g transform="translate(118.634048 421.844063) scale(0.18 -0.18)">
       <defs>
        <path id="ArialMT-32" d="M 3222 541 
L 3222 0 
L 194 0 
Q 188 203 259 391 
Q 375 700 629 1000 
Q 884 1300 1366 1694 
Q 2113 2306 2375 2664 
Q 2638 3022 2638 3341 
Q 2638 3675 2398 3904 
Q 2159 4134 1775 4134 
Q 1369 4134 1125 3890 
Q 881 3647 878 3216 
L 300 3275 
Q 359 3922 746 4261 
Q 1134 4600 1788 4600 
Q 2447 4600 2831 4234 
Q 3216 3869 3216 3328 
Q 3216 3053 3103 2787 
Q 2991 2522 2730 2228 
Q 2469 1934 1863 1422 
Q 1356 997 1212 845 
Q 1069 694 975 541 
L 3222 541 
z
" transform="scale(0.015625)"/>
       </defs>
       <use xlink:href="#ArialMT-31"/>
       <use xlink:href="#ArialMT-2d" x="55.615234"/>
       <use xlink:href="#ArialMT-32" x="88.916016"/>
      </g>
     </g>
    </g>
    <g id="xtick_4">
     <g id="text_4">
      <!-- 1-3 -->
      <g transform="translate(158.829957 421.844063) scale(0.18 -0.18)">
       <defs>
        <path id="ArialMT-33" d="M 269 1209 
L 831 1284 
Q 928 806 1161 595 
Q 1394 384 1728 384 
Q 2125 384 2398 659 
Q 2672 934 2672 1341 
Q 2672 1728 2419 1979 
Q 2166 2231 1775 2231 
Q 1616 2231 1378 2169 
L 1441 2663 
Q 1497 2656 1531 2656 
Q 1891 2656 2178 2843 
Q 2466 3031 2466 3422 
Q 2466 3731 2256 3934 
Q 2047 4138 1716 4138 
Q 1388 4138 1169 3931 
Q 950 3725 888 3313 
L 325 3413 
Q 428 3978 793 4289 
Q 1159 4600 1703 4600 
Q 2078 4600 2393 4439 
Q 2709 4278 2876 4000 
Q 3044 3722 3044 3409 
Q 3044 3113 2884 2869 
Q 2725 2625 2413 2481 
Q 2819 2388 3044 2092 
Q 3269 1797 3269 1353 
Q 3269 753 2831 336 
Q 2394 -81 1725 -81 
Q 1122 -81 723 278 
Q 325 638 269 1209 
z
" transform="scale(0.015625)"/>
       </defs>
       <use xlink:href="#ArialMT-31"/>
       <use xlink:href="#ArialMT-2d" x="55.615234"/>
       <use xlink:href="#ArialMT-33" x="88.916016"/>
      </g>
     </g>
    </g>
    <g id="xtick_5">
     <g id="text_5">
      <!-- 1-4 -->
      <g transform="translate(199.025866 421.844063) scale(0.18 -0.18)">
       <defs>
        <path id="ArialMT-34" d="M 2069 0 
L 2069 1097 
L 81 1097 
L 81 1613 
L 2172 4581 
L 2631 4581 
L 2631 1613 
L 3250 1613 
L 3250 1097 
L 2631 1097 
L 2631 0 
L 2069 0 
z
M 2069 1613 
L 2069 3678 
L 634 1613 
L 2069 1613 
z
" transform="scale(0.015625)"/>
       </defs>
       <use xlink:href="#ArialMT-31"/>
       <use xlink:href="#ArialMT-2d" x="55.615234"/>
       <use xlink:href="#ArialMT-34" x="88.916016"/>
      </g>
     </g>
    </g>
    <g id="xtick_6">
     <g id="text_6">
      <!-- 1-5 -->
      <g transform="translate(239.221776 421.844063) scale(0.18 -0.18)">
       <defs>
        <path id="ArialMT-35" d="M 266 1200 
L 856 1250 
Q 922 819 1161 601 
Q 1400 384 1738 384 
Q 2144 384 2425 690 
Q 2706 997 2706 1503 
Q 2706 1984 2436 2262 
Q 2166 2541 1728 2541 
Q 1456 2541 1237 2417 
Q 1019 2294 894 2097 
L 366 2166 
L 809 4519 
L 3088 4519 
L 3088 3981 
L 1259 3981 
L 1013 2750 
Q 1425 3038 1878 3038 
Q 2478 3038 2890 2622 
Q 3303 2206 3303 1553 
Q 3303 931 2941 478 
Q 2500 -78 1738 -78 
Q 1113 -78 717 272 
Q 322 622 266 1200 
z
" transform="scale(0.015625)"/>
       </defs>
       <use xlink:href="#ArialMT-31"/>
       <use xlink:href="#ArialMT-2d" x="55.615234"/>
       <use xlink:href="#ArialMT-35" x="88.916016"/>
      </g>
     </g>
    </g>
    <g id="xtick_7">
     <g id="text_7">
      <!-- 1-6 -->
      <g transform="translate(279.417685 421.844063) scale(0.18 -0.18)">
       <defs>
        <path id="ArialMT-36" d="M 3184 3459 
L 2625 3416 
Q 2550 3747 2413 3897 
Q 2184 4138 1850 4138 
Q 1581 4138 1378 3988 
Q 1113 3794 959 3422 
Q 806 3050 800 2363 
Q 1003 2672 1297 2822 
Q 1591 2972 1913 2972 
Q 2475 2972 2870 2558 
Q 3266 2144 3266 1488 
Q 3266 1056 3080 686 
Q 2894 316 2569 119 
Q 2244 -78 1831 -78 
Q 1128 -78 684 439 
Q 241 956 241 2144 
Q 241 3472 731 4075 
Q 1159 4600 1884 4600 
Q 2425 4600 2770 4297 
Q 3116 3994 3184 3459 
z
M 888 1484 
Q 888 1194 1011 928 
Q 1134 663 1356 523 
Q 1578 384 1822 384 
Q 2178 384 2434 671 
Q 2691 959 2691 1453 
Q 2691 1928 2437 2201 
Q 2184 2475 1800 2475 
Q 1419 2475 1153 2201 
Q 888 1928 888 1484 
z
" transform="scale(0.015625)"/>
       </defs>
       <use xlink:href="#ArialMT-31"/>
       <use xlink:href="#ArialMT-2d" x="55.615234"/>
       <use xlink:href="#ArialMT-36" x="88.916016"/>
      </g>
     </g>
    </g>
    <g id="xtick_8">
     <g id="text_8">
      <!-- 2-1 -->
      <g transform="translate(319.613594 421.844063) scale(0.18 -0.18)">
       <use xlink:href="#ArialMT-32"/>
       <use xlink:href="#ArialMT-2d" x="55.615234"/>
       <use xlink:href="#ArialMT-31" x="88.916016"/>
      </g>
     </g>
    </g>
    <g id="xtick_9">
     <g id="text_9">
      <!-- 2-2 -->
      <g transform="translate(359.809503 421.844063) scale(0.18 -0.18)">
       <use xlink:href="#ArialMT-32"/>
       <use xlink:href="#ArialMT-2d" x="55.615234"/>
       <use xlink:href="#ArialMT-32" x="88.916016"/>
      </g>
     </g>
    </g>
    <g id="xtick_10">
     <g id="text_10">
      <!-- 2-3 -->
      <g transform="translate(400.005412 421.844063) scale(0.18 -0.18)">
       <use xlink:href="#ArialMT-32"/>
       <use xlink:href="#ArialMT-2d" x="55.615234"/>
       <use xlink:href="#ArialMT-33" x="88.916016"/>
      </g>
     </g>
    </g>
    <g id="xtick_11">
     <g id="text_11">
      <!-- 2-4 -->
      <g transform="translate(440.201321 421.844063) scale(0.18 -0.18)">
       <use xlink:href="#ArialMT-32"/>
       <use xlink:href="#ArialMT-2d" x="55.615234"/>
       <use xlink:href="#ArialMT-34" x="88.916016"/>
      </g>
     </g>
    </g>
    <g id="xtick_12">
     <g id="text_12">
      <!-- 2-5 -->
      <g transform="translate(480.39723 421.844063) scale(0.18 -0.18)">
       <use xlink:href="#ArialMT-32"/>
       <use xlink:href="#ArialMT-2d" x="55.615234"/>
       <use xlink:href="#ArialMT-35" x="88.916016"/>
      </g>
     </g>
    </g>
    <g id="xtick_13">
     <g id="text_13">
      <!-- 2-6 -->
      <g transform="translate(520.593139 421.844063) scale(0.18 -0.18)">
       <use xlink:href="#ArialMT-32"/>
       <use xlink:href="#ArialMT-2d" x="55.615234"/>
       <use xlink:href="#ArialMT-36" x="88.916016"/>
      </g>
     </g>
    </g>
    <g id="xtick_14">
     <g id="text_14">
      <!-- 2-7 -->
      <g transform="translate(560.789048 421.844063) scale(0.18 -0.18)">
       <defs>
        <path id="ArialMT-37" d="M 303 3981 
L 303 4522 
L 3269 4522 
L 3269 4084 
Q 2831 3619 2401 2847 
Q 1972 2075 1738 1259 
Q 1569 684 1522 0 
L 944 0 
Q 953 541 1156 1306 
Q 1359 2072 1739 2783 
Q 2119 3494 2547 3981 
L 303 3981 
z
" transform="scale(0.015625)"/>
       </defs>
       <use xlink:href="#ArialMT-32"/>
       <use xlink:href="#ArialMT-2d" x="55.615234"/>
       <use xlink:href="#ArialMT-37" x="88.916016"/>
      </g>
     </g>
    </g>
    <g id="xtick_15">
     <g id="text_15">
      <!-- 3-4 -->
      <g transform="translate(600.984957 421.844063) scale(0.18 -0.18)">
       <use xlink:href="#ArialMT-33"/>
       <use xlink:href="#ArialMT-2d" x="55.615234"/>
       <use xlink:href="#ArialMT-34" x="88.916016"/>
      </g>
     </g>
    </g>
    <g id="text_16">
     <!-- cluster types -->
     <g transform="translate(276.490313 443.737188) scale(0.2 -0.2)">
      <defs>
       <path id="ArialMT-63" d="M 2588 1216 
L 3141 1144 
Q 3050 572 2676 248 
Q 2303 -75 1759 -75 
Q 1078 -75 664 370 
Q 250 816 250 1647 
Q 250 2184 428 2587 
Q 606 2991 970 3192 
Q 1334 3394 1763 3394 
Q 2303 3394 2647 3120 
Q 2991 2847 3088 2344 
L 2541 2259 
Q 2463 2594 2264 2762 
Q 2066 2931 1784 2931 
Q 1359 2931 1093 2626 
Q 828 2322 828 1663 
Q 828 994 1084 691 
Q 1341 388 1753 388 
Q 2084 388 2306 591 
Q 2528 794 2588 1216 
z
" transform="scale(0.015625)"/>
       <path id="ArialMT-6c" d="M 409 0 
L 409 4581 
L 972 4581 
L 972 0 
L 409 0 
z
" transform="scale(0.015625)"/>
       <path id="ArialMT-75" d="M 2597 0 
L 2597 488 
Q 2209 -75 1544 -75 
Q 1250 -75 995 37 
Q 741 150 617 320 
Q 494 491 444 738 
Q 409 903 409 1263 
L 409 3319 
L 972 3319 
L 972 1478 
Q 972 1038 1006 884 
Q 1059 663 1231 536 
Q 1403 409 1656 409 
Q 1909 409 2131 539 
Q 2353 669 2445 892 
Q 2538 1116 2538 1541 
L 2538 3319 
L 3100 3319 
L 3100 0 
L 2597 0 
z
" transform="scale(0.015625)"/>
       <path id="ArialMT-73" d="M 197 991 
L 753 1078 
Q 800 744 1014 566 
Q 1228 388 1613 388 
Q 2000 388 2187 545 
Q 2375 703 2375 916 
Q 2375 1106 2209 1216 
Q 2094 1291 1634 1406 
Q 1016 1563 777 1677 
Q 538 1791 414 1992 
Q 291 2194 291 2438 
Q 291 2659 392 2848 
Q 494 3038 669 3163 
Q 800 3259 1026 3326 
Q 1253 3394 1513 3394 
Q 1903 3394 2198 3281 
Q 2494 3169 2634 2976 
Q 2775 2784 2828 2463 
L 2278 2388 
Q 2241 2644 2061 2787 
Q 1881 2931 1553 2931 
Q 1166 2931 1000 2803 
Q 834 2675 834 2503 
Q 834 2394 903 2306 
Q 972 2216 1119 2156 
Q 1203 2125 1616 2013 
Q 2213 1853 2448 1751 
Q 2684 1650 2818 1456 
Q 2953 1263 2953 975 
Q 2953 694 2789 445 
Q 2625 197 2315 61 
Q 2006 -75 1616 -75 
Q 969 -75 630 194 
Q 291 463 197 991 
z
" transform="scale(0.015625)"/>
       <path id="ArialMT-74" d="M 1650 503 
L 1731 6 
Q 1494 -44 1306 -44 
Q 1000 -44 831 53 
Q 663 150 594 308 
Q 525 466 525 972 
L 525 2881 
L 113 2881 
L 113 3319 
L 525 3319 
L 525 4141 
L 1084 4478 
L 1084 3319 
L 1650 3319 
L 1650 2881 
L 1084 2881 
L 1084 941 
Q 1084 700 1114 631 
Q 1144 563 1211 522 
Q 1278 481 1403 481 
Q 1497 481 1650 503 
z
" transform="scale(0.015625)"/>
       <path id="ArialMT-65" d="M 2694 1069 
L 3275 997 
Q 3138 488 2766 206 
Q 2394 -75 1816 -75 
Q 1088 -75 661 373 
Q 234 822 234 1631 
Q 234 2469 665 2931 
Q 1097 3394 1784 3394 
Q 2450 3394 2872 2941 
Q 3294 2488 3294 1666 
Q 3294 1616 3291 1516 
L 816 1516 
Q 847 969 1125 678 
Q 1403 388 1819 388 
Q 2128 388 2347 550 
Q 2566 713 2694 1069 
z
M 847 1978 
L 2700 1978 
Q 2663 2397 2488 2606 
Q 2219 2931 1791 2931 
Q 1403 2931 1139 2672 
Q 875 2413 847 1978 
z
" transform="scale(0.015625)"/>
       <path id="ArialMT-72" d="M 416 0 
L 416 3319 
L 922 3319 
L 922 2816 
Q 1116 3169 1280 3281 
Q 1444 3394 1641 3394 
Q 1925 3394 2219 3213 
L 2025 2691 
Q 1819 2813 1613 2813 
Q 1428 2813 1281 2702 
Q 1134 2591 1072 2394 
Q 978 2094 978 1738 
L 978 0 
L 416 0 
z
" transform="scale(0.015625)"/>
       <path id="ArialMT-20" transform="scale(0.015625)"/>
       <path id="ArialMT-79" d="M 397 -1278 
L 334 -750 
Q 519 -800 656 -800 
Q 844 -800 956 -737 
Q 1069 -675 1141 -563 
Q 1194 -478 1313 -144 
Q 1328 -97 1363 -6 
L 103 3319 
L 709 3319 
L 1400 1397 
Q 1534 1031 1641 628 
Q 1738 1016 1872 1384 
L 2581 3319 
L 3144 3319 
L 1881 -56 
Q 1678 -603 1566 -809 
Q 1416 -1088 1222 -1217 
Q 1028 -1347 759 -1347 
Q 597 -1347 397 -1278 
z
" transform="scale(0.015625)"/>
       <path id="ArialMT-70" d="M 422 -1272 
L 422 3319 
L 934 3319 
L 934 2888 
Q 1116 3141 1344 3267 
Q 1572 3394 1897 3394 
Q 2322 3394 2647 3175 
Q 2972 2956 3137 2557 
Q 3303 2159 3303 1684 
Q 3303 1175 3120 767 
Q 2938 359 2589 142 
Q 2241 -75 1856 -75 
Q 1575 -75 1351 44 
Q 1128 163 984 344 
L 984 -1272 
L 422 -1272 
z
M 931 1641 
Q 931 1000 1190 694 
Q 1450 388 1819 388 
Q 2194 388 2461 705 
Q 2728 1022 2728 1688 
Q 2728 2322 2467 2637 
Q 2206 2953 1844 2953 
Q 1484 2953 1207 2617 
Q 931 2281 931 1641 
z
" transform="scale(0.015625)"/>
      </defs>
      <use xlink:href="#ArialMT-63"/>
      <use xlink:href="#ArialMT-6c" x="50"/>
      <use xlink:href="#ArialMT-75" x="72.216797"/>
      <use xlink:href="#ArialMT-73" x="127.832031"/>
      <use xlink:href="#ArialMT-74" x="177.832031"/>
      <use xlink:href="#ArialMT-65" x="205.615234"/>
      <use xlink:href="#ArialMT-72" x="261.230469"/>
      <use xlink:href="#ArialMT-20" x="294.53125"/>
      <use xlink:href="#ArialMT-74" x="322.314453"/>
      <use xlink:href="#ArialMT-79" x="350.097656"/>
      <use xlink:href="#ArialMT-70" x="400.097656"/>
      <use xlink:href="#ArialMT-65" x="455.712891"/>
      <use xlink:href="#ArialMT-73" x="511.328125"/>
     </g>
    </g>
   </g>
   <g id="matplotlib.axis_2">
    <g id="ytick_1">
     <g id="text_17">
      <!-- 0.0 -->
      <g transform="translate(3.33 390.472283) scale(0.18 -0.18)">
       <defs>
        <path id="ArialMT-2e" d="M 581 0 
L 581 641 
L 1222 641 
L 1222 0 
L 581 0 
z
" transform="scale(0.015625)"/>
       </defs>
       <use xlink:href="#ArialMT-30"/>
       <use xlink:href="#ArialMT-2e" x="55.615234"/>
       <use xlink:href="#ArialMT-30" x="83.398438"/>
      </g>
     </g>
    </g>
    <g id="ytick_2">
     <g id="text_18">
      <!-- 0.1 -->
      <g transform="translate(3.33 318.130952) scale(0.18 -0.18)">
       <use xlink:href="#ArialMT-30"/>
       <use xlink:href="#ArialMT-2e" x="55.615234"/>
       <use xlink:href="#ArialMT-31" x="83.398438"/>
      </g>
     </g>
    </g>
    <g id="ytick_3">
     <g id="text_19">
      <!-- 0.2 -->
      <g transform="translate(3.33 245.789621) scale(0.18 -0.18)">
       <use xlink:href="#ArialMT-30"/>
       <use xlink:href="#ArialMT-2e" x="55.615234"/>
       <use xlink:href="#ArialMT-32" x="83.398438"/>
      </g>
     </g>
    </g>
    <g id="ytick_4">
     <g id="text_20">
      <!-- 0.3 -->
      <g transform="translate(3.33 173.44829) scale(0.18 -0.18)">
       <use xlink:href="#ArialMT-30"/>
       <use xlink:href="#ArialMT-2e" x="55.615234"/>
       <use xlink:href="#ArialMT-33" x="83.398438"/>
      </g>
     </g>
    </g>
    <g id="ytick_5">
     <g id="text_21">
      <!-- 0.4 -->
      <g transform="translate(3.33 101.106959) scale(0.18 -0.18)">
       <use xlink:href="#ArialMT-30"/>
       <use xlink:href="#ArialMT-2e" x="55.615234"/>
       <use xlink:href="#ArialMT-34" x="83.398438"/>
      </g>
     </g>
    </g>
    <g id="ytick_6">
     <g id="text_22">
      <!-- 0.5 -->
      <g transform="translate(3.33 28.765628) scale(0.18 -0.18)">
       <use xlink:href="#ArialMT-30"/>
       <use xlink:href="#ArialMT-2e" x="55.615234"/>
       <use xlink:href="#ArialMT-35" x="83.398438"/>
      </g>
     </g>
    </g>
    <g id="text_23">
     <!-- MAE-Test (°C) -->
     <g transform="translate(-4.879375 272.182188) rotate(-90) scale(0.2 -0.2)">
      <defs>
       <path id="ArialMT-4d" d="M 475 0 
L 475 4581 
L 1388 4581 
L 2472 1338 
Q 2622 884 2691 659 
Q 2769 909 2934 1394 
L 4031 4581 
L 4847 4581 
L 4847 0 
L 4263 0 
L 4263 3834 
L 2931 0 
L 2384 0 
L 1059 3900 
L 1059 0 
L 475 0 
z
" transform="scale(0.015625)"/>
       <path id="ArialMT-41" d="M -9 0 
L 1750 4581 
L 2403 4581 
L 4278 0 
L 3588 0 
L 3053 1388 
L 1138 1388 
L 634 0 
L -9 0 
z
M 1313 1881 
L 2866 1881 
L 2388 3150 
Q 2169 3728 2063 4100 
Q 1975 3659 1816 3225 
L 1313 1881 
z
" transform="scale(0.015625)"/>
       <path id="ArialMT-45" d="M 506 0 
L 506 4581 
L 3819 4581 
L 3819 4041 
L 1113 4041 
L 1113 2638 
L 3647 2638 
L 3647 2100 
L 1113 2100 
L 1113 541 
L 3925 541 
L 3925 0 
L 506 0 
z
" transform="scale(0.015625)"/>
       <path id="ArialMT-54" d="M 1659 0 
L 1659 4041 
L 150 4041 
L 150 4581 
L 3781 4581 
L 3781 4041 
L 2266 4041 
L 2266 0 
L 1659 0 
z
" transform="scale(0.015625)"/>
       <path id="ArialMT-28" d="M 1497 -1347 
Q 1031 -759 709 28 
Q 388 816 388 1659 
Q 388 2403 628 3084 
Q 909 3875 1497 4659 
L 1900 4659 
Q 1522 4009 1400 3731 
Q 1209 3300 1100 2831 
Q 966 2247 966 1656 
Q 966 153 1900 -1347 
L 1497 -1347 
z
" transform="scale(0.015625)"/>
       <path id="ArialMT-b0" d="M 400 3794 
Q 400 4153 654 4406 
Q 909 4659 1266 4659 
Q 1628 4659 1881 4406 
Q 2134 4153 2134 3794 
Q 2134 3434 1879 3179 
Q 1625 2925 1266 2925 
Q 909 2925 654 3178 
Q 400 3431 400 3794 
z
M 741 3794 
Q 741 3575 895 3420 
Q 1050 3266 1269 3266 
Q 1484 3266 1639 3420 
Q 1794 3575 1794 3794 
Q 1794 4013 1639 4167 
Q 1484 4322 1269 4322 
Q 1050 4322 895 4167 
Q 741 4013 741 3794 
z
" transform="scale(0.015625)"/>
       <path id="ArialMT-43" d="M 3763 1606 
L 4369 1453 
Q 4178 706 3683 314 
Q 3188 -78 2472 -78 
Q 1731 -78 1267 223 
Q 803 525 561 1097 
Q 319 1669 319 2325 
Q 319 3041 592 3573 
Q 866 4106 1370 4382 
Q 1875 4659 2481 4659 
Q 3169 4659 3637 4309 
Q 4106 3959 4291 3325 
L 3694 3184 
Q 3534 3684 3231 3912 
Q 2928 4141 2469 4141 
Q 1941 4141 1586 3887 
Q 1231 3634 1087 3207 
Q 944 2781 944 2328 
Q 944 1744 1114 1308 
Q 1284 872 1643 656 
Q 2003 441 2422 441 
Q 2931 441 3284 734 
Q 3638 1028 3763 1606 
z
" transform="scale(0.015625)"/>
       <path id="ArialMT-29" d="M 791 -1347 
L 388 -1347 
Q 1322 153 1322 1656 
Q 1322 2244 1188 2822 
Q 1081 3291 891 3722 
Q 769 4003 388 4659 
L 791 4659 
Q 1378 3875 1659 3084 
Q 1900 2403 1900 1659 
Q 1900 816 1576 28 
Q 1253 -759 791 -1347 
z
" transform="scale(0.015625)"/>
      </defs>
      <use xlink:href="#ArialMT-4d"/>
      <use xlink:href="#ArialMT-41" x="83.300781"/>
      <use xlink:href="#ArialMT-45" x="150"/>
      <use xlink:href="#ArialMT-2d" x="216.699219"/>
      <use xlink:href="#ArialMT-54" x="250"/>
      <use xlink:href="#ArialMT-65" x="299.958984"/>
      <use xlink:href="#ArialMT-73" x="355.574219"/>
      <use xlink:href="#ArialMT-74" x="405.574219"/>
      <use xlink:href="#ArialMT-20" x="433.357422"/>
      <use xlink:href="#ArialMT-28" x="461.140625"/>
      <use xlink:href="#ArialMT-b0" x="494.441406"/>
      <use xlink:href="#ArialMT-43" x="534.431641"/>
      <use xlink:href="#ArialMT-29" x="606.648438"/>
     </g>
    </g>
   </g>
   <g id="patch_3">
    <path d="M 40.529727 373.684968 
L 48.568909 373.684968 
L 48.568909 362.851079 
L 40.529727 362.851079 
L 40.529727 373.684968 
z
" clip-path="url(#pec33216c88)" style="fill: #ffffff; stroke: #000000; stroke-linejoin: miter"/>
   </g>
   <g id="line2d_1">
    <path d="M 44.549318 373.684968 
L 44.549318 382.071818 
" clip-path="url(#pec33216c88)" style="fill: none; stroke: #000000; stroke-linecap: round"/>
   </g>
   <g id="line2d_2">
    <path d="M 44.549318 362.851079 
L 44.549318 352.74574 
" clip-path="url(#pec33216c88)" style="fill: none; stroke: #000000; stroke-linecap: round"/>
   </g>
   <g id="line2d_3">
    <path d="M 42.539523 382.071818 
L 46.559114 382.071818 
" clip-path="url(#pec33216c88)" style="fill: none; stroke: #000000; stroke-linecap: round"/>
   </g>
   <g id="line2d_4">
    <path d="M 42.539523 352.74574 
L 46.559114 352.74574 
" clip-path="url(#pec33216c88)" style="fill: none; stroke: #000000; stroke-linecap: round"/>
   </g>
   <g id="patch_4">
    <path d="M 53.928364 373.824518 
L 61.967545 373.824518 
L 61.967545 362.363064 
L 53.928364 362.363064 
L 53.928364 373.824518 
z
" clip-path="url(#pec33216c88)" style="opacity: 0.6; stroke: #000000; stroke-linejoin: miter"/>
   </g>
   <g id="line2d_5">
    <path d="M 57.947955 373.824518 
L 57.947955 381.337861 
" clip-path="url(#pec33216c88)" style="fill: none; stroke: #000000; stroke-linecap: round"/>
   </g>
   <g id="line2d_6">
    <path d="M 57.947955 362.363064 
L 57.947955 350.995086 
" clip-path="url(#pec33216c88)" style="fill: none; stroke: #000000; stroke-linecap: round"/>
   </g>
   <g id="line2d_7">
    <path d="M 55.938159 381.337861 
L 59.95775 381.337861 
" clip-path="url(#pec33216c88)" style="fill: none; stroke: #000000; stroke-linecap: round"/>
   </g>
   <g id="line2d_8">
    <path d="M 55.938159 350.995086 
L 59.95775 350.995086 
" clip-path="url(#pec33216c88)" style="fill: none; stroke: #000000; stroke-linecap: round"/>
   </g>
   <g id="patch_5">
    <path d="M 80.725636 358.112712 
L 88.764818 358.112712 
L 88.764818 280.13566 
L 80.725636 280.13566 
L 80.725636 358.112712 
z
" clip-path="url(#pec33216c88)" style="fill: #ffffff; stroke: #000000; stroke-linejoin: miter"/>
   </g>
   <g id="line2d_9">
    <path d="M 84.745227 358.112712 
L 84.745227 372.765287 
" clip-path="url(#pec33216c88)" style="fill: none; stroke: #000000; stroke-linecap: round"/>
   </g>
   <g id="line2d_10">
    <path d="M 84.745227 280.13566 
L 84.745227 214.255182 
" clip-path="url(#pec33216c88)" style="fill: none; stroke: #000000; stroke-linecap: round"/>
   </g>
   <g id="line2d_11">
    <path d="M 82.735432 372.765287 
L 86.755023 372.765287 
" clip-path="url(#pec33216c88)" style="fill: none; stroke: #000000; stroke-linecap: round"/>
   </g>
   <g id="line2d_12">
    <path d="M 82.735432 214.255182 
L 86.755023 214.255182 
" clip-path="url(#pec33216c88)" style="fill: none; stroke: #000000; stroke-linecap: round"/>
   </g>
   <g id="patch_6">
    <path d="M 94.124273 359.136588 
L 102.163455 359.136588 
L 102.163455 292.491274 
L 94.124273 292.491274 
L 94.124273 359.136588 
z
" clip-path="url(#pec33216c88)" style="opacity: 0.6; stroke: #000000; stroke-linejoin: miter"/>
   </g>
   <g id="line2d_13">
    <path d="M 98.143864 359.136588 
L 98.143864 369.761646 
" clip-path="url(#pec33216c88)" style="fill: none; stroke: #000000; stroke-linecap: round"/>
   </g>
   <g id="line2d_14">
    <path d="M 98.143864 292.491274 
L 98.143864 215.94085 
" clip-path="url(#pec33216c88)" style="fill: none; stroke: #000000; stroke-linecap: round"/>
   </g>
   <g id="line2d_15">
    <path d="M 96.134068 369.761646 
L 100.153659 369.761646 
" clip-path="url(#pec33216c88)" style="fill: none; stroke: #000000; stroke-linecap: round"/>
   </g>
   <g id="line2d_16">
    <path d="M 96.134068 215.94085 
L 100.153659 215.94085 
" clip-path="url(#pec33216c88)" style="fill: none; stroke: #000000; stroke-linecap: round"/>
   </g>
   <g id="patch_7">
    <path d="M 120.921545 340.121443 
L 128.960727 340.121443 
L 128.960727 293.973096 
L 120.921545 293.973096 
L 120.921545 340.121443 
z
" clip-path="url(#pec33216c88)" style="fill: #ffffff; stroke: #000000; stroke-linejoin: miter"/>
   </g>
   <g id="line2d_17">
    <path d="M 124.941136 340.121443 
L 124.941136 365.264407 
" clip-path="url(#pec33216c88)" style="fill: none; stroke: #000000; stroke-linecap: round"/>
   </g>
   <g id="line2d_18">
    <path d="M 124.941136 293.973096 
L 124.941136 237.927496 
" clip-path="url(#pec33216c88)" style="fill: none; stroke: #000000; stroke-linecap: round"/>
   </g>
   <g id="line2d_19">
    <path d="M 122.931341 365.264407 
L 126.950932 365.264407 
" clip-path="url(#pec33216c88)" style="fill: none; stroke: #000000; stroke-linecap: round"/>
   </g>
   <g id="line2d_20">
    <path d="M 122.931341 237.927496 
L 126.950932 237.927496 
" clip-path="url(#pec33216c88)" style="fill: none; stroke: #000000; stroke-linecap: round"/>
   </g>
   <g id="patch_8">
    <path d="M 134.320182 340.161343 
L 142.359364 340.161343 
L 142.359364 295.255808 
L 134.320182 295.255808 
L 134.320182 340.161343 
z
" clip-path="url(#pec33216c88)" style="opacity: 0.6; stroke: #000000; stroke-linejoin: miter"/>
   </g>
   <g id="line2d_21">
    <path d="M 138.339773 340.161343 
L 138.339773 364.345535 
" clip-path="url(#pec33216c88)" style="fill: none; stroke: #000000; stroke-linecap: round"/>
   </g>
   <g id="line2d_22">
    <path d="M 138.339773 295.255808 
L 138.339773 238.699982 
" clip-path="url(#pec33216c88)" style="fill: none; stroke: #000000; stroke-linecap: round"/>
   </g>
   <g id="line2d_23">
    <path d="M 136.329977 364.345535 
L 140.349568 364.345535 
" clip-path="url(#pec33216c88)" style="fill: none; stroke: #000000; stroke-linecap: round"/>
   </g>
   <g id="line2d_24">
    <path d="M 136.329977 238.699982 
L 140.349568 238.699982 
" clip-path="url(#pec33216c88)" style="fill: none; stroke: #000000; stroke-linecap: round"/>
   </g>
   <g id="patch_9">
    <path d="M 161.117455 331.663886 
L 169.156636 331.663886 
L 169.156636 290.122844 
L 161.117455 290.122844 
L 161.117455 331.663886 
z
" clip-path="url(#pec33216c88)" style="fill: #ffffff; stroke: #000000; stroke-linejoin: miter"/>
   </g>
   <g id="line2d_25">
    <path d="M 165.137045 331.663886 
L 165.137045 354.219088 
" clip-path="url(#pec33216c88)" style="fill: none; stroke: #000000; stroke-linecap: round"/>
   </g>
   <g id="line2d_26">
    <path d="M 165.137045 290.122844 
L 165.137045 234.610805 
" clip-path="url(#pec33216c88)" style="fill: none; stroke: #000000; stroke-linecap: round"/>
   </g>
   <g id="line2d_27">
    <path d="M 163.12725 354.219088 
L 167.146841 354.219088 
" clip-path="url(#pec33216c88)" style="fill: none; stroke: #000000; stroke-linecap: round"/>
   </g>
   <g id="line2d_28">
    <path d="M 163.12725 234.610805 
L 167.146841 234.610805 
" clip-path="url(#pec33216c88)" style="fill: none; stroke: #000000; stroke-linecap: round"/>
   </g>
   <g id="patch_10">
    <path d="M 174.516091 334.288817 
L 182.555273 334.288817 
L 182.555273 301.360491 
L 174.516091 301.360491 
L 174.516091 334.288817 
z
" clip-path="url(#pec33216c88)" style="opacity: 0.6; stroke: #000000; stroke-linejoin: miter"/>
   </g>
   <g id="line2d_29">
    <path d="M 178.535682 334.288817 
L 178.535682 354.417547 
" clip-path="url(#pec33216c88)" style="fill: none; stroke: #000000; stroke-linecap: round"/>
   </g>
   <g id="line2d_30">
    <path d="M 178.535682 301.360491 
L 178.535682 259.707689 
" clip-path="url(#pec33216c88)" style="fill: none; stroke: #000000; stroke-linecap: round"/>
   </g>
   <g id="line2d_31">
    <path d="M 176.525886 354.417547 
L 180.545477 354.417547 
" clip-path="url(#pec33216c88)" style="fill: none; stroke: #000000; stroke-linecap: round"/>
   </g>
   <g id="line2d_32">
    <path d="M 176.525886 259.707689 
L 180.545477 259.707689 
" clip-path="url(#pec33216c88)" style="fill: none; stroke: #000000; stroke-linecap: round"/>
   </g>
   <g id="patch_11">
    <path d="M 201.313364 327.190964 
L 209.352545 327.190964 
L 209.352545 290.078052 
L 201.313364 290.078052 
L 201.313364 327.190964 
z
" clip-path="url(#pec33216c88)" style="fill: #ffffff; stroke: #000000; stroke-linejoin: miter"/>
   </g>
   <g id="line2d_33">
    <path d="M 205.332955 327.190964 
L 205.332955 340.679577 
" clip-path="url(#pec33216c88)" style="fill: none; stroke: #000000; stroke-linecap: round"/>
   </g>
   <g id="line2d_34">
    <path d="M 205.332955 290.078052 
L 205.332955 267.762522 
" clip-path="url(#pec33216c88)" style="fill: none; stroke: #000000; stroke-linecap: round"/>
   </g>
   <g id="line2d_35">
    <path d="M 203.323159 340.679577 
L 207.34275 340.679577 
" clip-path="url(#pec33216c88)" style="fill: none; stroke: #000000; stroke-linecap: round"/>
   </g>
   <g id="line2d_36">
    <path d="M 203.323159 267.762522 
L 207.34275 267.762522 
" clip-path="url(#pec33216c88)" style="fill: none; stroke: #000000; stroke-linecap: round"/>
   </g>
   <g id="patch_12">
    <path d="M 214.712 324.879804 
L 222.751182 324.879804 
L 222.751182 290.86104 
L 214.712 290.86104 
L 214.712 324.879804 
z
" clip-path="url(#pec33216c88)" style="opacity: 0.6; stroke: #000000; stroke-linejoin: miter"/>
   </g>
   <g id="line2d_37">
    <path d="M 218.731591 324.879804 
L 218.731591 341.786875 
" clip-path="url(#pec33216c88)" style="fill: none; stroke: #000000; stroke-linecap: round"/>
   </g>
   <g id="line2d_38">
    <path d="M 218.731591 290.86104 
L 218.731591 267.753122 
" clip-path="url(#pec33216c88)" style="fill: none; stroke: #000000; stroke-linecap: round"/>
   </g>
   <g id="line2d_39">
    <path d="M 216.721795 341.786875 
L 220.741386 341.786875 
" clip-path="url(#pec33216c88)" style="fill: none; stroke: #000000; stroke-linecap: round"/>
   </g>
   <g id="line2d_40">
    <path d="M 216.721795 267.753122 
L 220.741386 267.753122 
" clip-path="url(#pec33216c88)" style="fill: none; stroke: #000000; stroke-linecap: round"/>
   </g>
   <g id="patch_13">
    <path d="M 241.509273 318.165535 
L 249.548455 318.165535 
L 249.548455 273.51648 
L 241.509273 273.51648 
L 241.509273 318.165535 
z
" clip-path="url(#pec33216c88)" style="fill: #ffffff; stroke: #000000; stroke-linejoin: miter"/>
   </g>
   <g id="line2d_41">
    <path d="M 245.528864 318.165535 
L 245.528864 347.119445 
" clip-path="url(#pec33216c88)" style="fill: none; stroke: #000000; stroke-linecap: round"/>
   </g>
   <g id="line2d_42">
    <path d="M 245.528864 273.51648 
L 245.528864 258.656359 
" clip-path="url(#pec33216c88)" style="fill: none; stroke: #000000; stroke-linecap: round"/>
   </g>
   <g id="line2d_43">
    <path d="M 243.519068 347.119445 
L 247.538659 347.119445 
" clip-path="url(#pec33216c88)" style="fill: none; stroke: #000000; stroke-linecap: round"/>
   </g>
   <g id="line2d_44">
    <path d="M 243.519068 258.656359 
L 247.538659 258.656359 
" clip-path="url(#pec33216c88)" style="fill: none; stroke: #000000; stroke-linecap: round"/>
   </g>
   <g id="patch_14">
    <path d="M 254.907909 318.200621 
L 262.947091 318.200621 
L 262.947091 273.169673 
L 254.907909 273.169673 
L 254.907909 318.200621 
z
" clip-path="url(#pec33216c88)" style="opacity: 0.6; stroke: #000000; stroke-linejoin: miter"/>
   </g>
   <g id="line2d_45">
    <path d="M 258.9275 318.200621 
L 258.9275 347.208801 
" clip-path="url(#pec33216c88)" style="fill: none; stroke: #000000; stroke-linecap: round"/>
   </g>
   <g id="line2d_46">
    <path d="M 258.9275 273.169673 
L 258.9275 262.874684 
" clip-path="url(#pec33216c88)" style="fill: none; stroke: #000000; stroke-linecap: round"/>
   </g>
   <g id="line2d_47">
    <path d="M 256.917705 347.208801 
L 260.937295 347.208801 
" clip-path="url(#pec33216c88)" style="fill: none; stroke: #000000; stroke-linecap: round"/>
   </g>
   <g id="line2d_48">
    <path d="M 256.917705 262.874684 
L 260.937295 262.874684 
" clip-path="url(#pec33216c88)" style="fill: none; stroke: #000000; stroke-linecap: round"/>
   </g>
   <g id="patch_15">
    <path d="M 281.705182 311.260689 
L 289.744364 311.260689 
L 289.744364 281.470866 
L 281.705182 281.470866 
L 281.705182 311.260689 
z
" clip-path="url(#pec33216c88)" style="fill: #ffffff; stroke: #000000; stroke-linejoin: miter"/>
   </g>
   <g id="line2d_49">
    <path d="M 285.724773 311.260689 
L 285.724773 328.175106 
" clip-path="url(#pec33216c88)" style="fill: none; stroke: #000000; stroke-linecap: round"/>
   </g>
   <g id="line2d_50">
    <path d="M 285.724773 281.470866 
L 285.724773 268.59546 
" clip-path="url(#pec33216c88)" style="fill: none; stroke: #000000; stroke-linecap: round"/>
   </g>
   <g id="line2d_51">
    <path d="M 283.714977 328.175106 
L 287.734568 328.175106 
" clip-path="url(#pec33216c88)" style="fill: none; stroke: #000000; stroke-linecap: round"/>
   </g>
   <g id="line2d_52">
    <path d="M 283.714977 268.59546 
L 287.734568 268.59546 
" clip-path="url(#pec33216c88)" style="fill: none; stroke: #000000; stroke-linecap: round"/>
   </g>
   <g id="patch_16">
    <path d="M 295.103818 311.193377 
L 303.143 311.193377 
L 303.143 280.239996 
L 295.103818 280.239996 
L 295.103818 311.193377 
z
" clip-path="url(#pec33216c88)" style="opacity: 0.6; stroke: #000000; stroke-linejoin: miter"/>
   </g>
   <g id="line2d_53">
    <path d="M 299.123409 311.193377 
L 299.123409 327.308818 
" clip-path="url(#pec33216c88)" style="fill: none; stroke: #000000; stroke-linecap: round"/>
   </g>
   <g id="line2d_54">
    <path d="M 299.123409 280.239996 
L 299.123409 265.402055 
" clip-path="url(#pec33216c88)" style="fill: none; stroke: #000000; stroke-linecap: round"/>
   </g>
   <g id="line2d_55">
    <path d="M 297.113614 327.308818 
L 301.133205 327.308818 
" clip-path="url(#pec33216c88)" style="fill: none; stroke: #000000; stroke-linecap: round"/>
   </g>
   <g id="line2d_56">
    <path d="M 297.113614 265.402055 
L 301.133205 265.402055 
" clip-path="url(#pec33216c88)" style="fill: none; stroke: #000000; stroke-linecap: round"/>
   </g>
   <g id="patch_17">
    <path d="M 321.901091 298.892478 
L 329.940273 298.892478 
L 329.940273 157.23571 
L 321.901091 157.23571 
L 321.901091 298.892478 
z
" clip-path="url(#pec33216c88)" style="fill: #ffffff; stroke: #000000; stroke-linejoin: miter"/>
   </g>
   <g id="line2d_57">
    <path d="M 325.920682 298.892478 
L 325.920682 332.178119 
" clip-path="url(#pec33216c88)" style="fill: none; stroke: #000000; stroke-linecap: round"/>
   </g>
   <g id="line2d_58">
    <path d="M 325.920682 157.23571 
L 325.920682 48.635955 
" clip-path="url(#pec33216c88)" style="fill: none; stroke: #000000; stroke-linecap: round"/>
   </g>
   <g id="line2d_59">
    <path d="M 323.910886 332.178119 
L 327.930477 332.178119 
" clip-path="url(#pec33216c88)" style="fill: none; stroke: #000000; stroke-linecap: round"/>
   </g>
   <g id="line2d_60">
    <path d="M 323.910886 48.635955 
L 327.930477 48.635955 
" clip-path="url(#pec33216c88)" style="fill: none; stroke: #000000; stroke-linecap: round"/>
   </g>
   <g id="patch_18">
    <path d="M 335.299727 298.867386 
L 343.338909 298.867386 
L 343.338909 159.049121 
L 335.299727 159.049121 
L 335.299727 298.867386 
z
" clip-path="url(#pec33216c88)" style="opacity: 0.6; stroke: #000000; stroke-linejoin: miter"/>
   </g>
   <g id="line2d_61">
    <path d="M 339.319318 298.867386 
L 339.319318 327.164089 
" clip-path="url(#pec33216c88)" style="fill: none; stroke: #000000; stroke-linecap: round"/>
   </g>
   <g id="line2d_62">
    <path d="M 339.319318 159.049121 
L 339.319318 34.308182 
" clip-path="url(#pec33216c88)" style="fill: none; stroke: #000000; stroke-linecap: round"/>
   </g>
   <g id="line2d_63">
    <path d="M 337.309523 327.164089 
L 341.329114 327.164089 
" clip-path="url(#pec33216c88)" style="fill: none; stroke: #000000; stroke-linecap: round"/>
   </g>
   <g id="line2d_64">
    <path d="M 337.309523 34.308182 
L 341.329114 34.308182 
" clip-path="url(#pec33216c88)" style="fill: none; stroke: #000000; stroke-linecap: round"/>
   </g>
   <g id="patch_19">
    <path d="M 362.097 213.701668 
L 370.136182 213.701668 
L 370.136182 116.320074 
L 362.097 116.320074 
L 362.097 213.701668 
z
" clip-path="url(#pec33216c88)" style="fill: #ffffff; stroke: #000000; stroke-linejoin: miter"/>
   </g>
   <g id="line2d_65">
    <path d="M 366.116591 213.701668 
L 366.116591 254.864023 
" clip-path="url(#pec33216c88)" style="fill: none; stroke: #000000; stroke-linecap: round"/>
   </g>
   <g id="line2d_66">
    <path d="M 366.116591 116.320074 
L 366.116591 60.100835 
" clip-path="url(#pec33216c88)" style="fill: none; stroke: #000000; stroke-linecap: round"/>
   </g>
   <g id="line2d_67">
    <path d="M 364.106795 254.864023 
L 368.126386 254.864023 
" clip-path="url(#pec33216c88)" style="fill: none; stroke: #000000; stroke-linecap: round"/>
   </g>
   <g id="line2d_68">
    <path d="M 364.106795 60.100835 
L 368.126386 60.100835 
" clip-path="url(#pec33216c88)" style="fill: none; stroke: #000000; stroke-linecap: round"/>
   </g>
   <g id="patch_20">
    <path d="M 375.495636 210.579872 
L 383.534818 210.579872 
L 383.534818 115.806228 
L 375.495636 115.806228 
L 375.495636 210.579872 
z
" clip-path="url(#pec33216c88)" style="opacity: 0.6; stroke: #000000; stroke-linejoin: miter"/>
   </g>
   <g id="line2d_69">
    <path d="M 379.515227 210.579872 
L 379.515227 249.55489 
" clip-path="url(#pec33216c88)" style="fill: none; stroke: #000000; stroke-linecap: round"/>
   </g>
   <g id="line2d_70">
    <path d="M 379.515227 115.806228 
L 379.515227 60.007603 
" clip-path="url(#pec33216c88)" style="fill: none; stroke: #000000; stroke-linecap: round"/>
   </g>
   <g id="line2d_71">
    <path d="M 377.505432 249.55489 
L 381.525023 249.55489 
" clip-path="url(#pec33216c88)" style="fill: none; stroke: #000000; stroke-linecap: round"/>
   </g>
   <g id="line2d_72">
    <path d="M 377.505432 60.007603 
L 381.525023 60.007603 
" clip-path="url(#pec33216c88)" style="fill: none; stroke: #000000; stroke-linecap: round"/>
   </g>
   <g id="patch_21">
    <path d="M 402.292909 343.420322 
L 410.332091 343.420322 
L 410.332091 275.643124 
L 402.292909 275.643124 
L 402.292909 343.420322 
z
" clip-path="url(#pec33216c88)" style="fill: #ffffff; stroke: #000000; stroke-linejoin: miter"/>
   </g>
   <g id="line2d_73">
    <path d="M 406.3125 343.420322 
L 406.3125 367.473217 
" clip-path="url(#pec33216c88)" style="fill: none; stroke: #000000; stroke-linecap: round"/>
   </g>
   <g id="line2d_74">
    <path d="M 406.3125 275.643124 
L 406.3125 244.904321 
" clip-path="url(#pec33216c88)" style="fill: none; stroke: #000000; stroke-linecap: round"/>
   </g>
   <g id="line2d_75">
    <path d="M 404.302705 367.473217 
L 408.322295 367.473217 
" clip-path="url(#pec33216c88)" style="fill: none; stroke: #000000; stroke-linecap: round"/>
   </g>
   <g id="line2d_76">
    <path d="M 404.302705 244.904321 
L 408.322295 244.904321 
" clip-path="url(#pec33216c88)" style="fill: none; stroke: #000000; stroke-linecap: round"/>
   </g>
   <g id="patch_22">
    <path d="M 415.691545 345.170872 
L 423.730727 345.170872 
L 423.730727 271.907448 
L 415.691545 271.907448 
L 415.691545 345.170872 
z
" clip-path="url(#pec33216c88)" style="opacity: 0.6; stroke: #000000; stroke-linejoin: miter"/>
   </g>
   <g id="line2d_77">
    <path d="M 419.711136 345.170872 
L 419.711136 367.12451 
" clip-path="url(#pec33216c88)" style="fill: none; stroke: #000000; stroke-linecap: round"/>
   </g>
   <g id="line2d_78">
    <path d="M 419.711136 271.907448 
L 419.711136 245.297322 
" clip-path="url(#pec33216c88)" style="fill: none; stroke: #000000; stroke-linecap: round"/>
   </g>
   <g id="line2d_79">
    <path d="M 417.701341 367.12451 
L 421.720932 367.12451 
" clip-path="url(#pec33216c88)" style="fill: none; stroke: #000000; stroke-linecap: round"/>
   </g>
   <g id="line2d_80">
    <path d="M 417.701341 245.297322 
L 421.720932 245.297322 
" clip-path="url(#pec33216c88)" style="fill: none; stroke: #000000; stroke-linecap: round"/>
   </g>
   <g id="patch_23">
    <path d="M 442.488818 316.798727 
L 450.528 316.798727 
L 450.528 238.452792 
L 442.488818 238.452792 
L 442.488818 316.798727 
z
" clip-path="url(#pec33216c88)" style="fill: #ffffff; stroke: #000000; stroke-linejoin: miter"/>
   </g>
   <g id="line2d_81">
    <path d="M 446.508409 316.798727 
L 446.508409 349.242903 
" clip-path="url(#pec33216c88)" style="fill: none; stroke: #000000; stroke-linecap: round"/>
   </g>
   <g id="line2d_82">
    <path d="M 446.508409 238.452792 
L 446.508409 222.972277 
" clip-path="url(#pec33216c88)" style="fill: none; stroke: #000000; stroke-linecap: round"/>
   </g>
   <g id="line2d_83">
    <path d="M 444.498614 349.242903 
L 448.518205 349.242903 
" clip-path="url(#pec33216c88)" style="fill: none; stroke: #000000; stroke-linecap: round"/>
   </g>
   <g id="line2d_84">
    <path d="M 444.498614 222.972277 
L 448.518205 222.972277 
" clip-path="url(#pec33216c88)" style="fill: none; stroke: #000000; stroke-linecap: round"/>
   </g>
   <g id="patch_24">
    <path d="M 455.887455 316.088242 
L 463.926636 316.088242 
L 463.926636 248.109108 
L 455.887455 248.109108 
L 455.887455 316.088242 
z
" clip-path="url(#pec33216c88)" style="opacity: 0.6; stroke: #000000; stroke-linejoin: miter"/>
   </g>
   <g id="line2d_85">
    <path d="M 459.907045 316.088242 
L 459.907045 348.304363 
" clip-path="url(#pec33216c88)" style="fill: none; stroke: #000000; stroke-linecap: round"/>
   </g>
   <g id="line2d_86">
    <path d="M 459.907045 248.109108 
L 459.907045 219.328766 
" clip-path="url(#pec33216c88)" style="fill: none; stroke: #000000; stroke-linecap: round"/>
   </g>
   <g id="line2d_87">
    <path d="M 457.89725 348.304363 
L 461.916841 348.304363 
" clip-path="url(#pec33216c88)" style="fill: none; stroke: #000000; stroke-linecap: round"/>
   </g>
   <g id="line2d_88">
    <path d="M 457.89725 219.328766 
L 461.916841 219.328766 
" clip-path="url(#pec33216c88)" style="fill: none; stroke: #000000; stroke-linecap: round"/>
   </g>
   <g id="patch_25">
    <path d="M 482.684727 329.183436 
L 490.723909 329.183436 
L 490.723909 292.51019 
L 482.684727 292.51019 
L 482.684727 329.183436 
z
" clip-path="url(#pec33216c88)" style="fill: #ffffff; stroke: #000000; stroke-linejoin: miter"/>
   </g>
   <g id="line2d_89">
    <path d="M 486.704318 329.183436 
L 486.704318 340.328626 
" clip-path="url(#pec33216c88)" style="fill: none; stroke: #000000; stroke-linecap: round"/>
   </g>
   <g id="line2d_90">
    <path d="M 486.704318 292.51019 
L 486.704318 263.788864 
" clip-path="url(#pec33216c88)" style="fill: none; stroke: #000000; stroke-linecap: round"/>
   </g>
   <g id="line2d_91">
    <path d="M 484.694523 340.328626 
L 488.714114 340.328626 
" clip-path="url(#pec33216c88)" style="fill: none; stroke: #000000; stroke-linecap: round"/>
   </g>
   <g id="line2d_92">
    <path d="M 484.694523 263.788864 
L 488.714114 263.788864 
" clip-path="url(#pec33216c88)" style="fill: none; stroke: #000000; stroke-linecap: round"/>
   </g>
   <g id="patch_26">
    <path d="M 496.083364 328.646033 
L 504.122545 328.646033 
L 504.122545 304.891252 
L 496.083364 304.891252 
L 496.083364 328.646033 
z
" clip-path="url(#pec33216c88)" style="opacity: 0.6; stroke: #000000; stroke-linejoin: miter"/>
   </g>
   <g id="line2d_93">
    <path d="M 500.102955 328.646033 
L 500.102955 341.113011 
" clip-path="url(#pec33216c88)" style="fill: none; stroke: #000000; stroke-linecap: round"/>
   </g>
   <g id="line2d_94">
    <path d="M 500.102955 304.891252 
L 500.102955 288.758835 
" clip-path="url(#pec33216c88)" style="fill: none; stroke: #000000; stroke-linecap: round"/>
   </g>
   <g id="line2d_95">
    <path d="M 498.093159 341.113011 
L 502.11275 341.113011 
" clip-path="url(#pec33216c88)" style="fill: none; stroke: #000000; stroke-linecap: round"/>
   </g>
   <g id="line2d_96">
    <path d="M 498.093159 288.758835 
L 502.11275 288.758835 
" clip-path="url(#pec33216c88)" style="fill: none; stroke: #000000; stroke-linecap: round"/>
   </g>
   <g id="patch_27">
    <path d="M 522.880636 338.363094 
L 530.919818 338.363094 
L 530.919818 338.363094 
L 522.880636 338.363094 
L 522.880636 338.363094 
z
" clip-path="url(#pec33216c88)" style="fill: #ffffff; stroke: #000000; stroke-linejoin: miter"/>
   </g>
   <g id="line2d_97">
    <path d="M 526.900227 338.363094 
L 526.900227 338.363094 
" clip-path="url(#pec33216c88)" style="fill: none; stroke: #000000; stroke-linecap: round"/>
   </g>
   <g id="line2d_98">
    <path d="M 526.900227 338.363094 
L 526.900227 338.363094 
" clip-path="url(#pec33216c88)" style="fill: none; stroke: #000000; stroke-linecap: round"/>
   </g>
   <g id="line2d_99">
    <path d="M 524.890432 338.363094 
L 528.910023 338.363094 
" clip-path="url(#pec33216c88)" style="fill: none; stroke: #000000; stroke-linecap: round"/>
   </g>
   <g id="line2d_100">
    <path d="M 524.890432 338.363094 
L 528.910023 338.363094 
" clip-path="url(#pec33216c88)" style="fill: none; stroke: #000000; stroke-linecap: round"/>
   </g>
   <g id="patch_28">
    <path d="M 536.279273 338.601996 
L 544.318455 338.601996 
L 544.318455 338.601996 
L 536.279273 338.601996 
L 536.279273 338.601996 
z
" clip-path="url(#pec33216c88)" style="opacity: 0.6; stroke: #000000; stroke-linejoin: miter"/>
   </g>
   <g id="line2d_101">
    <path d="M 540.298864 338.601996 
L 540.298864 338.601996 
" clip-path="url(#pec33216c88)" style="fill: none; stroke: #000000; stroke-linecap: round"/>
   </g>
   <g id="line2d_102">
    <path d="M 540.298864 338.601996 
L 540.298864 338.601996 
" clip-path="url(#pec33216c88)" style="fill: none; stroke: #000000; stroke-linecap: round"/>
   </g>
   <g id="line2d_103">
    <path d="M 538.289068 338.601996 
L 542.308659 338.601996 
" clip-path="url(#pec33216c88)" style="fill: none; stroke: #000000; stroke-linecap: round"/>
   </g>
   <g id="line2d_104">
    <path d="M 538.289068 338.601996 
L 542.308659 338.601996 
" clip-path="url(#pec33216c88)" style="fill: none; stroke: #000000; stroke-linecap: round"/>
   </g>
   <g id="patch_29">
    <path d="M 563.076545 276.881809 
L 571.115727 276.881809 
L 571.115727 235.518102 
L 563.076545 235.518102 
L 563.076545 276.881809 
z
" clip-path="url(#pec33216c88)" style="fill: #ffffff; stroke: #000000; stroke-linejoin: miter"/>
   </g>
   <g id="line2d_105">
    <path d="M 567.096136 276.881809 
L 567.096136 297.563663 
" clip-path="url(#pec33216c88)" style="fill: none; stroke: #000000; stroke-linecap: round"/>
   </g>
   <g id="line2d_106">
    <path d="M 567.096136 235.518102 
L 567.096136 214.836248 
" clip-path="url(#pec33216c88)" style="fill: none; stroke: #000000; stroke-linecap: round"/>
   </g>
   <g id="line2d_107">
    <path d="M 565.086341 297.563663 
L 569.105932 297.563663 
" clip-path="url(#pec33216c88)" style="fill: none; stroke: #000000; stroke-linecap: round"/>
   </g>
   <g id="line2d_108">
    <path d="M 565.086341 214.836248 
L 569.105932 214.836248 
" clip-path="url(#pec33216c88)" style="fill: none; stroke: #000000; stroke-linecap: round"/>
   </g>
   <g id="patch_30">
    <path d="M 576.475182 277.78584 
L 584.514364 277.78584 
L 584.514364 237.369325 
L 576.475182 237.369325 
L 576.475182 277.78584 
z
" clip-path="url(#pec33216c88)" style="opacity: 0.6; stroke: #000000; stroke-linejoin: miter"/>
   </g>
   <g id="line2d_109">
    <path d="M 580.494773 277.78584 
L 580.494773 297.994098 
" clip-path="url(#pec33216c88)" style="fill: none; stroke: #000000; stroke-linecap: round"/>
   </g>
   <g id="line2d_110">
    <path d="M 580.494773 237.369325 
L 580.494773 217.161068 
" clip-path="url(#pec33216c88)" style="fill: none; stroke: #000000; stroke-linecap: round"/>
   </g>
   <g id="line2d_111">
    <path d="M 578.484977 297.994098 
L 582.504568 297.994098 
" clip-path="url(#pec33216c88)" style="fill: none; stroke: #000000; stroke-linecap: round"/>
   </g>
   <g id="line2d_112">
    <path d="M 578.484977 217.161068 
L 582.504568 217.161068 
" clip-path="url(#pec33216c88)" style="fill: none; stroke: #000000; stroke-linecap: round"/>
   </g>
   <g id="patch_31">
    <path d="M 603.272455 272.716148 
L 611.311636 272.716148 
L 611.311636 239.219185 
L 603.272455 239.219185 
L 603.272455 272.716148 
z
" clip-path="url(#pec33216c88)" style="fill: #ffffff; stroke: #000000; stroke-linejoin: miter"/>
   </g>
   <g id="line2d_113">
    <path d="M 607.292045 272.716148 
L 607.292045 289.464629 
" clip-path="url(#pec33216c88)" style="fill: none; stroke: #000000; stroke-linecap: round"/>
   </g>
   <g id="line2d_114">
    <path d="M 607.292045 239.219185 
L 607.292045 222.470703 
" clip-path="url(#pec33216c88)" style="fill: none; stroke: #000000; stroke-linecap: round"/>
   </g>
   <g id="line2d_115">
    <path d="M 605.28225 289.464629 
L 609.301841 289.464629 
" clip-path="url(#pec33216c88)" style="fill: none; stroke: #000000; stroke-linecap: round"/>
   </g>
   <g id="line2d_116">
    <path d="M 605.28225 222.470703 
L 609.301841 222.470703 
" clip-path="url(#pec33216c88)" style="fill: none; stroke: #000000; stroke-linecap: round"/>
   </g>
   <g id="patch_32">
    <path d="M 616.671091 267.11337 
L 624.710273 267.11337 
L 624.710273 237.383343 
L 616.671091 237.383343 
L 616.671091 267.11337 
z
" clip-path="url(#pec33216c88)" style="opacity: 0.6; stroke: #000000; stroke-linejoin: miter"/>
   </g>
   <g id="line2d_117">
    <path d="M 620.690682 267.11337 
L 620.690682 281.978383 
" clip-path="url(#pec33216c88)" style="fill: none; stroke: #000000; stroke-linecap: round"/>
   </g>
   <g id="line2d_118">
    <path d="M 620.690682 237.383343 
L 620.690682 222.51833 
" clip-path="url(#pec33216c88)" style="fill: none; stroke: #000000; stroke-linecap: round"/>
   </g>
   <g id="line2d_119">
    <path d="M 618.680886 281.978383 
L 622.700477 281.978383 
" clip-path="url(#pec33216c88)" style="fill: none; stroke: #000000; stroke-linecap: round"/>
   </g>
   <g id="line2d_120">
    <path d="M 618.680886 222.51833 
L 622.700477 222.51833 
" clip-path="url(#pec33216c88)" style="fill: none; stroke: #000000; stroke-linecap: round"/>
   </g>
   <g id="line2d_121">
    <path d="M 40.529727 370.677972 
L 48.568909 370.677972 
" clip-path="url(#pec33216c88)" style="fill: none; stroke: #000000"/>
   </g>
   <g id="line2d_122">
    <path d="M 53.928364 370.743883 
L 61.967545 370.743883 
" clip-path="url(#pec33216c88)" style="fill: none; stroke: #000000"/>
   </g>
   <g id="line2d_123">
    <path d="M 80.725636 333.612423 
L 88.764818 333.612423 
" clip-path="url(#pec33216c88)" style="fill: none; stroke: #000000"/>
   </g>
   <g id="line2d_124">
    <path d="M 94.124273 337.630817 
L 102.163455 337.630817 
" clip-path="url(#pec33216c88)" style="fill: none; stroke: #000000"/>
   </g>
   <g id="line2d_125">
    <path d="M 120.921545 326.028448 
L 128.960727 326.028448 
" clip-path="url(#pec33216c88)" style="fill: none; stroke: #000000"/>
   </g>
   <g id="line2d_126">
    <path d="M 134.320182 327.345188 
L 142.359364 327.345188 
" clip-path="url(#pec33216c88)" style="fill: none; stroke: #000000"/>
   </g>
   <g id="line2d_127">
    <path d="M 161.117455 316.724778 
L 169.156636 316.724778 
" clip-path="url(#pec33216c88)" style="fill: none; stroke: #000000"/>
   </g>
   <g id="line2d_128">
    <path d="M 174.516091 319.248111 
L 182.555273 319.248111 
" clip-path="url(#pec33216c88)" style="fill: none; stroke: #000000"/>
   </g>
   <g id="line2d_129">
    <path d="M 201.313364 312.414448 
L 209.352545 312.414448 
" clip-path="url(#pec33216c88)" style="fill: none; stroke: #000000"/>
   </g>
   <g id="line2d_130">
    <path d="M 214.712 313.205848 
L 222.751182 313.205848 
" clip-path="url(#pec33216c88)" style="fill: none; stroke: #000000"/>
   </g>
   <g id="line2d_131">
    <path d="M 241.509273 290.945115 
L 249.548455 290.945115 
" clip-path="url(#pec33216c88)" style="fill: none; stroke: #000000"/>
   </g>
   <g id="line2d_132">
    <path d="M 254.907909 292.331627 
L 262.947091 292.331627 
" clip-path="url(#pec33216c88)" style="fill: none; stroke: #000000"/>
   </g>
   <g id="line2d_133">
    <path d="M 281.705182 294.346272 
L 289.744364 294.346272 
" clip-path="url(#pec33216c88)" style="fill: none; stroke: #000000"/>
   </g>
   <g id="line2d_134">
    <path d="M 295.103818 295.077936 
L 303.143 295.077936 
" clip-path="url(#pec33216c88)" style="fill: none; stroke: #000000"/>
   </g>
   <g id="line2d_135">
    <path d="M 321.901091 285.47649 
L 329.940273 285.47649 
" clip-path="url(#pec33216c88)" style="fill: none; stroke: #000000"/>
   </g>
   <g id="line2d_136">
    <path d="M 335.299727 286.532759 
L 343.338909 286.532759 
" clip-path="url(#pec33216c88)" style="fill: none; stroke: #000000"/>
   </g>
   <g id="line2d_137">
    <path d="M 362.097 172.539312 
L 370.136182 172.539312 
" clip-path="url(#pec33216c88)" style="fill: none; stroke: #000000"/>
   </g>
   <g id="line2d_138">
    <path d="M 375.495636 171.604853 
L 383.534818 171.604853 
" clip-path="url(#pec33216c88)" style="fill: none; stroke: #000000"/>
   </g>
   <g id="line2d_139">
    <path d="M 402.292909 327.772529 
L 410.332091 327.772529 
" clip-path="url(#pec33216c88)" style="fill: none; stroke: #000000"/>
   </g>
   <g id="line2d_140">
    <path d="M 415.691545 325.922686 
L 423.730727 325.922686 
" clip-path="url(#pec33216c88)" style="fill: none; stroke: #000000"/>
   </g>
   <g id="line2d_141">
    <path d="M 442.488818 275.560305 
L 450.528 275.560305 
" clip-path="url(#pec33216c88)" style="fill: none; stroke: #000000"/>
   </g>
   <g id="line2d_142">
    <path d="M 455.887455 276.080573 
L 463.926636 276.080573 
" clip-path="url(#pec33216c88)" style="fill: none; stroke: #000000"/>
   </g>
   <g id="line2d_143">
    <path d="M 482.684727 324.168312 
L 490.723909 324.168312 
" clip-path="url(#pec33216c88)" style="fill: none; stroke: #000000"/>
   </g>
   <g id="line2d_144">
    <path d="M 496.083364 324.337964 
L 504.122545 324.337964 
" clip-path="url(#pec33216c88)" style="fill: none; stroke: #000000"/>
   </g>
   <g id="line2d_145">
    <path d="M 522.880636 338.363094 
L 530.919818 338.363094 
" clip-path="url(#pec33216c88)" style="fill: none; stroke: #000000"/>
   </g>
   <g id="line2d_146">
    <path d="M 536.279273 338.601996 
L 544.318455 338.601996 
" clip-path="url(#pec33216c88)" style="fill: none; stroke: #000000"/>
   </g>
   <g id="line2d_147">
    <path d="M 563.076545 256.199955 
L 571.115727 256.199955 
" clip-path="url(#pec33216c88)" style="fill: none; stroke: #000000"/>
   </g>
   <g id="line2d_148">
    <path d="M 576.475182 257.577583 
L 584.514364 257.577583 
" clip-path="url(#pec33216c88)" style="fill: none; stroke: #000000"/>
   </g>
   <g id="line2d_149">
    <path d="M 603.272455 255.967666 
L 611.311636 255.967666 
" clip-path="url(#pec33216c88)" style="fill: none; stroke: #000000"/>
   </g>
   <g id="line2d_150">
    <path d="M 616.671091 252.248357 
L 624.710273 252.248357 
" clip-path="url(#pec33216c88)" style="fill: none; stroke: #000000"/>
   </g>
   <g id="patch_33">
    <path d="M 37.85 399.46 
L 37.85 16.92 
" style="fill: none; stroke: #262626; stroke-width: 1.25; stroke-linejoin: miter; stroke-linecap: square"/>
   </g>
   <g id="patch_34">
    <path d="M 627.39 399.46 
L 627.39 16.92 
" style="fill: none; stroke: #262626; stroke-width: 1.25; stroke-linejoin: miter; stroke-linecap: square"/>
   </g>
   <g id="patch_35">
    <path d="M 37.85 399.46 
L 627.39 399.46 
" style="fill: none; stroke: #262626; stroke-width: 1.25; stroke-linejoin: miter; stroke-linecap: square"/>
   </g>
   <g id="patch_36">
    <path d="M 37.85 16.92 
L 627.39 16.92 
" style="fill: none; stroke: #262626; stroke-width: 1.25; stroke-linejoin: miter; stroke-linecap: square"/>
   </g>
   <g id="legend_1">
    <g id="patch_37">
     <path d="M 494.181563 82.243125 
L 614.79 82.243125 
Q 618.39 82.243125 618.39 78.643125 
L 618.39 29.52 
Q 618.39 25.92 614.79 25.92 
L 494.181563 25.92 
Q 490.581563 25.92 490.581563 29.52 
L 490.581563 78.643125 
Q 490.581563 82.243125 494.181563 82.243125 
z
" style="fill: #ffffff; opacity: 0.8; stroke: #cccccc; stroke-linejoin: miter"/>
    </g>
    <g id="patch_38">
     <path d="M 497.781563 46.004063 
L 533.781563 46.004063 
L 533.781563 33.404063 
L 497.781563 33.404063 
z
" style="fill: #ffffff; stroke: #000000; stroke-linejoin: miter"/>
    </g>
    <g id="text_24">
     <!-- RNN v1 -->
     <g style="fill: #262626" transform="translate(548.181563 46.004063) scale(0.18 -0.18)">
      <defs>
       <path id="ArialMT-52" d="M 503 0 
L 503 4581 
L 2534 4581 
Q 3147 4581 3465 4457 
Q 3784 4334 3975 4021 
Q 4166 3709 4166 3331 
Q 4166 2844 3850 2509 
Q 3534 2175 2875 2084 
Q 3116 1969 3241 1856 
Q 3506 1613 3744 1247 
L 4541 0 
L 3778 0 
L 3172 953 
Q 2906 1366 2734 1584 
Q 2563 1803 2427 1890 
Q 2291 1978 2150 2013 
Q 2047 2034 1813 2034 
L 1109 2034 
L 1109 0 
L 503 0 
z
M 1109 2559 
L 2413 2559 
Q 2828 2559 3062 2645 
Q 3297 2731 3419 2920 
Q 3541 3109 3541 3331 
Q 3541 3656 3305 3865 
Q 3069 4075 2559 4075 
L 1109 4075 
L 1109 2559 
z
" transform="scale(0.015625)"/>
       <path id="ArialMT-4e" d="M 488 0 
L 488 4581 
L 1109 4581 
L 3516 984 
L 3516 4581 
L 4097 4581 
L 4097 0 
L 3475 0 
L 1069 3600 
L 1069 0 
L 488 0 
z
" transform="scale(0.015625)"/>
       <path id="ArialMT-76" d="M 1344 0 
L 81 3319 
L 675 3319 
L 1388 1331 
Q 1503 1009 1600 663 
Q 1675 925 1809 1294 
L 2547 3319 
L 3125 3319 
L 1869 0 
L 1344 0 
z
" transform="scale(0.015625)"/>
      </defs>
      <use xlink:href="#ArialMT-52"/>
      <use xlink:href="#ArialMT-4e" x="72.216797"/>
      <use xlink:href="#ArialMT-4e" x="144.433594"/>
      <use xlink:href="#ArialMT-20" x="216.650391"/>
      <use xlink:href="#ArialMT-76" x="244.433594"/>
      <use xlink:href="#ArialMT-31" x="294.433594"/>
     </g>
    </g>
    <g id="patch_39">
     <path d="M 497.781563 71.465625 
L 533.781563 71.465625 
L 533.781563 58.865625 
L 497.781563 58.865625 
z
" style="opacity: 0.6; stroke: #000000; stroke-linejoin: miter"/>
    </g>
    <g id="text_25">
     <!-- CNN v2 -->
     <g style="fill: #262626" transform="translate(548.181563 71.465625) scale(0.18 -0.18)">
      <use xlink:href="#ArialMT-43"/>
      <use xlink:href="#ArialMT-4e" x="72.216797"/>
      <use xlink:href="#ArialMT-4e" x="144.433594"/>
      <use xlink:href="#ArialMT-20" x="216.650391"/>
      <use xlink:href="#ArialMT-76" x="244.433594"/>
      <use xlink:href="#ArialMT-32" x="294.433594"/>
     </g>
    </g>
   </g>
  </g>
 </g>
 <defs>
  <clipPath id="pec33216c88">
   <rect x="37.85" y="16.92" width="589.54" height="382.54"/>
  </clipPath>
 </defs>
</svg>
