<?xml version="1.0" encoding="utf-8" standalone="no"?>
<!DOCTYPE svg PUBLIC "-//W3C//DTD SVG 1.1//EN"
  "http://www.w3.org/Graphics/SVG/1.1/DTD/svg11.dtd">
<svg xmlns:xlink="http://www.w3.org/1999/xlink" width="648pt" height="432pt" viewBox="0 0 648 432" xmlns="http://www.w3.org/2000/svg" version="1.1">
 <metadata>
  <rdf:RDF xmlns:dc="http://purl.org/dc/elements/1.1/" xmlns:cc="http://creativecommons.org/ns#" xmlns:rdf="http://www.w3.org/1999/02/22-rdf-syntax-ns#">
   <cc:Work>
    <dc:type rdf:resource="http://purl.org/dc/dcmitype/StillImage"/>
    <dc:date>2023-12-08T13:37:16.310535</dc:date>
    <dc:format>image/svg+xml</dc:format>
    <dc:creator>
     <cc:Agent>
      <dc:title>Matplotlib v3.8.2, https://matplotlib.org/</dc:title>
     </cc:Agent>
    </dc:creator>
   </cc:Work>
  </rdf:RDF>
 </metadata>
 <defs>
  <style type="text/css">*{stroke-linejoin: round; stroke-linecap: butt}</style>
 </defs>
 <g id="figure_1">
  <g id="patch_1">
   <path d="M 0 432 
L 648 432 
L 648 0 
L 0 0 
z
" style="fill: #ffffff"/>
  </g>
  <g id="axes_1">
   <g id="patch_2">
    <path d="M 37.85 399.46 
L 627.39 399.46 
L 627.39 16.92 
L 37.85 16.92 
z
" style="fill: #ffffff"/>
   </g>
   <g id="matplotlib.axis_1">
    <g id="xtick_1">
     <g id="text_1">
      <!-- 2 -->
      <g transform="translate(45.388561 421.844063) scale(0.18 -0.18)">
       <defs>
        <path id="ArialMT-32" d="M 3222 541 
L 3222 0 
L 194 0 
Q 188 203 259 391 
Q 375 700 629 1000 
Q 884 1300 1366 1694 
Q 2113 2306 2375 2664 
Q 2638 3022 2638 3341 
Q 2638 3675 2398 3904 
Q 2159 4134 1775 4134 
Q 1369 4134 1125 3890 
Q 881 3647 878 3216 
L 300 3275 
Q 359 3922 746 4261 
Q 1134 4600 1788 4600 
Q 2447 4600 2831 4234 
Q 3216 3869 3216 3328 
Q 3216 3053 3103 2787 
Q 2991 2522 2730 2228 
Q 2469 1934 1863 1422 
Q 1356 997 1212 845 
Q 1069 694 975 541 
L 3222 541 
z
" transform="scale(0.015625)"/>
       </defs>
       <use xlink:href="#ArialMT-32"/>
      </g>
     </g>
    </g>
    <g id="xtick_2">
     <g id="text_2">
      <!-- 3 -->
      <g transform="translate(83.018773 421.844063) scale(0.18 -0.18)">
       <defs>
        <path id="ArialMT-33" d="M 269 1209 
L 831 1284 
Q 928 806 1161 595 
Q 1394 384 1728 384 
Q 2125 384 2398 659 
Q 2672 934 2672 1341 
Q 2672 1728 2419 1979 
Q 2166 2231 1775 2231 
Q 1616 2231 1378 2169 
L 1441 2663 
Q 1497 2656 1531 2656 
Q 1891 2656 2178 2843 
Q 2466 3031 2466 3422 
Q 2466 3731 2256 3934 
Q 2047 4138 1716 4138 
Q 1388 4138 1169 3931 
Q 950 3725 888 3313 
L 325 3413 
Q 428 3978 793 4289 
Q 1159 4600 1703 4600 
Q 2078 4600 2393 4439 
Q 2709 4278 2876 4000 
Q 3044 3722 3044 3409 
Q 3044 3113 2884 2869 
Q 2725 2625 2413 2481 
Q 2819 2388 3044 2092 
Q 3269 1797 3269 1353 
Q 3269 753 2831 336 
Q 2394 -81 1725 -81 
Q 1122 -81 723 278 
Q 325 638 269 1209 
z
" transform="scale(0.015625)"/>
       </defs>
       <use xlink:href="#ArialMT-33"/>
      </g>
     </g>
    </g>
    <g id="xtick_3">
     <g id="text_3">
      <!-- 4 -->
      <g transform="translate(120.648986 421.844063) scale(0.18 -0.18)">
       <defs>
        <path id="ArialMT-34" d="M 2069 0 
L 2069 1097 
L 81 1097 
L 81 1613 
L 2172 4581 
L 2631 4581 
L 2631 1613 
L 3250 1613 
L 3250 1097 
L 2631 1097 
L 2631 0 
L 2069 0 
z
M 2069 1613 
L 2069 3678 
L 634 1613 
L 2069 1613 
z
" transform="scale(0.015625)"/>
       </defs>
       <use xlink:href="#ArialMT-34"/>
      </g>
     </g>
    </g>
    <g id="xtick_4">
     <g id="text_4">
      <!-- 5 -->
      <g transform="translate(158.279199 421.844063) scale(0.18 -0.18)">
       <defs>
        <path id="ArialMT-35" d="M 266 1200 
L 856 1250 
Q 922 819 1161 601 
Q 1400 384 1738 384 
Q 2144 384 2425 690 
Q 2706 997 2706 1503 
Q 2706 1984 2436 2262 
Q 2166 2541 1728 2541 
Q 1456 2541 1237 2417 
Q 1019 2294 894 2097 
L 366 2166 
L 809 4519 
L 3088 4519 
L 3088 3981 
L 1259 3981 
L 1013 2750 
Q 1425 3038 1878 3038 
Q 2478 3038 2890 2622 
Q 3303 2206 3303 1553 
Q 3303 931 2941 478 
Q 2500 -78 1738 -78 
Q 1113 -78 717 272 
Q 322 622 266 1200 
z
" transform="scale(0.015625)"/>
       </defs>
       <use xlink:href="#ArialMT-35"/>
      </g>
     </g>
    </g>
    <g id="xtick_5">
     <g id="text_5">
      <!-- 6 -->
      <g transform="translate(195.909412 421.844063) scale(0.18 -0.18)">
       <defs>
        <path id="ArialMT-36" d="M 3184 3459 
L 2625 3416 
Q 2550 3747 2413 3897 
Q 2184 4138 1850 4138 
Q 1581 4138 1378 3988 
Q 1113 3794 959 3422 
Q 806 3050 800 2363 
Q 1003 2672 1297 2822 
Q 1591 2972 1913 2972 
Q 2475 2972 2870 2558 
Q 3266 2144 3266 1488 
Q 3266 1056 3080 686 
Q 2894 316 2569 119 
Q 2244 -78 1831 -78 
Q 1128 -78 684 439 
Q 241 956 241 2144 
Q 241 3472 731 4075 
Q 1159 4600 1884 4600 
Q 2425 4600 2770 4297 
Q 3116 3994 3184 3459 
z
M 888 1484 
Q 888 1194 1011 928 
Q 1134 663 1356 523 
Q 1578 384 1822 384 
Q 2178 384 2434 671 
Q 2691 959 2691 1453 
Q 2691 1928 2437 2201 
Q 2184 2475 1800 2475 
Q 1419 2475 1153 2201 
Q 888 1928 888 1484 
z
" transform="scale(0.015625)"/>
       </defs>
       <use xlink:href="#ArialMT-36"/>
      </g>
     </g>
    </g>
    <g id="xtick_6">
     <g id="text_6">
      <!-- 7 -->
      <g transform="translate(233.539624 421.844063) scale(0.18 -0.18)">
       <defs>
        <path id="ArialMT-37" d="M 303 3981 
L 303 4522 
L 3269 4522 
L 3269 4084 
Q 2831 3619 2401 2847 
Q 1972 2075 1738 1259 
Q 1569 684 1522 0 
L 944 0 
Q 953 541 1156 1306 
Q 1359 2072 1739 2783 
Q 2119 3494 2547 3981 
L 303 3981 
z
" transform="scale(0.015625)"/>
       </defs>
       <use xlink:href="#ArialMT-37"/>
      </g>
     </g>
    </g>
    <g id="xtick_7">
     <g id="text_7">
      <!-- 8 -->
      <g transform="translate(271.169837 421.844063) scale(0.18 -0.18)">
       <defs>
        <path id="ArialMT-38" d="M 1131 2484 
Q 781 2613 612 2850 
Q 444 3088 444 3419 
Q 444 3919 803 4259 
Q 1163 4600 1759 4600 
Q 2359 4600 2725 4251 
Q 3091 3903 3091 3403 
Q 3091 3084 2923 2848 
Q 2756 2613 2416 2484 
Q 2838 2347 3058 2040 
Q 3278 1734 3278 1309 
Q 3278 722 2862 322 
Q 2447 -78 1769 -78 
Q 1091 -78 675 323 
Q 259 725 259 1325 
Q 259 1772 486 2073 
Q 713 2375 1131 2484 
z
M 1019 3438 
Q 1019 3113 1228 2906 
Q 1438 2700 1772 2700 
Q 2097 2700 2305 2904 
Q 2513 3109 2513 3406 
Q 2513 3716 2298 3927 
Q 2084 4138 1766 4138 
Q 1444 4138 1231 3931 
Q 1019 3725 1019 3438 
z
M 838 1322 
Q 838 1081 952 856 
Q 1066 631 1291 507 
Q 1516 384 1775 384 
Q 2178 384 2440 643 
Q 2703 903 2703 1303 
Q 2703 1709 2433 1975 
Q 2163 2241 1756 2241 
Q 1359 2241 1098 1978 
Q 838 1716 838 1322 
z
" transform="scale(0.015625)"/>
       </defs>
       <use xlink:href="#ArialMT-38"/>
      </g>
     </g>
    </g>
    <g id="xtick_8">
     <g id="text_8">
      <!-- 9 -->
      <g transform="translate(308.80005 421.844063) scale(0.18 -0.18)">
       <defs>
        <path id="ArialMT-39" d="M 350 1059 
L 891 1109 
Q 959 728 1153 556 
Q 1347 384 1650 384 
Q 1909 384 2104 503 
Q 2300 622 2425 820 
Q 2550 1019 2634 1356 
Q 2719 1694 2719 2044 
Q 2719 2081 2716 2156 
Q 2547 1888 2255 1720 
Q 1963 1553 1622 1553 
Q 1053 1553 659 1965 
Q 266 2378 266 3053 
Q 266 3750 677 4175 
Q 1088 4600 1706 4600 
Q 2153 4600 2523 4359 
Q 2894 4119 3086 3673 
Q 3278 3228 3278 2384 
Q 3278 1506 3087 986 
Q 2897 466 2520 194 
Q 2144 -78 1638 -78 
Q 1100 -78 759 220 
Q 419 519 350 1059 
z
M 2653 3081 
Q 2653 3566 2395 3850 
Q 2138 4134 1775 4134 
Q 1400 4134 1122 3828 
Q 844 3522 844 3034 
Q 844 2597 1108 2323 
Q 1372 2050 1759 2050 
Q 2150 2050 2401 2323 
Q 2653 2597 2653 3081 
z
" transform="scale(0.015625)"/>
       </defs>
       <use xlink:href="#ArialMT-39"/>
      </g>
     </g>
    </g>
    <g id="xtick_9">
     <g id="text_9">
      <!-- 10 -->
      <g transform="translate(341.425419 421.844063) scale(0.18 -0.18)">
       <defs>
        <path id="ArialMT-31" d="M 2384 0 
L 1822 0 
L 1822 3584 
Q 1619 3391 1289 3197 
Q 959 3003 697 2906 
L 697 3450 
Q 1169 3672 1522 3987 
Q 1875 4303 2022 4600 
L 2384 4600 
L 2384 0 
z
" transform="scale(0.015625)"/>
        <path id="ArialMT-30" d="M 266 2259 
Q 266 3072 433 3567 
Q 600 4063 929 4331 
Q 1259 4600 1759 4600 
Q 2128 4600 2406 4451 
Q 2684 4303 2865 4023 
Q 3047 3744 3150 3342 
Q 3253 2941 3253 2259 
Q 3253 1453 3087 958 
Q 2922 463 2592 192 
Q 2263 -78 1759 -78 
Q 1097 -78 719 397 
Q 266 969 266 2259 
z
M 844 2259 
Q 844 1131 1108 757 
Q 1372 384 1759 384 
Q 2147 384 2411 759 
Q 2675 1134 2675 2259 
Q 2675 3391 2411 3762 
Q 2147 4134 1753 4134 
Q 1366 4134 1134 3806 
Q 844 3388 844 2259 
z
" transform="scale(0.015625)"/>
       </defs>
       <use xlink:href="#ArialMT-31"/>
       <use xlink:href="#ArialMT-30" x="55.615234"/>
      </g>
     </g>
    </g>
    <g id="xtick_10">
     <g id="text_10">
      <!-- 11 -->
      <g transform="translate(379.719382 421.844063) scale(0.18 -0.18)">
       <use xlink:href="#ArialMT-31"/>
       <use xlink:href="#ArialMT-31" x="48.240234"/>
      </g>
     </g>
    </g>
    <g id="xtick_11">
     <g id="text_11">
      <!-- 12 -->
      <g transform="translate(416.685844 421.844063) scale(0.18 -0.18)">
       <use xlink:href="#ArialMT-31"/>
       <use xlink:href="#ArialMT-32" x="55.615234"/>
      </g>
     </g>
    </g>
    <g id="xtick_12">
     <g id="text_12">
      <!-- 13 -->
      <g transform="translate(454.316057 421.844063) scale(0.18 -0.18)">
       <use xlink:href="#ArialMT-31"/>
       <use xlink:href="#ArialMT-33" x="55.615234"/>
      </g>
     </g>
    </g>
    <g id="xtick_13">
     <g id="text_13">
      <!-- 14 -->
      <g transform="translate(491.94627 421.844063) scale(0.18 -0.18)">
       <use xlink:href="#ArialMT-31"/>
       <use xlink:href="#ArialMT-34" x="55.615234"/>
      </g>
     </g>
    </g>
    <g id="xtick_14">
     <g id="text_14">
      <!-- 15 -->
      <g transform="translate(529.576483 421.844063) scale(0.18 -0.18)">
       <use xlink:href="#ArialMT-31"/>
       <use xlink:href="#ArialMT-35" x="55.615234"/>
      </g>
     </g>
    </g>
    <g id="xtick_15">
     <g id="text_15">
      <!-- 20 -->
      <g transform="translate(567.206695 421.844063) scale(0.18 -0.18)">
       <use xlink:href="#ArialMT-32"/>
       <use xlink:href="#ArialMT-30" x="55.615234"/>
      </g>
     </g>
    </g>
    <g id="xtick_16">
     <g id="text_16">
      <!-- 27 -->
      <g transform="translate(604.836908 421.844063) scale(0.18 -0.18)">
       <use xlink:href="#ArialMT-32"/>
       <use xlink:href="#ArialMT-37" x="55.615234"/>
      </g>
     </g>
    </g>
    <g id="text_17">
     <!-- cluster sizes -->
     <g transform="translate(277.6075 443.737188) scale(0.2 -0.2)">
      <defs>
       <path id="ArialMT-63" d="M 2588 1216 
L 3141 1144 
Q 3050 572 2676 248 
Q 2303 -75 1759 -75 
Q 1078 -75 664 370 
Q 250 816 250 1647 
Q 250 2184 428 2587 
Q 606 2991 970 3192 
Q 1334 3394 1763 3394 
Q 2303 3394 2647 3120 
Q 2991 2847 3088 2344 
L 2541 2259 
Q 2463 2594 2264 2762 
Q 2066 2931 1784 2931 
Q 1359 2931 1093 2626 
Q 828 2322 828 1663 
Q 828 994 1084 691 
Q 1341 388 1753 388 
Q 2084 388 2306 591 
Q 2528 794 2588 1216 
z
" transform="scale(0.015625)"/>
       <path id="ArialMT-6c" d="M 409 0 
L 409 4581 
L 972 4581 
L 972 0 
L 409 0 
z
" transform="scale(0.015625)"/>
       <path id="ArialMT-75" d="M 2597 0 
L 2597 488 
Q 2209 -75 1544 -75 
Q 1250 -75 995 37 
Q 741 150 617 320 
Q 494 491 444 738 
Q 409 903 409 1263 
L 409 3319 
L 972 3319 
L 972 1478 
Q 972 1038 1006 884 
Q 1059 663 1231 536 
Q 1403 409 1656 409 
Q 1909 409 2131 539 
Q 2353 669 2445 892 
Q 2538 1116 2538 1541 
L 2538 3319 
L 3100 3319 
L 3100 0 
L 2597 0 
z
" transform="scale(0.015625)"/>
       <path id="ArialMT-73" d="M 197 991 
L 753 1078 
Q 800 744 1014 566 
Q 1228 388 1613 388 
Q 2000 388 2187 545 
Q 2375 703 2375 916 
Q 2375 1106 2209 1216 
Q 2094 1291 1634 1406 
Q 1016 1563 777 1677 
Q 538 1791 414 1992 
Q 291 2194 291 2438 
Q 291 2659 392 2848 
Q 494 3038 669 3163 
Q 800 3259 1026 3326 
Q 1253 3394 1513 3394 
Q 1903 3394 2198 3281 
Q 2494 3169 2634 2976 
Q 2775 2784 2828 2463 
L 2278 2388 
Q 2241 2644 2061 2787 
Q 1881 2931 1553 2931 
Q 1166 2931 1000 2803 
Q 834 2675 834 2503 
Q 834 2394 903 2306 
Q 972 2216 1119 2156 
Q 1203 2125 1616 2013 
Q 2213 1853 2448 1751 
Q 2684 1650 2818 1456 
Q 2953 1263 2953 975 
Q 2953 694 2789 445 
Q 2625 197 2315 61 
Q 2006 -75 1616 -75 
Q 969 -75 630 194 
Q 291 463 197 991 
z
" transform="scale(0.015625)"/>
       <path id="ArialMT-74" d="M 1650 503 
L 1731 6 
Q 1494 -44 1306 -44 
Q 1000 -44 831 53 
Q 663 150 594 308 
Q 525 466 525 972 
L 525 2881 
L 113 2881 
L 113 3319 
L 525 3319 
L 525 4141 
L 1084 4478 
L 1084 3319 
L 1650 3319 
L 1650 2881 
L 1084 2881 
L 1084 941 
Q 1084 700 1114 631 
Q 1144 563 1211 522 
Q 1278 481 1403 481 
Q 1497 481 1650 503 
z
" transform="scale(0.015625)"/>
       <path id="ArialMT-65" d="M 2694 1069 
L 3275 997 
Q 3138 488 2766 206 
Q 2394 -75 1816 -75 
Q 1088 -75 661 373 
Q 234 822 234 1631 
Q 234 2469 665 2931 
Q 1097 3394 1784 3394 
Q 2450 3394 2872 2941 
Q 3294 2488 3294 1666 
Q 3294 1616 3291 1516 
L 816 1516 
Q 847 969 1125 678 
Q 1403 388 1819 388 
Q 2128 388 2347 550 
Q 2566 713 2694 1069 
z
M 847 1978 
L 2700 1978 
Q 2663 2397 2488 2606 
Q 2219 2931 1791 2931 
Q 1403 2931 1139 2672 
Q 875 2413 847 1978 
z
" transform="scale(0.015625)"/>
       <path id="ArialMT-72" d="M 416 0 
L 416 3319 
L 922 3319 
L 922 2816 
Q 1116 3169 1280 3281 
Q 1444 3394 1641 3394 
Q 1925 3394 2219 3213 
L 2025 2691 
Q 1819 2813 1613 2813 
Q 1428 2813 1281 2702 
Q 1134 2591 1072 2394 
Q 978 2094 978 1738 
L 978 0 
L 416 0 
z
" transform="scale(0.015625)"/>
       <path id="ArialMT-20" transform="scale(0.015625)"/>
       <path id="ArialMT-69" d="M 425 3934 
L 425 4581 
L 988 4581 
L 988 3934 
L 425 3934 
z
M 425 0 
L 425 3319 
L 988 3319 
L 988 0 
L 425 0 
z
" transform="scale(0.015625)"/>
       <path id="ArialMT-7a" d="M 125 0 
L 125 456 
L 2238 2881 
Q 1878 2863 1603 2863 
L 250 2863 
L 250 3319 
L 2963 3319 
L 2963 2947 
L 1166 841 
L 819 456 
Q 1197 484 1528 484 
L 3063 484 
L 3063 0 
L 125 0 
z
" transform="scale(0.015625)"/>
      </defs>
      <use xlink:href="#ArialMT-63"/>
      <use xlink:href="#ArialMT-6c" x="50"/>
      <use xlink:href="#ArialMT-75" x="72.216797"/>
      <use xlink:href="#ArialMT-73" x="127.832031"/>
      <use xlink:href="#ArialMT-74" x="177.832031"/>
      <use xlink:href="#ArialMT-65" x="205.615234"/>
      <use xlink:href="#ArialMT-72" x="261.230469"/>
      <use xlink:href="#ArialMT-20" x="294.53125"/>
      <use xlink:href="#ArialMT-73" x="322.314453"/>
      <use xlink:href="#ArialMT-69" x="372.314453"/>
      <use xlink:href="#ArialMT-7a" x="394.53125"/>
      <use xlink:href="#ArialMT-65" x="444.53125"/>
      <use xlink:href="#ArialMT-73" x="500.146484"/>
     </g>
    </g>
   </g>
   <g id="matplotlib.axis_2">
    <g id="ytick_1">
     <g id="text_18">
      <!-- 0.0 -->
      <g transform="translate(3.33 396.571787) scale(0.18 -0.18)">
       <defs>
        <path id="ArialMT-2e" d="M 581 0 
L 581 641 
L 1222 641 
L 1222 0 
L 581 0 
z
" transform="scale(0.015625)"/>
       </defs>
       <use xlink:href="#ArialMT-30"/>
       <use xlink:href="#ArialMT-2e" x="55.615234"/>
       <use xlink:href="#ArialMT-30" x="83.398438"/>
      </g>
     </g>
    </g>
    <g id="ytick_2">
     <g id="text_19">
      <!-- 0.1 -->
      <g transform="translate(3.33 303.269348) scale(0.18 -0.18)">
       <use xlink:href="#ArialMT-30"/>
       <use xlink:href="#ArialMT-2e" x="55.615234"/>
       <use xlink:href="#ArialMT-31" x="83.398438"/>
      </g>
     </g>
    </g>
    <g id="ytick_3">
     <g id="text_20">
      <!-- 0.2 -->
      <g transform="translate(3.33 209.966909) scale(0.18 -0.18)">
       <use xlink:href="#ArialMT-30"/>
       <use xlink:href="#ArialMT-2e" x="55.615234"/>
       <use xlink:href="#ArialMT-32" x="83.398438"/>
      </g>
     </g>
    </g>
    <g id="ytick_4">
     <g id="text_21">
      <!-- 0.3 -->
      <g transform="translate(3.33 116.66447) scale(0.18 -0.18)">
       <use xlink:href="#ArialMT-30"/>
       <use xlink:href="#ArialMT-2e" x="55.615234"/>
       <use xlink:href="#ArialMT-33" x="83.398438"/>
      </g>
     </g>
    </g>
    <g id="ytick_5">
     <g id="text_22">
      <!-- 0.4 -->
      <g transform="translate(3.33 23.362031) scale(0.18 -0.18)">
       <use xlink:href="#ArialMT-30"/>
       <use xlink:href="#ArialMT-2e" x="55.615234"/>
       <use xlink:href="#ArialMT-34" x="83.398438"/>
      </g>
     </g>
    </g>
    <g id="text_23">
     <!-- MAE-Test (°C) -->
     <g transform="translate(-4.879375 272.182188) rotate(-90) scale(0.2 -0.2)">
      <defs>
       <path id="ArialMT-4d" d="M 475 0 
L 475 4581 
L 1388 4581 
L 2472 1338 
Q 2622 884 2691 659 
Q 2769 909 2934 1394 
L 4031 4581 
L 4847 4581 
L 4847 0 
L 4263 0 
L 4263 3834 
L 2931 0 
L 2384 0 
L 1059 3900 
L 1059 0 
L 475 0 
z
" transform="scale(0.015625)"/>
       <path id="ArialMT-41" d="M -9 0 
L 1750 4581 
L 2403 4581 
L 4278 0 
L 3588 0 
L 3053 1388 
L 1138 1388 
L 634 0 
L -9 0 
z
M 1313 1881 
L 2866 1881 
L 2388 3150 
Q 2169 3728 2063 4100 
Q 1975 3659 1816 3225 
L 1313 1881 
z
" transform="scale(0.015625)"/>
       <path id="ArialMT-45" d="M 506 0 
L 506 4581 
L 3819 4581 
L 3819 4041 
L 1113 4041 
L 1113 2638 
L 3647 2638 
L 3647 2100 
L 1113 2100 
L 1113 541 
L 3925 541 
L 3925 0 
L 506 0 
z
" transform="scale(0.015625)"/>
       <path id="ArialMT-2d" d="M 203 1375 
L 203 1941 
L 1931 1941 
L 1931 1375 
L 203 1375 
z
" transform="scale(0.015625)"/>
       <path id="ArialMT-54" d="M 1659 0 
L 1659 4041 
L 150 4041 
L 150 4581 
L 3781 4581 
L 3781 4041 
L 2266 4041 
L 2266 0 
L 1659 0 
z
" transform="scale(0.015625)"/>
       <path id="ArialMT-28" d="M 1497 -1347 
Q 1031 -759 709 28 
Q 388 816 388 1659 
Q 388 2403 628 3084 
Q 909 3875 1497 4659 
L 1900 4659 
Q 1522 4009 1400 3731 
Q 1209 3300 1100 2831 
Q 966 2247 966 1656 
Q 966 153 1900 -1347 
L 1497 -1347 
z
" transform="scale(0.015625)"/>
       <path id="ArialMT-b0" d="M 400 3794 
Q 400 4153 654 4406 
Q 909 4659 1266 4659 
Q 1628 4659 1881 4406 
Q 2134 4153 2134 3794 
Q 2134 3434 1879 3179 
Q 1625 2925 1266 2925 
Q 909 2925 654 3178 
Q 400 3431 400 3794 
z
M 741 3794 
Q 741 3575 895 3420 
Q 1050 3266 1269 3266 
Q 1484 3266 1639 3420 
Q 1794 3575 1794 3794 
Q 1794 4013 1639 4167 
Q 1484 4322 1269 4322 
Q 1050 4322 895 4167 
Q 741 4013 741 3794 
z
" transform="scale(0.015625)"/>
       <path id="ArialMT-43" d="M 3763 1606 
L 4369 1453 
Q 4178 706 3683 314 
Q 3188 -78 2472 -78 
Q 1731 -78 1267 223 
Q 803 525 561 1097 
Q 319 1669 319 2325 
Q 319 3041 592 3573 
Q 866 4106 1370 4382 
Q 1875 4659 2481 4659 
Q 3169 4659 3637 4309 
Q 4106 3959 4291 3325 
L 3694 3184 
Q 3534 3684 3231 3912 
Q 2928 4141 2469 4141 
Q 1941 4141 1586 3887 
Q 1231 3634 1087 3207 
Q 944 2781 944 2328 
Q 944 1744 1114 1308 
Q 1284 872 1643 656 
Q 2003 441 2422 441 
Q 2931 441 3284 734 
Q 3638 1028 3763 1606 
z
" transform="scale(0.015625)"/>
       <path id="ArialMT-29" d="M 791 -1347 
L 388 -1347 
Q 1322 153 1322 1656 
Q 1322 2244 1188 2822 
Q 1081 3291 891 3722 
Q 769 4003 388 4659 
L 791 4659 
Q 1378 3875 1659 3084 
Q 1900 2403 1900 1659 
Q 1900 816 1576 28 
Q 1253 -759 791 -1347 
z
" transform="scale(0.015625)"/>
      </defs>
      <use xlink:href="#ArialMT-4d"/>
      <use xlink:href="#ArialMT-41" x="83.300781"/>
      <use xlink:href="#ArialMT-45" x="150"/>
      <use xlink:href="#ArialMT-2d" x="216.699219"/>
      <use xlink:href="#ArialMT-54" x="250"/>
      <use xlink:href="#ArialMT-65" x="299.958984"/>
      <use xlink:href="#ArialMT-73" x="355.574219"/>
      <use xlink:href="#ArialMT-74" x="405.574219"/>
      <use xlink:href="#ArialMT-20" x="433.357422"/>
      <use xlink:href="#ArialMT-28" x="461.140625"/>
      <use xlink:href="#ArialMT-b0" x="494.441406"/>
      <use xlink:href="#ArialMT-43" x="534.431641"/>
      <use xlink:href="#ArialMT-29" x="606.648438"/>
     </g>
    </g>
   </g>
   <g id="patch_3">
    <path d="M 40.358681 360.197398 
L 47.884723 360.197398 
L 47.884723 290.451468 
L 40.358681 290.451468 
L 40.358681 360.197398 
z
" clip-path="url(#pd3225aecc9)" style="fill: #ffffff; stroke: #000000; stroke-linejoin: miter"/>
   </g>
   <g id="line2d_1">
    <path d="M 44.121702 360.197398 
L 44.121702 387.603861 
" clip-path="url(#pd3225aecc9)" style="fill: none; stroke: #000000; stroke-linecap: round"/>
   </g>
   <g id="line2d_2">
    <path d="M 44.121702 290.451468 
L 44.121702 197.541968 
" clip-path="url(#pd3225aecc9)" style="fill: none; stroke: #000000; stroke-linecap: round"/>
   </g>
   <g id="line2d_3">
    <path d="M 42.240191 387.603861 
L 46.003213 387.603861 
" clip-path="url(#pd3225aecc9)" style="fill: none; stroke: #000000; stroke-linecap: round"/>
   </g>
   <g id="line2d_4">
    <path d="M 42.240191 197.541968 
L 46.003213 197.541968 
" clip-path="url(#pd3225aecc9)" style="fill: none; stroke: #000000; stroke-linecap: round"/>
   </g>
   <g id="patch_4">
    <path d="M 52.902085 360.075204 
L 60.428128 360.075204 
L 60.428128 290.06337 
L 52.902085 290.06337 
L 52.902085 360.075204 
z
" clip-path="url(#pd3225aecc9)" style="opacity: 0.6; stroke: #000000; stroke-linejoin: miter"/>
   </g>
   <g id="line2d_5">
    <path d="M 56.665106 360.075204 
L 56.665106 386.657238 
" clip-path="url(#pd3225aecc9)" style="fill: none; stroke: #000000; stroke-linecap: round"/>
   </g>
   <g id="line2d_6">
    <path d="M 56.665106 290.06337 
L 56.665106 197.607095 
" clip-path="url(#pd3225aecc9)" style="fill: none; stroke: #000000; stroke-linecap: round"/>
   </g>
   <g id="line2d_7">
    <path d="M 54.783596 386.657238 
L 58.546617 386.657238 
" clip-path="url(#pd3225aecc9)" style="fill: none; stroke: #000000; stroke-linecap: round"/>
   </g>
   <g id="line2d_8">
    <path d="M 54.783596 197.607095 
L 58.546617 197.607095 
" clip-path="url(#pd3225aecc9)" style="fill: none; stroke: #000000; stroke-linecap: round"/>
   </g>
   <g id="patch_5">
    <path d="M 77.988894 359.109634 
L 85.514936 359.109634 
L 85.514936 269.157392 
L 77.988894 269.157392 
L 77.988894 359.109634 
z
" clip-path="url(#pd3225aecc9)" style="fill: #ffffff; stroke: #000000; stroke-linejoin: miter"/>
   </g>
   <g id="line2d_9">
    <path d="M 81.751915 359.109634 
L 81.751915 380.191945 
" clip-path="url(#pd3225aecc9)" style="fill: none; stroke: #000000; stroke-linecap: round"/>
   </g>
   <g id="line2d_10">
    <path d="M 81.751915 269.157392 
L 81.751915 206.020962 
" clip-path="url(#pd3225aecc9)" style="fill: none; stroke: #000000; stroke-linecap: round"/>
   </g>
   <g id="line2d_11">
    <path d="M 79.870404 380.191945 
L 83.633426 380.191945 
" clip-path="url(#pd3225aecc9)" style="fill: none; stroke: #000000; stroke-linecap: round"/>
   </g>
   <g id="line2d_12">
    <path d="M 79.870404 206.020962 
L 83.633426 206.020962 
" clip-path="url(#pd3225aecc9)" style="fill: none; stroke: #000000; stroke-linecap: round"/>
   </g>
   <g id="patch_6">
    <path d="M 90.532298 358.950817 
L 98.05834 358.950817 
L 98.05834 266.743378 
L 90.532298 266.743378 
L 90.532298 358.950817 
z
" clip-path="url(#pd3225aecc9)" style="opacity: 0.6; stroke: #000000; stroke-linejoin: miter"/>
   </g>
   <g id="line2d_13">
    <path d="M 94.295319 358.950817 
L 94.295319 380.140603 
" clip-path="url(#pd3225aecc9)" style="fill: none; stroke: #000000; stroke-linecap: round"/>
   </g>
   <g id="line2d_14">
    <path d="M 94.295319 266.743378 
L 94.295319 198.018494 
" clip-path="url(#pd3225aecc9)" style="fill: none; stroke: #000000; stroke-linecap: round"/>
   </g>
   <g id="line2d_15">
    <path d="M 92.413809 380.140603 
L 96.17683 380.140603 
" clip-path="url(#pd3225aecc9)" style="fill: none; stroke: #000000; stroke-linecap: round"/>
   </g>
   <g id="line2d_16">
    <path d="M 92.413809 198.018494 
L 96.17683 198.018494 
" clip-path="url(#pd3225aecc9)" style="fill: none; stroke: #000000; stroke-linecap: round"/>
   </g>
   <g id="patch_7">
    <path d="M 115.619106 335.865235 
L 123.145149 335.865235 
L 123.145149 229.660403 
L 115.619106 229.660403 
L 115.619106 335.865235 
z
" clip-path="url(#pd3225aecc9)" style="fill: #ffffff; stroke: #000000; stroke-linejoin: miter"/>
   </g>
   <g id="line2d_17">
    <path d="M 119.382128 335.865235 
L 119.382128 380.94769 
" clip-path="url(#pd3225aecc9)" style="fill: none; stroke: #000000; stroke-linecap: round"/>
   </g>
   <g id="line2d_18">
    <path d="M 119.382128 229.660403 
L 119.382128 210.251113 
" clip-path="url(#pd3225aecc9)" style="fill: none; stroke: #000000; stroke-linecap: round"/>
   </g>
   <g id="line2d_19">
    <path d="M 117.500617 380.94769 
L 121.263638 380.94769 
" clip-path="url(#pd3225aecc9)" style="fill: none; stroke: #000000; stroke-linecap: round"/>
   </g>
   <g id="line2d_20">
    <path d="M 117.500617 210.251113 
L 121.263638 210.251113 
" clip-path="url(#pd3225aecc9)" style="fill: none; stroke: #000000; stroke-linecap: round"/>
   </g>
   <g id="patch_8">
    <path d="M 128.162511 338.636277 
L 135.688553 338.636277 
L 135.688553 262.866769 
L 128.162511 262.866769 
L 128.162511 338.636277 
z
" clip-path="url(#pd3225aecc9)" style="opacity: 0.6; stroke: #000000; stroke-linejoin: miter"/>
   </g>
   <g id="line2d_21">
    <path d="M 131.925532 338.636277 
L 131.925532 379.841826 
" clip-path="url(#pd3225aecc9)" style="fill: none; stroke: #000000; stroke-linecap: round"/>
   </g>
   <g id="line2d_22">
    <path d="M 131.925532 262.866769 
L 131.925532 205.377551 
" clip-path="url(#pd3225aecc9)" style="fill: none; stroke: #000000; stroke-linecap: round"/>
   </g>
   <g id="line2d_23">
    <path d="M 130.044021 379.841826 
L 133.807043 379.841826 
" clip-path="url(#pd3225aecc9)" style="fill: none; stroke: #000000; stroke-linecap: round"/>
   </g>
   <g id="line2d_24">
    <path d="M 130.044021 205.377551 
L 133.807043 205.377551 
" clip-path="url(#pd3225aecc9)" style="fill: none; stroke: #000000; stroke-linecap: round"/>
   </g>
   <g id="patch_9">
    <path d="M 153.249319 333.161357 
L 160.775362 333.161357 
L 160.775362 247.252862 
L 153.249319 247.252862 
L 153.249319 333.161357 
z
" clip-path="url(#pd3225aecc9)" style="fill: #ffffff; stroke: #000000; stroke-linejoin: miter"/>
   </g>
   <g id="line2d_25">
    <path d="M 157.01234 333.161357 
L 157.01234 372.195283 
" clip-path="url(#pd3225aecc9)" style="fill: none; stroke: #000000; stroke-linecap: round"/>
   </g>
   <g id="line2d_26">
    <path d="M 157.01234 247.252862 
L 157.01234 201.693308 
" clip-path="url(#pd3225aecc9)" style="fill: none; stroke: #000000; stroke-linecap: round"/>
   </g>
   <g id="line2d_27">
    <path d="M 155.13083 372.195283 
L 158.893851 372.195283 
" clip-path="url(#pd3225aecc9)" style="fill: none; stroke: #000000; stroke-linecap: round"/>
   </g>
   <g id="line2d_28">
    <path d="M 155.13083 201.693308 
L 158.893851 201.693308 
" clip-path="url(#pd3225aecc9)" style="fill: none; stroke: #000000; stroke-linecap: round"/>
   </g>
   <g id="patch_10">
    <path d="M 165.792723 331.751077 
L 173.318766 331.751077 
L 173.318766 253.225096 
L 165.792723 253.225096 
L 165.792723 331.751077 
z
" clip-path="url(#pd3225aecc9)" style="opacity: 0.6; stroke: #000000; stroke-linejoin: miter"/>
   </g>
   <g id="line2d_29">
    <path d="M 169.555745 331.751077 
L 169.555745 371.019014 
" clip-path="url(#pd3225aecc9)" style="fill: none; stroke: #000000; stroke-linecap: round"/>
   </g>
   <g id="line2d_30">
    <path d="M 169.555745 253.225096 
L 169.555745 202.689625 
" clip-path="url(#pd3225aecc9)" style="fill: none; stroke: #000000; stroke-linecap: round"/>
   </g>
   <g id="line2d_31">
    <path d="M 167.674234 371.019014 
L 171.437255 371.019014 
" clip-path="url(#pd3225aecc9)" style="fill: none; stroke: #000000; stroke-linecap: round"/>
   </g>
   <g id="line2d_32">
    <path d="M 167.674234 202.689625 
L 171.437255 202.689625 
" clip-path="url(#pd3225aecc9)" style="fill: none; stroke: #000000; stroke-linecap: round"/>
   </g>
   <g id="patch_11">
    <path d="M 190.879532 325.123622 
L 198.405574 325.123622 
L 198.405574 277.651334 
L 190.879532 277.651334 
L 190.879532 325.123622 
z
" clip-path="url(#pd3225aecc9)" style="fill: #ffffff; stroke: #000000; stroke-linejoin: miter"/>
   </g>
   <g id="line2d_33">
    <path d="M 194.642553 325.123622 
L 194.642553 368.775273 
" clip-path="url(#pd3225aecc9)" style="fill: none; stroke: #000000; stroke-linecap: round"/>
   </g>
   <g id="line2d_34">
    <path d="M 194.642553 277.651334 
L 194.642553 234.546472 
" clip-path="url(#pd3225aecc9)" style="fill: none; stroke: #000000; stroke-linecap: round"/>
   </g>
   <g id="line2d_35">
    <path d="M 192.761043 368.775273 
L 196.524064 368.775273 
" clip-path="url(#pd3225aecc9)" style="fill: none; stroke: #000000; stroke-linecap: round"/>
   </g>
   <g id="line2d_36">
    <path d="M 192.761043 234.546472 
L 196.524064 234.546472 
" clip-path="url(#pd3225aecc9)" style="fill: none; stroke: #000000; stroke-linecap: round"/>
   </g>
   <g id="patch_12">
    <path d="M 203.422936 325.804073 
L 210.948979 325.804073 
L 210.948979 278.714874 
L 203.422936 278.714874 
L 203.422936 325.804073 
z
" clip-path="url(#pd3225aecc9)" style="opacity: 0.6; stroke: #000000; stroke-linejoin: miter"/>
   </g>
   <g id="line2d_37">
    <path d="M 207.185957 325.804073 
L 207.185957 368.325528 
" clip-path="url(#pd3225aecc9)" style="fill: none; stroke: #000000; stroke-linecap: round"/>
   </g>
   <g id="line2d_38">
    <path d="M 207.185957 278.714874 
L 207.185957 234.794282 
" clip-path="url(#pd3225aecc9)" style="fill: none; stroke: #000000; stroke-linecap: round"/>
   </g>
   <g id="line2d_39">
    <path d="M 205.304447 368.325528 
L 209.067468 368.325528 
" clip-path="url(#pd3225aecc9)" style="fill: none; stroke: #000000; stroke-linecap: round"/>
   </g>
   <g id="line2d_40">
    <path d="M 205.304447 234.794282 
L 209.067468 234.794282 
" clip-path="url(#pd3225aecc9)" style="fill: none; stroke: #000000; stroke-linecap: round"/>
   </g>
   <g id="patch_13">
    <path d="M 228.509745 351.345385 
L 236.035787 351.345385 
L 236.035787 290.941842 
L 228.509745 290.941842 
L 228.509745 351.345385 
z
" clip-path="url(#pd3225aecc9)" style="fill: #ffffff; stroke: #000000; stroke-linejoin: miter"/>
   </g>
   <g id="line2d_41">
    <path d="M 232.272766 351.345385 
L 232.272766 379.241935 
" clip-path="url(#pd3225aecc9)" style="fill: none; stroke: #000000; stroke-linecap: round"/>
   </g>
   <g id="line2d_42">
    <path d="M 232.272766 290.941842 
L 232.272766 236.921547 
" clip-path="url(#pd3225aecc9)" style="fill: none; stroke: #000000; stroke-linecap: round"/>
   </g>
   <g id="line2d_43">
    <path d="M 230.391255 379.241935 
L 234.154277 379.241935 
" clip-path="url(#pd3225aecc9)" style="fill: none; stroke: #000000; stroke-linecap: round"/>
   </g>
   <g id="line2d_44">
    <path d="M 230.391255 236.921547 
L 234.154277 236.921547 
" clip-path="url(#pd3225aecc9)" style="fill: none; stroke: #000000; stroke-linecap: round"/>
   </g>
   <g id="patch_14">
    <path d="M 241.053149 352.409407 
L 248.579191 352.409407 
L 248.579191 294.742029 
L 241.053149 294.742029 
L 241.053149 352.409407 
z
" clip-path="url(#pd3225aecc9)" style="opacity: 0.6; stroke: #000000; stroke-linejoin: miter"/>
   </g>
   <g id="line2d_45">
    <path d="M 244.81617 352.409407 
L 244.81617 379.883422 
" clip-path="url(#pd3225aecc9)" style="fill: none; stroke: #000000; stroke-linecap: round"/>
   </g>
   <g id="line2d_46">
    <path d="M 244.81617 294.742029 
L 244.81617 234.313292 
" clip-path="url(#pd3225aecc9)" style="fill: none; stroke: #000000; stroke-linecap: round"/>
   </g>
   <g id="line2d_47">
    <path d="M 242.93466 379.883422 
L 246.697681 379.883422 
" clip-path="url(#pd3225aecc9)" style="fill: none; stroke: #000000; stroke-linecap: round"/>
   </g>
   <g id="line2d_48">
    <path d="M 242.93466 234.313292 
L 246.697681 234.313292 
" clip-path="url(#pd3225aecc9)" style="fill: none; stroke: #000000; stroke-linecap: round"/>
   </g>
   <g id="patch_15">
    <path d="M 266.139957 299.414175 
L 273.666 299.414175 
L 273.666 257.567261 
L 266.139957 257.567261 
L 266.139957 299.414175 
z
" clip-path="url(#pd3225aecc9)" style="fill: #ffffff; stroke: #000000; stroke-linejoin: miter"/>
   </g>
   <g id="line2d_49">
    <path d="M 269.902979 299.414175 
L 269.902979 319.972473 
" clip-path="url(#pd3225aecc9)" style="fill: none; stroke: #000000; stroke-linecap: round"/>
   </g>
   <g id="line2d_50">
    <path d="M 269.902979 257.567261 
L 269.902979 219.143259 
" clip-path="url(#pd3225aecc9)" style="fill: none; stroke: #000000; stroke-linecap: round"/>
   </g>
   <g id="line2d_51">
    <path d="M 268.021468 319.972473 
L 271.784489 319.972473 
" clip-path="url(#pd3225aecc9)" style="fill: none; stroke: #000000; stroke-linecap: round"/>
   </g>
   <g id="line2d_52">
    <path d="M 268.021468 219.143259 
L 271.784489 219.143259 
" clip-path="url(#pd3225aecc9)" style="fill: none; stroke: #000000; stroke-linecap: round"/>
   </g>
   <g id="patch_16">
    <path d="M 278.683362 302.956294 
L 286.209404 302.956294 
L 286.209404 258.525592 
L 278.683362 258.525592 
L 278.683362 302.956294 
z
" clip-path="url(#pd3225aecc9)" style="opacity: 0.6; stroke: #000000; stroke-linejoin: miter"/>
   </g>
   <g id="line2d_53">
    <path d="M 282.446383 302.956294 
L 282.446383 322.523018 
" clip-path="url(#pd3225aecc9)" style="fill: none; stroke: #000000; stroke-linecap: round"/>
   </g>
   <g id="line2d_54">
    <path d="M 282.446383 258.525592 
L 282.446383 216.689773 
" clip-path="url(#pd3225aecc9)" style="fill: none; stroke: #000000; stroke-linecap: round"/>
   </g>
   <g id="line2d_55">
    <path d="M 280.564872 322.523018 
L 284.327894 322.523018 
" clip-path="url(#pd3225aecc9)" style="fill: none; stroke: #000000; stroke-linecap: round"/>
   </g>
   <g id="line2d_56">
    <path d="M 280.564872 216.689773 
L 284.327894 216.689773 
" clip-path="url(#pd3225aecc9)" style="fill: none; stroke: #000000; stroke-linecap: round"/>
   </g>
   <g id="patch_17">
    <path d="M 303.77017 338.281815 
L 311.296213 338.281815 
L 311.296213 242.174406 
L 303.77017 242.174406 
L 303.77017 338.281815 
z
" clip-path="url(#pd3225aecc9)" style="fill: #ffffff; stroke: #000000; stroke-linejoin: miter"/>
   </g>
   <g id="line2d_57">
    <path d="M 307.533191 338.281815 
L 307.533191 376.786897 
" clip-path="url(#pd3225aecc9)" style="fill: none; stroke: #000000; stroke-linecap: round"/>
   </g>
   <g id="line2d_58">
    <path d="M 307.533191 242.174406 
L 307.533191 228.428418 
" clip-path="url(#pd3225aecc9)" style="fill: none; stroke: #000000; stroke-linecap: round"/>
   </g>
   <g id="line2d_59">
    <path d="M 305.651681 376.786897 
L 309.414702 376.786897 
" clip-path="url(#pd3225aecc9)" style="fill: none; stroke: #000000; stroke-linecap: round"/>
   </g>
   <g id="line2d_60">
    <path d="M 305.651681 228.428418 
L 309.414702 228.428418 
" clip-path="url(#pd3225aecc9)" style="fill: none; stroke: #000000; stroke-linecap: round"/>
   </g>
   <g id="patch_18">
    <path d="M 316.313574 340.008419 
L 323.839617 340.008419 
L 323.839617 241.567961 
L 316.313574 241.567961 
L 316.313574 340.008419 
z
" clip-path="url(#pd3225aecc9)" style="opacity: 0.6; stroke: #000000; stroke-linejoin: miter"/>
   </g>
   <g id="line2d_61">
    <path d="M 320.076596 340.008419 
L 320.076596 375.849654 
" clip-path="url(#pd3225aecc9)" style="fill: none; stroke: #000000; stroke-linecap: round"/>
   </g>
   <g id="line2d_62">
    <path d="M 320.076596 241.567961 
L 320.076596 233.869016 
" clip-path="url(#pd3225aecc9)" style="fill: none; stroke: #000000; stroke-linecap: round"/>
   </g>
   <g id="line2d_63">
    <path d="M 318.195085 375.849654 
L 321.958106 375.849654 
" clip-path="url(#pd3225aecc9)" style="fill: none; stroke: #000000; stroke-linecap: round"/>
   </g>
   <g id="line2d_64">
    <path d="M 318.195085 233.869016 
L 321.958106 233.869016 
" clip-path="url(#pd3225aecc9)" style="fill: none; stroke: #000000; stroke-linecap: round"/>
   </g>
   <g id="patch_19">
    <path d="M 341.400383 350.503547 
L 348.926426 350.503547 
L 348.926426 321.506622 
L 341.400383 321.506622 
L 341.400383 350.503547 
z
" clip-path="url(#pd3225aecc9)" style="fill: #ffffff; stroke: #000000; stroke-linejoin: miter"/>
   </g>
   <g id="line2d_65">
    <path d="M 345.163404 350.503547 
L 345.163404 365.810734 
" clip-path="url(#pd3225aecc9)" style="fill: none; stroke: #000000; stroke-linecap: round"/>
   </g>
   <g id="line2d_66">
    <path d="M 345.163404 321.506622 
L 345.163404 308.416264 
" clip-path="url(#pd3225aecc9)" style="fill: none; stroke: #000000; stroke-linecap: round"/>
   </g>
   <g id="line2d_67">
    <path d="M 343.281894 365.810734 
L 347.044915 365.810734 
" clip-path="url(#pd3225aecc9)" style="fill: none; stroke: #000000; stroke-linecap: round"/>
   </g>
   <g id="line2d_68">
    <path d="M 343.281894 308.416264 
L 347.044915 308.416264 
" clip-path="url(#pd3225aecc9)" style="fill: none; stroke: #000000; stroke-linecap: round"/>
   </g>
   <g id="patch_20">
    <path d="M 353.943787 353.709872 
L 361.46983 353.709872 
L 361.46983 318.055943 
L 353.943787 318.055943 
L 353.943787 353.709872 
z
" clip-path="url(#pd3225aecc9)" style="opacity: 0.6; stroke: #000000; stroke-linejoin: miter"/>
   </g>
   <g id="line2d_69">
    <path d="M 357.706809 353.709872 
L 357.706809 365.71939 
" clip-path="url(#pd3225aecc9)" style="fill: none; stroke: #000000; stroke-linecap: round"/>
   </g>
   <g id="line2d_70">
    <path d="M 357.706809 318.055943 
L 357.706809 305.999209 
" clip-path="url(#pd3225aecc9)" style="fill: none; stroke: #000000; stroke-linecap: round"/>
   </g>
   <g id="line2d_71">
    <path d="M 355.825298 365.71939 
L 359.588319 365.71939 
" clip-path="url(#pd3225aecc9)" style="fill: none; stroke: #000000; stroke-linecap: round"/>
   </g>
   <g id="line2d_72">
    <path d="M 355.825298 305.999209 
L 359.588319 305.999209 
" clip-path="url(#pd3225aecc9)" style="fill: none; stroke: #000000; stroke-linecap: round"/>
   </g>
   <g id="patch_21">
    <path d="M 379.030596 299.425459 
L 386.556638 299.425459 
L 386.556638 220.980396 
L 379.030596 220.980396 
L 379.030596 299.425459 
z
" clip-path="url(#pd3225aecc9)" style="fill: #ffffff; stroke: #000000; stroke-linejoin: miter"/>
   </g>
   <g id="line2d_73">
    <path d="M 382.793617 299.425459 
L 382.793617 338.64799 
" clip-path="url(#pd3225aecc9)" style="fill: none; stroke: #000000; stroke-linecap: round"/>
   </g>
   <g id="line2d_74">
    <path d="M 382.793617 220.980396 
L 382.793617 181.757865 
" clip-path="url(#pd3225aecc9)" style="fill: none; stroke: #000000; stroke-linecap: round"/>
   </g>
   <g id="line2d_75">
    <path d="M 380.912106 338.64799 
L 384.675128 338.64799 
" clip-path="url(#pd3225aecc9)" style="fill: none; stroke: #000000; stroke-linecap: round"/>
   </g>
   <g id="line2d_76">
    <path d="M 380.912106 181.757865 
L 384.675128 181.757865 
" clip-path="url(#pd3225aecc9)" style="fill: none; stroke: #000000; stroke-linecap: round"/>
   </g>
   <g id="patch_22">
    <path d="M 391.574 301.234275 
L 399.100043 301.234275 
L 399.100043 221.624286 
L 391.574 221.624286 
L 391.574 301.234275 
z
" clip-path="url(#pd3225aecc9)" style="opacity: 0.6; stroke: #000000; stroke-linejoin: miter"/>
   </g>
   <g id="line2d_77">
    <path d="M 395.337021 301.234275 
L 395.337021 341.039269 
" clip-path="url(#pd3225aecc9)" style="fill: none; stroke: #000000; stroke-linecap: round"/>
   </g>
   <g id="line2d_78">
    <path d="M 395.337021 221.624286 
L 395.337021 181.819292 
" clip-path="url(#pd3225aecc9)" style="fill: none; stroke: #000000; stroke-linecap: round"/>
   </g>
   <g id="line2d_79">
    <path d="M 393.455511 341.039269 
L 397.218532 341.039269 
" clip-path="url(#pd3225aecc9)" style="fill: none; stroke: #000000; stroke-linecap: round"/>
   </g>
   <g id="line2d_80">
    <path d="M 393.455511 181.819292 
L 397.218532 181.819292 
" clip-path="url(#pd3225aecc9)" style="fill: none; stroke: #000000; stroke-linecap: round"/>
   </g>
   <g id="patch_23">
    <path d="M 416.660809 343.218575 
L 424.186851 343.218575 
L 424.186851 233.672967 
L 416.660809 233.672967 
L 416.660809 343.218575 
z
" clip-path="url(#pd3225aecc9)" style="fill: #ffffff; stroke: #000000; stroke-linejoin: miter"/>
   </g>
   <g id="line2d_81">
    <path d="M 420.42383 343.218575 
L 420.42383 374.612143 
" clip-path="url(#pd3225aecc9)" style="fill: none; stroke: #000000; stroke-linecap: round"/>
   </g>
   <g id="line2d_82">
    <path d="M 420.42383 233.672967 
L 420.42383 117.358711 
" clip-path="url(#pd3225aecc9)" style="fill: none; stroke: #000000; stroke-linecap: round"/>
   </g>
   <g id="line2d_83">
    <path d="M 418.542319 374.612143 
L 422.30534 374.612143 
" clip-path="url(#pd3225aecc9)" style="fill: none; stroke: #000000; stroke-linecap: round"/>
   </g>
   <g id="line2d_84">
    <path d="M 418.542319 117.358711 
L 422.30534 117.358711 
" clip-path="url(#pd3225aecc9)" style="fill: none; stroke: #000000; stroke-linecap: round"/>
   </g>
   <g id="patch_24">
    <path d="M 429.204213 347.394207 
L 436.730255 347.394207 
L 436.730255 230.434926 
L 429.204213 230.434926 
L 429.204213 347.394207 
z
" clip-path="url(#pd3225aecc9)" style="opacity: 0.6; stroke: #000000; stroke-linejoin: miter"/>
   </g>
   <g id="line2d_85">
    <path d="M 432.967234 347.394207 
L 432.967234 375.150697 
" clip-path="url(#pd3225aecc9)" style="fill: none; stroke: #000000; stroke-linecap: round"/>
   </g>
   <g id="line2d_86">
    <path d="M 432.967234 230.434926 
L 432.967234 116.15349 
" clip-path="url(#pd3225aecc9)" style="fill: none; stroke: #000000; stroke-linecap: round"/>
   </g>
   <g id="line2d_87">
    <path d="M 431.085723 375.150697 
L 434.848745 375.150697 
" clip-path="url(#pd3225aecc9)" style="fill: none; stroke: #000000; stroke-linecap: round"/>
   </g>
   <g id="line2d_88">
    <path d="M 431.085723 116.15349 
L 434.848745 116.15349 
" clip-path="url(#pd3225aecc9)" style="fill: none; stroke: #000000; stroke-linecap: round"/>
   </g>
   <g id="patch_25">
    <path d="M 454.291021 289.900132 
L 461.817064 289.900132 
L 461.817064 177.158038 
L 454.291021 177.158038 
L 454.291021 289.900132 
z
" clip-path="url(#pd3225aecc9)" style="fill: #ffffff; stroke: #000000; stroke-linejoin: miter"/>
   </g>
   <g id="line2d_89">
    <path d="M 458.054043 289.900132 
L 458.054043 372.247701 
" clip-path="url(#pd3225aecc9)" style="fill: none; stroke: #000000; stroke-linecap: round"/>
   </g>
   <g id="line2d_90">
    <path d="M 458.054043 177.158038 
L 458.054043 171.911305 
" clip-path="url(#pd3225aecc9)" style="fill: none; stroke: #000000; stroke-linecap: round"/>
   </g>
   <g id="line2d_91">
    <path d="M 456.172532 372.247701 
L 459.935553 372.247701 
" clip-path="url(#pd3225aecc9)" style="fill: none; stroke: #000000; stroke-linecap: round"/>
   </g>
   <g id="line2d_92">
    <path d="M 456.172532 171.911305 
L 459.935553 171.911305 
" clip-path="url(#pd3225aecc9)" style="fill: none; stroke: #000000; stroke-linecap: round"/>
   </g>
   <g id="patch_26">
    <path d="M 466.834426 292.721014 
L 474.360468 292.721014 
L 474.360468 186.767122 
L 466.834426 186.767122 
L 466.834426 292.721014 
z
" clip-path="url(#pd3225aecc9)" style="opacity: 0.6; stroke: #000000; stroke-linejoin: miter"/>
   </g>
   <g id="line2d_93">
    <path d="M 470.597447 292.721014 
L 470.597447 369.66256 
" clip-path="url(#pd3225aecc9)" style="fill: none; stroke: #000000; stroke-linecap: round"/>
   </g>
   <g id="line2d_94">
    <path d="M 470.597447 186.767122 
L 470.597447 174.909747 
" clip-path="url(#pd3225aecc9)" style="fill: none; stroke: #000000; stroke-linecap: round"/>
   </g>
   <g id="line2d_95">
    <path d="M 468.715936 369.66256 
L 472.478957 369.66256 
" clip-path="url(#pd3225aecc9)" style="fill: none; stroke: #000000; stroke-linecap: round"/>
   </g>
   <g id="line2d_96">
    <path d="M 468.715936 174.909747 
L 472.478957 174.909747 
" clip-path="url(#pd3225aecc9)" style="fill: none; stroke: #000000; stroke-linecap: round"/>
   </g>
   <g id="patch_27">
    <path d="M 491.921234 210.691688 
L 499.447277 210.691688 
L 499.447277 210.691688 
L 491.921234 210.691688 
L 491.921234 210.691688 
z
" clip-path="url(#pd3225aecc9)" style="fill: #ffffff; stroke: #000000; stroke-linejoin: miter"/>
   </g>
   <g id="line2d_97">
    <path d="M 495.684255 210.691688 
L 495.684255 210.691688 
" clip-path="url(#pd3225aecc9)" style="fill: none; stroke: #000000; stroke-linecap: round"/>
   </g>
   <g id="line2d_98">
    <path d="M 495.684255 210.691688 
L 495.684255 210.691688 
" clip-path="url(#pd3225aecc9)" style="fill: none; stroke: #000000; stroke-linecap: round"/>
   </g>
   <g id="line2d_99">
    <path d="M 493.802745 210.691688 
L 497.565766 210.691688 
" clip-path="url(#pd3225aecc9)" style="fill: none; stroke: #000000; stroke-linecap: round"/>
   </g>
   <g id="line2d_100">
    <path d="M 493.802745 210.691688 
L 497.565766 210.691688 
" clip-path="url(#pd3225aecc9)" style="fill: none; stroke: #000000; stroke-linecap: round"/>
   </g>
   <g id="patch_28">
    <path d="M 504.464638 -747.898941 
L 511.990681 -747.898941 
L 511.990681 -747.898941 
L 504.464638 -747.898941 
L 504.464638 -747.898941 
z
" clip-path="url(#pd3225aecc9)" style="opacity: 0.6; stroke: #000000; stroke-linejoin: miter"/>
   </g>
   <g id="line2d_101">
    <path clip-path="url(#pd3225aecc9)" style="fill: none; stroke: #000000; stroke-linecap: round"/>
   </g>
   <g id="line2d_102">
    <path clip-path="url(#pd3225aecc9)" style="fill: none; stroke: #000000; stroke-linecap: round"/>
   </g>
   <g id="line2d_103">
    <path clip-path="url(#pd3225aecc9)" style="fill: none; stroke: #000000; stroke-linecap: round"/>
   </g>
   <g id="line2d_104">
    <path clip-path="url(#pd3225aecc9)" style="fill: none; stroke: #000000; stroke-linecap: round"/>
   </g>
   <g id="patch_29">
    <path d="M 529.551447 322.590086 
L 537.077489 322.590086 
L 537.077489 322.590086 
L 529.551447 322.590086 
L 529.551447 322.590086 
z
" clip-path="url(#pd3225aecc9)" style="fill: #ffffff; stroke: #000000; stroke-linejoin: miter"/>
   </g>
   <g id="line2d_105">
    <path d="M 533.314468 322.590086 
L 533.314468 322.590086 
" clip-path="url(#pd3225aecc9)" style="fill: none; stroke: #000000; stroke-linecap: round"/>
   </g>
   <g id="line2d_106">
    <path d="M 533.314468 322.590086 
L 533.314468 322.590086 
" clip-path="url(#pd3225aecc9)" style="fill: none; stroke: #000000; stroke-linecap: round"/>
   </g>
   <g id="line2d_107">
    <path d="M 531.432957 322.590086 
L 535.195979 322.590086 
" clip-path="url(#pd3225aecc9)" style="fill: none; stroke: #000000; stroke-linecap: round"/>
   </g>
   <g id="line2d_108">
    <path d="M 531.432957 322.590086 
L 535.195979 322.590086 
" clip-path="url(#pd3225aecc9)" style="fill: none; stroke: #000000; stroke-linecap: round"/>
   </g>
   <g id="patch_30">
    <path d="M 542.094851 325.975598 
L 549.620894 325.975598 
L 549.620894 325.975598 
L 542.094851 325.975598 
L 542.094851 325.975598 
z
" clip-path="url(#pd3225aecc9)" style="opacity: 0.6; stroke: #000000; stroke-linejoin: miter"/>
   </g>
   <g id="line2d_109">
    <path d="M 545.857872 325.975598 
L 545.857872 325.975598 
" clip-path="url(#pd3225aecc9)" style="fill: none; stroke: #000000; stroke-linecap: round"/>
   </g>
   <g id="line2d_110">
    <path d="M 545.857872 325.975598 
L 545.857872 325.975598 
" clip-path="url(#pd3225aecc9)" style="fill: none; stroke: #000000; stroke-linecap: round"/>
   </g>
   <g id="line2d_111">
    <path d="M 543.976362 325.975598 
L 547.739383 325.975598 
" clip-path="url(#pd3225aecc9)" style="fill: none; stroke: #000000; stroke-linecap: round"/>
   </g>
   <g id="line2d_112">
    <path d="M 543.976362 325.975598 
L 547.739383 325.975598 
" clip-path="url(#pd3225aecc9)" style="fill: none; stroke: #000000; stroke-linecap: round"/>
   </g>
   <g id="patch_31">
    <path d="M 567.18166 311.666139 
L 574.707702 311.666139 
L 574.707702 311.666139 
L 567.18166 311.666139 
L 567.18166 311.666139 
z
" clip-path="url(#pd3225aecc9)" style="fill: #ffffff; stroke: #000000; stroke-linejoin: miter"/>
   </g>
   <g id="line2d_113">
    <path d="M 570.944681 311.666139 
L 570.944681 311.666139 
" clip-path="url(#pd3225aecc9)" style="fill: none; stroke: #000000; stroke-linecap: round"/>
   </g>
   <g id="line2d_114">
    <path d="M 570.944681 311.666139 
L 570.944681 311.666139 
" clip-path="url(#pd3225aecc9)" style="fill: none; stroke: #000000; stroke-linecap: round"/>
   </g>
   <g id="line2d_115">
    <path d="M 569.06317 311.666139 
L 572.826191 311.666139 
" clip-path="url(#pd3225aecc9)" style="fill: none; stroke: #000000; stroke-linecap: round"/>
   </g>
   <g id="line2d_116">
    <path d="M 569.06317 311.666139 
L 572.826191 311.666139 
" clip-path="url(#pd3225aecc9)" style="fill: none; stroke: #000000; stroke-linecap: round"/>
   </g>
   <g id="patch_32">
    <path d="M 579.725064 312.279953 
L 587.251106 312.279953 
L 587.251106 312.279953 
L 579.725064 312.279953 
L 579.725064 312.279953 
z
" clip-path="url(#pd3225aecc9)" style="opacity: 0.6; stroke: #000000; stroke-linejoin: miter"/>
   </g>
   <g id="line2d_117">
    <path d="M 583.488085 312.279953 
L 583.488085 312.279953 
" clip-path="url(#pd3225aecc9)" style="fill: none; stroke: #000000; stroke-linecap: round"/>
   </g>
   <g id="line2d_118">
    <path d="M 583.488085 312.279953 
L 583.488085 312.279953 
" clip-path="url(#pd3225aecc9)" style="fill: none; stroke: #000000; stroke-linecap: round"/>
   </g>
   <g id="line2d_119">
    <path d="M 581.606574 312.279953 
L 585.369596 312.279953 
" clip-path="url(#pd3225aecc9)" style="fill: none; stroke: #000000; stroke-linecap: round"/>
   </g>
   <g id="line2d_120">
    <path d="M 581.606574 312.279953 
L 585.369596 312.279953 
" clip-path="url(#pd3225aecc9)" style="fill: none; stroke: #000000; stroke-linecap: round"/>
   </g>
   <g id="patch_33">
    <path d="M 604.811872 374.543571 
L 612.337915 374.543571 
L 612.337915 374.543571 
L 604.811872 374.543571 
L 604.811872 374.543571 
z
" clip-path="url(#pd3225aecc9)" style="fill: #ffffff; stroke: #000000; stroke-linejoin: miter"/>
   </g>
   <g id="line2d_121">
    <path d="M 608.574894 374.543571 
L 608.574894 374.543571 
" clip-path="url(#pd3225aecc9)" style="fill: none; stroke: #000000; stroke-linecap: round"/>
   </g>
   <g id="line2d_122">
    <path d="M 608.574894 374.543571 
L 608.574894 374.543571 
" clip-path="url(#pd3225aecc9)" style="fill: none; stroke: #000000; stroke-linecap: round"/>
   </g>
   <g id="line2d_123">
    <path d="M 606.693383 374.543571 
L 610.456404 374.543571 
" clip-path="url(#pd3225aecc9)" style="fill: none; stroke: #000000; stroke-linecap: round"/>
   </g>
   <g id="line2d_124">
    <path d="M 606.693383 374.543571 
L 610.456404 374.543571 
" clip-path="url(#pd3225aecc9)" style="fill: none; stroke: #000000; stroke-linecap: round"/>
   </g>
   <g id="patch_34">
    <path d="M 617.355277 374.737182 
L 624.881319 374.737182 
L 624.881319 374.737182 
L 617.355277 374.737182 
L 617.355277 374.737182 
z
" clip-path="url(#pd3225aecc9)" style="opacity: 0.6; stroke: #000000; stroke-linejoin: miter"/>
   </g>
   <g id="line2d_125">
    <path d="M 621.118298 374.737182 
L 621.118298 374.737182 
" clip-path="url(#pd3225aecc9)" style="fill: none; stroke: #000000; stroke-linecap: round"/>
   </g>
   <g id="line2d_126">
    <path d="M 621.118298 374.737182 
L 621.118298 374.737182 
" clip-path="url(#pd3225aecc9)" style="fill: none; stroke: #000000; stroke-linecap: round"/>
   </g>
   <g id="line2d_127">
    <path d="M 619.236787 374.737182 
L 622.999809 374.737182 
" clip-path="url(#pd3225aecc9)" style="fill: none; stroke: #000000; stroke-linecap: round"/>
   </g>
   <g id="line2d_128">
    <path d="M 619.236787 374.737182 
L 622.999809 374.737182 
" clip-path="url(#pd3225aecc9)" style="fill: none; stroke: #000000; stroke-linecap: round"/>
   </g>
   <g id="line2d_129">
    <path d="M 40.358681 323.392737 
L 47.884723 323.392737 
" clip-path="url(#pd3225aecc9)" style="fill: none; stroke: #000000"/>
   </g>
   <g id="line2d_130">
    <path d="M 52.902085 325.327532 
L 60.428128 325.327532 
" clip-path="url(#pd3225aecc9)" style="fill: none; stroke: #000000"/>
   </g>
   <g id="line2d_131">
    <path d="M 77.988894 328.579819 
L 85.514936 328.579819 
" clip-path="url(#pd3225aecc9)" style="fill: none; stroke: #000000"/>
   </g>
   <g id="line2d_132">
    <path d="M 90.532298 330.185073 
L 98.05834 330.185073 
" clip-path="url(#pd3225aecc9)" style="fill: none; stroke: #000000"/>
   </g>
   <g id="line2d_133">
    <path d="M 115.619106 312.46498 
L 123.145149 312.46498 
" clip-path="url(#pd3225aecc9)" style="fill: none; stroke: #000000"/>
   </g>
   <g id="line2d_134">
    <path d="M 128.162511 318.521464 
L 135.688553 318.521464 
" clip-path="url(#pd3225aecc9)" style="fill: none; stroke: #000000"/>
   </g>
   <g id="line2d_135">
    <path d="M 153.249319 305.845854 
L 160.775362 305.845854 
" clip-path="url(#pd3225aecc9)" style="fill: none; stroke: #000000"/>
   </g>
   <g id="line2d_136">
    <path d="M 165.792723 308.75255 
L 173.318766 308.75255 
" clip-path="url(#pd3225aecc9)" style="fill: none; stroke: #000000"/>
   </g>
   <g id="line2d_137">
    <path d="M 190.879532 309.328462 
L 198.405574 309.328462 
" clip-path="url(#pd3225aecc9)" style="fill: none; stroke: #000000"/>
   </g>
   <g id="line2d_138">
    <path d="M 203.422936 308.007815 
L 210.948979 308.007815 
" clip-path="url(#pd3225aecc9)" style="fill: none; stroke: #000000"/>
   </g>
   <g id="line2d_139">
    <path d="M 228.509745 318.034128 
L 236.035787 318.034128 
" clip-path="url(#pd3225aecc9)" style="fill: none; stroke: #000000"/>
   </g>
   <g id="line2d_140">
    <path d="M 241.053149 317.156215 
L 248.579191 317.156215 
" clip-path="url(#pd3225aecc9)" style="fill: none; stroke: #000000"/>
   </g>
   <g id="line2d_141">
    <path d="M 266.139957 270.814492 
L 273.666 270.814492 
" clip-path="url(#pd3225aecc9)" style="fill: none; stroke: #000000"/>
   </g>
   <g id="line2d_142">
    <path d="M 278.683362 273.208777 
L 286.209404 273.208777 
" clip-path="url(#pd3225aecc9)" style="fill: none; stroke: #000000"/>
   </g>
   <g id="line2d_143">
    <path d="M 303.77017 293.691117 
L 311.296213 293.691117 
" clip-path="url(#pd3225aecc9)" style="fill: none; stroke: #000000"/>
   </g>
   <g id="line2d_144">
    <path d="M 316.313574 294.272355 
L 323.839617 294.272355 
" clip-path="url(#pd3225aecc9)" style="fill: none; stroke: #000000"/>
   </g>
   <g id="line2d_145">
    <path d="M 341.400383 331.230408 
L 348.926426 331.230408 
" clip-path="url(#pd3225aecc9)" style="fill: none; stroke: #000000"/>
   </g>
   <g id="line2d_146">
    <path d="M 353.943787 331.538533 
L 361.46983 331.538533 
" clip-path="url(#pd3225aecc9)" style="fill: none; stroke: #000000"/>
   </g>
   <g id="line2d_147">
    <path d="M 379.030596 260.202928 
L 386.556638 260.202928 
" clip-path="url(#pd3225aecc9)" style="fill: none; stroke: #000000"/>
   </g>
   <g id="line2d_148">
    <path d="M 391.574 261.42928 
L 399.100043 261.42928 
" clip-path="url(#pd3225aecc9)" style="fill: none; stroke: #000000"/>
   </g>
   <g id="line2d_149">
    <path d="M 416.660809 316.611785 
L 424.186851 316.611785 
" clip-path="url(#pd3225aecc9)" style="fill: none; stroke: #000000"/>
   </g>
   <g id="line2d_150">
    <path d="M 429.204213 320.690818 
L 436.730255 320.690818 
" clip-path="url(#pd3225aecc9)" style="fill: none; stroke: #000000"/>
   </g>
   <g id="line2d_151">
    <path d="M 454.291021 197.934793 
L 461.817064 197.934793 
" clip-path="url(#pd3225aecc9)" style="fill: none; stroke: #000000"/>
   </g>
   <g id="line2d_152">
    <path d="M 466.834426 211.198562 
L 474.360468 211.198562 
" clip-path="url(#pd3225aecc9)" style="fill: none; stroke: #000000"/>
   </g>
   <g id="line2d_153">
    <path d="M 491.921234 210.691688 
L 499.447277 210.691688 
" clip-path="url(#pd3225aecc9)" style="fill: none; stroke: #000000"/>
   </g>
   <g id="line2d_154">
    <path clip-path="url(#pd3225aecc9)" style="fill: none; stroke: #000000"/>
   </g>
   <g id="line2d_155">
    <path d="M 529.551447 322.590086 
L 537.077489 322.590086 
" clip-path="url(#pd3225aecc9)" style="fill: none; stroke: #000000"/>
   </g>
   <g id="line2d_156">
    <path d="M 542.094851 325.975598 
L 549.620894 325.975598 
" clip-path="url(#pd3225aecc9)" style="fill: none; stroke: #000000"/>
   </g>
   <g id="line2d_157">
    <path d="M 567.18166 311.666139 
L 574.707702 311.666139 
" clip-path="url(#pd3225aecc9)" style="fill: none; stroke: #000000"/>
   </g>
   <g id="line2d_158">
    <path d="M 579.725064 312.279953 
L 587.251106 312.279953 
" clip-path="url(#pd3225aecc9)" style="fill: none; stroke: #000000"/>
   </g>
   <g id="line2d_159">
    <path d="M 604.811872 374.543571 
L 612.337915 374.543571 
" clip-path="url(#pd3225aecc9)" style="fill: none; stroke: #000000"/>
   </g>
   <g id="line2d_160">
    <path d="M 617.355277 374.737182 
L 624.881319 374.737182 
" clip-path="url(#pd3225aecc9)" style="fill: none; stroke: #000000"/>
   </g>
   <g id="patch_35">
    <path d="M 37.85 399.46 
L 37.85 16.92 
" style="fill: none; stroke: #262626; stroke-width: 1.25; stroke-linejoin: miter; stroke-linecap: square"/>
   </g>
   <g id="patch_36">
    <path d="M 627.39 399.46 
L 627.39 16.92 
" style="fill: none; stroke: #262626; stroke-width: 1.25; stroke-linejoin: miter; stroke-linecap: square"/>
   </g>
   <g id="patch_37">
    <path d="M 37.85 399.46 
L 627.39 399.46 
" style="fill: none; stroke: #262626; stroke-width: 1.25; stroke-linejoin: miter; stroke-linecap: square"/>
   </g>
   <g id="patch_38">
    <path d="M 37.85 16.92 
L 627.39 16.92 
" style="fill: none; stroke: #262626; stroke-width: 1.25; stroke-linejoin: miter; stroke-linecap: square"/>
   </g>
   <g id="legend_1">
    <g id="patch_39">
     <path d="M 50.45 82.243125 
L 171.058437 82.243125 
Q 174.658437 82.243125 174.658437 78.643125 
L 174.658437 29.52 
Q 174.658437 25.92 171.058437 25.92 
L 50.45 25.92 
Q 46.85 25.92 46.85 29.52 
L 46.85 78.643125 
Q 46.85 82.243125 50.45 82.243125 
z
" style="fill: #ffffff; opacity: 0.8; stroke: #cccccc; stroke-linejoin: miter"/>
    </g>
    <g id="patch_40">
     <path d="M 54.05 46.004063 
L 90.05 46.004063 
L 90.05 33.404063 
L 54.05 33.404063 
z
" style="fill: #ffffff; stroke: #000000; stroke-linejoin: miter"/>
    </g>
    <g id="text_24">
     <!-- RNN v1 -->
     <g style="fill: #262626" transform="translate(104.45 46.004063) scale(0.18 -0.18)">
      <defs>
       <path id="ArialMT-52" d="M 503 0 
L 503 4581 
L 2534 4581 
Q 3147 4581 3465 4457 
Q 3784 4334 3975 4021 
Q 4166 3709 4166 3331 
Q 4166 2844 3850 2509 
Q 3534 2175 2875 2084 
Q 3116 1969 3241 1856 
Q 3506 1613 3744 1247 
L 4541 0 
L 3778 0 
L 3172 953 
Q 2906 1366 2734 1584 
Q 2563 1803 2427 1890 
Q 2291 1978 2150 2013 
Q 2047 2034 1813 2034 
L 1109 2034 
L 1109 0 
L 503 0 
z
M 1109 2559 
L 2413 2559 
Q 2828 2559 3062 2645 
Q 3297 2731 3419 2920 
Q 3541 3109 3541 3331 
Q 3541 3656 3305 3865 
Q 3069 4075 2559 4075 
L 1109 4075 
L 1109 2559 
z
" transform="scale(0.015625)"/>
       <path id="ArialMT-4e" d="M 488 0 
L 488 4581 
L 1109 4581 
L 3516 984 
L 3516 4581 
L 4097 4581 
L 4097 0 
L 3475 0 
L 1069 3600 
L 1069 0 
L 488 0 
z
" transform="scale(0.015625)"/>
       <path id="ArialMT-76" d="M 1344 0 
L 81 3319 
L 675 3319 
L 1388 1331 
Q 1503 1009 1600 663 
Q 1675 925 1809 1294 
L 2547 3319 
L 3125 3319 
L 1869 0 
L 1344 0 
z
" transform="scale(0.015625)"/>
      </defs>
      <use xlink:href="#ArialMT-52"/>
      <use xlink:href="#ArialMT-4e" x="72.216797"/>
      <use xlink:href="#ArialMT-4e" x="144.433594"/>
      <use xlink:href="#ArialMT-20" x="216.650391"/>
      <use xlink:href="#ArialMT-76" x="244.433594"/>
      <use xlink:href="#ArialMT-31" x="294.433594"/>
     </g>
    </g>
    <g id="patch_41">
     <path d="M 54.05 71.465625 
L 90.05 71.465625 
L 90.05 58.865625 
L 54.05 58.865625 
z
" style="opacity: 0.6; stroke: #000000; stroke-linejoin: miter"/>
    </g>
    <g id="text_25">
     <!-- CNN v2 -->
     <g style="fill: #262626" transform="translate(104.45 71.465625) scale(0.18 -0.18)">
      <use xlink:href="#ArialMT-43"/>
      <use xlink:href="#ArialMT-4e" x="72.216797"/>
      <use xlink:href="#ArialMT-4e" x="144.433594"/>
      <use xlink:href="#ArialMT-20" x="216.650391"/>
      <use xlink:href="#ArialMT-76" x="244.433594"/>
      <use xlink:href="#ArialMT-32" x="294.433594"/>
     </g>
    </g>
   </g>
  </g>
 </g>
 <defs>
  <clipPath id="pd3225aecc9">
   <rect x="37.85" y="16.92" width="589.54" height="382.54"/>
  </clipPath>
 </defs>
</svg>
